<?xml version="1.0" standalone="no"?>
<!DOCTYPE svg PUBLIC "-//W3C//DTD SVG 1.1//EN" "http://www.w3.org/Graphics/SVG/1.1/DTD/svg11.dtd" >
<svg>
<metadata>
Created by FontForge 20090622 at Wed Oct  7 02:49:12 2020
 By deploy user
</metadata>
<defs>
<font id="NotoSansCJKjp-Medium" horiz-adv-x="1000" >
  <font-face 
    font-family="NotoSansCJKjp-Medium"
    font-weight="500"
    font-stretch="normal"
    units-per-em="1000"
    panose-1="2 0 6 3 0 0 0 0 0 0"
    ascent="800"
    descent="-200"
    x-height="550"
    cap-height="736"
    bbox="-48 -281 1000 967"
    underline-thickness="50"
    underline-position="-100"
    unicode-range="U+0020-U+FFE5"
  />
<missing-glyph 
 />
    <glyph glyph-name=".notdef" 
 />
    <glyph glyph-name=".null" horiz-adv-x="0" 
 />
    <glyph glyph-name="nonmarkingreturn" horiz-adv-x="333" 
 />
    <glyph glyph-name="Identity.1" unicode=" " horiz-adv-x="225" 
 />
    <glyph glyph-name="Identity.2" unicode="!" horiz-adv-x="343" 
d="M133 235l-16 400l-3 118h116l-4 -118l-16 -400h-77zM171 -13q-33 0 -54.5 22.5t-21.5 57.5t22 58.5t54 23.5q33 0 55.5 -23.5t22.5 -58.5t-22.5 -57.5t-55.5 -22.5z" />
    <glyph glyph-name="Identity.3" unicode="#" horiz-adv-x="570" 
d="M100 0l27 224h-87v77h96l19 153h-93v77h102l26 200h70l-24 -200h138l26 200h71l-25 -200h90v-77h-99l-19 -153h95v-77h-104l-27 -224h-72l27 224h-138l-28 -224h-71zM207 301h139l19 153h-139z" />
    <glyph glyph-name="Identity.4" unicode="$" horiz-adv-x="570" 
d="M489 641l-60 -67q-34 32 -63 46.5t-69 14.5q-48 0 -76 -25.5t-28 -71.5q0 -40 32 -69t77.5 -49.5t90.5 -45.5t77 -70.5t32 -110.5q0 -81 -46 -134.5t-128 -67.5v-114h-80v111q-52 5 -104 28.5t-90 57.5l52 79q87 -72 169 -72q57 0 86.5 27t29.5 77q0 38 -23 67.5t-57 47
l-74.5 40t-74.5 44.5t-57 60.5t-23 88.5q0 77 45 129t121 65v113h80v-112q89 -11 161 -87z" />
    <glyph glyph-name="Identity.5" unicode="%" horiz-adv-x="939" 
d="M208 284q-78 0 -125 62t-47 172q0 109 47 170.5t125 61.5q79 0 126 -61.5t47 -170.5t-47.5 -171.5t-125.5 -62.5zM208 352q41 0 65 42t24 124t-24 123t-65 41q-40 0 -64 -41t-24 -123t24 -124t64 -42zM231 -13l403 763h73l-404 -763h-72zM731 -13q-79 0 -126 62t-47 171
t47 170.5t126 61.5q78 0 125 -61.5t47 -170.5t-47 -171t-125 -62zM731 54q40 0 64 42t24 124t-24 123t-64 41q-41 0 -65 -41t-24 -123t24 -124t65 -42z" />
    <glyph glyph-name="Identity.6" unicode="&#x26;" horiz-adv-x="705" 
d="M144 199q0 -54 38 -88t96 -34q64 0 127 50q-111 95 -182 199q-79 -67 -79 -127zM225 571q0 -51 31 -116q57 37 86.5 68.5t29.5 73.5q0 32 -16 52.5t-48 20.5q-37 0 -60 -27.5t-23 -71.5zM687 81l-29 -94q-84 20 -175 81q-94 -81 -219 -81q-104 0 -167 58t-63 147
q0 69 37.5 118.5t104.5 93.5q-48 93 -48 166q0 77 49.5 128.5t129.5 51.5q72 0 114 -42t42 -110q0 -35 -12.5 -65.5t-40 -58.5t-49.5 -46t-61 -46q71 -100 175 -183q66 86 99 204h106q-44 -149 -128 -259q75 -48 135 -63z" />
    <glyph glyph-name="Identity.7" unicode="'" horiz-adv-x="298" 
d="M115 458l-23 199l-3 118h119l-3 -118l-23 -199h-67z" />
    <glyph glyph-name="Identity.8" unicode="(" horiz-adv-x="355" 
d="M237 -199q-148 242 -148 512q0 271 148 511l72 -31q-126 -211 -126 -480q0 -270 126 -480z" />
    <glyph glyph-name="Identity.9" unicode=")" horiz-adv-x="355" 
d="M118 -199l-72 32q126 210 126 480q0 269 -126 480l72 31q149 -239 149 -511q0 -271 -149 -512z" />
    <glyph glyph-name="Identity.10" unicode="*" horiz-adv-x="484" 
d="M159 448l-52 38l64 109l-113 48l20 61l120 -29l11 126h65l11 -125l120 28l20 -61l-113 -48l65 -109l-52 -38l-83 97z" />
    <glyph glyph-name="Identity.11" unicode="+" horiz-adv-x="570" 
d="M241 113v216h-203v84h203v216h88v-216h203v-84h-203v-216h-88z" />
    <glyph glyph-name="Identity.12" unicode="," horiz-adv-x="298" 
d="M79 -200l-26 65q51 21 79.5 57t29.5 80q-4 -1 -11 -1q-32 0 -54.5 19.5t-22.5 54.5q0 33 23 53.5t57 20.5q42 0 65.5 -33t23.5 -91q0 -78 -43 -137t-121 -88z" />
    <glyph glyph-name="Identity.13" unicode="-" horiz-adv-x="357" 
d="M47 240v85h264v-85h-264z" />
    <glyph glyph-name="Identity.14" unicode="." horiz-adv-x="298" 
d="M149 -13q-33 0 -55 22.5t-22 57.5t22.5 58.5t54.5 23.5t54.5 -23.5t22.5 -58.5t-22 -57.5t-55 -22.5z" />
    <glyph glyph-name="Identity.15" unicode="/" horiz-adv-x="390" 
d="M12 -180l278 978h80l-278 -978h-80z" />
    <glyph glyph-name="Identity.16" unicode="0" horiz-adv-x="570" 
d="M285 -13q-111 0 -174.5 98t-63.5 286q0 187 63 283t175 96q111 0 174.5 -96.5t63.5 -282.5q0 -188 -63.5 -286t-174.5 -98zM285 78q128 0 128 293q0 288 -128 288t-128 -288q0 -293 128 -293z" />
    <glyph glyph-name="Identity.17" unicode="1" horiz-adv-x="570" 
d="M86 0v95h161v512h-132v73q100 19 160 56h87v-641h144v-95h-420z" />
    <glyph glyph-name="Identity.18" unicode="2" horiz-adv-x="570" 
d="M44 0v67q168 148 248.5 258t80.5 198q0 62 -32.5 98.5t-92.5 36.5q-74 0 -145 -82l-65 64q51 55 103.5 82.5t120.5 27.5q101 0 161.5 -60.5t60.5 -160.5t-70.5 -207.5t-198.5 -230.5q67 7 120 7h184v-98h-475z" />
    <glyph glyph-name="Identity.19" unicode="3" horiz-adv-x="570" 
d="M268 -13q-150 0 -240 101l56 74q79 -81 174 -81q63 0 101.5 33t38.5 89q0 66 -50 100.5t-168 34.5v85q193 0 193 129q0 49 -30.5 77.5t-82.5 29.5q-77 -1 -147 -70l-60 72q99 89 211 89q101 0 163 -50t62 -140q0 -62 -33.5 -106.5t-93.5 -66.5v-5q67 -17 109.5 -65
t42.5 -119q0 -97 -70.5 -154t-175.5 -57z" />
    <glyph glyph-name="Identity.20" unicode="4" horiz-adv-x="570" 
d="M136 287h202v193q0 22 6 142h-4q-25 -52 -59 -113zM540 287v-89h-94v-198h-108v198h-318v77l293 461h133v-449h94z" />
    <glyph glyph-name="Identity.21" unicode="5" horiz-adv-x="570" 
d="M268 -13q-141 0 -241 98l55 75q79 -79 172 -79q64 0 105 42.5t41 114.5t-38 113t-102 41q-54 0 -118 -42l-56 37l22 349h373v-97h-273l-17 -189q50 26 101 26q98 0 161 -59.5t63 -174.5q0 -117 -73 -186t-175 -69z" />
    <glyph glyph-name="Identity.22" unicode="6" horiz-adv-x="570" 
d="M306 75q49 0 81.5 41.5t32.5 111.5q0 72 -31 110t-90 38q-77 0 -137 -86q18 -215 144 -215zM515 671l-63 -70q-21 24 -52 39.5t-63 15.5q-77 0 -125 -66.5t-52 -214.5q32 39 76 62t84 23q96 0 151.5 -59t55.5 -173q0 -107 -64 -174t-156 -67q-111 0 -182.5 94t-71.5 273
q0 199 79.5 297.5t198.5 98.5q109 0 184 -79z" />
    <glyph glyph-name="Identity.23" unicode="7" horiz-adv-x="570" 
d="M193 0q10 207 54 350.5t148 288.5h-346v97h474v-70q-64 -80 -104 -152.5t-62.5 -155.5t-31.5 -161t-14 -197h-118z" />
    <glyph glyph-name="Identity.24" unicode="8" horiz-adv-x="570" 
d="M286 -13q-104 0 -172 55.5t-68 140.5q0 68 37.5 118t94.5 80v5q-99 70 -99 172q0 85 59 137.5t151 52.5q95 0 151.5 -54t56.5 -141q0 -52 -28.5 -98t-68.5 -75v-5q124 -71 124 -195q0 -83 -66.5 -138t-171.5 -55zM334 409q66 61 66 137q0 52 -30 85.5t-83 33.5
q-46 0 -75.5 -29t-29.5 -78q0 -55 39 -87.5t113 -61.5zM288 70q57 0 92 31t35 82q0 32 -12.5 57t-42.5 45t-54 31.5t-72 31.5q-86 -59 -86 -154q0 -54 40 -89t100 -35z" />
    <glyph glyph-name="Identity.25" unicode="9" horiz-adv-x="570" 
d="M269 360q78 0 140 90q-8 106 -46 158.5t-100 52.5q-49 0 -81 -41.5t-32 -111.5q0 -71 31 -109.5t88 -38.5zM55 65l62 71q48 -55 121 -55t120.5 67t52.5 215q-32 -40 -76 -63t-86 -23q-95 0 -150.5 59t-55.5 172q0 107 63.5 174.5t155.5 67.5q112 0 183.5 -91.5
t71.5 -265.5q0 -204 -78.5 -305t-195.5 -101q-112 0 -188 78z" />
    <glyph glyph-name="Identity.26" unicode=":" horiz-adv-x="298" 
d="M149 380q-32 0 -54.5 23t-22.5 57q0 35 22.5 58.5t54.5 23.5t54.5 -23.5t22.5 -58.5q0 -34 -22.5 -57t-54.5 -23zM149 -13q-33 0 -55 22.5t-22 57.5t22.5 58.5t54.5 23.5t54.5 -23.5t22.5 -58.5t-22 -57.5t-55 -22.5z" />
    <glyph glyph-name="Identity.27" unicode=";" horiz-adv-x="298" 
d="M149 380q-32 0 -54.5 23t-22.5 57q0 35 22.5 58.5t54.5 23.5t54.5 -23.5t22.5 -58.5q0 -34 -22.5 -57t-54.5 -23zM79 -200l-26 65q51 21 79.5 57t29.5 80q-4 -1 -11 -1q-32 0 -54.5 19.5t-22.5 54.5q0 33 23 53.5t57 20.5q42 0 65.5 -33t23.5 -91q0 -78 -43 -137
t-121 -88z" />
    <glyph glyph-name="Identity.28" unicode="&#x3c;" horiz-adv-x="570" 
d="M532 138l-494 192v86l494 193v-98l-225 -80l-151 -56v-4l151 -55l225 -81v-97z" />
    <glyph glyph-name="Identity.29" unicode="=" horiz-adv-x="570" 
d="M38 453v84h494v-84h-494zM38 205v84h494v-84h-494z" />
    <glyph glyph-name="Identity.30" unicode="&#x3e;" horiz-adv-x="570" 
d="M38 138v97l225 81l152 55v4l-152 56l-225 80v98l494 -193v-86z" />
    <glyph glyph-name="Identity.31" unicode="?" horiz-adv-x="491" 
d="M178 235q-7 47 6 89t36.5 73t47.5 59.5t42 59.5t18 60q0 43 -26 70t-72 27q-67 0 -121 -61l-65 59q84 96 199 96q89 0 143 -48.5t54 -134.5q0 -40 -18 -77t-43.5 -66.5l-50 -59.5t-39.5 -67.5t-10 -78.5h-101zM230 -13q-33 0 -55 22.5t-22 57.5t22 58.5t55 23.5
q32 0 54.5 -23.5t22.5 -58.5t-22 -57.5t-55 -22.5z" />
    <glyph glyph-name="Identity.32" unicode="@" horiz-adv-x="972" 
d="M462 -180q-113 0 -203.5 45t-146.5 139t-56 225q0 112 39 207.5t104.5 160.5t153 101.5t184.5 36.5q173 0 276 -105.5t103 -276.5q0 -139 -73 -220t-162 -81q-48 0 -81 22t-39 63h-3q-27 -34 -64 -55t-72 -21q-62 0 -101 43.5t-39 118.5q0 99 63.5 182t156.5 83
q60 0 89 -55h2l14 46h74l-47 -231q-29 -121 58 -121q56 0 101 62t45 160q0 139 -79.5 225.5t-230.5 86.5q-74 0 -144.5 -31t-125 -85.5t-87.5 -136.5t-33 -176q0 -160 93.5 -249t239.5 -89q94 0 178 48l29 -66q-99 -56 -216 -56zM445 136q44 0 95 62l30 171q-25 42 -66 42
q-57 0 -94.5 -58t-37.5 -124q0 -47 20 -70t53 -23z" />
    <glyph glyph-name="Identity.33" unicode="A" horiz-adv-x="622" 
d="M208 301h201l-29 99q-19 60 -70 245h-4q-28 -110 -68 -245zM499 0l-62 210h-256l-63 -210h-118l244 736h134l244 -736h-123z" />
    <glyph glyph-name="Identity.34" unicode="B" horiz-adv-x="667" 
d="M97 0v736h228q260 0 260 -181q0 -54 -28.5 -98.5t-76.5 -60.5v-5q66 -14 105.5 -58.5t39.5 -116.5q0 -106 -77.5 -161t-204.5 -55h-246zM213 429h99q159 0 159 111q0 57 -38 81.5t-118 24.5h-102v-217zM213 91h117q181 0 181 131q0 119 -181 119h-117v-250z" />
    <glyph glyph-name="Identity.35" unicode="C" horiz-adv-x="646" 
d="M384 -13q-143 0 -235 101.5t-92 277.5t94.5 280t237.5 104q124 0 209 -93l-63 -74q-64 66 -144 66q-96 0 -155.5 -75.5t-59.5 -203.5q0 -131 57 -206.5t155 -75.5q91 0 163 78l62 -73q-92 -106 -229 -106z" />
    <glyph glyph-name="Identity.36" unicode="D" horiz-adv-x="699" 
d="M97 0v736h191q171 0 263 -93t92 -272q0 -178 -91.5 -274.5t-257.5 -96.5h-197zM213 95h67q119 0 181 69.5t62 206.5q0 271 -243 271h-67v-547z" />
    <glyph glyph-name="Identity.37" unicode="E" horiz-adv-x="600" 
d="M97 0v736h435v-97h-319v-205h270v-98h-270v-238h330v-98h-446z" />
    <glyph glyph-name="Identity.38" unicode="F" horiz-adv-x="566" 
d="M97 0v736h436v-97h-320v-225h272v-97h-272v-317h-116z" />
    <glyph glyph-name="Identity.39" unicode="G" horiz-adv-x="701" 
d="M397 -13q-151 0 -245.5 101t-94.5 278q0 176 96.5 280t246.5 104q130 0 219 -93l-63 -74q-64 66 -152 66q-104 0 -166 -75t-62 -204q0 -133 60 -207.5t173 -74.5q75 0 116 36v173h-146v95h251v-319q-39 -39 -99.5 -62.5t-133.5 -23.5z" />
    <glyph glyph-name="Identity.40" unicode="H" horiz-adv-x="740" 
d="M97 0v736h116v-300h315v300h116v-736h-116v335h-315v-335h-116z" />
    <glyph glyph-name="Identity.41" unicode="I" horiz-adv-x="309" 
d="M97 0v736h116v-736h-116z" />
    <glyph glyph-name="Identity.42" unicode="J" horiz-adv-x="550" 
d="M243 -13q-144 0 -213 122l81 59q44 -80 119 -80q57 0 84 34.5t27 113.5v500h116v-511q0 -106 -53.5 -172t-160.5 -66z" />
    <glyph glyph-name="Identity.43" unicode="K" horiz-adv-x="663" 
d="M97 0v736h116v-348h3l280 348h129l-228 -284l266 -452h-129l-208 360l-113 -138v-222h-116z" />
    <glyph glyph-name="Identity.44" unicode="L" horiz-adv-x="557" 
d="M97 0v736h116v-638h311v-98h-427z" />
    <glyph glyph-name="Identity.45" unicode="M" horiz-adv-x="830" 
d="M97 0v736h133l135 -372l25 -76t24 -73h5l23.5 73.5t24.5 75.5l133 372h134v-736h-108v364q0 60 15 228h-4l-59 -170l-128 -351h-72l-129 351l-58 170h-4q14 -188 14 -228v-364h-104z" />
    <glyph glyph-name="Identity.46" unicode="N" horiz-adv-x="734" 
d="M97 0v736h119l244 -432l77 -156h5q-15 190 -15 245v343h110v-736h-119l-244 434l-77 154h-5q15 -190 15 -241v-347h-110z" />
    <glyph glyph-name="Identity.47" unicode="O" horiz-adv-x="754" 
d="M377 -13q-143 0 -231.5 104t-88.5 280q0 175 88 277t232 102t232.5 -102t88.5 -277q0 -176 -89 -280t-232 -104zM377 88q92 0 147 77t55 206t-55 203.5t-147 74.5t-146.5 -74.5t-54.5 -203.5q0 -130 54.5 -206.5t146.5 -76.5z" />
    <glyph glyph-name="Identity.48" unicode="P" horiz-adv-x="647" 
d="M97 0v736h223q281 0 281 -222q0 -116 -75.5 -175.5t-201.5 -59.5h-111v-279h-116zM213 372h100q89 0 131.5 34.5t42.5 107.5q0 70 -43.5 99.5t-134.5 29.5h-96v-271z" />
    <glyph glyph-name="Identity.49" unicode="Q" horiz-adv-x="754" 
d="M176 371q0 -133 54.5 -211t146.5 -78t147 78t55 211q0 129 -55 203.5t-147 74.5t-146.5 -74.5t-54.5 -203.5zM699 -85l22 -87q-41 -19 -113 -19q-103 0 -177 49.5t-109 132.5q-121 21 -193 121.5t-72 258.5q0 175 88 277t232 102t232.5 -102t88.5 -277q0 -153 -68.5 -253
t-183.5 -124q48 -90 175 -90q41 0 78 11z" />
    <glyph glyph-name="Identity.50" unicode="R" horiz-adv-x="655" 
d="M213 643v-253h111q165 0 165 133q0 65 -41 92.5t-124 27.5h-111zM630 0h-131l-167 297h-119v-297h-116v736h241q266 0 266 -213q0 -163 -154 -211z" />
    <glyph glyph-name="Identity.51" unicode="S" horiz-adv-x="608" 
d="M307 -13q-156 0 -262 108l68 80q87 -87 196 -87q66 0 102.5 28.5t36.5 75.5q0 24 -7.5 41.5t-27.5 32t-34.5 22t-48.5 22.5l-102 44q-150 63 -150 193q0 87 68.5 145t173.5 58q132 0 223 -93l-61 -74q-74 66 -162 66q-57 0 -90.5 -25.5t-33.5 -69.5q0 -23 9 -40t29 -30.5
t35.5 -21t45.5 -19.5l101 -43q72 -31 111 -77t39 -122q0 -91 -70.5 -152.5t-188.5 -61.5z" />
    <glyph glyph-name="Identity.52" unicode="T" horiz-adv-x="610" 
d="M247 0v639h-216v97h549v-97h-217v-639h-116z" />
    <glyph glyph-name="Identity.53" unicode="U" horiz-adv-x="733" 
d="M367 -13q-274 0 -274 329v420h116v-428q0 -220 158 -220q161 0 161 220v428h112v-420q0 -329 -273 -329z" />
    <glyph glyph-name="Identity.54" unicode="V" horiz-adv-x="594" 
d="M229 0l-231 736h123l109 -381q12 -39 32.5 -117.5t34.5 -123.5h5q14 47 35.5 126l31.5 115l109 381h118l-230 -736h-137z" />
    <glyph glyph-name="Identity.55" unicode="W" horiz-adv-x="894" 
d="M173 0l-151 736h120l69 -383l39 -236h4l50 236l95 383h102l96 -383l28.5 -133.5l21.5 -102.5h5l20.5 132.5l16.5 103.5l70 383h111l-145 -736h-143l-99 409q-19 84 -34 169h-5q-6 -34 -34 -169l-97 -409h-140z" />
    <glyph glyph-name="Identity.56" unicode="X" horiz-adv-x="596" 
d="M16 0l211 380l-198 356h129l89 -172l56 -111h5q35 81 50 111l87 172h122l-198 -362l212 -374h-129l-97 183l-30 59l-31 61h-4q-32 -70 -57 -120l-94 -183h-123z" />
    <glyph glyph-name="Identity.57" unicode="Y" horiz-adv-x="553" 
d="M218 0v279l-221 457h124l85 -195q49 -118 69 -162h4q5 13 31 71.5t39 90.5l86 195h121l-222 -457v-279h-116z" />
    <glyph glyph-name="Identity.58" unicode="Z" horiz-adv-x="607" 
d="M47 0v70l369 569h-335v97h478v-69l-368 -569h372v-98h-516z" />
    <glyph glyph-name="Identity.59" unicode="[" horiz-adv-x="355" 
d="M104 -171v967h211v-63h-125v-840h125v-64h-211z" />
    <glyph glyph-name="Identity.60" unicode="\" horiz-adv-x="390" 
d="M298 -180l-278 978h80l278 -978h-80z" />
    <glyph glyph-name="Identity.61" unicode="]" horiz-adv-x="355" 
d="M40 -171v64h125v840h-125v63h212v-967h-212z" />
    <glyph glyph-name="Identity.62" unicode="^" horiz-adv-x="570" 
d="M64 316l172 437h98l172 -437h-98l-67 181l-54 151h-5l-53 -151l-67 -181h-98z" />
    <glyph glyph-name="Identity.63" unicode="_" horiz-adv-x="562" 
d="M13 -146v71h536v-71h-536z" />
    <glyph glyph-name="Identity.64" unicode="`" horiz-adv-x="614" 
d="M315 644l-186 173l80 77l164 -193z" />
    <glyph glyph-name="Identity.65" unicode="a" horiz-adv-x="575" 
d="M217 -13q-72 0 -117 43.5t-45 115.5q0 88 78.5 136.5t250.5 67.5q-2 120 -105 120q-71 0 -159 -56l-43 78q114 72 222 72q101 0 150.5 -60.5t49.5 -172.5v-331h-94l-10 63h-3q-88 -76 -175 -76zM252 78q62 0 132 64v135q-118 -14 -168 -44.5t-50 -78.5q0 -39 23.5 -57.5
t62.5 -18.5z" />
    <glyph glyph-name="Identity.66" unicode="b" horiz-adv-x="629" 
d="M343 -13q-79 0 -152 70h-3l-11 -57h-90v797h114v-211l-3 -94q83 72 164 72q103 0 160.5 -76t57.5 -204q0 -136 -69.5 -216.5t-167.5 -80.5zM321 82q62 0 101 53t39 147q0 186 -129 186q-63 0 -131 -67v-269q57 -50 120 -50z" />
    <glyph glyph-name="Identity.67" unicode="c" horiz-adv-x="517" 
d="M311 -13q-115 0 -189 77t-74 210t79 211.5t193 78.5q89 0 161 -63l-57 -75q-48 43 -99 43q-69 0 -113.5 -54t-44.5 -141t43 -140t112 -53q61 0 120 50l47 -76q-76 -68 -178 -68z" />
    <glyph glyph-name="Identity.68" unicode="d" horiz-adv-x="630" 
d="M277 -13q-105 0 -166 76t-61 211q0 130 70 210t166 80q75 0 148 -62l-5 91v204h115v-797h-94l-10 62h-3q-73 -75 -160 -75zM304 82q67 0 125 67v269q-55 50 -121 50q-59 0 -99 -52.5t-40 -139.5q0 -93 35 -143.5t100 -50.5z" />
    <glyph glyph-name="Identity.69" unicode="e" horiz-adv-x="565" 
d="M316 -13q-115 0 -191.5 77.5t-76.5 209.5q0 129 75 209.5t176 80.5q107 0 165.5 -70.5t58.5 -190.5q0 -36 -5 -58h-357q7 -78 52.5 -123t117.5 -45q68 0 131 41l40 -73q-87 -58 -186 -58zM160 324h264q0 72 -31.5 111t-91.5 39q-54 0 -93.5 -40t-47.5 -110z" />
    <glyph glyph-name="Identity.70" unicode="f" horiz-adv-x="345" 
d="M377 791l-23 -86q-31 14 -60 14q-73 0 -73 -99v-70h111v-92h-111v-458h-115v458h-75v86l75 6v69q0 89 42.5 140t131.5 51q54 0 97 -19z" />
    <glyph glyph-name="Identity.71" unicode="g" horiz-adv-x="578" 
d="M275 -247q-103 0 -165.5 37.5t-62.5 107.5q0 71 80 120v5q-50 30 -50 91q0 57 61 102v4q-31 24 -51.5 62t-20.5 84q0 91 62 144.5t151 53.5q43 0 80 -14h195v-86h-105q36 -38 36 -101q0 -87 -58.5 -138t-147.5 -51q-40 0 -77 17q-30 -27 -30 -58q0 -54 92 -54h101
q198 0 198 -134q0 -82 -79.5 -137t-208.5 -55zM279 248q44 0 74 32.5t30 85.5q0 54 -29.5 85.5t-74.5 31.5t-74.5 -31t-29.5 -86q0 -53 30 -85.5t74 -32.5zM292 -171q70 0 115 29t45 69q0 33 -25 46.5t-78 13.5h-83q-37 0 -74 8q-47 -34 -47 -80q0 -40 39.5 -63t107.5 -23z
" />
    <glyph glyph-name="Identity.72" unicode="h" horiz-adv-x="621" 
d="M87 0v797h114v-211l-4 -109q91 87 178 87q169 0 169 -218v-346h-115v332q0 71 -22 102t-71 31q-36 0 -65.5 -17.5t-69.5 -57.5v-390h-114z" />
    <glyph glyph-name="Identity.73" unicode="i" horiz-adv-x="287" 
d="M87 0v550h114v-550h-114zM144 653q-32 0 -52.5 19t-20.5 49t20.5 49t52.5 19t53 -19t21 -49t-21 -49t-53 -19z" />
    <glyph glyph-name="Identity.74" unicode="j" horiz-adv-x="288" 
d="M37 -237q-48 0 -85 15l21 86q34 -9 49 -9q37 0 51.5 25t14.5 77v593h115v-591q0 -196 -166 -196zM145 653q-32 0 -52.5 19t-20.5 49t20.5 49t52.5 19t53 -19t21 -49t-21 -49t-53 -19z" />
    <glyph glyph-name="Identity.75" unicode="k" horiz-adv-x="575" 
d="M87 0v797h112v-514h3l216 267h127l-187 -223l208 -327h-125l-149 249l-93 -107v-142h-112z" />
    <glyph glyph-name="Identity.76" unicode="l" horiz-adv-x="298" 
d="M201 -13q-114 0 -114 142v668h114v-674q0 -42 28 -42q9 0 19 2l15 -87q-25 -9 -62 -9z" />
    <glyph glyph-name="Identity.77" unicode="m" horiz-adv-x="942" 
d="M87 0v550h94l9 -77h3q86 91 170 91q114 0 152 -101q94 101 179 101q169 0 169 -218v-346h-115v332q0 70 -22.5 101.5t-69.5 31.5q-55 0 -124 -75v-390h-115v332q0 71 -22 102t-70 31q-55 0 -124 -75v-390h-114z" />
    <glyph glyph-name="Identity.78" unicode="n" horiz-adv-x="624" 
d="M87 0v550h94l9 -76h3q94 90 182 90q169 0 169 -218v-346h-115v332q0 71 -22 102t-71 31q-36 0 -65.5 -17.5t-69.5 -57.5v-390h-114z" />
    <glyph glyph-name="Identity.79" unicode="o" horiz-adv-x="614" 
d="M307 -13q-107 0 -183 78t-76 209q0 133 76 211.5t183 78.5t183 -78.5t76 -211.5q0 -131 -76 -209t-183 -78zM307 81q65 0 103 52.5t38 140.5t-38 141.5t-103 53.5q-64 0 -102 -53.5t-38 -141.5q0 -87 38 -140t102 -53z" />
    <glyph glyph-name="Identity.80" unicode="p" horiz-adv-x="630" 
d="M87 -223v773h94l9 -60h3q89 74 169 74q103 0 160.5 -75.5t57.5 -204.5q0 -136 -69.5 -216.5t-167.5 -80.5q-72 0 -145 62l3 -94v-178h-114zM321 82q62 0 101 53t39 147q0 186 -129 186q-61 0 -131 -67v-269q58 -50 120 -50z" />
    <glyph glyph-name="Identity.81" unicode="q" horiz-adv-x="630" 
d="M429 -223v187l5 95q-74 -72 -157 -72q-105 0 -166 76t-61 211q0 130 70 210t166 80q83 0 153 -67h4l10 53h91v-773h-115zM304 82q67 0 125 67v269q-55 50 -121 50q-59 0 -99 -52.5t-40 -139.5q0 -93 35 -143.5t100 -50.5z" />
    <glyph glyph-name="Identity.82" unicode="r" horiz-adv-x="409" 
d="M87 0v550h94l9 -99h3q29 53 70.5 83t85.5 30q37 0 62 -12l-21 -100q-29 9 -55 9q-37 0 -73 -28.5t-61 -89.5v-343h-114z" />
    <glyph glyph-name="Identity.83" unicode="s" horiz-adv-x="480" 
d="M236 -13q-115 0 -207 76l54 74q79 -63 156 -63q48 0 72.5 20.5t24.5 53.5q0 14 -8 27t-16.5 21t-29.5 18.5t-31 14.5t-37 14q-34 13 -56.5 24.5t-48.5 30.5t-39 45.5t-13 59.5q0 70 53 115.5t142 45.5q95 0 179 -65l-54 -71q-65 48 -123 48q-43 0 -65.5 -19t-22.5 -49
q0 -21 18 -38t33.5 -23.5t55.5 -21.5q7 -3 10 -4q38 -14 59.5 -24.5t49 -30t40.5 -47.5t13 -65q0 -72 -55.5 -119.5t-153.5 -47.5z" />
    <glyph glyph-name="Identity.84" unicode="t" horiz-adv-x="396" 
d="M272 -13q-167 0 -167 193v278h-80v86l85 6l13 152h97v-152h143v-92h-143v-279q0 -100 80 -100q29 0 59 13l21 -85q-62 -20 -108 -20z" />
    <glyph glyph-name="Identity.85" unicode="u" horiz-adv-x="620" 
d="M248 -13q-168 0 -168 217v346h115v-332q0 -71 21.5 -101.5t70.5 -30.5q38 0 67.5 19t64.5 63v382h115v-550h-94l-9 83h-3q-83 -96 -180 -96z" />
    <glyph glyph-name="Identity.86" unicode="v" horiz-adv-x="545" 
d="M208 0l-195 550h118l94 -296l48 -164h4l48 164l94 296h112l-190 -550h-133z" />
    <glyph glyph-name="Identity.87" unicode="w" horiz-adv-x="828" 
d="M176 0l-149 550h116l73 -298l10 -50l11 -57.5t9 -48.5h4l11 49l13 58t12 49l77 298h107l79 -298q6 -24 18 -76t19 -80h4q4 19 14.5 72.5t17.5 83.5l71 298h108l-142 -550h-138l-70 272q-10 39 -35 159h-5q-20 -106 -35 -160l-67 -271h-133z" />
    <glyph glyph-name="Identity.88" unicode="x" horiz-adv-x="526" 
d="M15 0l178 287l-165 263h124l66 -111q16 -30 52 -92h4l46 92l58 111h120l-165 -276l177 -274h-125l-72 116q-34 62 -57 98h-5q-23 -41 -51 -98l-64 -116h-121z" />
    <glyph glyph-name="Identity.89" unicode="y" horiz-adv-x="544" 
d="M531 550l-202 -583q-35 -97 -85 -147t-132 -50q-39 0 -69 11l22 90q27 -8 40 -8q80 0 115 103l11 38l-218 546h118l102 -283l23 -72t27 -83h5l43 155l88 283h112z" />
    <glyph glyph-name="Identity.90" unicode="z" horiz-adv-x="490" 
d="M37 0v62l271 396h-241v92h386v-61l-271 -397h280v-92h-425z" />
    <glyph glyph-name="Identity.91" unicode="{" horiz-adv-x="355" 
d="M259 -171q-72 0 -103.5 33.5t-31.5 119.5q0 41 5 107t5 102q0 37 -22.5 61.5t-74.5 25.5v70q52 1 74.5 25t22.5 60q0 37 -5 103t-5 107q0 86 31.5 119.5t103.5 33.5h56v-63h-26q-42 0 -57 -21t-15 -75q0 -31 3 -95t3 -102q0 -58 -17 -86.5t-56 -38.5v-5q39 -10 56 -39
t17 -86q0 -38 -3 -102t-3 -95q0 -54 15 -74.5t57 -20.5h26v-64h-56z" />
    <glyph glyph-name="Identity.92" unicode="|" horiz-adv-x="281" 
d="M102 -281v1124h77v-1124h-77z" />
    <glyph glyph-name="Identity.93" unicode="}" horiz-adv-x="355" 
d="M40 -171v64h26q42 0 57 20.5t15 74.5q0 31 -2.5 95t-2.5 102q0 57 16.5 86t55.5 39v5q-39 10 -55.5 38.5t-16.5 86.5q0 38 2.5 102t2.5 95q0 54 -15 75t-57 21h-26v63h56q72 0 104 -33.5t32 -119.5q0 -41 -5 -107t-5 -103q0 -36 22 -60t74 -25v-70q-52 -1 -74 -25.5
t-22 -61.5q0 -36 5 -102t5 -107q0 -86 -32 -119.5t-104 -33.5h-56z" />
    <glyph glyph-name="Identity.94" unicode="~" horiz-adv-x="570" 
d="M383 283q-31 0 -60.5 14.5t-49 31.5t-43.5 31.5t-45 14.5q-49 0 -85 -67l-62 45q63 106 149 106q38 0 74.5 -23t67 -46t56.5 -23q48 0 84 67l63 -46q-65 -105 -149 -105z" />
    <glyph glyph-name="Identity.95" unicode="&#xa1;" horiz-adv-x="343" 
d="M114 -203l3 119l16 400h77l16 -400l4 -119h-116zM171 402q-32 0 -54 23t-22 58t22 58t54 23q33 0 55.5 -23t22.5 -58t-22.5 -58t-55.5 -23z" />
    <glyph glyph-name="Identity.96" unicode="&#xa2;" horiz-adv-x="570" 
d="M299 173v348q-56 -16 -87 -61.5t-31 -112.5q0 -68 31 -113.5t87 -60.5zM474 215l49 -72q-67 -61 -155 -70v-113h-69v115q-106 12 -168.5 83.5t-62.5 188.5q0 113 64.5 184.5t166.5 87.5v116h69v-113q83 -5 145 -64l-55 -71q-40 37 -90 42v-362q52 5 106 48z" />
    <glyph glyph-name="Identity.97" unicode="&#xa3;" horiz-adv-x="570" 
d="M217 98h308v-98h-466v71q55 28 87 79t32 113q0 26 -6 53h-113v70l76 4h16q-27 87 -27 126q0 98 60.5 156t159.5 58q108 0 180 -87l-65 -64q-46 56 -106 56q-55 0 -86 -33t-31 -91q0 -39 22 -121h176v-74h-159q5 -28 5 -54q0 -93 -63 -160v-4z" />
    <glyph glyph-name="Identity.98" unicode="&#xa4;" horiz-adv-x="570" 
d="M87 109l-59 60l71 72q-40 54 -40 129q0 76 39 129l-70 73l59 60l77 -78q54 38 121 38q66 0 121 -38l77 78l59 -60l-71 -73q40 -52 40 -129q0 -73 -40 -129l71 -72l-59 -60l-78 78q-54 -37 -120 -37q-67 0 -121 37zM285 233q51 0 86.5 38t35.5 99t-35.5 100t-86.5 39
t-86.5 -39t-35.5 -100t35.5 -99t86.5 -38z" />
    <glyph glyph-name="Identity.99" unicode="&#xa5;" horiz-adv-x="570" 
d="M227 0v174h-179v61h179v70h-179v61h152l-178 350h120l78 -179l30.5 -73t32.5 -77h5l31.5 74l33.5 76l79 179h116l-179 -350h153v-61h-180v-70h180v-61h-180v-174h-115z" />
    <glyph glyph-name="Identity.100" unicode="&#xa6;" horiz-adv-x="281" 
d="M102 334v509h77v-509h-77zM102 -281v518h77v-518h-77z" />
    <glyph glyph-name="Identity.101" unicode="&#xa7;" 
d="M699 738l-26 -76q-68 41 -158 41q-52 0 -84.5 -23.5t-32.5 -53.5q0 -36 35 -57.5t109 -41.5q99 -27 149.5 -68t50.5 -111q0 -86 -70 -141q18 -13 31 -40.5t13 -60.5q0 -82 -68.5 -129.5t-163.5 -47.5q-124 0 -195 50l30 75q66 -48 165 -48q59 0 93.5 24.5t34.5 64.5
q0 35 -31.5 58.5t-114.5 48.5q-106 32 -157.5 72t-51.5 109q0 35 21 71.5t61 62.5q-18 14 -30 41t-12 54q0 74 62 120.5t163 46.5q99 0 177 -41zM396 480q-46 -34 -46 -79q0 -30 26 -53.5t98 -48.5q107 -35 138 -52q37 31 37 80q0 33 -29 58.5t-65.5 38l-86 28.5t-72.5 28z
" />
    <glyph glyph-name="Identity.102" unicode="&#xa8;" horiz-adv-x="614" 
d="M195 654q-27 0 -45.5 18t-18.5 45t18 45.5t46 18.5q27 0 45 -18.5t18 -45.5q0 -26 -18 -44.5t-45 -18.5zM420 654q-28 0 -46 18t-18 45t18 45.5t46 18.5q27 0 45 -18.5t18 -45.5t-18 -45t-45 -18z" />
    <glyph glyph-name="Identity.103" unicode="&#xa9;" horiz-adv-x="839" 
d="M419 -11q-152 0 -258.5 103.5t-106.5 271.5q0 167 106.5 269t258.5 102q153 0 259.5 -102t106.5 -269q0 -168 -106.5 -271.5t-259.5 -103.5zM419 42q129 0 217.5 90t88.5 232q0 141 -88.5 230t-217.5 89t-217 -89t-88 -230q0 -142 88 -232t217 -90zM429 141
q-90 0 -148.5 60.5t-58.5 161.5q0 96 62 155t148 59q79 0 143 -64l-46 -52q-46 44 -91 44q-58 0 -93 -39.5t-35 -102.5q0 -68 33.5 -108.5t89.5 -40.5q51 0 108 46l39 -57q-73 -62 -151 -62z" />
    <glyph glyph-name="Identity.104" unicode="&#xaa;" horiz-adv-x="393" 
d="M151 428q-51 0 -81.5 30t-30.5 78q0 59 52.5 91.5t166.5 42.5q-2 73 -64 73q-49 0 -111 -37l-30 56q77 48 154 48q135 0 135 -155v-218h-66l-10 41h-4q-54 -50 -111 -50zM177 494q40 0 81 40v85q-137 -15 -137 -76q0 -49 56 -49z" />
    <glyph glyph-name="Identity.105" unicode="&#xab;" horiz-adv-x="501" 
d="M205 71l-154 171v84l154 170l46 -39l-130 -174l130 -175zM393 71l-153 171v84l153 170l47 -39l-130 -174l130 -175z" />
    <glyph glyph-name="Identity.106" unicode="&#xac;" horiz-adv-x="570" 
d="M443 113v216h-405v84h494v-300h-89z" />
    <glyph glyph-name="Identity.107" unicode="&#xae;" horiz-adv-x="490" 
d="M245 357q-91 0 -153.5 62.5t-62.5 159.5t62.5 160.5t153.5 63.5q89 0 152 -63.5t63 -160.5t-62.5 -159.5t-152.5 -62.5zM245 401q71 0 118 49.5t47 128.5t-47 129t-118 50q-72 0 -119 -50t-47 -129t47 -128.5t119 -49.5zM160 469v226h90q39 0 64 -18t25 -55
q0 -20 -11.5 -37.5t-30.5 -24.5l51 -91h-57l-38 76h-41v-76h-52zM212 583h27q44 0 44 35q0 36 -42 36h-29v-71z" />
    <glyph glyph-name="Identity.108" unicode="&#xaf;" horiz-adv-x="614" 
d="M153 672v78h309v-78h-309z" />
    <glyph glyph-name="Identity.109" unicode="&#xb0;" horiz-adv-x="384" 
d="M192 472q-61 0 -104 42t-43 107t43 107t104 42q62 0 105 -42t43 -107t-43 -107t-105 -42zM192 532q37 0 59.5 25t22.5 64q0 40 -22.5 65t-59.5 25q-36 0 -58.5 -25t-22.5 -65q0 -39 22.5 -64t58.5 -25z" />
    <glyph glyph-name="Identity.110" unicode="&#xb1;" 
d="M860 543v-83h-318v-266h-84v266h-318v83h318v265h84v-265h318zM140 97h725v-83h-725v83z" />
    <glyph glyph-name="Identity.111" unicode="&#xb2;" horiz-adv-x="416" 
d="M56 437v49q110 97 156.5 149.5t46.5 96.5q0 39 -21 62t-57 23q-46 0 -90 -61l-51 47q62 86 154 86q69 0 109.5 -37.5t40.5 -106.5q0 -37 -22 -78.5t-48 -71.5t-78 -84h169v-74h-309z" />
    <glyph glyph-name="Identity.112" unicode="&#xb3;" horiz-adv-x="416" 
d="M205 424q-110 0 -168 86l56 43q41 -62 105 -62q34 0 57 19.5t23 51.5q0 72 -126 72v53q51 0 80.5 19.5t29.5 52.5q0 28 -19.5 45t-52.5 17q-44 0 -84 -50l-51 45q63 73 148 73q61 0 103 -32.5t42 -86.5q0 -70 -73 -105q39 -12 64.5 -40t25.5 -68q0 -59 -46.5 -96
t-113.5 -37z" />
    <glyph glyph-name="Identity.113" unicode="&#xb4;" horiz-adv-x="614" 
d="M300 644l-59 57l164 193l80 -77z" />
    <glyph glyph-name="Identity.114" unicode="&#xb5;" horiz-adv-x="643" 
d="M87 -200v750h114v-332q0 -68 21.5 -100t69.5 -32q37 0 67.5 20t61.5 75v369h116q-1 -53 -4.5 -204.5t-3.5 -219.5q0 -45 44 -45q16 0 33 7l15 -87q-33 -14 -76 -14q-50 0 -77 24.5t-35 77.5h-3q-53 -99 -142 -99q-66 0 -95 44q1 -131 10 -234h-116z" />
    <glyph glyph-name="Identity.115" unicode="&#xb6;" 
d="M462 -56v353h-9q-33 0 -68.5 13t-68.5 38t-54.5 68.5t-22.5 96.5q-1 38 7.5 72.5t31 68.5t57.5 59t92.5 40t131.5 15q97 0 140 -9v-815h-77v748h-83v-748h-77z" />
    <glyph glyph-name="Identity.116" unicode="&#xb7;" horiz-adv-x="574" 
d="M283 286q-32 0 -54 23t-22 57q0 36 22 59t54 23q33 0 55.5 -23t22.5 -59q0 -34 -22.5 -57t-55.5 -23z" />
    <glyph glyph-name="Identity.117" unicode="&#xb8;" horiz-adv-x="614" 
d="M210 -259l-10 52q68 4 94 16.5t26 37.5q0 21 -19.5 33t-66.5 19l50 104h72l-33 -74q42 -10 62.5 -28.5t20.5 -51.5q0 -99 -196 -108z" />
    <glyph glyph-name="Identity.118" unicode="&#xb9;" horiz-adv-x="416" 
d="M191 437v337h-96v56q65 11 113 46h71v-439h-88z" />
    <glyph glyph-name="Identity.119" unicode="&#xba;" horiz-adv-x="413" 
d="M206 428q-73 0 -124 52t-51 139q0 88 50.5 139.5t124.5 51.5q73 0 123.5 -51.5t50.5 -139.5q0 -87 -50.5 -139t-123.5 -52zM206 496q42 0 65 33.5t23 89.5q0 57 -23 90.5t-65 33.5t-65 -33.5t-23 -90.5q0 -56 23 -89.5t65 -33.5z" />
    <glyph glyph-name="Identity.120" unicode="&#xbb;" horiz-adv-x="501" 
d="M107 71l-47 37l131 175l-131 174l47 39l153 -170v-84zM296 71l-47 37l130 175l-130 174l47 39l153 -170v-84z" />
    <glyph glyph-name="Identity.121" unicode="&#xbc;" horiz-adv-x="888" 
d="M249 298h-87v337h-97v55q63 11 114 46h70v-438zM608 750h73l-403 -763h-73zM603 171h114v69l6 125h-5l-53 -89zM861 171v-60h-66v-111h-78v111h-200v44l176 283h102v-267h66z" />
    <glyph glyph-name="Identity.122" unicode="&#xbd;" horiz-adv-x="922" 
d="M162 298v337h-97v55q63 11 114 46h70v-438h-87zM183 -13l404 763h73l-404 -763h-73zM562 0v49q112 99 157.5 150.5t45.5 95.5q0 39 -21 62t-57 23q-46 0 -90 -61l-51 46q61 87 153 87q69 0 110 -38t41 -106q0 -29 -10 -56.5t-34 -59.5t-44 -54l-60 -64h169v-74h-309z" />
    <glyph glyph-name="Identity.123" unicode="&#xbe;" horiz-adv-x="903" 
d="M104 632l-51 45q63 73 148 73q61 0 103 -32.5t42 -86.5q0 -69 -73 -106q39 -12 64 -40t25 -68q0 -59 -46.5 -96t-112.5 -37q-109 0 -168 87l55 43q43 -62 106 -62q34 0 57 19t23 52q0 72 -127 72v53q52 0 81.5 19.5t29.5 52.5q0 28 -20 45t-52 17q-44 0 -84 -50zM646 750
h72l-404 -763h-72zM617 171h114v69l6 125h-5l-52 -89zM875 171v-60h-65v-111h-79v111h-200v44l176 283h103v-267h65z" />
    <glyph glyph-name="Identity.124" unicode="&#xbf;" horiz-adv-x="491" 
d="M248 -217q-89 0 -142.5 48.5t-53.5 135.5q0 39 18 76t43 66.5l49.5 59.5t39.5 68t10 79h102q6 -47 -7 -89t-36.5 -73.5t-47.5 -59.5t-42 -59t-18 -60q0 -43 26 -70.5t72 -27.5q65 0 121 61l65 -59q-84 -96 -199 -96zM261 402q-32 0 -54 23t-22 58t22 58t54 23
q33 0 55.5 -23t22.5 -58t-22.5 -58t-55.5 -23z" />
    <glyph glyph-name="Identity.125" unicode="&#xd7;" 
d="M826 111l-59 -58l-266 266l-267 -266l-59 58l267 267l-267 266l60 59l266 -267l266 267l59 -59l-267 -266z" />
    <glyph glyph-name="Identity.126" unicode="&#xf7;" 
d="M421 631q0 32 23.5 55t55.5 23t55.5 -23t23.5 -55q0 -33 -23.5 -56t-55.5 -23t-55.5 23t-23.5 56zM140 419h720v-83h-720v83zM421 124q0 32 23.5 55t55.5 23t55.5 -23t23.5 -55q0 -33 -23.5 -56t-55.5 -23t-55.5 23t-23.5 56z" />
    <glyph glyph-name="Identity.127" unicode="&#x391;" horiz-adv-x="622" 
d="M208 301h201l-29 99q-19 60 -70 245h-4q-28 -110 -68 -245zM499 0l-62 210h-256l-63 -210h-118l244 736h134l244 -736h-123z" />
    <glyph glyph-name="Identity.128" unicode="&#x392;" horiz-adv-x="667" 
d="M97 0v736h228q260 0 260 -181q0 -54 -28.5 -98.5t-76.5 -60.5v-5q66 -14 105.5 -58.5t39.5 -116.5q0 -106 -77.5 -161t-204.5 -55h-246zM213 429h99q159 0 159 111q0 57 -38 81.5t-118 24.5h-102v-217zM213 91h117q181 0 181 131q0 119 -181 119h-117v-250z" />
    <glyph glyph-name="Identity.129" unicode="&#x393;" horiz-adv-x="568" 
d="M97 0v736h436v-97h-320v-639h-116z" />
    <glyph glyph-name="Identity.130" unicode="&#x394;" horiz-adv-x="680" 
d="M35 0v70l237 666h136l237 -666v-70h-610zM160 98h357l-104 310l-73 231h-4l-73 -231z" />
    <glyph glyph-name="Identity.131" unicode="&#x395;" horiz-adv-x="600" 
d="M97 0v736h435v-97h-319v-205h270v-98h-270v-238h330v-98h-446z" />
    <glyph glyph-name="Identity.132" unicode="&#x396;" horiz-adv-x="607" 
d="M47 0v70l369 569h-335v97h478v-69l-368 -569h372v-98h-516z" />
    <glyph glyph-name="Identity.133" unicode="&#x397;" horiz-adv-x="740" 
d="M97 0v736h116v-300h315v300h116v-736h-116v335h-315v-335h-116z" />
    <glyph glyph-name="Identity.134" unicode="&#x398;" horiz-adv-x="754" 
d="M256 335v101h242v-101h-242zM377 -13q-143 0 -231.5 104t-88.5 280q0 175 88 277t232 102t232.5 -102t88.5 -277q0 -176 -89 -280t-232 -104zM377 88q92 0 147 77t55 206t-55 203.5t-147 74.5t-146.5 -74.5t-54.5 -203.5q0 -130 54.5 -206.5t146.5 -76.5z" />
    <glyph glyph-name="Identity.135" unicode="&#x399;" horiz-adv-x="309" 
d="M97 0v736h116v-736h-116z" />
    <glyph glyph-name="Identity.136" unicode="&#x39a;" horiz-adv-x="663" 
d="M97 0v736h116v-348h3l280 348h129l-228 -284l266 -452h-129l-208 360l-113 -138v-222h-116z" />
    <glyph glyph-name="Identity.137" unicode="&#x39b;" horiz-adv-x="594" 
d="M-2 0l230 736h137l231 -736h-123l-110 382q-8 27 -30 109.5t-37 130.5h-4q-11 -36 -67 -240l-109 -382h-118z" />
    <glyph glyph-name="Identity.138" unicode="&#x39c;" horiz-adv-x="830" 
d="M97 0v736h133l135 -372l25 -76t24 -73h5l23.5 73.5t24.5 75.5l133 372h134v-736h-108v364q0 60 15 228h-4l-59 -170l-128 -351h-72l-129 351l-58 170h-4q14 -188 14 -228v-364h-104z" />
    <glyph glyph-name="Identity.139" unicode="&#x39d;" horiz-adv-x="734" 
d="M97 0v736h119l244 -432l77 -156h5q-15 190 -15 245v343h110v-736h-119l-244 434l-77 154h-5q15 -190 15 -241v-347h-110z" />
    <glyph glyph-name="Identity.140" unicode="&#x39e;" horiz-adv-x="613" 
d="M56 0v98h501v-98h-501zM139 336v98h336v-98h-336zM68 639v97h477v-97h-477z" />
    <glyph glyph-name="Identity.141" unicode="&#x39f;" horiz-adv-x="754" 
d="M377 -13q-143 0 -231.5 104t-88.5 280q0 175 88 277t232 102t232.5 -102t88.5 -277q0 -176 -89 -280t-232 -104zM377 88q92 0 147 77t55 206t-55 203.5t-147 74.5t-146.5 -74.5t-54.5 -203.5q0 -130 54.5 -206.5t146.5 -76.5z" />
    <glyph glyph-name="Identity.142" unicode="&#x3a0;" horiz-adv-x="731" 
d="M97 0v736h538v-736h-116v639h-306v-639h-116z" />
    <glyph glyph-name="Identity.143" unicode="&#x3a1;" horiz-adv-x="647" 
d="M97 0v736h223q281 0 281 -222q0 -116 -75.5 -175.5t-201.5 -59.5h-111v-279h-116zM213 372h100q89 0 131.5 34.5t42.5 107.5q0 70 -43.5 99.5t-134.5 29.5h-96v-271z" />
    <glyph glyph-name="Identity.144" unicode="&#x3a3;" horiz-adv-x="609" 
d="M47 0v70l246 303l-241 294v69h484v-97h-338l212 -263l-216 -278h374v-98h-521z" />
    <glyph glyph-name="Identity.145" unicode="&#x3a4;" horiz-adv-x="610" 
d="M247 0v639h-216v97h549v-97h-217v-639h-116z" />
    <glyph glyph-name="Identity.146" unicode="&#x3a5;" horiz-adv-x="553" 
d="M218 0v279l-221 457h124l85 -195q49 -118 69 -162h4q5 13 31 71.5t39 90.5l86 195h121l-222 -457v-279h-116z" />
    <glyph glyph-name="Identity.147" unicode="&#x3a6;" horiz-adv-x="823" 
d="M464 571v-404q89 8 141.5 63t52.5 141t-52.5 139.5t-141.5 60.5zM360 167v404q-90 -7 -142.5 -60.5t-52.5 -139.5t53 -141t142 -63zM464 761v-102q140 -8 222.5 -83.5t82.5 -204.5t-82.5 -206.5t-222.5 -85.5v-103h-104v103q-140 8 -223 85t-83 207t82.5 205t223.5 83
v102h104z" />
    <glyph glyph-name="Identity.148" unicode="&#x3a7;" horiz-adv-x="596" 
d="M16 0l211 380l-198 356h129l89 -172l56 -111h5q35 81 50 111l87 172h122l-198 -362l212 -374h-129l-97 183l-30 59l-31 61h-4q-32 -70 -57 -120l-94 -183h-123z" />
    <glyph glyph-name="Identity.149" unicode="&#x3a8;" horiz-adv-x="805" 
d="M623 736h114v-181q0 -274 -280 -288v-267h-110v267q-280 14 -280 288v181h114v-175q0 -101 41 -149t125 -53v377h110v-377q84 5 125 53t41 149v175z" />
    <glyph glyph-name="Identity.150" unicode="&#x3a9;" horiz-adv-x="775" 
d="M51 0v95h140v4q-125 123 -125 298q0 156 88.5 254.5t232.5 98.5t232.5 -98.5t88.5 -254.5q0 -176 -124 -298v-4h140v-95h-274v84q139 115 139 304q0 115 -54.5 188t-147.5 73t-147 -73t-54 -188q0 -189 139 -304v-84h-274z" />
    <glyph glyph-name="Identity.151" unicode="&#x3b1;" horiz-adv-x="642" 
d="M263 -13q-98 0 -156.5 73.5t-58.5 206.5q0 135 71 216t171 81q54 0 97.5 -32.5t66.5 -100.5h3l22 119h114q-70 -324 -70 -414q0 -27 15 -41t39 -14q18 0 37 8l16 -87q-32 -15 -79 -15q-112 0 -119 105h-4q-60 -105 -165 -105zM288 82q49 0 89.5 45.5t45.5 108.5l8 101
q-36 131 -126 131q-57 0 -97.5 -52t-40.5 -147q0 -91 31.5 -139t89.5 -48z" />
    <glyph glyph-name="Identity.152" unicode="&#x3b2;" horiz-adv-x="648" 
d="M84 -200v744q0 120 60 193t176 73q91 0 154.5 -51t63.5 -146q0 -117 -105 -181v-5q76 -12 122.5 -68.5t46.5 -139.5q0 -108 -64.5 -170t-153.5 -62q-119 0 -192 81q4 -96 8 -268h-116zM354 82q57 0 95.5 38.5t38.5 105.5q0 62 -36 100.5t-103 38.5q-29 0 -53 -7l-15 86
q75 15 110 58.5t35 101.5q0 55 -30.5 85t-74.5 30q-59 0 -91.5 -49t-33.5 -138q-4 -165 -4 -370q62 -80 162 -80z" />
    <glyph glyph-name="Identity.153" unicode="&#x3b3;" horiz-adv-x="561" 
d="M217 -200q6 59 6 141q0 124 -66 301.5t-153 293.5l117 28q49 -70 97 -190t73 -241h5q115 224 129 417h115q-23 -144 -69.5 -262.5t-147.5 -279.5q13 -87 13 -208h-119z" />
    <glyph glyph-name="Identity.154" unicode="&#x3b4;" horiz-adv-x="603" 
d="M306 81q65 0 99.5 43.5t34.5 122.5q0 57 -28.5 100t-80.5 83q-79 -18 -122.5 -67t-43.5 -123q0 -72 41.5 -115.5t99.5 -43.5zM538 766l-27 -89q-128 46 -213 46q-39 0 -58.5 -13.5t-19.5 -34.5q0 -13 6.5 -26.5t15 -24t27.5 -26l31.5 -25t40 -28.5t41.5 -30
q55 -40 88.5 -72.5t58 -83.5t24.5 -111q0 -118 -66.5 -189.5t-182.5 -71.5q-102 0 -175.5 68.5t-73.5 181.5q0 90 55 154t143 95q-67 49 -104 94t-37 103q0 55 47.5 91t139.5 36q109 0 239 -44z" />
    <glyph glyph-name="Identity.155" unicode="&#x3b5;" horiz-adv-x="512" 
d="M288 -13q-105 0 -172.5 44.5t-67.5 121.5q0 105 112 135v5q-41 14 -63.5 47.5t-22.5 72.5q0 73 62.5 112t155.5 39q97 0 182 -59l-45 -76q-62 45 -132 45q-48 0 -78.5 -20t-30.5 -56q0 -74 110 -74q18 0 72 4v-86q-48 3 -89 3q-119 0 -119 -81q0 -41 36 -64t102 -23
q77 0 142 52l48 -75q-89 -67 -202 -67z" />
    <glyph glyph-name="Identity.156" unicode="&#x3b6;" horiz-adv-x="491" 
d="M415 -208l-91 34q32 40 43 59t11 40q0 24 -23.5 37t-96.5 29q-45 9 -79 25t-64.5 45t-46.5 77.5t-16 113.5q0 111 87 241t204 219q-209 -4 -257 -7v92h385v-92h-6q-111 -74 -203 -209.5t-92 -237.5q0 -84 37 -122.5t117 -53.5q84 -16 120 -44t36 -85q0 -69 -65 -161z" />
    <glyph glyph-name="Identity.157" unicode="&#x3b7;" horiz-adv-x="615" 
d="M420 -200q8 283 8 532q0 72 -18.5 102.5t-63.5 30.5q-40 0 -72 -24.5t-73 -85.5v-355h-114v394q0 84 -10 156h104l9 -109h3q42 62 87 92.5t103 30.5q153 0 153 -218v-546h-116z" />
    <glyph glyph-name="Identity.158" unicode="&#x3b8;" horiz-adv-x="597" 
d="M421 363h-246q8 -282 123 -282t123 282zM176 442h244q-7 274 -122 274t-122 -274zM298 810q111 0 173.5 -105t62.5 -304q0 -208 -62 -311t-174 -103q-111 0 -173 103t-62 311q0 199 62.5 304t172.5 105z" />
    <glyph glyph-name="Identity.159" unicode="&#x3b9;" horiz-adv-x="308" 
d="M208 -13q-66 0 -93.5 36.5t-27.5 109.5v417h116q-1 -49 -3.5 -139.5t-4 -161t-1.5 -123.5q0 -45 41 -45q17 0 34 7l15 -87q-33 -14 -76 -14z" />
    <glyph glyph-name="Identity.160" unicode="&#x3ba;" horiz-adv-x="574" 
d="M578 0l-128 -10q-88 104 -169 262q-3 -4 -16.5 -20.5l-21.5 -26.5q-47 -57 -49 -175v-30h-107v394q0 94 -12 156h114q10 -39 10 -131v-150h4q70 117 153 197t170 98l9 -108q-88 -27 -182 -124q42 -83 104 -175t121 -157z" />
    <glyph glyph-name="Identity.161" unicode="&#x3bb;" horiz-adv-x="576" 
d="M140 -10l-123 10l238 559l-5 21q-40 133 -121 133q-34 0 -74 -18l-27 95q48 20 114 20q84 0 134.5 -56t88.5 -180l205 -574h-123l-138 429h-5z" />
    <glyph glyph-name="Identity.162" unicode="&#x3bc;" horiz-adv-x="643" 
d="M87 -200v750h114v-332q0 -68 21.5 -100t69.5 -32q37 0 67.5 20t61.5 75v369h116q-1 -53 -4.5 -204.5t-3.5 -219.5q0 -45 44 -45q16 0 33 7l15 -87q-33 -14 -76 -14q-50 0 -77 24.5t-35 77.5h-3q-53 -99 -142 -99q-66 0 -95 44q1 -131 10 -234h-116z" />
    <glyph glyph-name="Identity.163" unicode="&#x3bd;" horiz-adv-x="550" 
d="M214 0q-59 311 -210 536l117 28q50 -81 96.5 -208.5t69.5 -237.5h5q105 228 122 432h115q-23 -146 -70.5 -274.5t-133.5 -275.5h-111z" />
    <glyph glyph-name="Identity.164" unicode="&#x3be;" horiz-adv-x="498" 
d="M421 -208l-91 34q32 40 43 59t11 40q0 24 -24 37.5t-95 28.5q-99 20 -155.5 69t-56.5 148q0 76 47 134.5t116 79.5v4q-51 21 -80.5 62t-29.5 97q0 86 72 127q-76 -1 -150 -7v92h449v-92h-129q-54 0 -90 -33.5t-36 -90.5q0 -52 38.5 -89.5t87.5 -37.5q42 0 76 8v-94
q-35 8 -83 8q-69 0 -119.5 -42t-50.5 -110t40.5 -97.5t125.5 -44.5q85 -16 117.5 -43.5t32.5 -85.5q0 -68 -66 -161z" />
    <glyph glyph-name="Identity.165" unicode="&#x3bf;" horiz-adv-x="608" 
d="M304 -13q-109 0 -182.5 77t-73.5 210q0 134 73.5 212t182.5 78q108 0 182 -78t74 -212q0 -132 -74 -209.5t-182 -77.5zM304 81q66 0 101.5 52t35.5 141q0 90 -35.5 142.5t-101.5 52.5t-101.5 -52.5t-35.5 -142.5q0 -89 35.5 -141t101.5 -52z" />
    <glyph glyph-name="Identity.166" unicode="&#x3c0;" horiz-adv-x="676" 
d="M558 -13q-71 0 -102.5 38.5t-31.5 114.5q0 23 2.5 140.5t3.5 176.5h-174q0 -153 -31 -463l-116 6q39 230 39 457h-124v87l79 6h546v-93h-108q-8 -133 -8 -323q0 -29 12.5 -41t38.5 -12q11 0 43 5l14 -86q-35 -13 -83 -13z" />
    <glyph glyph-name="Identity.167" unicode="&#x3c1;" horiz-adv-x="624" 
d="M82 -200v476q0 140 69.5 214t179.5 74q116 0 179.5 -74.5t63.5 -205.5q0 -135 -67.5 -216t-159.5 -81q-95 0 -157 73q8 -239 8 -260h-116zM324 82q57 0 94.5 53t37.5 147q0 186 -130 186q-58 0 -96.5 -50t-38.5 -139v-132q55 -65 133 -65z" />
    <glyph glyph-name="Identity.168" unicode="&#x3c3;" horiz-adv-x="624" 
d="M299 -13q-107 0 -179 75.5t-72 206.5q0 136 74.5 208.5t182.5 72.5h305v-96q-90 7 -168 10v-5q101 -57 101 -206q0 -123 -68.5 -194.5t-175.5 -71.5zM300 81q60 0 96.5 49t36.5 133q0 81 -35.5 137t-96.5 56t-97.5 -47t-36.5 -140q0 -87 37 -137.5t96 -50.5z" />
    <glyph glyph-name="Identity.169" unicode="&#x3c4;" horiz-adv-x="528" 
d="M332 -13q-67 0 -96 38.5t-29 114.5v318h-178v86l80 6h390v-92h-180q-4 -153 -4 -324q0 -53 45 -53q26 0 56 9l16 -88q-49 -15 -100 -15z" />
    <glyph glyph-name="Identity.170" unicode="&#x3c5;" horiz-adv-x="581" 
d="M284 -13q-105 0 -160.5 57.5t-55.5 165.5q0 30 2 91.5t2 92.5q0 92 -11 156h112q9 -43 9 -131q0 -26 -3.5 -103.5t-3.5 -113.5q0 -61 30.5 -91t79.5 -30q57 0 90 48.5t33 145.5q0 132 -43 262l112 27q47 -147 47 -285q0 -139 -64.5 -215.5t-175.5 -76.5z" />
    <glyph glyph-name="Identity.171" unicode="&#x3c6;" horiz-adv-x="785" 
d="M446 473v-395q76 3 124.5 56t48.5 141q0 90 -47.5 142.5t-125.5 55.5zM339 78v395q-76 -3 -124 -56t-48 -142t48 -141.5t124 -55.5zM446 702v-142q123 -6 207 -81.5t84 -203.5q0 -127 -85 -203t-206 -82v-190h-107v190q-120 6 -205.5 82t-85.5 203q0 128 85.5 203.5
t205.5 81.5v142h107z" />
    <glyph glyph-name="Identity.172" unicode="&#x3c7;" horiz-adv-x="557" 
d="M128 -213l-118 13l216 384l-213 352l113 28l155 -277h4l128 263h120l-193 -364l227 -373l-113 -26l-169 304h-4z" />
    <glyph glyph-name="Identity.173" unicode="&#x3c8;" horiz-adv-x="797" 
d="M579 537l112 27q46 -132 46 -260q0 -150 -75 -232t-213 -85v-187h-106v187q-138 2 -204.5 74.5t-66.5 193.5v139q0 91 -9 156h111q8 -43 8 -131q0 -30 -1 -92.5t-1 -79.5q0 -76 40.5 -121.5t122.5 -46.5v623h106v-623q172 5 172 221q0 114 -42 237z" />
    <glyph glyph-name="Identity.174" unicode="&#x3c9;" horiz-adv-x="804" 
d="M252 -13q-90 0 -144 72t-54 207q0 151 96 298l106 -45q-47 -72 -70 -135t-23 -140q0 -76 26 -119.5t69 -43.5q41 0 66 30.5t25 95.5q0 64 -11 148h124q-10 -102 -10 -148q0 -126 88 -126q43 0 68.5 46.5t25.5 134.5q0 77 -18.5 133.5t-64.5 126.5l105 42
q47 -71 70.5 -139.5t23.5 -155.5q0 -138 -51.5 -210t-143.5 -72q-51 0 -91.5 25t-60.5 76h-4q-41 -101 -147 -101z" />
    <glyph glyph-name="Identity.175" unicode="&#x401;" horiz-adv-x="600" 
d="M97 0v736h435v-97h-319v-205h270v-98h-270v-238h330v-98h-446zM203 800q-27 0 -44.5 17t-17.5 45q0 27 17.5 44.5t44.5 17.5t44.5 -17.5t17.5 -44.5q0 -28 -17.5 -45t-44.5 -17zM440 800q-28 0 -45 17t-17 45q0 27 17 44.5t45 17.5q27 0 44.5 -17.5t17.5 -44.5
q0 -28 -17.5 -45t-44.5 -17z" />
    <glyph glyph-name="Identity.176" unicode="&#x410;" horiz-adv-x="622" 
d="M208 301h201l-29 99q-19 60 -70 245h-4q-28 -110 -68 -245zM499 0l-62 210h-256l-63 -210h-118l244 736h134l244 -736h-123z" />
    <glyph glyph-name="Identity.177" unicode="&#x411;" horiz-adv-x="659" 
d="M97 0v736h469v-97h-353v-205h128q126 0 200 -50t74 -158q0 -114 -72 -170t-197 -56h-249zM213 91h117q171 0 171 133q0 64 -43 93t-131 29h-114v-255z" />
    <glyph glyph-name="Identity.178" unicode="&#x412;" horiz-adv-x="667" 
d="M97 0v736h228q260 0 260 -181q0 -54 -28.5 -98.5t-76.5 -60.5v-5q66 -14 105.5 -58.5t39.5 -116.5q0 -106 -77.5 -161t-204.5 -55h-246zM213 429h99q159 0 159 111q0 57 -38 81.5t-118 24.5h-102v-217zM213 91h117q181 0 181 131q0 119 -181 119h-117v-250z" />
    <glyph glyph-name="Identity.179" unicode="&#x413;" horiz-adv-x="568" 
d="M97 0v736h436v-97h-320v-639h-116z" />
    <glyph glyph-name="Identity.180" unicode="&#x414;" horiz-adv-x="728" 
d="M504 639h-187q-8 -46 -23 -139.5t-27 -156.5q-33 -172 -81 -245h318v541zM620 98h84v-71l-11 -238h-103v211h-452v-211h-102l-11 238v71h34q58 22 103 262q29 159 65 376h393v-638z" />
    <glyph glyph-name="Identity.181" unicode="&#x415;" horiz-adv-x="600" 
d="M97 0v736h435v-97h-319v-205h270v-98h-270v-238h330v-98h-446z" />
    <glyph glyph-name="Identity.182" unicode="&#x416;" horiz-adv-x="927" 
d="M701 392l221 -392h-127l-179 338h-97v-338h-111v338h-96l-180 -338h-126l221 391l-74 164q-24 51 -44.5 68t-47.5 17q-15 0 -29 -5l-18 107q16 8 46 8q57 0 97 -29t78 -107l84 -182h89v304h111v-304h89l84 182q38 78 78.5 107t97.5 29q29 0 46 -8l-20 -107q-11 5 -28 5
q-27 0 -47.5 -17t-43.5 -68z" />
    <glyph glyph-name="Identity.183" unicode="&#x417;" horiz-adv-x="627" 
d="M311 -13q-160 0 -266 105l63 80q87 -84 202 -84q70 0 115 34.5t45 95.5q0 123 -179 123h-88v88h66q164 0 164 113q0 52 -36.5 79.5t-95.5 27.5q-91 0 -166 -65l-60 77q94 89 229 89q112 0 177.5 -51t65.5 -140q0 -58 -27.5 -101.5t-77.5 -62.5v-5q64 -14 103 -61t39 -118
q0 -105 -77 -164.5t-196 -59.5z" />
    <glyph glyph-name="Identity.184" unicode="&#x418;" horiz-adv-x="745" 
d="M97 0v736h114v-343q0 -32 -14 -245h4l78 154l247 434h123v-736h-115v347q0 51 15 241h-5l-77 -153l-248 -435h-122z" />
    <glyph glyph-name="Identity.185" unicode="&#x419;" horiz-adv-x="745" 
d="M97 0v736h114v-343q0 -32 -14 -245h4l78 154l247 434h123v-736h-115v347q0 51 15 241h-5l-77 -153l-248 -435h-122zM377 796q-91 0 -133 41.5t-46 108.5h98q5 -88 81 -88t80 88h99q-9 -150 -179 -150z" />
    <glyph glyph-name="Identity.186" unicode="&#x41a;" horiz-adv-x="667" 
d="M418 392l248 -392h-124l-217 338h-112v-338h-116v736h116v-304h112l101 182q43 78 81.5 107t93.5 29q30 0 47 -8l-20 -107q-12 5 -28 5q-26 0 -44.5 -16.5t-47.5 -68.5z" />
    <glyph glyph-name="Identity.187" unicode="&#x41b;" horiz-adv-x="718" 
d="M66 -13q-43 0 -69 10l22 106q16 -6 32 -6q21 0 35.5 11.5t31.5 54.5t34 124q18 91 83 449h387v-736h-116v639h-181l-33 -185t-32 -179q-22 -115 -49 -178t-60.5 -86.5t-84.5 -23.5z" />
    <glyph glyph-name="Identity.188" unicode="&#x41c;" horiz-adv-x="830" 
d="M97 0v736h133l135 -372l25 -76t24 -73h5l23.5 73.5t24.5 75.5l133 372h134v-736h-108v364q0 60 15 228h-4l-59 -170l-128 -351h-72l-129 351l-58 170h-4q14 -188 14 -228v-364h-104z" />
    <glyph glyph-name="Identity.189" unicode="&#x41d;" horiz-adv-x="740" 
d="M97 0v736h116v-300h315v300h116v-736h-116v335h-315v-335h-116z" />
    <glyph glyph-name="Identity.190" unicode="&#x41e;" horiz-adv-x="754" 
d="M377 -13q-143 0 -231.5 104t-88.5 280q0 175 88 277t232 102t232.5 -102t88.5 -277q0 -176 -89 -280t-232 -104zM377 88q92 0 147 77t55 206t-55 203.5t-147 74.5t-146.5 -74.5t-54.5 -203.5q0 -130 54.5 -206.5t146.5 -76.5z" />
    <glyph glyph-name="Identity.191" unicode="&#x41f;" horiz-adv-x="731" 
d="M97 0v736h538v-736h-116v639h-306v-639h-116z" />
    <glyph glyph-name="Identity.192" unicode="&#x420;" horiz-adv-x="647" 
d="M97 0v736h223q281 0 281 -222q0 -116 -75.5 -175.5t-201.5 -59.5h-111v-279h-116zM213 372h100q89 0 131.5 34.5t42.5 107.5q0 70 -43.5 99.5t-134.5 29.5h-96v-271z" />
    <glyph glyph-name="Identity.193" unicode="&#x421;" horiz-adv-x="646" 
d="M384 -13q-143 0 -235 101.5t-92 277.5t94.5 280t237.5 104q124 0 209 -93l-63 -74q-64 66 -144 66q-96 0 -155.5 -75.5t-59.5 -203.5q0 -131 57 -206.5t155 -75.5q91 0 163 78l62 -73q-92 -106 -229 -106z" />
    <glyph glyph-name="Identity.194" unicode="&#x422;" horiz-adv-x="610" 
d="M247 0v639h-216v97h549v-97h-217v-639h-116z" />
    <glyph glyph-name="Identity.195" unicode="&#x423;" horiz-adv-x="592" 
d="M160 -13q-48 0 -79 12l23 102q24 -8 49 -8q61 0 88 52l14 34l-250 557h122l122 -292l57 -155h5l54 155l112 292h117l-237 -592q-32 -78 -78.5 -117.5t-118.5 -39.5z" />
    <glyph glyph-name="Identity.196" unicode="&#x424;" horiz-adv-x="834" 
d="M468 560v-382q98 5 151 54.5t53 138.5t-53 137t-151 52zM367 178v382q-99 -4 -152 -52t-53 -137q0 -90 53.5 -139.5t151.5 -53.5zM468 750v-102q149 -6 232 -77t83 -200q0 -130 -83 -202.5t-232 -78.5v-103h-101v103q-149 6 -232 78.5t-83 202.5t82.5 201t232.5 76v102
h101z" />
    <glyph glyph-name="Identity.197" unicode="&#x425;" horiz-adv-x="596" 
d="M16 0l211 380l-198 356h129l89 -172l56 -111h5q35 81 50 111l87 172h122l-198 -362l212 -374h-129l-97 183l-30 59l-31 61h-4q-32 -70 -57 -120l-94 -183h-123z" />
    <glyph glyph-name="Identity.198" unicode="&#x426;" horiz-adv-x="732" 
d="M623 98h84v-71l-11 -238h-102v211h-497v736h116v-638h294v638h116v-638z" />
    <glyph glyph-name="Identity.199" unicode="&#x427;" horiz-adv-x="683" 
d="M471 0v320q-58 -10 -127 -10q-132 0 -201.5 58.5t-69.5 190.5v177h114v-177q0 -85 41 -120t128 -35q59 0 115 10v322h116v-736h-116z" />
    <glyph glyph-name="Identity.200" unicode="&#x428;" horiz-adv-x="989" 
d="M97 0v736h113v-638h228v638h112v-638h228v638h114v-736h-795z" />
    <glyph glyph-name="Identity.201" unicode="&#x429;" horiz-adv-x="1001" 
d="M892 98h85v-71l-11 -238h-104v211h-765v736h113v-638h228v638h112v-638h228v638h114v-638z" />
    <glyph glyph-name="Identity.202" unicode="&#x42a;" horiz-adv-x="813" 
d="M261 0v639h-230v97h346v-291h108q125 0 203 -53.5t78 -160.5q0 -117 -73.5 -174t-201.5 -57h-230zM377 93h103q173 0 173 135q0 124 -180 124h-96v-259z" />
    <glyph glyph-name="Identity.203" unicode="&#x42b;" horiz-adv-x="917" 
d="M97 0v736h116v-291h101q129 0 203 -52.5t74 -161.5q0 -118 -74 -174.5t-203 -56.5h-217zM213 93h90q174 0 174 135q0 124 -177 124h-87v-259zM704 0v736h116v-736h-116z" />
    <glyph glyph-name="Identity.204" unicode="&#x42c;" horiz-adv-x="659" 
d="M97 0v736h116v-291h122q129 0 203 -52.5t74 -161.5q0 -118 -74 -174.5t-203 -56.5h-238zM213 93h111q175 0 175 135q0 124 -177 124h-109v-259z" />
    <glyph glyph-name="Identity.205" unicode="&#x42d;" horiz-adv-x="646" 
d="M110 583l-62 74q40 40 99.5 66.5t125.5 26.5q144 0 230.5 -99.5t86.5 -284.5q0 -183 -88.5 -281t-229.5 -98t-239 106l62 73q76 -78 174 -78q92 0 145 62t60 186h-294v98h292q-12 106 -64 160.5t-140 54.5q-87 0 -158 -66z" />
    <glyph glyph-name="Identity.206" unicode="&#x42e;" horiz-adv-x="1036" 
d="M670 88q89 0 139.5 76t50.5 207q0 130 -50.5 204t-139.5 74t-139.5 -74t-50.5 -204q0 -131 50.5 -207t139.5 -76zM213 436h154q15 148 95.5 231t207.5 83q141 0 225.5 -101.5t84.5 -277.5q0 -177 -85 -280.5t-225 -103.5q-132 0 -214 93t-91 255h-152v-335h-116v736h116
v-300z" />
    <glyph glyph-name="Identity.207" unicode="&#x42f;" horiz-adv-x="666" 
d="M454 390v253h-112q-83 0 -123.5 -27.5t-40.5 -92.5q0 -133 164 -133h112zM329 736h241v-736h-116v297h-119l-180 -297h-134l201 311q-159 48 -159 212q0 213 266 213z" />
    <glyph glyph-name="Identity.208" unicode="&#x430;" horiz-adv-x="575" 
d="M217 -13q-72 0 -117 43.5t-45 115.5q0 88 78.5 136.5t250.5 67.5q-2 120 -105 120q-71 0 -159 -56l-43 78q114 72 222 72q101 0 150.5 -60.5t49.5 -172.5v-331h-94l-10 63h-3q-88 -76 -175 -76zM252 78q62 0 132 64v135q-118 -14 -168 -44.5t-50 -78.5q0 -39 23.5 -57.5
t62.5 -18.5z" />
    <glyph glyph-name="Identity.209" unicode="&#x431;" horiz-adv-x="618" 
d="M166 352v-40q0 -112 39 -171.5t113 -59.5q58 0 94 52.5t36 137.5q0 82 -34 126t-97 44q-84 0 -151 -89zM521 821l23 -102q-35 -26 -119 -38q-45 -7 -67.5 -11t-54 -12t-46 -18t-33 -27t-27 -40t-16 -55.5t-11.5 -75.5q71 86 178 86q97 0 157.5 -68.5t60.5 -188.5
q0 -128 -70.5 -206t-176.5 -78q-125 0 -194 91t-69 258q0 106 17 182.5t44 124t73.5 78t93.5 44.5t117 24q75 11 120 32z" />
    <glyph glyph-name="Identity.210" unicode="&#x432;" horiz-adv-x="578" 
d="M87 0v550h218q209 0 209 -141q0 -89 -92 -116v-5q114 -27 114 -130q0 -80 -60 -119t-161 -39h-228zM199 324h92q111 0 111 73q0 74 -107 74h-96v-147zM199 80h106q119 0 119 85q0 38 -31.5 59t-91.5 21h-102v-165z" />
    <glyph glyph-name="Identity.211" unicode="&#x433;" horiz-adv-x="469" 
d="M87 0v550h353v-92h-239v-458h-114z" />
    <glyph glyph-name="Identity.212" unicode="&#x434;" horiz-adv-x="617" 
d="M240 458l-18 -168q-15 -131 -56 -198h232v366h-158zM513 92h82v-74l-11 -211h-99v193h-355v-193h-99l-12 211v74h29q25 14 42 59t31 163l29 236h363v-458z" />
    <glyph glyph-name="Identity.213" unicode="&#x435;" horiz-adv-x="565" 
d="M316 -13q-115 0 -191.5 77.5t-76.5 209.5q0 129 75 209.5t176 80.5q107 0 165.5 -70.5t58.5 -190.5q0 -36 -5 -58h-357q7 -78 52.5 -123t117.5 -45q68 0 131 41l40 -73q-87 -58 -186 -58zM160 324h264q0 72 -31.5 111t-91.5 39q-54 0 -93.5 -40t-47.5 -110z" />
    <glyph glyph-name="Identity.214" unicode="&#x436;" horiz-adv-x="794" 
d="M608 288l174 -288h-125l-131 239h-78v-239h-103v239h-77l-132 -239h-123l173 287l-40 97q-17 40 -34.5 54.5t-41.5 14.5q-9 0 -19 -3l-20 107q19 7 37 7q52 0 88.5 -26t65.5 -91l50 -116h73v219h103v-219h73l51 116q29 65 65.5 91t88.5 26q18 0 36 -7l-19 -107
q-11 3 -19 3q-49 0 -76 -69z" />
    <glyph glyph-name="Identity.215" unicode="&#x437;" horiz-adv-x="520" 
d="M248 -13q-122 0 -210 68l47 74q65 -52 153 -52q54 0 90 23.5t36 63.5q0 81 -123 81h-80v79h68q114 0 114 77q0 35 -27.5 54t-75.5 19q-78 0 -144 -45l-45 75q85 60 195 60q89 0 149 -39t60 -112q0 -39 -23.5 -72t-66.5 -48v-5q113 -29 113 -135q0 -75 -68 -120.5
t-162 -45.5z" />
    <glyph glyph-name="Identity.216" unicode="&#x438;" horiz-adv-x="641" 
d="M87 0v550h111v-205q0 -46 -11 -200h5l35 58.5l35 58.5l187 288h106v-550h-111v205q0 45 11 201h-5l-70 -117l-188 -289h-105z" />
    <glyph glyph-name="Identity.217" unicode="&#x439;" horiz-adv-x="641" 
d="M87 0v550h111v-205q0 -46 -11 -200h5l35 58.5l35 58.5l187 288h106v-550h-111v205q0 45 11 201h-5l-70 -117l-188 -289h-105zM325 644q-89 0 -133.5 49t-48.5 127h92q5 -111 90 -111t89 111h92q-2 -78 -46.5 -127t-134.5 -49z" />
    <glyph glyph-name="Identity.218" unicode="&#x43a;" horiz-adv-x="577" 
d="M378 289l187 -289h-126l-145 239h-93v-239h-114v550h114v-219h91l52 116q31 68 66 92.5t88 24.5q18 0 36 -7l-19 -107q-11 3 -19 3q-24 0 -41.5 -13.5t-35.5 -55.5z" />
    <glyph glyph-name="Identity.219" unicode="&#x43b;" horiz-adv-x="612" 
d="M65 -13q-29 0 -55 9l20 105q16 -4 26 -4q57 0 70 106l20.5 176.5t20.5 170.5h359v-550h-116v458h-153q-24 -209 -35 -286q-24 -185 -157 -185z" />
    <glyph glyph-name="Identity.220" unicode="&#x43c;" horiz-adv-x="721" 
d="M87 0v550h131l96 -236q43 -120 46 -130h5q4 10 21 57l26 73l92 236h132v-550h-104v214q0 28 12 205h-4q-9 -26 -28 -75.5l-24 -62.5l-92 -230h-70l-93 230q-36 91 -52 138h-5q13 -192 13 -205v-214h-102z" />
    <glyph glyph-name="Identity.221" unicode="&#x43d;" horiz-adv-x="639" 
d="M87 0v550h114v-215h237v215h115v-550h-115v234h-237v-234h-114z" />
    <glyph glyph-name="Identity.222" unicode="&#x43e;" horiz-adv-x="614" 
d="M307 -13q-107 0 -183 78t-76 209q0 133 76 211.5t183 78.5t183 -78.5t76 -211.5q0 -131 -76 -209t-183 -78zM307 81q65 0 103 52.5t38 140.5t-38 141.5t-103 53.5q-64 0 -102 -53.5t-38 -141.5q0 -87 38 -140t102 -53z" />
    <glyph glyph-name="Identity.223" unicode="&#x43f;" horiz-adv-x="629" 
d="M87 0v550h456v-550h-115v458h-227v-458h-114z" />
    <glyph glyph-name="Identity.224" unicode="&#x440;" horiz-adv-x="630" 
d="M87 -223v773h94l9 -60h3q89 74 169 74q103 0 160.5 -75.5t57.5 -204.5q0 -136 -69.5 -216.5t-167.5 -80.5q-72 0 -145 62l3 -94v-178h-114zM321 82q62 0 101 53t39 147q0 186 -129 186q-61 0 -131 -67v-269q58 -50 120 -50z" />
    <glyph glyph-name="Identity.225" unicode="&#x441;" horiz-adv-x="517" 
d="M311 -13q-115 0 -189 77t-74 210t79 211.5t193 78.5q89 0 161 -63l-57 -75q-48 43 -99 43q-69 0 -113.5 -54t-44.5 -141t43 -140t112 -53q61 0 120 50l47 -76q-76 -68 -178 -68z" />
    <glyph glyph-name="Identity.226" unicode="&#x442;" horiz-adv-x="528" 
d="M207 0v458h-178v92h470v-92h-177v-458h-115z" />
    <glyph glyph-name="Identity.227" unicode="&#x443;" horiz-adv-x="544" 
d="M531 550l-202 -583q-35 -97 -85 -147t-132 -50q-39 0 -69 11l22 90q27 -8 40 -8q80 0 115 103l11 38l-218 546h118l102 -283l23 -72t27 -83h5l43 155l88 283h112z" />
    <glyph glyph-name="Identity.228" unicode="&#x444;" horiz-adv-x="841" 
d="M364 -223v166l3 82q-54 -38 -108 -38q-96 0 -152.5 76t-56.5 211q0 130 61.5 210t147.5 80q53 0 108 -37l-3 81v189h113v-189l-4 -84q61 40 117 40q95 0 148 -76t53 -204q0 -137 -61.5 -217t-150.5 -80q-54 0 -106 37l4 -81v-166h-113zM287 82q45 0 80 35v319
q-36 32 -84 32q-49 0 -81.5 -52.5t-32.5 -139.5q0 -93 31 -143.5t87 -50.5zM556 82q52 0 84.5 52.5t32.5 147.5q0 186 -113 186q-46 0 -87 -33v-321q37 -32 83 -32z" />
    <glyph glyph-name="Identity.229" unicode="&#x445;" horiz-adv-x="526" 
d="M15 0l178 287l-165 263h124l66 -111q16 -30 52 -92h4l46 92l58 111h120l-165 -276l177 -274h-125l-72 116q-34 62 -57 98h-5q-23 -41 -51 -98l-64 -116h-121z" />
    <glyph glyph-name="Identity.230" unicode="&#x446;" horiz-adv-x="637" 
d="M536 92h83v-74l-12 -211h-98v193h-422v550h114v-458h220v458h115v-458z" />
    <glyph glyph-name="Identity.231" unicode="&#x447;" horiz-adv-x="589" 
d="M388 0v209q-51 -10 -105 -10q-220 0 -220 198v153h115v-153q0 -55 30.5 -80.5t98.5 -25.5q39 0 81 9v250h115v-550h-115z" />
    <glyph glyph-name="Identity.232" unicode="&#x448;" horiz-adv-x="862" 
d="M87 0v550h113v-458h175v458h111v-458h175v458h115v-550h-689z" />
    <glyph glyph-name="Identity.233" unicode="&#x449;" horiz-adv-x="877" 
d="M776 92h82v-74l-11 -211h-100v193h-660v550h113v-458h175v458h111v-458h175v458h115v-458z" />
    <glyph glyph-name="Identity.234" unicode="&#x44a;" horiz-adv-x="680" 
d="M215 0v458h-186v92h301v-194h81q104 0 164 -43t60 -133q0 -92 -60 -136t-164 -44h-196zM330 90h72q122 0 122 90q0 89 -122 89h-72v-179z" />
    <glyph glyph-name="Identity.235" unicode="&#x44b;" horiz-adv-x="781" 
d="M87 0v550h114v-194h66q104 0 164 -43t60 -133q0 -92 -60 -136t-164 -44h-180zM201 90h57q122 0 122 90q0 89 -122 89h-57v-179zM580 0v550h115v-550h-115z" />
    <glyph glyph-name="Identity.236" unicode="&#x44c;" horiz-adv-x="561" 
d="M87 0v550h114v-194h91q104 0 164 -43t60 -133q0 -92 -60 -136t-164 -44h-205zM201 90h82q121 0 121 90q0 89 -121 89h-82v-179z" />
    <glyph glyph-name="Identity.237" unicode="&#x44d;" horiz-adv-x="517" 
d="M88 431l-52 67q70 66 174 66q113 0 185.5 -74.5t72.5 -215.5q0 -139 -72 -213t-189 -74q-110 0 -181 68l45 69q54 -47 125 -47t113 42t49 126h-227v79h225q-10 75 -50 112.5t-102 37.5q-63 0 -116 -43z" />
    <glyph glyph-name="Identity.238" unicode="&#x44e;" horiz-adv-x="843" 
d="M547 81q61 0 95.5 52.5t34.5 140.5q0 89 -34.5 142t-95.5 53q-60 0 -96 -53.5t-36 -141.5q0 -87 36 -140t96 -53zM201 332h109q15 109 81.5 170.5t161.5 61.5q104 0 173 -78t69 -212q0 -133 -69 -210t-173 -77q-99 0 -166 65t-79 179h-107v-231h-114v550h114v-218z" />
    <glyph glyph-name="Identity.239" unicode="&#x44f;" horiz-adv-x="589" 
d="M388 286v177h-76q-122 0 -122 -85q0 -44 32 -68t90 -24h76zM295 550h208v-550h-115v205h-91l-138 -205h-129l161 223q-115 44 -115 158q0 169 219 169z" />
    <glyph glyph-name="Identity.240" unicode="&#x451;" horiz-adv-x="565" 
d="M316 -13q-115 0 -191.5 77.5t-76.5 209.5q0 129 75 209.5t176 80.5q107 0 165.5 -70.5t58.5 -190.5q0 -36 -5 -58h-357q7 -78 52.5 -123t117.5 -45q68 0 131 41l40 -73q-87 -58 -186 -58zM160 324h264q0 72 -31.5 111t-91.5 39q-54 0 -93.5 -40t-47.5 -110zM187 654
q-27 0 -45.5 18t-18.5 45t18 45.5t46 18.5q27 0 45 -18.5t18 -45.5q0 -26 -18 -44.5t-45 -18.5zM412 654q-28 0 -46 18t-18 45t18 45.5t46 18.5t46 -18.5t18 -45.5t-18 -45t-46 -18z" />
    <glyph glyph-name="Identity.241" unicode="&#x2010;" 
d="M375 402h250v-44h-250v44z" />
    <glyph glyph-name="Identity.242" unicode="&#x2015;" 
d="M73 402h854v-44h-854v44z" />
    <glyph glyph-name="Identity.243" unicode="&#x2018;" horiz-adv-x="298" 
d="M195 778l30 -52q-46 -28 -68 -60.5t-23 -79.5q4 1 11 1q28 0 48 -18t20 -48q0 -32 -19 -51.5t-49 -19.5q-40 0 -61 30t-21 86q0 141 132 212z" />
    <glyph glyph-name="Identity.244" unicode="&#x2019;" horiz-adv-x="298" 
d="M102 457l-29 52q46 29 67.5 61.5t22.5 79.5q-3 -1 -10 -1q-28 0 -47.5 17.5t-19.5 47.5q0 33 18.5 52t48.5 19q39 0 60.5 -30.5t21.5 -85.5q0 -139 -133 -212z" />
    <glyph glyph-name="Identity.245" unicode="&#x201c;" horiz-adv-x="518" 
d="M195 778l30 -52q-46 -28 -68 -60.5t-23 -79.5q4 1 11 1q28 0 48 -18t20 -48q0 -32 -19 -51.5t-49 -19.5q-40 0 -61 30t-21 86q0 141 132 212zM415 778l30 -52q-46 -28 -68 -60.5t-23 -79.5q3 1 10 1q29 0 49 -18t20 -48q0 -33 -19.5 -52t-49.5 -19q-39 0 -60 30t-21 86
q0 141 132 212z" />
    <glyph glyph-name="Identity.246" unicode="&#x201d;" horiz-adv-x="518" 
d="M102 457l-29 52q46 29 67.5 61.5t22.5 79.5q-3 -1 -10 -1q-28 0 -47.5 17.5t-19.5 47.5q0 33 18.5 52t48.5 19q39 0 60.5 -30.5t21.5 -85.5q0 -139 -133 -212zM322 457l-29 52q46 29 67.5 61.5t22.5 79.5q-3 -1 -10 -1q-28 0 -48 17.5t-20 47.5q0 33 19 52t49 19
q39 0 60.5 -30.5t21.5 -85.5q0 -139 -133 -212z" />
    <glyph glyph-name="Identity.247" unicode="&#x2020;" 
d="M554 767l-9 -238l198 8v-94l-198 7l9 -507h-108l9 507l-198 -7v94l198 -8l-9 238h108z" />
    <glyph glyph-name="Identity.248" unicode="&#x2021;" 
d="M554 767l-9 -224l198 8v-95l-198 8v-216l198 8v-95l-198 8l9 -226h-108l9 226l-198 -8v95l198 -8v216l-198 -8v95l198 -8l-9 224h108z" />
    <glyph glyph-name="Identity.249" unicode="&#x2025;" 
d="M178 380q0 30 21 51t51 21t51 -21t21 -51t-21 -51t-51 -21t-51 21t-21 51zM678 380q0 30 21 51t51 21t51 -21t21 -51t-21 -51t-51 -21t-51 21t-21 51z" />
    <glyph glyph-name="Identity.250" unicode="&#x2026;" 
d="M95 380q0 30 21 51t51 21t51 -21t21 -51t-21 -51t-51 -21t-51 21t-21 51zM428 380q0 30 21 51t51 21t51 -21t21 -51t-21 -51t-51 -21t-51 21t-21 51zM761 380q0 30 21 51t51 21t51 -21t21 -51t-21 -51t-51 -21t-51 21t-21 51z" />
    <glyph glyph-name="Identity.251" unicode="&#x2030;" 
d="M121 -15l389 767h58l-388 -767h-59zM32 523q0 101 37 164t95 62q62 0 95 -64t33 -161q0 -109 -37.5 -166.5t-91.5 -57.5q-62 0 -96.5 63t-34.5 160zM223 523q0 73 -13.5 121t-48.5 47q-59 0 -59 -166q0 -167 61 -167q60 0 60 165zM398 215q0 101 37 164t95 62
q62 0 95 -64t33 -161q0 -109 -37.5 -166.5t-91.5 -57.5q-62 0 -96.5 63t-34.5 160zM708 215q0 101 37 164t95 62q62 0 95 -64t33 -161q0 -109 -37.5 -166.5t-91.5 -57.5q-62 0 -96.5 63t-34.5 160zM588 215q0 74 -13 121.5t-48 46.5q-60 0 -60 -166q0 -167 62 -167
q59 0 59 165zM898 215q0 74 -13 121.5t-48 46.5q-60 0 -60 -166q0 -167 62 -167q59 0 59 165z" />
    <glyph glyph-name="Identity.252" unicode="&#x2032;" horiz-adv-x="298" 
d="M92 485l24 290l114 -1l-19 -114l-44 -176z" />
    <glyph glyph-name="Identity.253" unicode="&#x2033;" horiz-adv-x="518" 
d="M92 485l24 290l114 -1l-19 -114l-44 -176zM312 485l23 290l115 -1l-20 -114l-43 -176z" />
    <glyph glyph-name="Identity.254" unicode="&#x203b;" 
d="M575 665q0 -31 -22 -53t-53 -22t-53 22t-22 53t22 53t53 22t53 -22t22 -53zM170 739l330 -330l330 330l29 -29l-330 -330l330 -330l-29 -29l-330 330l-331 -331l-29 29l331 331l-330 330zM215 455q31 0 53 -22t22 -53t-22 -53t-53 -22t-53 22t-22 53t22 53t53 22z
M785 305q-31 0 -53 22t-22 53t22 53t53 22t53 -22t22 -53t-22 -53t-53 -22zM425 95q0 31 22 53t53 22t53 -22t22 -53t-22 -53t-53 -22t-53 22t-22 53z" />
    <glyph glyph-name="Identity.255" unicode="&#x2103;" 
d="M187 471q-62 0 -105 42t-43 107q0 67 43 109t105 42t105.5 -42t43.5 -109q0 -65 -43.5 -107t-105.5 -42zM187 532q37 0 60 24.5t23 63.5q0 40 -23 64.5t-60 24.5q-36 0 -58.5 -24.5t-22.5 -64.5q0 -39 22.5 -63.5t58.5 -24.5zM740 -14q-146 0 -239 101.5t-93 278.5
q0 176 95 280t241 104q119 0 207 -92l-66 -75q-60 63 -139 63q-97 0 -156.5 -74.5t-59.5 -201.5q0 -130 57 -205t155 -75q90 0 158 76l67 -73q-93 -107 -227 -107z" />
    <glyph glyph-name="Identity.256" unicode="&#x212b;" 
d="M398 300h200l-29 98q-13 42 -69 245h-5q-38 -150 -68 -245zM497 907q-34 0 -56 -22.5t-22 -59.5q0 -39 21.5 -61t56.5 -22q34 0 56.5 22.5t22.5 60.5q0 37 -23 59.5t-56 22.5zM686 0l-61 208h-254l-62 -208h-121l234 710q-76 34 -76 121q0 62 42 99t109 37t110 -37.5
t43 -98.5q0 -40 -20 -71t-54 -48l236 -712h-126z" />
    <glyph glyph-name="Identity.257" unicode="&#x2190;" 
d="M960 338h-743q83 -61 149 -152l-73 -41q-106 137 -258 235q152 98 258 235l73 -41q-66 -91 -149 -152h743v-84z" />
    <glyph glyph-name="Identity.258" unicode="&#x2191;" 
d="M458 -80v743q-61 -83 -152 -149l-41 73q137 106 235 258q98 -152 235 -258l-41 -73q-91 66 -152 149v-743h-84z" />
    <glyph glyph-name="Identity.259" unicode="&#x2192;" 
d="M40 338v84h743q-83 61 -149 152l73 41q106 -137 258 -235q-152 -98 -258 -235l-73 41q66 91 149 152h-743z" />
    <glyph glyph-name="Identity.260" unicode="&#x2193;" 
d="M542 840v-743q61 83 152 149l41 -73q-137 -106 -235 -258q-98 152 -235 258l41 73q91 -66 152 -149v743h84z" />
    <glyph glyph-name="Identity.261" unicode="&#x21d2;" 
d="M731 280q58 59 109 97q-51 38 -109 97h-691v83h619q-56 68 -85 117l71 41q59 -95 150.5 -188t181.5 -150q-90 -57 -181.5 -150t-150.5 -188l-71 41q29 49 85 117h-619v83h691z" />
    <glyph glyph-name="Identity.262" unicode="&#x21d4;" 
d="M322 715l72 -41q-28 -51 -80 -117h372q-52 66 -80 117l72 41q53 -95 135.5 -188t163.5 -150q-81 -57 -163.5 -150t-135.5 -188l-72 41q28 51 80 117h-372q52 -66 80 -117l-72 -41q-53 95 -135.5 188t-163.5 150q81 57 163.5 150t135.5 188zM750 474h-500
q-54 -60 -101 -97q47 -37 101 -97h500q54 60 101 97q-47 37 -101 97z" />
    <glyph glyph-name="Identity.263" unicode="&#x2200;" 
d="M815 768l73 -39l-386 -744h-4l-386 744l73 39l128 -248h374zM356 437l142 -277h4l142 277h-288z" />
    <glyph glyph-name="Identity.264" unicode="&#x2202;" 
d="M697 483q0 95 -42.5 147t-117.5 52q-93 0 -161 -81l-59 67q106 97 231 97q109 0 178.5 -74t69.5 -208q0 -85 -22.5 -170t-65 -158.5t-113 -119.5t-156.5 -46q-110 0 -170.5 64t-60.5 164q0 114 78.5 190.5t178.5 76.5q143 0 215 -123h2q15 63 15 122zM303 221
q0 -65 38.5 -104.5t100.5 -39.5q69 1 120.5 47t81.5 131q-12 68 -60 108.5t-110 40.5q-66 0 -118.5 -52.5t-52.5 -130.5z" />
    <glyph glyph-name="Identity.265" unicode="&#x2203;" 
d="M192 743h611v-732h-611v83h528v242h-528v83h528v241h-528v83z" />
    <glyph glyph-name="Identity.266" unicode="&#x2207;" 
d="M430 -15l-284 666v70h707v-70l-284 -666h-139zM590 314l129 309h-442l128 -309l90 -232h5z" />
    <glyph glyph-name="Identity.267" unicode="&#x2208;" 
d="M871 616h-413q-96 0 -164.5 -55.5t-82.5 -141.5h660v-83h-660q14 -86 82.5 -142t164.5 -56h413v-83h-413q-142 0 -238.5 93t-96.5 229t96.5 229t238.5 93h413v-83z" />
    <glyph glyph-name="Identity.268" unicode="&#x220b;" 
d="M542 616h-413v83h413q142 0 238.5 -93t96.5 -229t-96.5 -229t-238.5 -93h-413v83h413q96 0 164.5 56t82.5 142h-660v83h660q-14 86 -82.5 141.5t-164.5 55.5z" />
    <glyph glyph-name="Identity.269" unicode="&#x221a;" 
d="M557 880h443v-44h-412l-321 -924h-31l-108 279l-70 -98l-26 20l140 197l98 -254z" />
    <glyph glyph-name="Identity.270" unicode="&#x221d;" 
d="M554 377q95 -121 209 -121q34 0 61 9l31 -77q-42 -15 -93 -15q-145 0 -262 139q-117 -139 -262 -139q-81 0 -143.5 54.5t-62.5 149.5q0 96 62.5 150t143.5 54q145 0 262 -139q117 139 262 139q51 0 93 -15l-31 -77q-27 9 -61 9q-114 0 -209 -121zM115 377q0 -55 35 -88
t86 -33q115 0 210 121q-95 121 -210 121q-51 0 -86 -33t-35 -88z" />
    <glyph glyph-name="Identity.271" unicode="&#x221e;" 
d="M500 442q117 139 262 139q80 0 143 -54.5t63 -149.5t-63 -149.5t-143 -54.5q-145 0 -262 139q-117 -139 -262 -139q-81 0 -143.5 54.5t-62.5 149.5q0 96 62.5 150t143.5 54q145 0 262 -139zM115 377q0 -55 35 -88t86 -33q115 0 210 121q-95 121 -210 121q-51 0 -86 -33
t-35 -88zM554 377q95 -121 209 -121q51 0 86.5 33t35.5 88t-35.5 88t-86.5 33q-114 0 -209 -121z" />
    <glyph glyph-name="Identity.272" unicode="&#x2220;" 
d="M296 114v-3h587v-83h-784v4l660 662l59 -59z" />
    <glyph glyph-name="Identity.273" unicode="&#x2225;" 
d="M199 128l322 643l74 -37l-321 -643zM479 -12l-74 37l321 643l75 -37z" />
    <glyph glyph-name="Identity.274" unicode="&#x2227;" 
d="M112 29l386 745h4l386 -745l-73 -38l-313 608h-4l-313 -608z" />
    <glyph glyph-name="Identity.275" unicode="&#x2228;" 
d="M888 725l-386 -745h-4l-386 745l73 38l313 -608h4l313 608z" />
    <glyph glyph-name="Identity.276" unicode="&#x2229;" 
d="M178 419q0 142 93 238.5t229 96.5t229 -96.5t93 -238.5v-413h-83v413q0 108 -68.5 180t-170.5 72t-170.5 -72t-68.5 -180v-413h-83v413z" />
    <glyph glyph-name="Identity.277" unicode="&#x222a;" 
d="M822 335q0 -142 -93 -238.5t-229 -96.5t-229 96.5t-93 238.5v413h83v-413q0 -108 68.5 -180t170.5 -72t170.5 72t68.5 180v413h83v-413z" />
    <glyph glyph-name="Identity.278" unicode="&#x222b;" 
d="M450 175v426q0 247 185 247q26 0 54 -5l-9 -91q-17 4 -37 4q-44 0 -68.5 -35.5t-24.5 -135.5v-426q0 -247 -185 -247q-26 0 -54 5l9 91q17 -4 37 -4q44 0 68.5 35.5t24.5 135.5z" />
    <glyph glyph-name="Identity.279" unicode="&#x222c;" 
d="M254 175v426q0 247 185 247q27 0 54 -5l-9 -91q-16 4 -36 4q-45 0 -69.5 -35.5t-24.5 -135.5v-426q0 -247 -185 -247q-26 0 -53 5l8 91q17 -4 37 -4q45 0 69 35.5t24 135.5zM646 175v426q0 247 185 247q26 0 53 -5l-8 -91q-17 4 -37 4q-45 0 -69 -35.5t-24 -135.5v-426
q0 -247 -185 -247q-27 0 -54 5l9 91q16 -4 36 -4q45 0 69.5 35.5t24.5 135.5z" />
    <glyph glyph-name="Identity.280" unicode="&#x2234;" 
d="M421 608q0 33 23.5 56t55.5 23t55.5 -23t23.5 -56q0 -32 -23.5 -55t-55.5 -23t-55.5 23t-23.5 55zM166 146q0 32 23 55t56 23q32 0 55 -23t23 -55t-23 -55.5t-55 -23.5q-33 0 -56 23.5t-23 55.5zM677 146q0 32 23.5 55t55.5 23t55.5 -23t23.5 -55t-23.5 -55.5
t-55.5 -23.5t-55.5 23.5t-23.5 55.5z" />
    <glyph glyph-name="Identity.281" unicode="&#x2235;" 
d="M166 608q0 33 23 56t56 23q32 0 55 -23t23 -56q0 -32 -23 -55t-55 -23q-33 0 -56 23t-23 55zM677 608q0 33 23.5 56t55.5 23t55.5 -23t23.5 -56q0 -32 -23.5 -55t-55.5 -23t-55.5 23t-23.5 55zM421 146q0 32 23.5 55t55.5 23t55.5 -23t23.5 -55t-23.5 -55.5t-55.5 -23.5
t-55.5 23.5t-23.5 55.5z" />
    <glyph glyph-name="Identity.282" unicode="&#x223d;" 
d="M471 407q60 80 129.5 127t161.5 47q80 0 143 -54.5t63 -149.5q0 -96 -63 -150t-146 -54q-51 0 -94 15l31 77q28 -9 64 -9q53 0 89 33t36 88t-35.5 88t-86.5 33q-71 0 -126 -40t-108 -111q-131 -174 -291 -174q-81 0 -143.5 54.5t-62.5 149.5q0 96 63 150t146 54
q51 0 93 -15l-31 -77q-27 9 -64 9q-53 0 -88.5 -33t-35.5 -88t35 -88t86 -33q72 0 127 39.5t108 111.5z" />
    <glyph glyph-name="Identity.283" unicode="&#x2252;" 
d="M241 670q0 32 23.5 55.5t55.5 23.5t55.5 -23.5t23.5 -55.5t-23.5 -55.5t-55.5 -23.5t-55.5 23.5t-23.5 55.5zM140 511h720v-71h-720v71zM140 314h720v-71h-720v71zM601 84q0 32 23.5 55.5t55.5 23.5t55.5 -23.5t23.5 -55.5t-23.5 -55.5t-55.5 -23.5t-55.5 23.5
t-23.5 55.5z" />
    <glyph glyph-name="Identity.284" unicode="&#x2260;" 
d="M860 445h-291l-50 -139h341v-83h-372l-72 -198l-78 29l62 169h-260v83h290l50 139h-340v83h371l73 201l78 -29l-63 -172h261v-83z" />
    <glyph glyph-name="Identity.285" unicode="&#x2261;" 
d="M140 633h720v-77h-720v77zM140 416h720v-78h-720v78zM140 198h720v-77h-720v77z" />
    <glyph glyph-name="Identity.286" unicode="&#x2266;" 
d="M856 848l29 -78l-548 -209v-3l548 -210l-29 -78l-753 288v3zM129 205h742v-77h-742v77zM129 29h742v-77h-742v77z" />
    <glyph glyph-name="Identity.287" unicode="&#x2267;" 
d="M144 848l753 -287v-3l-753 -288l-29 78l548 210v3l-548 209zM129 205h742v-77h-742v77zM129 29h742v-77h-742v77z" />
    <glyph glyph-name="Identity.288" unicode="&#x226a;" 
d="M598 765l41 -58l-470 -328v-4l470 -328l-41 -58l-553 386v4zM913 765l41 -58l-470 -328v-4l470 -328l-41 -58l-553 386v4z" />
    <glyph glyph-name="Identity.289" unicode="&#x226b;" 
d="M87 765l553 -386v-4l-553 -386l-41 58l470 328v4l-470 328zM402 765l553 -386v-4l-553 -386l-41 58l470 328v4l-470 328z" />
    <glyph glyph-name="Identity.290" unicode="&#x2282;" 
d="M458 55q-142 0 -238.5 93t-96.5 229t96.5 229t238.5 93h413v-83h-413q-108 0 -180 -68.5t-72 -170.5t72 -170.5t180 -68.5h413v-83h-413z" />
    <glyph glyph-name="Identity.291" unicode="&#x2283;" 
d="M542 699q142 0 238.5 -93t96.5 -229t-96.5 -229t-238.5 -93h-413v83h413q108 0 180 68.5t72 170.5t-72 170.5t-180 68.5h-413v83h413z" />
    <glyph glyph-name="Identity.292" unicode="&#x2286;" 
d="M408 682q-92 0 -147 -53t-55 -130t55 -130.5t147 -53.5h463v-83h-463q-126 0 -205.5 78t-79.5 189t79 188.5t206 77.5h463v-83h-463zM129 72h742v-83h-742v83z" />
    <glyph glyph-name="Identity.293" unicode="&#x2287;" 
d="M592 315q92 0 147 53.5t55 130.5t-55 130t-147 53h-463v83h463q127 0 206 -77.5t79 -188.5t-79.5 -189t-205.5 -78h-463v83h463zM129 72h742v-83h-742v83z" />
    <glyph glyph-name="Identity.294" unicode="&#x22a5;" 
d="M542 117h358v-83h-800v83h358v621h84v-621z" />
    <glyph glyph-name="Identity.295" unicode="&#x2312;" 
d="M22 649q198 198 478 198t478 -198l-36 -75q-191 183 -442 183t-442 -183z" />
    <glyph glyph-name="Identity.296" unicode="&#x2500;" 
d="M0 360v40h1000v-40h-1000z" />
    <glyph glyph-name="Identity.297" unicode="&#x2501;" 
d="M0 320v120h1000v-120h-1000z" />
    <glyph glyph-name="Identity.298" unicode="&#x2502;" 
d="M480 -120v1000h40v-1000h-40z" />
    <glyph glyph-name="Identity.299" unicode="&#x2503;" 
d="M440 -120v1000h120v-1000h-120z" />
    <glyph glyph-name="Identity.300" unicode="&#x250c;" 
d="M1000 360h-480v-480h-40v520h520v-40z" />
    <glyph glyph-name="Identity.301" unicode="&#x250f;" 
d="M1000 320h-440v-440h-120v560h560v-120z" />
    <glyph glyph-name="Identity.302" unicode="&#x2510;" 
d="M520 -120h-40v480h-480v40h520v-520z" />
    <glyph glyph-name="Identity.303" unicode="&#x2513;" 
d="M560 -120h-120v440h-440v120h560v-560z" />
    <glyph glyph-name="Identity.304" unicode="&#x2514;" 
d="M1000 360h-520v520h40v-480h480v-40z" />
    <glyph glyph-name="Identity.305" unicode="&#x2517;" 
d="M440 320v560h120v-440h440v-120h-560z" />
    <glyph glyph-name="Identity.306" unicode="&#x2518;" 
d="M520 360h-520v40h480v480h40v-520z" />
    <glyph glyph-name="Identity.307" unicode="&#x251b;" 
d="M0 320v120h440v440h120v-560h-560z" />
    <glyph glyph-name="Identity.308" unicode="&#x251c;" 
d="M1000 360h-480v-480h-40v1000h40v-480h480v-40z" />
    <glyph glyph-name="Identity.309" unicode="&#x251d;" 
d="M1000 320h-480v-440h-40v1000h40v-440h480v-120z" />
    <glyph glyph-name="Identity.310" unicode="&#x2520;" 
d="M1000 360h-440v-480h-120v1000h120v-480h440v-40z" />
    <glyph glyph-name="Identity.311" unicode="&#x2523;" 
d="M1000 320h-440v-440h-120v1000h120v-440h440v-120z" />
    <glyph glyph-name="Identity.312" unicode="&#x2524;" 
d="M520 -120h-40v480h-480v40h480v480h40v-1000z" />
    <glyph glyph-name="Identity.313" unicode="&#x2525;" 
d="M520 -120h-40v440h-480v120h480v440h40v-1000z" />
    <glyph glyph-name="Identity.314" unicode="&#x2528;" 
d="M560 -120h-120v480h-440v40h440v480h120v-1000z" />
    <glyph glyph-name="Identity.315" unicode="&#x252b;" 
d="M560 -120h-120v440h-440v120h440v440h120v-1000z" />
    <glyph glyph-name="Identity.316" unicode="&#x252c;" 
d="M1000 360h-480v-480h-40v480h-480v40h1000v-40z" />
    <glyph glyph-name="Identity.317" unicode="&#x252f;" 
d="M1000 320h-480v-440h-40v440h-480v120h1000v-120z" />
    <glyph glyph-name="Identity.318" unicode="&#x2530;" 
d="M1000 360h-440v-480h-120v480h-440v40h1000v-40z" />
    <glyph glyph-name="Identity.319" unicode="&#x2533;" 
d="M1000 320h-440v-440h-120v440h-440v120h1000v-120z" />
    <glyph glyph-name="Identity.320" unicode="&#x2534;" 
d="M1000 360h-1000v40h480v480h40v-480h480v-40z" />
    <glyph glyph-name="Identity.321" unicode="&#x2537;" 
d="M1000 320h-1000v120h480v440h40v-440h480v-120z" />
    <glyph glyph-name="Identity.322" unicode="&#x2538;" 
d="M1000 360h-1000v40h440v480h120v-480h440v-40z" />
    <glyph glyph-name="Identity.323" unicode="&#x253b;" 
d="M1000 320h-1000v120h440v440h120v-440h440v-120z" />
    <glyph glyph-name="Identity.324" unicode="&#x253c;" 
d="M1000 360h-480v-480h-40v480h-480v40h480v480h40v-480h480v-40z" />
    <glyph glyph-name="Identity.325" unicode="&#x253f;" 
d="M1000 320h-480v-440h-40v440h-480v120h480v440h40v-440h480v-120z" />
    <glyph glyph-name="Identity.326" unicode="&#x2542;" 
d="M1000 360h-440v-480h-120v480h-440v40h440v480h120v-480h440v-40z" />
    <glyph glyph-name="Identity.327" unicode="&#x254b;" 
d="M1000 320h-440v-440h-120v440h-440v120h440v440h120v-440h440v-120z" />
    <glyph glyph-name="Identity.328" unicode="&#x25a0;" 
d="M100 780h800v-800h-800v800z" />
    <glyph glyph-name="Identity.329" unicode="&#x25a1;" 
d="M100 780h800v-800h-800v800zM140 740v-720h720v720h-720z" />
    <glyph glyph-name="Identity.330" unicode="&#x25b2;" 
d="M500 826l470 -814h-940z" />
    <glyph glyph-name="Identity.331" unicode="&#x25b3;" 
d="M500 826l470 -814h-940zM500 746l-401 -694h802z" />
    <glyph glyph-name="Identity.332" unicode="&#x25bc;" 
d="M30 748h940l-470 -814z" />
    <glyph glyph-name="Identity.333" unicode="&#x25bd;" 
d="M30 748h940l-470 -814zM901 708h-802l401 -694z" />
    <glyph glyph-name="Identity.334" unicode="&#x25c6;" 
d="M500 868l488 -488l-488 -488l-488 488z" />
    <glyph glyph-name="Identity.335" unicode="&#x25c7;" 
d="M500 868l488 -488l-488 -488l-488 488zM500 811l-431 -431l431 -431l431 431z" />
    <glyph glyph-name="Identity.336" unicode="&#x25cb;" 
d="M500 -70q-122 0 -226 60t-164 164t-60 226t60 226t164 164t226 60t226 -60t164 -164t60 -226t-60 -226t-164 -164t-226 -60zM90 380q0 -111 55 -205.5t149.5 -149.5t205.5 -55t205.5 55t149.5 149.5t55 205.5t-55 205.5t-149.5 149.5t-205.5 55t-205.5 -55t-149.5 -149.5
t-55 -205.5z" />
    <glyph glyph-name="Identity.337" unicode="&#x25ce;" 
d="M50 380q0 122 60 226t164 164t226 60t226 -60t164 -164t60 -226t-60 -226t-164 -164t-226 -60t-226 60t-164 164t-60 226zM910 380q0 111 -55 205.5t-149.5 149.5t-205.5 55t-205.5 -55t-149.5 -149.5t-55 -205.5t55 -205.5t149.5 -149.5t205.5 -55t205.5 55t149.5 149.5
t55 205.5zM205 380q0 122 86.5 208.5t208.5 86.5t208.5 -86.5t86.5 -208.5t-86.5 -208.5t-208.5 -86.5t-208.5 86.5t-86.5 208.5zM761 380q0 108 -76.5 184.5t-184.5 76.5t-184.5 -76.5t-76.5 -184.5t76.5 -184.5t184.5 -76.5t184.5 76.5t76.5 184.5z" />
    <glyph glyph-name="Identity.338" unicode="&#x25cf;" 
d="M500 -70q-122 0 -226 60t-164 164t-60 226t60 226t164 164t226 60t226 -60t164 -164t60 -226t-60 -226t-164 -164t-226 -60z" />
    <glyph glyph-name="Identity.339" unicode="&#x25ef;" 
d="M500 848q95 0 181.5 -37t149.5 -100t100 -149.5t37 -181.5t-37 -181.5t-100 -149.5t-149.5 -100t-181.5 -37t-181.5 37t-149.5 100t-100 149.5t-37 181.5t37 181.5t100 149.5t149.5 100t181.5 37zM935 380q0 180 -127.5 307.5t-307.5 127.5t-307.5 -127.5t-127.5 -307.5
t127.5 -307.5t307.5 -127.5t307.5 127.5t127.5 307.5z" />
    <glyph glyph-name="Identity.340" unicode="&#x2605;" 
d="M612 485h350v-5l-282 -205l111 -337l-4 -2l-287 209l-287 -209l-4 2l111 337l-282 205v5h350l110 336h4z" />
    <glyph glyph-name="Identity.341" unicode="&#x2606;" 
d="M388 485l107 336h10l107 -336h349l2 -9l-283 -201l113 -335l-7 -5l-286 210l-286 -210l-7 5l113 335l-283 201l2 9h349zM417 445h-175l-106 6v-2l91 -59l141 -99l-53 -158l-43 -110l2 -1l94 75l132 97l132 -97l94 -75l2 1l-43 110l-53 158l141 99l91 59v2l-107 -6h-174
l-55 169l-27 103h-2l-28 -103z" />
    <glyph glyph-name="Identity.342" unicode="&#x2640;" 
d="M278 598q0 92 65 157t157 65t157 -65t65 -157q0 -81 -51 -142.5t-129 -75.5v-97h280v-83h-280v-260h-84v260h-280v83h280v97q-78 14 -129 75.5t-51 142.5zM639 598q0 58 -40.5 98.5t-98.5 40.5t-98.5 -40.5t-40.5 -98.5t40.5 -99t98.5 -41t98.5 41t40.5 99z" />
    <glyph glyph-name="Identity.343" unicode="&#x2642;" 
d="M559 217q0 -92 -65 -157.5t-157 -65.5t-157.5 65.5t-65.5 157.5t65.5 157t157.5 65q68 0 123 -38l266 265h-239v83h382v-382h-83v244l-267 -268q40 -56 40 -126zM197 217q0 -58 41 -99t99 -41t98.5 41t40.5 99t-40.5 98.5t-98.5 40.5t-99 -40.5t-41 -98.5z" />
    <glyph glyph-name="Identity.344" unicode="&#x266a;" 
d="M486 840h25q0 -119 116 -220q129 -112 129 -225q0 -109 -84 -244h-26q63 132 63 210q0 86 -52 149.5t-131 81.5v-502q0 -75 -54.5 -122.5t-128.5 -47.5q-37 0 -65 19.5t-28 54.5q0 52 55 95t118 43q39 0 63 -13v721z" />
    <glyph glyph-name="Identity.345" unicode="&#x266d;" 
d="M601 471q64 0 103 -37t39 -92q0 -57 -26.5 -103.5t-72 -81.5t-94 -65t-104 -70.5t-91.5 -82.5h-9v883h40v-492q36 63 93 102t122 39zM386 11q29 32 79 76l81 72.5t56 72.5t25 92q0 44 -20.5 64.5t-55.5 20.5q-39 0 -84 -33.5t-81 -98.5v-266z" />
    <glyph glyph-name="Identity.346" unicode="&#x266f;" 
d="M756 525l-135 -20v-204l135 20v-96l-135 -20v-237h-40v231l-167 -25v-236h-39v230l-136 -20v97l136 20v204l-136 -21v97l136 20v227h39v-221l167 24v228h40v-222l135 20v-96zM581 295v204l-167 -24v-204z" />
    <glyph glyph-name="Identity.347" unicode="&#x3001;" 
d="M350 11l-85 -72q-98 120 -218 221l82 72q118 -97 221 -221z" />
    <glyph glyph-name="Identity.348" unicode="&#x3002;" 
d="M194 246q65 0 110.5 -46t45.5 -111t-45.5 -110.5t-110.5 -45.5q-64 0 -110 45.5t-46 110.5t46 111t110 46zM194 -7q40 0 68 28t28 68t-28 68t-68 28t-68 -28t-28 -68t28 -68t68 -28z" />
    <glyph glyph-name="Identity.349" unicode="&#x3003;" 
d="M375 621l114 -49l-215 -451l-61 27zM673 621l114 -49l-215 -451l-61 27z" />
    <glyph glyph-name="Identity.350" unicode="&#x3005;" 
d="M781 600l71 -39q-33 -93 -90 -198.5t-121 -192.5q87 -57 132 -104l-66 -89q-55 60 -163.5 132.5t-215.5 122.5l59 78q88 -40 168 -87q92 122 158 278h-315q-98 -191 -215 -304q-31 25 -89 54q105 95 186 243t126 299l104 -24q-33 -97 -67 -173h320z" />
    <glyph glyph-name="Identity.351" unicode="&#x3006;" 
d="M788 790l91 -58q-92 -106 -247 -307q133 -96 229 -178l-78 -94q-66 68 -219 184l-235 -310q-37 -50 -71 -103l-94 30q5 46 4 57q-2 143 -20 252l96 14q7 -81 11 -172l226 293q-132 95 -221 142l72 85q91 -56 217 -141l134.5 172.5z" />
    <glyph glyph-name="Identity.352" unicode="&#x3007;" 
d="M45 380q0 188 133.5 321.5t321.5 133.5t321.5 -133.5t133.5 -321.5t-133.5 -321.5t-321.5 -133.5t-321.5 133.5t-133.5 321.5zM858 380q0 148 -105 253t-253 105t-253 -105t-105 -253t105 -253t253 -105t253 105t105 253z" />
    <glyph glyph-name="Identity.353" unicode="&#x3008;" 
d="M676 380l271 -434l-78 -34l-293 468l293 468l78 -34z" />
    <glyph glyph-name="Identity.354" unicode="&#x3009;" 
d="M131 -88l-78 34l271 434l-271 434l78 34l293 -468z" />
    <glyph glyph-name="Identity.355" unicode="&#x300a;" 
d="M600 380l204 -447l-67 -21l-212 468l212 468l67 -21zM764 380l204 -447l-67 -21l-212 468l212 468l67 -21z" />
    <glyph glyph-name="Identity.356" unicode="&#x300b;" 
d="M263 -88l-67 21l204 447l-204 447l67 21l212 -468zM99 -88l-67 21l204 447l-204 447l67 21l212 -468z" />
    <glyph glyph-name="Identity.357" unicode="&#x300c;" 
d="M646 205v643h322v-86h-229v-557h-93z" />
    <glyph glyph-name="Identity.358" unicode="&#x300d;" 
d="M354 555v-643h-322v86h229v557h93z" />
    <glyph glyph-name="Identity.359" unicode="&#x300e;" 
d="M968 683h-188v-496h-180v661h368v-165zM931 811h-294v-587h105v497h189v90z" />
    <glyph glyph-name="Identity.360" unicode="&#x300f;" 
d="M32 77h188v496h180v-661h-368v165zM69 -51h294v587h-105v-497h-189v-90z" />
    <glyph glyph-name="Identity.361" unicode="&#x3010;" 
d="M664 848h304v-5q-87 -73 -142.5 -195t-55.5 -268t55.5 -268t142.5 -195v-5h-304v936z" />
    <glyph glyph-name="Identity.362" unicode="&#x3011;" 
d="M336 848v-936h-304v5q87 73 142.5 195t55.5 268t-55.5 268t-142.5 195v5h304z" />
    <glyph glyph-name="Identity.363" unicode="&#x3012;" 
d="M165 721h670v-91h-670v91zM165 506h670v-91h-285v-405h-100v405h-285v91z" />
    <glyph glyph-name="Identity.364" unicode="&#x3013;" 
d="M900 780v-300h-800v300h800zM900 280v-300h-800v300h800z" />
    <glyph glyph-name="Identity.365" unicode="&#x3014;" 
d="M928 -101l-224 145v672l224 145l39 -64l-175 -113v-608l175 -113z" />
    <glyph glyph-name="Identity.366" unicode="&#x3015;" 
d="M296 44l-224 -145l-39 64l175 113v608l-175 113l39 64l224 -145v-672z" />
    <glyph glyph-name="Identity.367" unicode="&#x301c;" 
d="M695 237q-125 0 -231 108q-41 41 -75.5 59.5t-84.5 18.5q-53 0 -99 -34t-77 -93l-88 48q99 179 265 179q125 0 231 -108q41 -41 75.5 -59.5t84.5 -18.5q53 0 99 34t77 93l88 -48q-99 -179 -265 -179z" />
    <glyph glyph-name="Identity.368" unicode="&#x3041;" 
d="M459 335v-12q0 -76 11 -144q76 74 117 177h-2q-65 0 -126 -21zM302 84q42 0 93 33q-18 99 -19 180q-51 -33 -84.5 -79.5t-33.5 -90.5q0 -43 44 -43zM704 457l-14 -42q77 -22 120 -76.5t43 -126.5q0 -92 -66 -162t-207 -94l-48 76q110 12 171 63t61 124q0 43 -26 76
t-73 49q-63 -159 -176 -255q10 -38 19 -64l-83 -24q-7 19 -11 37q-69 -37 -128 -37q-49 0 -79.5 27t-30.5 84q0 81 58 154.5t144 115.5q2 43 8 108h-36q-69 0 -139 6l-3 83q64 -11 142 -11h45l6 55q2 28 2 45l97 -2q-5 -15 -10 -42q-1 -7 -4.5 -24.5t-5.5 -28.5
q157 8 282 35l1 -82q-137 -22 -293 -30q-6 -54 -8 -82q65 17 126 17q15 0 23 -1q7 30 9 49z" />
    <glyph glyph-name="Identity.369" unicode="&#x3042;" 
d="M436 403v-24q0 -85 15 -173q96 94 148 223h-6q-75 0 -157 -26zM250 97q52 0 120 43q-22 118 -22 223q-65 -40 -107 -99.5t-42 -111.5q0 -55 51 -55zM636 573l98 -24q-2 -5 -19 -55q90 -27 142.5 -90.5t52.5 -147.5q0 -114 -79 -197.5t-246 -109.5l-53 83q134 15 207 77.5
t73 151.5q0 52 -32.5 94t-92.5 61q-78 -197 -214 -312q9 -36 23 -77l-91 -27q-9 28 -14 48q-87 -48 -161 -48q-55 0 -90 34t-35 100q0 93 70.5 184t175.5 139q2 52 10 135h-48q-68 0 -166 7l-3 92q88 -13 172 -13h54l7 67q3 44 2 52l104 -3q-5 -16 -12 -47q-5 -23 -12 -66
q192 8 342 42l1 -92q-154 -26 -354 -36q-4 -45 -9 -107q83 22 158 22q19 0 28 -1q9 33 11 64z" />
    <glyph glyph-name="Identity.370" unicode="&#x3043;" 
d="M290 574q-7 -52 -7 -90q0 -157 9 -218q10 -84 34.5 -134t57.5 -50q51 0 94 169l74 -83q-37 -104 -76.5 -150t-91.5 -46q-66 0 -116.5 65t-68.5 212q-11 96 -11 245q0 55 -6 81zM710 552q60 -73 101.5 -197.5t49.5 -221.5l-97 -37q-9 108 -46.5 231.5t-99.5 193.5z" />
    <glyph glyph-name="Identity.371" unicode="&#x3044;" 
d="M242 703q-10 -58 -10 -107q-2 -124 7 -223q12 -121 42.5 -190.5t78.5 -69.5q34 0 65 59.5t50 139.5l80 -93q-46 -124 -93 -176.5t-104 -52.5q-82 0 -141 86t-78 271q-11 96 -11 265q0 62 -7 93zM749 678q67 -84 117 -227t60 -267l-103 -40q-13 140 -58 279t-115 222z" />
    <glyph glyph-name="Identity.372" unicode="&#x3045;" 
d="M683 257q0 50 -36 79.5t-94 29.5q-86 0 -223 -43q-31 -10 -69 -26l-29 102q37 3 77 12q10 2 49 10.5t66.5 14t67 10.5t70.5 5q99 0 159 -51.5t60 -143.5q0 -125 -101 -207.5t-285 -110.5l-51 88q339 42 339 231zM348 644q178 -34 365 -38l-14 -87q-69 3 -185.5 16
t-179.5 25z" />
    <glyph glyph-name="Identity.373" unicode="&#x3046;" 
d="M702 332q0 58 -43 95t-115 37q-27 0 -55.5 -3t-49.5 -6t-49 -10t-41 -10.5t-39 -11.5t-30 -9q-27 -7 -89 -31l-31 114q34 2 98 15q8 2 46 10.5l59.5 13t57.5 11t69.5 9.5t65.5 3q114 0 184.5 -61.5t70.5 -169.5q0 -154 -125 -250.5t-333 -127.5l-58 97q191 24 299 94.5
t108 190.5zM298 791q80 -17 216 -30.5t216 -14.5l-16 -97q-277 20 -431 47z" />
    <glyph glyph-name="Identity.374" unicode="&#x3047;" 
d="M352 643q55 -14 161.5 -26.5t174.5 -16.5l-12 -86q-59 5 -167.5 19t-170.5 26zM710 395q-9 -6 -25 -18.5t-19 -14.5q-76 -66 -146 -138q16 0 30 -7q39 -7 56 -62l7 -24.5t9.5 -31.5l7.5 -23q14 -37 63 -37q78 0 154 18l-5 -94q-69 -13 -162 -13q-104 0 -128 70
q-5 14 -14 47.5t-10 37.5q-16 46 -48 46q-24 0 -57 -33q-74 -74 -153 -172l-87 60q12 9 41 35l88 85.5l134.5 132t92.5 95.5q-19 -2 -61.5 -5.5l-91.5 -7.5t-64 -5q-42 -3 -72 -10l-8 100q43 -2 75 -1q201 5 300 19q22 2 41 8z" />
    <glyph glyph-name="Identity.375" unicode="&#x3048;" 
d="M314 796q190 -38 397 -51l-13 -92q-198 16 -399 51zM737 499q-3 -2 -59 -47q-152 -141 -174 -164q16 2 37 -5q47 -8 69 -70l14 -47.5t17 -53.5q15 -51 78 -51q103 0 190 20l-6 -105q-84 -14 -190 -14q-67 0 -104.5 18.5t-53.5 65.5q-5 15 -16.5 56t-15.5 54
q-18 50 -57 50q-29 0 -69 -38q-98 -95 -190 -211l-94 65q35 28 57 52l380 381q-77 -4 -279 -21q-44 -4 -82 -11l-9 110q35 -3 89 -3q47 1 176 9t183 15q32 4 50 11z" />
    <glyph glyph-name="Identity.376" unicode="&#x3049;" 
d="M325 37q27 0 27 36q0 13 -1.5 56t-1.5 67q-43 -22 -70 -49t-27 -53q0 -19 26 -38t47 -19zM432 313v-2q83 24 166 24q97 0 159.5 -48.5t62.5 -129.5q0 -75 -49.5 -128t-149.5 -72q-36 -7 -92 -10l-30 92q56 -2 96 5q57 10 94 39.5t37 75.5q0 47 -36 72t-95 25
q-85 0 -162 -25q1 -36 2.5 -98.5t1.5 -78.5q0 -59 -21.5 -84.5t-63.5 -25.5q-58 0 -123 44.5t-65 99.5q0 56 53.5 107.5t129.5 86.5v28q0 66 1 100q-38 -2 -56 -2q-42 0 -109 6l-2 92q71 -9 111 -9q17 0 57 2q1 29 1 66q0 41 -4 65h99q-3 -21 -6 -65q-1 -23 -3 -59
q90 11 159 31l2 -89q-75 -17 -163 -29q-2 -74 -2 -106zM649 490l43 74q115 -57 197 -119l-49 -77q-26 24 -87 62t-104 60z" />
    <glyph glyph-name="Identity.377" unicode="&#x304a;" 
d="M288 71q33 0 33 46q0 17 -1.5 70t-1.5 82q-54 -26 -88 -60.5t-34 -64.5q0 -27 32 -50t60 -23zM407 428v-34q106 31 206 31q112 0 185 -56t73 -150q0 -184 -214 -235q-54 -12 -125 -14l-36 100q82 0 119 7q68 12 112 48t44 95q0 55 -44.5 86.5t-114.5 31.5q-99 0 -203 -33
q1 -42 2.5 -113.5t1.5 -90.5q0 -74 -25 -104.5t-72 -30.5q-70 0 -144 53t-74 121q0 60 62.5 121t155.5 101v62q0 72 1 109q-36 -3 -65 -3q-81 0 -130 5l-3 96q64 -8 131 -8q20 0 68 2q0 26 0.5 59.5t0.5 39.5q0 42 -6 78h108q-5 -45 -6 -76q-3 -78 -4 -91q109 12 195 38
l2 -98q-89 -20 -199 -33q-2 -80 -2 -114zM675 617l44 76q148 -75 234 -142l-49 -80q-63 57 -229 146z" />
    <glyph glyph-name="Identity.378" unicode="&#x304b;" 
d="M332 793l117 -12q-7 -29 -14 -68q-3 -13 -11 -56t-13 -67q68 5 99 5q169 0 169 -178q0 -100 -14 -200t-43 -159q-23 -48 -60 -67t-93 -19q-57 0 -117 15l-17 104q70 -21 122 -21q59 0 81 47q44 91 44 289q0 60 -24.5 79.5t-76.5 19.5q-28 0 -90 -5q-86 -338 -204 -531
l-103 41q66 89 118.5 221t85.5 258q-103 -11 -107 -12q-58 -7 -99 -14l-9 108q32 -2 95 0q45 1 141 10q24 127 23 212zM697 642l93 40q43 -58 97.5 -170.5t80.5 -189.5l-98 -47q-23 86 -73.5 196.5t-99.5 170.5z" />
    <glyph glyph-name="Identity.379" unicode="&#x304c;" 
d="M977 718l-66 -28q-41 85 -82 138l65 27q47 -67 83 -137zM322 788l117 -12q-11 -47 -15 -68q-8 -48 -23 -123q67 5 99 5q168 0 168 -178q0 -100 -14 -200t-42 -159q-24 -48 -61 -67t-92 -19q-56 0 -118 15l-17 104q72 -21 122 -21q59 0 81 47q44 91 44 289
q0 60 -24.5 79.5t-76.5 19.5q-28 0 -90 -5q-83 -335 -204 -531l-103 41q67 89 119.5 221t85.5 258q-16 -2 -41 -4.5t-41 -4.5t-26 -3q-55 -6 -98 -14l-10 108q32 -2 96 0q46 1 140 10q24 125 24 212zM861 675l-66 -28q42 -63 90 -164t73 -171l-99 -47q-23 86 -73 195
t-100 169l93 41l16 -22q-46 92 -80 138l65 27q39 -56 81 -138z" />
    <glyph glyph-name="Identity.380" unicode="&#x304d;" 
d="M202 273l97 -8q-23 -59 -23 -99q0 -115 189 -115q148 0 251 22l-3 -100q-105 -20 -245 -20q-139 0 -214 48t-75 144q0 53 23 128zM843 551l19 -89q-63 -22 -162 -41q68 -142 86 -175l-47 -60q-69 13 -203 30l8 76l72 -8l45 -4q-54 121 -56 125q-190 -24 -439 -8l-4 91
q222 -21 407 0l-27 63q-16 36 -23 53q-163 -15 -345 3l-6 91q171 -19 314 -10l-8 17q-22 46 -41 77l112 23q9 -34 35 -106q104 17 193 47l17 -88q-69 -23 -177 -41l18 -42q2 -5 8 -18.5l12 -27l12 -26.5q96 17 180 48z" />
    <glyph glyph-name="Identity.381" unicode="&#x304e;" 
d="M161 266l97 -8q-23 -55 -23 -99q0 -115 188 -115q149 0 252 22l-3 -100q-105 -20 -246 -20q-138 0 -213 48t-75 144q0 53 23 128zM802 544l19 -89q-64 -22 -162 -41q68 -142 86 -175l-47 -60q-98 17 -204 30l9 76q20 -2 42 -4.5t44 -4.5t31 -3q-3 6 -24 53l-32 72
q-190 -24 -440 -8l-4 91q223 -21 408 0l-28 63l-23 53q-162 -15 -345 3l-5 91q171 -19 314 -10l-8 17q-25 51 -42 77l113 23q8 -32 34 -106q85 12 165 39l17 -88q-72 -22 -149 -34l18 -41q20 -46 33 -72q92 17 180 48zM704 783l61 26q47 -69 81 -138l-62 -28q-39 84 -80 140
zM812 823l60 28q43 -57 85 -135l-61 -29q-42 81 -84 136z" />
    <glyph glyph-name="Identity.382" unicode="&#x304f;" 
d="M623 810l92 -82q-13 -10 -39.5 -32t-36.5 -29l-136.5 -111.5l-136.5 -111.5q-43 -37 -42.5 -56t44.5 -56l59 -48.5l80 -66.5l78.5 -66.5l84 -73t65.5 -61.5l-90 -83q-14 16 -42 45t-34 36q-52 56 -305 270q-48 40 -61 72.5t3.5 63t64.5 71.5l86.5 71l120 100.5t80.5 73.5
q54 57 65 74z" />
    <glyph glyph-name="Identity.383" unicode="&#x3050;" 
d="M646 573q28 -40 86 -147l-68 -29q-54 106 -83 149zM764 619q39 -55 87 -145l-66 -29q-60 109 -86 146zM608 810l93 -82q-15 -11 -43 -34l-33 -27l-134 -109l-140 -114q-43 -37 -42 -55.5t45 -56.5l59 -48.5l80 -66.5l78.5 -66.5l84 -73t65.5 -61.5l-90 -83
q-14 16 -41.5 44t-35.5 37q-62 67 -305 270q-70 61 -67 104t75 103l87 72l117.5 98.5t81.5 74.5q50 50 65 74z" />
    <glyph glyph-name="Identity.384" unicode="&#x3051;" 
d="M153 779l116 -11q-8 -24 -20 -72q-68 -312 -30 -485l22.5 62t27.5 73l52 -33q-47 -137 -66 -229q-6 -30 -5 -45q0 -5 1 -18t1 -19l-86 -10q-20 58 -37 146t-17 171q0 157 35 396q3 21 6 74zM918 603v-103q-62 -9 -154 -15v-37q0 -59 -1 -95t-5.5 -84t-13 -79.5
t-23.5 -69.5t-37.5 -66.5t-55.5 -58.5t-76 -56l-92 72q68 30 105 70q65 60 84 138.5t19 229.5v31q-80 -2 -119 -2q-65 0 -157 6v100q66 -10 155 -10q39 0 119 2q-2 102 -5 145q-3 36 -10 62h115q-2 -11 -4 -62q-1 -22 1 -139q92 8 155 21z" />
    <glyph glyph-name="Identity.385" unicode="&#x3052;" 
d="M879 651l-58 -20q-34 101 -55 142l57 17q36 -72 56 -139zM139 752l116 -11q-6 -19 -20 -71q-67 -309 -30 -477l22.5 62t27.5 73l52 -33q-47 -136 -66 -228q-5 -25 -5 -46q0 -5 1 -18t1 -19l-86 -9q-20 58 -37.5 146t-17.5 171q0 140 36 386q4 22 6 74zM625 756h116
q-3 -22 -5 -61q-1 -23 1 -138q104 8 168 22l-1 -103q-60 -9 -166 -16v-29q0 -69 -1.5 -110.5t-8 -95.5t-20.5 -90t-37 -76t-59 -73.5t-86 -63.5l-91 72q61 25 105 69q64 60 83 139t19 229v24q-72 -2 -107 -2q-65 0 -157 6v101q72 -11 155 -11q35 0 107 2q-2 98 -5 143
q-3 36 -10 62zM868 803l57 19q28 -56 57 -139l-58 -19q-32 93 -56 139z" />
    <glyph glyph-name="Identity.386" unicode="&#x3053;" 
d="M230 608v103q108 -12 265 -12q147 0 276 14v-104q-163 -12 -275 -12q-142 0 -266 11zM187 312l102 -9q-18 -62 -18 -108q0 -54 55.5 -86t164.5 -32q211 0 343 38l1 -109q-133 -34 -341 -34q-159 0 -243 51.5t-84 148.5q0 53 20 140z" />
    <glyph glyph-name="Identity.387" unicode="&#x3054;" 
d="M781 810q41 -59 81 -137l-66 -29q-44 90 -80 139zM895 852q45 -64 83 -136l-65 -29q-47 92 -83 138zM210 597v104q104 -13 265 -13q130 0 276 14v-104q-163 -12 -275 -12q-119 0 -266 11zM167 302l103 -10q-19 -66 -19 -107q0 -54 55.5 -86.5t165.5 -32.5q212 0 342 39
l1 -109q-135 -35 -340 -35q-160 0 -244 51.5t-84 149.5q0 53 20 140z" />
    <glyph glyph-name="Identity.388" unicode="&#x3055;" 
d="M199 317l102 -8q-28 -65 -28 -122q0 -64 45 -97.5t149 -33.5q127 0 264 27l-2 -103q-129 -24 -263 -24q-142 0 -218.5 53.5t-76.5 151.5q0 60 28 156zM833 695l19 -99q-88 -24 -179 -40q64 -142 131 -267l-57 -59q-74 16 -214 32l10 81q47 -5 130 -13q-3 7 -41.5 88.5
l-56.5 121.5q-186 -21 -420 -1l-4 100q201 -25 383 -7l-28 61q-24 54 -45 89l112 21q25 -73 61 -157q109 19 199 49z" />
    <glyph glyph-name="Identity.389" unicode="&#x3056;" 
d="M189 310l101 -9q-28 -70 -28 -122q0 -131 194 -131q131 0 265 28l-2 -104q-136 -23 -263 -23q-143 0 -219 53t-76 151q0 61 28 157zM711 798l65 27q41 -59 81 -137l-31 -14l15 -85q-99 -27 -178 -41q65 -145 131 -266l-57 -60q-95 20 -214 32l9 81l71 -7l60 -6
q-89 188 -99 211q-175 -21 -420 -2l-3 101q200 -26 383 -8l-28 62q-24 54 -45 88l112 22q22 -65 61 -158q86 16 159 37q-38 77 -72 123zM826 839l65 27q53 -78 82 -137l-65 -28q-39 79 -82 138z" />
    <glyph glyph-name="Identity.390" unicode="&#x3057;" 
d="M229 783l126 -1q-7 -41 -11 -113q-12 -330 -12 -476q0 -140 151 -140q211 0 348 204l71 -87q-28 -40 -63.5 -75t-87 -70.5t-121.5 -56t-149 -20.5q-119 0 -185.5 55.5t-66.5 173.5q0 76 5 263t5 229q0 67 -10 114z" />
    <glyph glyph-name="Identity.391" unicode="&#x3058;" 
d="M608 698q58 -84 95 -161l-72 -31q-45 94 -93 162zM740 750q58 -80 98 -156l-71 -34q-47 92 -96 158zM214 777l126 -1q-8 -56 -11 -113q-12 -330 -12 -476q0 -140 151 -140q211 0 348 204l71 -87q-28 -40 -63.5 -75t-87 -70.5t-121.5 -56t-149 -20.5q-251 0 -251 229
q0 76 5 263t5 229q0 62 -11 114z" />
    <glyph glyph-name="Identity.392" unicode="&#x3059;" 
d="M390 331q0 -40 26 -64t64 -24q41 0 63 34t13 101q-23 46 -77 46q-36 0 -62.5 -25.5t-26.5 -67.5zM927 674l-1 -94q-98 5 -296 5q1 -53 1 -155q35 -55 35 -132q0 -53 -15 -102.5t-48.5 -98.5t-95.5 -89.5t-146 -64.5l-85 84q190 43 255 143q-31 -14 -69 -14
q-65 0 -116 46.5t-51 126.5q0 77 54.5 127.5t130.5 50.5q31 0 55 -7l-1 84q-238 -3 -435 -16l-3 96q58 1 214 4.5t223 4.5q0 8 -0.5 26t-1.5 24q-4 55 -8 72h114q-5 -32 -5 -72q-1 -12 -1 -49h296z" />
    <glyph glyph-name="Identity.393" unicode="&#x305a;" 
d="M944 719l-69 -30q-38 74 -72 120l67 28q48 -70 74 -118zM361 319q0 -40 26 -64t64 -24q41 0 63 33.5t13 100.5q-23 46 -76 46q-36 0 -63 -25t-27 -67zM816 691l-67 -30h150l-1 -93q-98 5 -297 5q1 -53 1 -155q35 -55 35 -132q0 -53 -15 -102.5t-48.5 -98.5t-95.5 -90
t-146 -65l-85 84q190 42 255 144q-31 -14 -68 -14q-66 0 -116.5 46t-50.5 127q0 77 54.5 127.5t130.5 50.5q30 0 54 -7l-1 84q-246 -3 -435 -17l-2 97q60 1 216.5 4t219.5 4q0 28 -2 50q-2 52 -8 73h115q-2 -12 -6 -72q-1 -12 -1 -50h146q-37 71 -72 121l68 28
q36 -52 72 -119z" />
    <glyph glyph-name="Identity.394" unicode="&#x305b;" 
d="M642 774h107q-5 -27 -5 -78q-2 -98 -3 -124q17 2 94 7q51 2 85 6v-98q-9 1 -43 0t-42 -1q-65 -3 -96 -5q-4 -151 -15 -204q-7 -34 -25 -47t-55 -13q-48 0 -138 15l2 87q64 -12 95 -12q18 0 25.5 4.5t9.5 19.5q7 45 9 143q-77 -6 -295 -27q-2 -195 0 -235q1 -37 3.5 -54
t10.5 -36t26.5 -26t48.5 -12t79 -5q159 0 295 24l-3 -107q-153 -16 -286 -16q-91 0 -143.5 10t-81 38.5t-36.5 64.5t-10 104q-1 42 -1 240q-76 -8 -89 -10q-65 -8 -108 -15l-11 101q51 0 112 6l96 9v121q0 47 -6 95h110q-5 -45 -5 -90q0 -70 -1 -117l297 28v128q0 39 -7 81z
" />
    <glyph glyph-name="Identity.395" unicode="&#x305c;" 
d="M871 623l-59 -20q-27 86 -55 140l57 18q35 -69 57 -138zM623 758h107q-5 -27 -5 -77q-2 -86 -3 -125q17 1 94 7q11 1 41 3l44 3v-98q-23 1 -85 -1q-65 -3 -96 -5q-4 -149 -15 -203q-7 -34 -25 -47t-55 -13q-54 0 -138 14l2 88q59 -13 95 -13q17 0 25 5t10 20q7 43 9 142
q-77 -6 -295 -27q-2 -195 0 -235q1 -31 2.5 -46t7 -33t15.5 -25.5t29 -15.5t46 -10t68 -2q169 0 295 24l-3 -107q-142 -17 -286 -17q-91 0 -143.5 10t-81 38.5t-36.5 65t-10 104.5q-1 42 -1 239q-76 -8 -89 -10q-65 -8 -108 -15l-11 102q44 0 112 5l96 9v121q0 47 -6 95h110
q-5 -45 -5 -90q0 -70 -1 -117l297 28v128q0 39 -7 81zM859 776l57 18q28 -55 57 -137l-58 -20q-30 89 -56 139z" />
    <glyph glyph-name="Identity.396" unicode="&#x305d;" 
d="M257 753q36 -4 86 -4q36 0 146 5.5t151 10.5q39 3 60 11l63 -73q-37 -22 -64 -44q-262 -215 -270 -221q257 27 447 27l1 -93q-157 10 -253 -3q-72 -11 -126 -61t-54 -114q0 -63 43 -93.5t119 -40.5q74 -8 145 -2l-20 -103q-186 -8 -286 49t-100 174q0 51 29 98.5t67 74.5
q-167 -13 -332 -42l-9 95q30 3 91 11t81 10q98 66 306 248q-20 -1 -116.5 -6.5t-117.5 -7.5q-43 -3 -82 -8z" />
    <glyph glyph-name="Identity.397" unicode="&#x305e;" 
d="M734 642q43 -63 73 -124l-63 -28q-30 67 -70 126zM842 684q42 -55 76 -121l-62 -29q-35 71 -74 123zM227 753q36 -4 86 -4q36 0 146 5.5t150 10.5q40 3 61 11l63 -73q-37 -22 -64 -44q-262 -215 -270 -221q257 27 447 27v-93q-157 10 -252 -3q-72 -11 -126 -61t-54 -114
q0 -63 43 -93.5t119 -40.5q74 -8 145 -2l-20 -103q-186 -8 -286.5 49t-100.5 174q0 51 29.5 98.5t67.5 74.5q-167 -13 -332 -42l-9 95q29 3 90 10.5t82 10.5q107 73 305 248q-20 -1 -116 -6.5t-117 -7.5q-43 -3 -82 -8z" />
    <glyph glyph-name="Identity.398" unicode="&#x305f;" 
d="M535 396v92q88 10 185 10q89 0 173 -9l-3 -95q-100 12 -168 12q-100 0 -187 -10zM605 680v-99q-89 -20 -199 -33q-11 -53 -31 -129q-29 -113 -73.5 -244.5t-82.5 -211.5l-110 37q42 71 90 200t78 244q12 40 24 95q-56 -2 -79 -2q-46 0 -118 4l-2 98q64 -8 121 -8
q52 0 99 4q11 63 12 73q6 52 3 90l121 -9q-7 -25 -19 -85l-12 -58q87 12 178 34zM480 253l94 -9q-14 -54 -14 -86q0 -39 31.5 -62t118.5 -23q90 0 198 20l-3 -101q-96 -14 -196 -14q-120 0 -182 38.5t-62 112.5q0 47 15 124z" />
    <glyph glyph-name="Identity.399" unicode="&#x3060;" 
d="M840 611l-66 -28q-45 89 -80 139l65 27q39 -56 81 -138zM505 383v92q106 10 185 10q89 0 173 -9l-3 -95q-100 12 -168 12q-100 0 -187 -10zM575 667v-99q-89 -20 -199 -33q-11 -53 -31 -129q-29 -113 -73.5 -244.5t-82.5 -211.5l-110 37q42 71 90 200t78 244q12 40 24 95
q-56 -2 -79 -2q-70 0 -118 4l-2 98q64 -8 121 -8q52 0 99 4q11 63 12 73q6 52 3 90l121 -9q-7 -25 -19 -85l-12 -58q87 12 178 34zM450 240l94 -9q-14 -54 -14 -86q0 -39 31.5 -62t118.5 -23q90 0 198 20l-3 -101q-96 -14 -196 -14q-120 0 -182 38.5t-62 112.5q0 47 15 124z
M808 765l65 27q47 -68 83 -137l-65 -29q-44 86 -83 139z" />
    <glyph glyph-name="Identity.400" unicode="&#x3061;" 
d="M785 697l1 -95q-184 -32 -397 -42q-30 -138 -55 -207q118 76 264 76q118 0 187.5 -56t69.5 -148q0 -155 -140.5 -220t-380.5 -39l-28 101q84 -15 164 -11.5t142.5 19t100.5 54t38 94.5q0 52 -43 86t-121 34q-89 0 -163.5 -30t-121.5 -87q-16 -20 -29 -45l-93 33
q65 128 114 344q-100 2 -181 9v98q97 -17 195 -17h4q6 32 9 54q6 56 4 89l112 -5q-10 -34 -20 -91l-9 -44q206 9 377 46z" />
    <glyph glyph-name="Identity.401" unicode="&#x3062;" 
d="M740 675l2 -96q-185 -32 -390 -40q-31 -137 -52 -197q117 76 264 76q118 0 187.5 -56t69.5 -148q0 -104 -66.5 -169t-182 -86t-272.5 -4l-27 101q84 -15 163.5 -11.5t142 19t100.5 54t38 94.5q0 52 -43 86t-121 34q-89 0 -163.5 -30t-120.5 -87q-16 -18 -30 -45l-93 33
q64 123 112 334q-100 2 -179 9v98q95 -17 195 -17h2q6 30 10 64q6 47 5 89l112 -5q-10 -34 -20 -91l-11 -55q204 9 368 46zM707 785l65 27q44 -64 80 -137l-65 -29q-41 84 -80 139zM821 827l65 27q49 -69 82 -136l-65 -29q-41 84 -82 138z" />
    <glyph glyph-name="Identity.402" unicode="&#x3063;" 
d="M156 411q61 13 98 25l34 11l46.5 15t49 14.5t57.5 15l54.5 12t58.5 9.5t52 3q112 0 181.5 -62.5t69.5 -167.5q0 -138 -120.5 -218t-339.5 -94l-41 97q115 4 201 25.5t141.5 70.5t55.5 121q0 60 -43 98t-113 38q-122 0 -400 -116z" />
    <glyph glyph-name="Identity.403" unicode="&#x3064;" 
d="M69 533q41 8 115 30q8 2 48 15l66 21t72 21t81.5 20t78 13t77.5 6q132 0 218.5 -73t86.5 -199q0 -169 -149.5 -266.5t-401.5 -110.5l-45 105q138 3 243.5 30.5t173.5 90t68 153.5q0 77 -52.5 126.5t-145.5 49.5q-146 0 -472 -135l-17 -7z" />
    <glyph glyph-name="Identity.404" unicode="&#x3065;" 
d="M762 793q42 -63 81 -138l-65 -29q-45 88 -81 140zM876 835q41 -56 83 -136l-65 -29q-47 92 -82 138zM54 517q24 5 114 29q2 0 48 15.5t67 22t70.5 20t83 20.5t76.5 13t78 6q132 0 219 -73t87 -199q0 -169 -150 -266.5t-401 -110.5l-45 105q138 3 243 30.5t173 89.5
t68 153q0 77 -52 126.5t-145 49.5q-150 0 -489 -141z" />
    <glyph glyph-name="Identity.405" unicode="&#x3066;" 
d="M83 674q59 2 92 5q36 3 187 17l244 22q173 13 273 16v-100q-136 0 -192 -15q-95 -28 -157 -116.5t-62 -180.5q0 -65 28 -113t77 -75.5t105 -41.5t122 -17l-36 -107q-75 4 -144.5 26t-127 61.5t-92 103t-34.5 142.5q0 104 50 191t118 130q-10 -1 -87 -9.5l-128 -14.5
t-119 -15.5t-106 -17.5z" />
    <glyph glyph-name="Identity.406" unicode="&#x3067;" 
d="M735 520q48 -70 82 -138l-62 -28q-37 78 -80 140zM846 563q52 -74 85 -135l-61 -30q-41 80 -84 138zM79 669q57 1 92 5q235 23 431 39q159 14 272 17l1 -101q-137 0 -193 -14q-95 -29 -156.5 -117t-61.5 -180q0 -65 28 -113.5t77 -76t104.5 -41.5t121.5 -17l-36 -106
q-75 4 -144 26t-126.5 61.5t-92 102.5t-34.5 142q0 105 50 191.5t117 129.5q-342 -36 -440 -57z" />
    <glyph glyph-name="Identity.407" unicode="&#x3068;" 
d="M745 680l54 -91q-35 -21 -85 -46l-56.5 -28t-80.5 -41l-74 -40.5t-79 -47.5q-143 -93 -143 -191q0 -59 56 -90.5t165 -31.5q175 0 320 34l-1 -112q-139 -25 -315 -25q-332 0 -332 214q0 138 168 258q-55 102 -141 301l99 40q53 -143 129 -285q51 30 138 77l98 53
q56 32 80 52z" />
    <glyph glyph-name="Identity.408" unicode="&#x3069;" 
d="M703 654l50 -92q-22 -13 -85 -47q-5 -2 -52.5 -26l-70.5 -36t-64.5 -35.5t-74.5 -45.5q-143 -93 -143 -190q0 -59 56 -91t166 -32q183 0 320 35l-1 -113q-141 -25 -315 -25q-332 0 -332 214q0 139 168 259q-58 105 -141 300l99 41q48 -134 128 -285q47 28 122.5 68.5
l90.5 48.5q54 30 79 52zM706 758l65 27q46 -68 80 -138l-65 -29q-40 83 -80 140zM820 800l64 27q48 -65 83 -136l-65 -29q-41 84 -82 138z" />
    <glyph glyph-name="Identity.409" unicode="&#x306a;" 
d="M935 533l-56 -82q-40 32 -109 73t-122 65l50 77q53 -23 126.5 -64.5t110.5 -68.5zM569 685l3 -93q-85 -23 -176 -35q-37 -107 -96.5 -224t-118.5 -197l-96 49q58 70 115.5 171.5t91.5 189.5q-48 -2 -71 -2q-66 0 -119 4l-7 92q58 -6 126 -6q55 0 102 4q26 96 29 168
l109 -10l-36 -145q71 11 144 34zM609 132q0 21 -1 35q-42 12 -91 12t-79 -19.5t-30 -49.5q0 -32 26 -51.5t76 -19.5q99 0 99 93zM594 489h100q-3 -40 -1 -116q1 -34 7 -145q108 -39 205 -125l-53 -85q-84 75 -148 110v-27q0 -68 -44.5 -110t-136.5 -42q-91 0 -149.5 39
t-58.5 113q0 70 57.5 114.5t149.5 44.5q45 0 83 -7q-9 182 -11 236z" />
    <glyph glyph-name="Identity.410" unicode="&#x306b;" 
d="M453 684q89 -12 211 -11t204 12v-102q-87 -8 -207 -8.5t-208 8.5v101zM419 280l90 -8q-12 -51 -12 -88q0 -80 153 -80q127 0 247 26l2 -106q-103 -20 -251 -20q-123 0 -184.5 40t-61.5 114q0 41 17 122zM170 765l111 -9q-10 -28 -21 -76q-49 -233 -49 -373q0 -54 7 -104
q15 40 50 124l52 -40q-59 -163 -71 -231q-7 -28 -5 -45q0 -13 2 -37l-90 -6q-38 131 -38 320q0 51 5.5 115t11.5 106.5l15 101.5l11 72q8 48 9 82z" />
    <glyph glyph-name="Identity.411" unicode="&#x306c;" 
d="M640 71q73 0 113 83q-53 30 -106 30q-37 0 -57.5 -16.5t-20.5 -39.5q0 -27 18.5 -42t52.5 -15zM433 389q23 65 41 168q-99 -25 -179 -100q20 -51 35 -80q26 -55 54 -99q28 54 49 111zM210 108q52 0 116 82q-37 55 -62 107q-14 27 -36 80q-68 -102 -68 -193
q0 -33 14.5 -54.5t35.5 -21.5zM589 700l-5 -46q130 -1 217 -83t87 -218q0 -98 -20 -171q51 -37 101 -95l-60 -76q-48 58 -76 83q-64 -111 -189 -111q-74 0 -118 36t-44 100q0 56 46 99t115 43q70 0 136 -28q12 55 12 117q0 100 -58 160t-158 59h-3q-19 -119 -49 -207
q-50 -146 -137 -251t-180 -105q-58 0 -97.5 43.5t-39.5 118.5q0 144 86 262q18 25 36 44q-8 19 -28 78q-20 66 -39 109l94 39q15 -73 44 -158q101 81 224 103q4 41 5 56q2 44 -2 85l111 -3q-6 -31 -11 -83z" />
    <glyph glyph-name="Identity.412" unicode="&#x306d;" 
d="M641 76q82 0 116 95q-59 31 -119 31q-36 0 -62.5 -17.5t-26.5 -43.5q0 -33 25.5 -49t66.5 -16zM378 652l35 -42q-14 -19 -47 -71q-2 -22 -3 -32q175 154 303 154q101 0 157 -79.5t56 -210.5q0 -98 -12 -162q52 -36 107 -95l-52 -82q-45 50 -81 82q-55 -127 -194 -127
q-81 0 -132.5 37.5t-51.5 112.5q0 63 51 103.5t132 40.5q68 0 130 -24q7 53 7 125q0 86 -37 138t-97 52q-63 0 -142.5 -53t-151.5 -130q-3 -60 -3 -113q0 -175 4 -247q1 -16 6 -67h-108q3 51 3 65q1 97 4 259q-106 -157 -146 -211l-62 87q128 159 216 291l5 86
q-27 -3 -99.5 -13l-87.5 -12l-10 102q38 -2 74 1q49 3 130 15q5 72 5 86q0 53 -5 80l117 -4q-10 -49 -20 -142z" />
    <glyph glyph-name="Identity.413" unicode="&#x306e;" 
d="M272 158q72 0 137 217q38 120 54 255q-126 -21 -204 -114t-78 -192q0 -79 28.5 -122.5t62.5 -43.5zM538 -33l-59 94q49 4 88 14q104 24 172 96t68 185q0 110 -63 186t-175 90q-26 -163 -59 -278q-94 -315 -241 -315q-76 0 -132 78t-56 198q0 167 129.5 289t313.5 122
q175 0 282 -107t107 -267q0 -157 -97.5 -258.5t-277.5 -126.5z" />
    <glyph glyph-name="Identity.414" unicode="&#x306f;" 
d="M161 774l109 -10q-7 -16 -20 -76q-15 -68 -31.5 -193t-16.5 -199q0 -54 7 -104q9 28 50 125l51 -40q-58 -164 -71 -226q-5 -22 -5 -45q1 -5 1.5 -18t0.5 -19l-88 -6q-39 135 -39 314q0 125 44 415q7 59 8 82zM663 159v27q-49 13 -92 13q-49 0 -80 -19.5t-31 -50.5
q0 -34 29 -51.5t78 -17.5q52 0 74 25t22 74zM952 114l-53 -82q-75 71 -137 108v-3q0 -76 -42.5 -123t-139.5 -47q-100 0 -156 40t-56 111q0 70 57 114.5t154 44.5q43 0 80 -6q-7 171 -9 231q-56 -2 -84 -2q-53 0 -169 6l-1 94q91 -8 171 -8q27 0 83 2q0 28 -0.5 67t-0.5 49
q0 34 -6 63h113q-4 -29 -6 -61q-1 -29 -3 -112q92 8 164 22v-97q-75 -12 -164 -18q1 -59 6 -157.5t5 -106.5q92 -37 194 -129z" />
    <glyph glyph-name="Identity.415" unicode="&#x3070;" 
d="M977 694l-59 -19q-31 91 -57 138l58 19q32 -65 58 -138zM874 662l-60 -20q-26 83 -54 141l57 17q27 -53 57 -138zM135 763l110 -10q-12 -30 -20 -76q-16 -69 -32.5 -194t-16.5 -198q0 -54 7 -104q17 46 51 125l50 -40q-58 -165 -70 -226q-6 -28 -5 -45q0 -13 2 -37
l-89 -7q-38 133 -38 315q0 132 43 415q6 40 8 82zM637 148v27q-49 13 -92 13q-49 0 -80 -19.5t-31 -50.5q0 -34 29 -51.5t78 -17.5q53 0 74.5 25t21.5 74zM885 611v-97q-68 -11 -163 -19q1 -58 6 -158t5 -105q90 -36 193 -129l-53 -82q-75 70 -136 108v-3q0 -76 -42.5 -123
t-139.5 -47q-101 0 -157 40t-56 111q0 70 57 114.5t154 44.5q43 0 80 -6q-8 173 -9 230q-28 -1 -84 -1q-53 0 -169 6v94q90 -8 170 -8q55 0 83 1q0 28 -0.5 68t-0.5 49q0 31 -5 63h113q-4 -30 -6 -61q-1 -30 -3 -113q84 7 163 23z" />
    <glyph glyph-name="Identity.416" unicode="&#x3071;" 
d="M135 763l110 -10q-12 -30 -20 -76q-16 -69 -32.5 -194t-16.5 -198q0 -54 7 -104q17 46 51 125l50 -40q-58 -165 -70 -226q-6 -28 -5 -45q0 -13 2 -37l-89 -7q-38 133 -38 315q0 132 43 415q6 40 8 82zM637 148v27q-49 13 -92 13q-49 0 -80 -19.5t-31 -50.5
q0 -34 29 -51.5t78 -17.5q53 0 74.5 25t21.5 74zM885 611v-97q-68 -11 -163 -19q1 -58 6 -158t5 -105q90 -36 193 -129l-53 -82q-75 70 -136 108v-3q0 -76 -42.5 -123t-139.5 -47q-101 0 -157 40t-56 111q0 70 57 114.5t154 44.5q43 0 80 -6q-8 173 -9 230q-28 -1 -84 -1
q-53 0 -169 6v94q90 -8 170 -8q55 0 83 1q0 28 -0.5 68t-0.5 49q0 31 -5 63h113q-4 -30 -6 -61q-1 -30 -3 -113q84 7 163 23zM873 689q23 0 39.5 15.5t16.5 38.5t-16.5 39.5t-39.5 16.5t-38.5 -16.5t-15.5 -39.5t15.5 -38.5t38.5 -15.5zM873 849q44 0 75.5 -31t31.5 -75
t-31.5 -75t-75.5 -31t-74.5 31t-30.5 75t30.5 75t74.5 31z" />
    <glyph glyph-name="Identity.417" unicode="&#x3072;" 
d="M949 339l-74 -78q-63 79 -107 161q6 -92 -12.5 -175.5t-59.5 -150.5t-112 -107t-164 -40q-122 0 -194 72.5t-72 195.5q0 112 50 220.5t118 182.5q-90 -14 -148 -25q-45 -10 -56 -13l-14 104q27 0 54 3q75 6 178.5 24t147.5 34l30 -89q-43 -15 -51 -20q-66 -50 -138 -170
t-72 -237q0 -89 48.5 -133t122.5 -44q153 0 223.5 165.5t16.5 432.5q0 1 -23 66l96 30q53 -250 212 -409z" />
    <glyph glyph-name="Identity.418" unicode="&#x3073;" 
d="M979 687l-63 -22q-33 89 -64 143l59 21q30 -53 68 -142zM871 649l-62 -22q-33 90 -63 144l61 20q45 -90 64 -142zM620 703l96 29q54 -251 212 -409l-74 -78q-60 76 -107 161q5 -73 -5.5 -141t-37 -128.5t-67.5 -105.5t-102 -71t-136 -26q-122 0 -194 72.5t-72 194.5
q0 112 50 220.5t118 182.5q-120 -19 -148 -25q-12 -2 -56 -12l-14 104q27 0 54 3q74 5 178 23t148 34l30 -89q-50 -18 -52 -19q-65 -50 -137 -170.5t-72 -237.5q0 -88 48.5 -132t122.5 -44q154 0 224 166t16 433q-16 42 -23 65z" />
    <glyph glyph-name="Identity.419" unicode="&#x3074;" 
d="M620 703l96 29q54 -251 212 -409l-74 -78q-60 76 -107 161q5 -73 -5.5 -141t-37 -128.5t-67.5 -105.5t-102 -71t-136 -26q-122 0 -194 72.5t-72 194.5q0 112 50 220.5t118 182.5q-120 -19 -148 -25q-12 -2 -56 -12l-14 104q27 0 54 3q74 5 178 23t148 34l30 -89
q-50 -18 -52 -19q-65 -50 -137 -170.5t-72 -237.5q0 -88 48.5 -132t122.5 -44q154 0 224 166t16 433q-16 42 -23 65zM871 654q25 0 42.5 17.5t17.5 42.5t-17.5 43t-42.5 18t-42.5 -18t-17.5 -43t17.5 -42.5t42.5 -17.5zM871 827q47 0 80 -33t33 -80q0 -46 -33 -79t-80 -33
t-79.5 33t-32.5 79q0 47 32.5 80t79.5 33z" />
    <glyph glyph-name="Identity.420" unicode="&#x3075;" 
d="M552 494l-64 59q30 19 66 48q-79 58 -206 106l59 74q158 -63 249 -125l23 -63q-68 -57 -127 -99zM322 -17l-15 105q78 -24 157 -24q93 0 93 75q0 43 -37 100t-84 106q-38 38 -84 76l76 65l76 -78q80 -82 120.5 -149t40.5 -131q0 -60 -29 -97.5t-67.5 -50t-86.5 -12.5
q-76 0 -160 15zM962 83l-94 -50q-20 75 -66.5 167.5t-95.5 150.5l85 46q47 -56 97.5 -150t73.5 -164zM353 223q-114 -118 -253 -202l-59 85q62 33 135.5 89.5t116.5 104.5z" />
    <glyph glyph-name="Identity.421" unicode="&#x3076;" 
d="M772 671q43 -62 81 -138l-66 -28q-41 84 -80 139zM886 714q50 -73 82 -137l-64 -28q-49 93 -83 138zM533 487l-64 59q33 21 66 47q-76 57 -205 107l58 74q162 -66 249 -125l23 -64q-96 -77 -127 -98zM303 -24l-15 104q81 -23 157 -23q41 0 67.5 17.5t26.5 56.5
q0 43 -37 100t-84 107q-51 48 -85 76l77 64l75 -78q80 -82 120.5 -148.5t40.5 -131.5q0 -45 -16 -77.5t-43.5 -49.5t-57.5 -24.5t-65 -7.5q-84 0 -161 15zM943 76l-94 -50q-20 75 -66.5 167.5t-95.5 150.5l85 46q48 -57 97.5 -150t73.5 -164zM334 216q-117 -121 -252 -202
l-60 84q62 34 135.5 90.5t117.5 103.5z" />
    <glyph glyph-name="Identity.422" unicode="&#x3077;" 
d="M786 608q0 -26 18.5 -44.5t43.5 -18.5q26 0 44.5 18.5t18.5 44.5t-18.5 44.5t-44.5 18.5q-25 0 -43.5 -18.5t-18.5 -44.5zM732 608q0 48 34 82t82 34t82 -34t34 -82t-34 -82t-82 -34t-82 34t-34 82zM533 487l-64 59q33 21 66 47q-76 57 -205 107l58 74q162 -66 249 -125
l23 -64q-96 -77 -127 -98zM303 -24l-15 104q81 -23 157 -23q41 0 67.5 17.5t26.5 56.5q0 43 -37 100t-84 107q-51 48 -85 76l77 64l75 -78q80 -82 120.5 -148.5t40.5 -131.5q0 -45 -16 -77.5t-43.5 -49.5t-57.5 -24.5t-65 -7.5q-84 0 -161 15zM943 76l-94 -50
q-20 75 -66.5 167.5t-95.5 150.5l85 46q48 -57 97.5 -150t73.5 -164zM334 216q-117 -121 -252 -202l-60 84q62 34 135.5 90.5t117.5 103.5z" />
    <glyph glyph-name="Identity.423" unicode="&#x3078;" 
d="M52 287q34 26 77 71q28 30 100.5 120l88.5 109q47 56 92 59.5t97 -46.5q35 -35 106.5 -119.5t95.5 -109.5q138 -152 244 -246l-79 -92q-89 83 -228 243l-93.5 112.5t-90.5 106.5q-31 31 -48 29.5t-41 -32.5l-82.5 -108.5l-83.5 -109.5q-13 -16 -35 -47.5t-26 -36.5z" />
    <glyph glyph-name="Identity.424" unicode="&#x3079;" 
d="M700 681q59 -89 94 -160l-72 -32q-47 98 -93 162zM831 734q61 -85 98 -157l-71 -34q-48 95 -96 159zM44 269q34 27 76 71q29 30 103.5 122l86.5 107q47 55 91.5 59t97.5 -46q32 -33 102.5 -115.5t99.5 -113.5q138 -151 244 -247l-81 -91q-69 65 -226 246l-93 111l-91 107
q-30 31 -47.5 29.5t-41.5 -32.5l-82.5 -106.5l-85.5 -110.5q-10 -12 -21 -28l-22.5 -33.5l-16.5 -25.5z" />
    <glyph glyph-name="Identity.425" unicode="&#x307a;" 
d="M708 596q0 -29 20.5 -49t49.5 -20q28 0 48.5 20.5t20.5 48.5q0 29 -20.5 49.5t-48.5 20.5q-29 0 -49.5 -20.5t-20.5 -49.5zM652 596q0 52 37 89t89 37t88.5 -37t36.5 -89t-36.5 -88.5t-88.5 -36.5t-89 36.5t-37 88.5zM44 269q34 27 76 71q29 30 103.5 122l86.5 107
q47 55 91.5 59t97.5 -46q32 -33 102.5 -115.5t99.5 -113.5q138 -151 244 -247l-81 -91q-69 65 -226 246l-93 111l-91 107q-30 31 -47.5 29.5t-41.5 -32.5l-82.5 -106.5l-85.5 -110.5q-10 -12 -21 -28l-22.5 -33.5l-16.5 -25.5z" />
    <glyph glyph-name="Identity.426" unicode="&#x307b;" 
d="M159 772l110 -10q-7 -19 -20 -76q-15 -67 -31 -191.5t-16 -198.5q0 -56 7 -106q18 53 51 127l50 -40q-58 -165 -70 -226q-6 -28 -5 -45q0 -13 2 -37l-90 -6q-38 131 -38 314q0 137 42 413q6 38 8 82zM651 146q0 20 -1 32q-40 12 -83 12q-47 0 -75 -17.5t-28 -46.5
q0 -32 26 -48.5t72 -16.5q49 0 69 22t20 63zM909 510v-92q-68 -8 -176 -13q1 -67 7 -168q105 -36 207 -126l-52 -87q-71 73 -150 116v-30q0 -64 -43.5 -100.5t-128.5 -36.5q-88 0 -143.5 38t-55.5 109q0 62 51 104t145 42q41 0 77 -6q-4 85 -5 141q-139 -2 -233 3l-1 91
q109 -8 233 -5v146q-99 -3 -217 2v88q233 -18 463 13v-87q-64 -7 -155 -12v-146q103 6 177 16z" />
    <glyph glyph-name="Identity.427" unicode="&#x307c;" 
d="M132 757l110 -9q-13 -33 -20 -76q-15 -69 -31.5 -193t-16.5 -197q0 -56 7 -106q17 46 51 127l51 -40q-58 -164 -71 -226q-5 -23 -5 -45q1 -6 2 -20t1 -17l-91 -6q-38 131 -38 314q0 152 43 413q7 56 8 81zM624 132q0 20 -1 32q-40 12 -83 12q-47 0 -75 -17.5t-28 -46.5
q0 -32 26 -48.5t71 -16.5q49 0 69.5 22t20.5 63zM881 496v-92q-82 -10 -176 -14q1 -65 7 -167q104 -36 208 -126l-52 -87q-70 72 -151 116v-30q0 -65 -43.5 -101t-128.5 -36q-88 0 -143 38t-55 109q0 62 50.5 103.5t144.5 41.5q40 0 78 -6q-6 128 -6 142q-115 -3 -233 3v91
q109 -8 232 -5v145q-124 -2 -217 3v88q210 -16 397 6l-26 61l56 17q35 -69 57 -138l-57 -20v-4q-41 -5 -119 -10v-144q103 6 177 16zM868 809l57 19q30 -60 58 -138l-58 -19q-31 91 -57 138z" />
    <glyph glyph-name="Identity.428" unicode="&#x307d;" 
d="M131 757l111 -9q-13 -33 -20 -76q-15 -69 -31.5 -193t-16.5 -197q0 -56 7 -106q17 46 51 127l51 -40q-58 -164 -71 -226q-5 -23 -5 -45q1 -6 2 -20t1 -17l-91 -6q-38 131 -38 314q0 152 43 413q7 56 7 81zM885 812q-23 0 -39 -16t-16 -39t16 -39t39 -16t39.5 16t16.5 39
t-16.5 39t-39.5 16zM624 132q0 20 -1 32q-40 12 -83 12q-47 0 -75 -17.5t-28 -46.5q0 -32 26 -48.5t71 -16.5q49 0 69.5 22t20.5 63zM816 677v-44q-54 -6 -112 -9v-144q103 6 177 16v-92q-82 -10 -176 -14q1 -65 7 -167q104 -36 208 -126l-52 -87q-70 72 -151 116v-30
q0 -65 -43.5 -101t-128.5 -36q-88 0 -143 38t-55 109q0 62 50.5 103.5t144.5 41.5q40 0 78 -6q-6 128 -6 142q-115 -3 -233 3v91q109 -8 232 -5v144q-106 -2 -217 4v88q217 -17 392 5q-8 19 -8 40q0 44 30.5 75.5t74.5 31.5t75.5 -31.5t31.5 -75.5t-31.5 -74.5t-75.5 -30.5
q-41 0 -69 25z" />
    <glyph glyph-name="Identity.429" unicode="&#x307e;" 
d="M490 123q0 33 -1 56q-46 8 -89 8q-61 0 -95 -20.5t-34 -52.5q0 -71 122 -71q47 0 72 17.5t25 62.5zM867 92l-57 -87q-104 97 -221 144q0 -11 0.5 -28t0.5 -23q0 -61 -46 -102.5t-137 -41.5q-112 0 -171.5 40t-59.5 115q0 72 64 116t173 44q25 0 73 -4q-2 33 -4 113h-54
q-132 0 -244 13l1 94q98 -19 244 -19h51v125h-49q-116 0 -225 15v91q105 -19 224 -19h51v56q0 31 -4 63h106q-5 -48 -6 -67q0 -4 -0.5 -21t-0.5 -28q118 6 247 25l1 -91q-172 -17 -249 -20v-126q134 7 270 26l1 -94q-125 -15 -269 -21q1 -51 7 -135q148 -42 283 -153z" />
    <glyph glyph-name="Identity.430" unicode="&#x307f;" 
d="M264 172q27 37 95 189q-92 -11 -146 -59t-54 -107q0 -25 14.5 -41t34.5 -16q30 0 56 34zM949 257l-46 -108q-43 38 -95 74q-32 -93 -93.5 -162t-162.5 -121l-84 69q197 83 257 266q-133 72 -261 85q-84 -196 -120 -249q-53 -77 -138 -77q-61 0 -100 40t-39 107
q0 112 93.5 189t239.5 82q76 171 92 203q-88 -2 -189 -9q-31 -1 -77 -7l-4 102q39 -3 78 -3q118 0 217 9q31 1 57 12l62 -50q-21 -23 -29 -37q-23 -38 -105 -225q119 -16 245 -73q4 28 6 56q3 48 0 98l102 -11q-5 -109 -20 -188q43 -24 114 -72z" />
    <glyph glyph-name="Identity.431" unicode="&#x3080;" 
d="M180 293q0 -36 18 -57t44 -21q36 0 54 35.5t18 87.5q0 32 -14.5 50.5t-37.5 18.5q-34 0 -58 -32.5t-24 -81.5zM728 291l108 -33q1 -81 0 -111q-4 -71 -34 -110t-103 -60q-73 -20 -210 -20q-76 0 -125 9.5t-71.5 29.5t-29.5 40t-7 51q0 24 1 36q-16 -2 -25 -2
q-54 0 -95 41.5t-41 124.5t48.5 141.5t123.5 58.5q11 0 16 -1v83h-29q-82 0 -159 9l-6 93q82 -13 159 -13q23 0 35 1v31q0 74 -8 107h110q-8 -50 -8 -107v-24q98 11 184 34v-95q-90 -21 -184 -29v-140q27 -36 27 -94q0 -106 -52 -168q-1 -18 -1 -52q0 -28 8 -41.5
t39.5 -21.5t96.5 -8q102 0 161 18q78 24 78 105q0 67 -7 117zM661 636l66 65q43 -29 105.5 -86.5t96.5 -98.5l-71 -72q-37 47 -95.5 103.5t-101.5 88.5z" />
    <glyph glyph-name="Identity.432" unicode="&#x3081;" 
d="M417 321l9 -15q60 104 104 248q-99 -7 -189 -63q40 -111 76 -170zM367 219l-12 19q-43 68 -91 193q-42 -44 -66.5 -101t-24.5 -110q0 -44 17 -69t48 -25q57 0 129 93zM572 786l109 -11q-1 -4 -20 -87l-13 -53q119 -24 191.5 -111.5t72.5 -214.5q0 -148 -96 -239.5
t-258 -114.5l-60 90q153 14 233 86.5t80 181.5q0 91 -50 154t-136 81q-64 -215 -140 -327q26 -34 58 -65l-79 -64q-28 32 -41 49q-99 -115 -195 -115q-62 0 -104.5 49.5t-42.5 137.5q0 84 41 168t109 141q-9 23 -29 86q-16 55 -36 96l104 32q6 -28 21 -91q12 -42 21 -69
q114 63 241 66q10 44 13 60q8 46 6 84z" />
    <glyph glyph-name="Identity.433" unicode="&#x3082;" 
d="M667 408l110 23q100 -118 100 -233q0 -111 -92.5 -178.5t-245.5 -67.5q-115 0 -184.5 55.5t-69.5 171.5q0 30 7 107q-121 12 -198 35l5 96q81 -29 203 -40q8 73 20 159q-108 9 -205 35l5 92q83 -28 211 -38q6 50 9 93q4 50 1 78l112 -6q-8 -34 -15 -78l-12 -90
q117 0 192 13l-3 -94q-103 -10 -199 -10h-2q-11 -81 -20 -158h14q112 0 203 12l-3 -94q-87 -10 -185 -10h-38q-5 -58 -5 -86q0 -68 40 -105t118 -37q108 0 170 43t62 114q0 105 -105 198z" />
    <glyph glyph-name="Identity.434" unicode="&#x3083;" 
d="M581 551l-70 -52q-49 53 -108 94l70 52q22 -15 55.5 -44t52.5 -50zM190 531l99 38l14.5 -28.5l11.5 -22.5l23 -44.5l21 -41.5q202 85 288 85q96 0 147 -49t51 -119q0 -86 -51 -134.5t-154 -48.5q-61 0 -124 24l3 91q59 -27 115 -27q59 0 87.5 26.5t28.5 68.5
q0 32 -26.5 56t-79.5 24q-77 0 -248 -75l17 -38t13 -29q57 -131 121 -339l-99 -25q-45 175 -109 326q-2 4 -12.5 28t-15.5 37l-89 -43.5t-67 -32.5l-46 96q34 8 78 24q2 1 86 36q-20 42 -40 76q-22 37 -43 61z" />
    <glyph glyph-name="Identity.435" unicode="&#x3084;" 
d="M600 703l-73 -55q-90 87 -129 116l72 51q82 -63 130 -112zM145 688l102 40q14 -29 37 -71q24 -44 53 -105q234 104 349 104q106 0 169 -56t63 -141q0 -95 -62 -153t-174 -58q-78 0 -150 28l3 98q73 -33 138 -33q68 0 105 33.5t37 88.5q0 44 -34.5 73.5t-97.5 29.5
q-103 0 -308 -95q6 -12 17 -36.5t16 -36.5q77 -176 153 -423l-109 -27q-65 251 -134 408l-32 73q-162 -81 -184 -91l-47 101q45 11 89 29q52 21 104 45q-29 59 -51 98q-29 48 -52 77z" />
    <glyph glyph-name="Identity.436" unicode="&#x3085;" 
d="M605 138q81 3 121.5 46t40.5 114q0 60 -36 99.5t-110 45.5q5 -63 5 -120q0 -104 -21 -185zM502 619l97 2q7 -39 14 -94q116 -4 181 -67.5t65 -159.5q0 -110 -68 -182.5t-195 -72.5q-17 0 -25 1q-40 -77 -114 -128l-85 50q68 39 107 104q-80 38 -121 122l51 73
q41 -83 106 -113q22 71 22 177q0 63 -4 106q-94 -20 -158 -89t-80 -150q-5 -24 -4 -44q0 -33 10 -83l-85 -12q-28 93 -28 216q0 95 21 259q2 33 1 44l103 -8q-4 -8 -8.5 -25t-5.5 -19q-25 -124 -24 -201q37 75 103.5 125.5t146.5 67.5q-5 30 -9 51q-5 24 -14 50z" />
    <glyph glyph-name="Identity.437" unicode="&#x3086;" 
d="M606 196q96 2 151.5 54t55.5 140q0 79 -47.5 131.5t-140.5 57.5q6 -72 6 -151q0 -136 -25 -232zM494 794l104 2q11 -55 19 -130q134 -2 213.5 -79.5t79.5 -193.5q0 -130 -80.5 -211.5t-230.5 -81.5q-18 0 -27 1q-47 -100 -139 -165l-93 56q86 48 134 134
q-103 44 -154 148l58 71q52 -101 131 -133q27 90 27 216q0 76 -6 144q-114 -24 -191.5 -113t-98.5 -187q-7 -32 -6 -56q3 -54 12 -95l-88 -12q-34 111 -34 264q0 38 3.5 86t7 82t9 76.5t6.5 53.5q3 27 1 52l108 -9q-4 -10 -9.5 -29.5t-6.5 -22.5q-31 -155 -26 -253
q44 97 125 162t180 86q-4 39 -11 72q-11 50 -17 65z" />
    <glyph glyph-name="Identity.438" unicode="&#x3087;" 
d="M460 95q0 27 -1 43q-31 6 -64 6q-55 0 -86 -16t-31 -46q0 -26 29 -43t78 -17q75 0 75 73zM543 393v-14q0 -48 8 -178q135 -41 246 -142l-53 -86q-92 92 -188 134q1 -16 1 -43q0 -56 -38.5 -92.5t-121.5 -36.5q-93 0 -150.5 37t-57.5 105t57 107t160 39q24 0 50 -3
q-6 116 -6 166v151q0 61 -7 89h108q-8 -34 -8 -88v-59q149 2 239 14l2 -88q-115 -10 -241 -12z" />
    <glyph glyph-name="Identity.439" unicode="&#x3088;" 
d="M457 146q0 30 -1 50q-44 9 -90 9q-68 0 -106 -21.5t-38 -58.5q0 -38 36 -57.5t100 -19.5q52 0 75.5 24t23.5 74zM861 99l-60 -94q-107 107 -240 161q1 -21 1 -53q0 -70 -46 -115t-149 -45q-112 0 -179 40t-67 127q0 76 66 124.5t192 48.5q25 0 73 -4q-7 182 -7 222
q0 32 -0.5 92.5t-0.5 79.5q-2 76 -9 106h119q-4 -26 -9 -106v-25v-32.5v-29.5q167 2 286 16l4 -94q-116 -11 -290 -15q0 -33 10 -235q175 -49 306 -169z" />
    <glyph glyph-name="Identity.440" unicode="&#x3089;" 
d="M311 695l25 95q63 -20 191 -44.5t198 -31.5l-23 -97q-69 9 -199.5 35.5t-191.5 42.5zM327 602q-12 -56 -38 -256q134 108 307 108q118 0 190.5 -63t72.5 -153q0 -144 -131.5 -221t-406.5 -54l-31 103q221 -28 341 21.5t120 152.5q0 55 -46 89.5t-117 34.5
q-187 0 -292 -124q-18 -22 -33 -53l-92 22q14 70 30 196.5t20 210.5z" />
    <glyph glyph-name="Identity.441" unicode="&#x308a;" 
d="M242 796l108 -4q-29 -101 -43 -245q37 78 106.5 137.5t151.5 59.5q103 0 169 -94.5t66 -251.5q0 -371 -425 -449l-60 90q88 14 152 37t118 63t81.5 105t27.5 154q0 118 -38 186.5t-108 68.5q-57 0 -112 -50t-88.5 -121t-37.5 -137q-6 -46 3 -114l-97 -7q-12 89 -12 160
q0 111 30 319q6 53 8 93z" />
    <glyph glyph-name="Identity.442" unicode="&#x308b;" 
d="M496 45q41 0 70 4q-6 55 -37 88t-80 33q-31 0 -51 -16t-20 -39q0 -32 33.5 -51t84.5 -19zM705 762l54 -72q-42 -27 -61 -41q-23 -16 -65 -50.5l-98.5 -83l-77.5 -65.5q52 17 117 17q125 0 207 -68.5t82 -171.5q0 -122 -93 -197t-256 -75q-102 0 -165.5 42t-63.5 109
q0 57 46.5 99t117.5 42q88 0 142.5 -49.5t65.5 -124.5q104 47 104 155q0 69 -61.5 114t-153.5 45q-111 0 -191 -47t-178 -151l-73 74l147.5 122l111.5 93l219 184q-195 -8 -273 -12q-52 -4 -73 -7l-3 103q42 -5 79 -5q46 0 169.5 4t160.5 7q52 6 63 10z" />
    <glyph glyph-name="Identity.443" unicode="&#x308c;" 
d="M955 179l15 -109q-81 -79 -184 -79q-53 0 -85 35.5t-32 100.5q0 56 18.5 184.5t18.5 173.5q0 77 -74 77q-54 0 -129.5 -54t-147.5 -132q-3 -53 -3 -100q0 -175 4 -247q1 -16 6 -67h-108q3 51 3 65q1 97 4 259q-106 -157 -146 -211l-62 87q134 168 216 292l3 42.5l3 42.5
l-188 -25l-10 102q22 -1 74 1q52 3 130 15q5 72 5 86q0 53 -5 80l117 -4q-10 -49 -20 -142l35 -42q-14 -19 -47 -71q0 -7 -1 -20.5t-2 -20.5q70 64 149.5 110.5t145.5 46.5q72 0 109.5 -37.5t37.5 -101.5q0 -50 -17.5 -180t-17.5 -181q0 -53 45 -53q68 0 140 77z" />
    <glyph glyph-name="Identity.444" unicode="&#x308d;" 
d="M236 739q36 -4 72 -4q174 0 318 9q40 2 62 9l56 -70q-10 -5 -49 -31q-154 -116 -248 -198q57 22 127 22q125 0 205 -65.5t80 -168.5q0 -147 -132.5 -224.5t-373.5 -58.5l-30 102q196 -24 313 25t117 157q0 66 -54.5 107t-144.5 41q-63 0 -117.5 -16.5t-102.5 -51
t-80 -64.5t-78 -80l-74 78l259 227.5l199 171.5q-123 -4 -247 -12q-41 -3 -73 -8z" />
    <glyph glyph-name="Identity.445" unicode="&#x308e;" 
d="M419 516l28 -31l-37 -52q-1 -11 -3 -31q119 91 238 91q100 0 164 -60.5t64 -154.5q0 -249 -306 -301l-43 86q121 16 189 69.5t68 147.5q0 51 -39 91t-109 40q-113 0 -232 -105q-2 -44 -2 -62q0 -121 7 -229q0 -8 2 -28t2 -25h-97q2 28 2 51q0 17 1 95t2 126
q-10 -14 -56 -85l-65 -99l-55 76q34 41 92.5 119.5t88.5 125.5q1 10 2.5 29.5t2.5 28.5q-116 -17 -159 -26l-9 84q14 0 56 2q52 6 118 15q1 19 3 46.5t2 33.5q2 23 -1 65l101 -2q-10 -50 -20 -131z" />
    <glyph glyph-name="Identity.446" unicode="&#x308f;" 
d="M378 652l35 -42q-14 -19 -47 -71q0 -8 -2 -24.5t-2 -24.5q144 114 304 114q111 0 188 -71.5t78 -185.5q1 -146 -93.5 -233.5t-272.5 -122.5l-45 95q140 21 224 84.5t84 178.5q0 63 -48 113t-130 50q-152 0 -296 -134q-3 -54 -3 -102q0 -175 4 -247q1 -16 6 -67h-108
q3 51 3 65q1 97 4 259q-106 -157 -146 -211l-62 87q128 159 216 291l5 86q-27 -3 -99.5 -13l-87.5 -12l-10 102q22 -1 74 1q49 3 130 15q5 72 5 86q0 53 -5 80l117 -4q-10 -49 -20 -142z" />
    <glyph glyph-name="Identity.447" unicode="&#x3090;" 
d="M596 42q47 0 86 17q-23 99 -104 99q-29 0 -48.5 -15t-19.5 -40q0 -27 24 -44t62 -17zM391 389q3 8 10.5 30l11.5 34q-71 -29 -127.5 -84t-84 -110.5t-27.5 -100.5q0 -25 11 -39t27 -14q32 0 54 26q56 69 125 258zM542 773l62 -46q-21 -35 -30 -62l-15.5 -48l-16.5 -51
q8 1 24 1q148 0 238 -86.5t90 -221.5q0 -82 -29.5 -148.5t-96.5 -110t-164 -43.5q-79 0 -127.5 37t-48.5 101q0 58 43.5 96.5t106.5 38.5q64 0 108 -31.5t66 -84.5q45 59 45 146q0 98 -62.5 160.5t-169.5 62.5q-26 0 -50 -3l-50 -149q-72 -204 -143 -284q-44 -50 -122 -50
q-47 0 -81.5 36t-34.5 100q0 138 103.5 258.5t257.5 160.5q23 75 34 125q-182 -10 -267 -19l-5 100q32 -4 67 -4q94 -2 207 7q37 4 61 12z" />
    <glyph glyph-name="Identity.448" unicode="&#x3091;" 
d="M439 410q-26 0 -47 -11.5t-21 -31.5q0 -42 86 -51q47 24 47 54q0 18 -18.5 29t-46.5 11zM673 781l55 -70q-77 -22 -233 -111q40 8 88 8q101 -1 168 -49.5t67 -123.5q0 -97 -88 -149.5t-216 -52.5q-40 0 -74 6q-49 -36 -89 -70q94 11 141 -90q33 52 85 83.5t108 31.5
q81 0 144 -55.5t104 -149.5l-100 -39q-55 160 -157 160q-41 0 -76 -29.5t-54 -78.5q-7 -21 -9 -42h-100q-4 35 -7 44q-30 97 -109 97q-45 0 -86 -38.5t-92 -110.5l-87 49q166 176 287 271q-52 35 -52 87q0 48 46.5 78.5t108.5 30.5q65 0 104.5 -27t39.5 -70q0 -28 -21 -54
q67 10 108.5 41t41.5 76q0 49 -49 79.5t-121 30.5q-102 0 -177 -34q-79 -35 -196 -131l-60 72q133 89 401 243q-8 0 -69 -2.5t-119 -5.5t-86 -6l-3 84q48 -3 76 -3q179 0 289 9q29 2 68 11z" />
    <glyph glyph-name="Identity.449" unicode="&#x3092;" 
d="M606 139h-96q4 45 4 139q-68 -38 -102.5 -73.5t-34.5 -76.5q0 -48 40.5 -64.5t123.5 -16.5q134 0 275 26l-3 -101q-136 -17 -275 -17q-263 0 -263 157q0 44 19.5 82.5t55.5 70.5t72.5 55.5t85.5 48.5q-17 49 -80 49q-88 0 -164 -71q-32 -31 -91 -106l-85 64
q153 145 224 289h-29q-83 0 -165 6v93q82 -11 170 -11h58q20 68 23 119l103 -8q-17 -72 -28 -107q167 7 293 29v-92q-126 -20 -326 -27q-33 -72 -75 -129q50 29 126 29q48 0 83 -22t49 -62l55 25.5l58.5 25.5t45.5 20q66 30 94 44l39 -92q-39 -11 -100 -36q-80 -30 -184 -78
q1 -33 2.5 -103.5t1.5 -78.5z" />
    <glyph glyph-name="Identity.450" unicode="&#x3093;" 
d="M566 752l-31 -47q-58 -89 -184 -320q61 46 131 46q53 0 85 -33t35 -92q1 -18 1.5 -83.5t2.5 -91.5q2 -31 22 -46.5t50 -15.5q69 0 116 69.5t71 168.5l84 -68q-87 -276 -287 -276q-74 0 -112 38t-41 92q-1 28 -2 93.5t-3 89.5q-2 30 -19 46.5t-47 16.5q-52 0 -99 -45
t-78 -110q-46 -95 -81 -223l-110 37q48 131 164 365.5t179 346.5l12.5 24.5l16 31.5t13.5 31z" />
    <glyph glyph-name="Identity.451" unicode="&#x309b;" 
d="M81 795q38 -55 98 -163l-72 -30q-68 127 -95 165zM210 845q32 -47 97 -162l-70 -30q-72 129 -97 163z" />
    <glyph glyph-name="Identity.452" unicode="&#x309c;" 
d="M27 708q0 47 34 81.5t82 34.5t82 -34t34 -82t-34 -82.5t-82 -34.5t-82 34.5t-34 82.5zM77 708q0 -26 20 -46t46 -20t45.5 20t19.5 46t-19.5 45t-45.5 19t-46 -19t-20 -45z" />
    <glyph glyph-name="Identity.453" unicode="&#x309d;" 
d="M736 172q-104 -34 -311 -120l-49 97l133.5 51.5l116.5 45.5q-39 59 -136.5 164.5t-176.5 175.5l86 65q93 -85 203.5 -206t160.5 -192z" />
    <glyph glyph-name="Identity.454" unicode="&#x309e;" 
d="M589 709q45 -67 91 -152l-71 -30q-57 109 -89 154zM721 751q46 -65 92 -151l-70 -30q-58 108 -91 152zM697 152q-109 -36 -311 -120l-49 97l251 97q-39 59 -136.5 164t-177.5 176l86 65q93 -85 203.5 -206t160.5 -192z" />
    <glyph glyph-name="Identity.455" unicode="&#x30a1;" 
d="M427 399h110q-1 -61 -3.5 -98.5t-10 -89t-23 -87t-41 -75t-65.5 -73t-94 -63.5l-86 69q41 15 75 38q87 58 116 131.5t29 182.5q0 28 -7 65zM818 555l58 -52q-12 -13 -25 -33q-33 -54 -90 -125t-111 -110l-81 55q46 30 92.5 80t67.5 88l-458 1q-42 0 -99 -5v103
q60 -8 99 -8h481q38 0 66 6z" />
    <glyph glyph-name="Identity.456" unicode="&#x30a2;" 
d="M424 543h114q0 -65 -1.5 -108.5t-7.5 -98t-17.5 -92.5t-32 -82t-49.5 -77.5t-72 -67.5t-98 -62l-92 75q53 18 96 49q99 64 132.5 154t33.5 230q0 45 -6 80zM879 735l63 -59q-27 -33 -33 -42q-39 -67 -105.5 -145.5t-139.5 -130.5l-83 67q62 36 121 98.5t83 108.5h-549
q-31 0 -117 -6v111q67 -9 117 -9h559q56 0 84 7z" />
    <glyph glyph-name="Identity.457" unicode="&#x30a3;" 
d="M718 613l79 -73q-77 -85 -226 -181v-345q0 -75 5 -96h-116q5 43 5 96v284q-159 -81 -301 -119l-53 92q90 19 186 57.5t164 78.5q76 44 148 101.5t109 104.5z" />
    <glyph glyph-name="Identity.458" unicode="&#x30a4;" 
d="M605 501v-420q0 -87 7 -118h-124q6 44 6 118v356q-179 -95 -362 -147l-57 97q123 28 243 77.5t208 104.5q76 47 147.5 108.5t113.5 115.5l85 -77q-121 -121 -267 -215z" />
    <glyph glyph-name="Identity.459" unicode="&#x30a5;" 
d="M774 506l68 -36q-4 -13 -13 -59q-20 -141 -81 -251q-47 -84 -137.5 -148t-210.5 -94l-79 89q62 9 107 28q148 54 214 155q63 97 75 219h-439v-132q0 -32 3 -53h-101q3 48 3 58v149q0 41 -5 73q50 -4 90 -4h178v64q0 23 -6 65h111q-5 -35 -5 -65v-64h166q45 0 62 6z" />
    <glyph glyph-name="Identity.460" unicode="&#x30a6;" 
d="M825 649l69 -43q-10 -25 -17 -68q-31 -179 -96 -293q-57 -104 -161 -179t-240 -112l-82 95q59 9 120 33q72 24 140.5 74t111.5 114q71 109 92 276h-532v-164q0 -43 4 -66h-109q4 42 4 72v175q0 50 -4 81q52 -5 97 -5h218v86q0 41 -7 83h121q-6 -54 -6 -83v-86h202
q45 0 75 10z" />
    <glyph glyph-name="Identity.461" unicode="&#x30a7;" 
d="M549 83h231q31 0 71 6v-104q-32 3 -71 3h-553q-37 0 -76 -3v104q50 -6 76 -6h219v348h-171q-43 0 -74 -3v100q37 -5 73 -5h459q37 0 74 5v-100q-35 3 -74 3h-184v-348z" />
    <glyph glyph-name="Identity.462" unicode="&#x30a8;" 
d="M551 139h282q26 0 87 7v-114q-36 4 -87 4h-660q-50 0 -93 -4v114q42 -7 93 -7h269v437h-211q-55 0 -88 -4v109q43 -5 88 -5h547q45 0 90 5v-109q-37 4 -90 4h-227v-437z" />
    <glyph glyph-name="Identity.463" unicode="&#x30a9;" 
d="M658 469h133q41 0 73 6v-98q-60 3 -70 3h-134q5 -225 7 -373q0 -35 -23.5 -56t-61.5 -21q-65 0 -149 6l-6 91q67 -10 119 -10q27 0 27 31q0 104 -3 245q-53 -71 -148.5 -151.5t-189.5 -130.5l-69 79q107 50 208 132t154 158h-245q-31 0 -83 -4v99q34 -6 81 -6h289
q-1 42 -3 73q-2 44 -7 74h104q-4 -22 -4 -74z" />
    <glyph glyph-name="Identity.464" unicode="&#x30aa;" 
d="M666 613h143q44 0 93 7v-105q-54 2 -88 2h-146q7 -353 8 -462q0 -90 -101 -90q-60 0 -166 6l-8 103q72 -11 137 -11q37 0 37 40q0 141 -3 322q-68 -92 -185 -192.5t-240 -165.5l-72 82q142 69 264.5 171.5t186.5 196.5h-305q-53 0 -102 -3v106q49 -7 100 -7h349
q-2 51 -3 86q-2 55 -9 92h114q-6 -47 -5 -92z" />
    <glyph glyph-name="Identity.465" unicode="&#x30ab;" 
d="M793 617l69 -34q-4 -21 -6 -51q-11 -376 -60 -485q-31 -68 -116 -68q-46 0 -163 7l-12 105q87 -12 145 -12q42 0 57 34q23 47 35 174t12 230h-256q-27 -202 -101 -330t-207 -222l-92 75q62 33 115 84q148 139 183 393h-152q-71 0 -122 -4v104q76 -6 122 -6h161q3 45 3 95
q0 47 -7 87h117q-3 -33 -5 -84q-1 -38 -5 -98h216q29 0 69 6z" />
    <glyph glyph-name="Identity.466" unicode="&#x30ac;" 
d="M841 654l-66 -29q-41 84 -80 139l65 27q41 -59 81 -137zM488 600h216q29 0 69 6l69 -34q-4 -21 -6 -51q-11 -376 -60 -485q-31 -68 -116 -68q-46 0 -163 7l-12 105q87 -12 145 -12q42 0 57 34q23 47 35 174t12 230h-256q-27 -202 -101 -330t-207 -222l-92 75
q62 33 115 84q148 139 183 393h-152q-71 0 -122 -4v105q66 -7 122 -7h161q3 45 3 96q0 46 -7 86h117q-3 -33 -5 -84q-1 -38 -5 -98zM809 806l64 27q41 -56 83 -136l-65 -28q-49 93 -82 137z" />
    <glyph glyph-name="Identity.467" unicode="&#x30ad;" 
d="M883 411l21 -105q-4 0 -97 -15l-233 -37l16 -81l14 -72t8 -39q14 -58 26 -94l-115 -20q-13 95 -14 97l-7 38l-13.5 72l-15.5 83q-198 -33 -257 -44q-62 -11 -93 -19l-23 107q35 1 95 10l259 40l-35 184q-119 -19 -210 -35q-34 -6 -86 -18l-21 110q56 4 87 7q54 6 211 30
q-4 19 -8.5 43.5t-7.5 37.5t-4 19q-10 44 -20 72l112 18l4 -30q4 -29 7 -42q4 -24 19 -102q176 29 215 37q53 10 82 19l19 -105q-14 -1 -80 -11l-218 -34l35 -183q172 28 234 40q70 15 94 22z" />
    <glyph glyph-name="Identity.468" unicode="&#x30ae;" 
d="M951 723l-65 -28q-41 84 -81 137l64 27q51 -73 82 -136zM503 514l35 -183q172 28 234 40q67 14 94 22l21 -105q-19 -2 -97 -14l-233 -37q38 -191 38 -192q14 -58 26 -94l-115 -21q-14 95 -14 97l-7 38l-13.5 73l-15.5 82l-257 -43q-69 -13 -93 -20l-23 108q35 1 95 10
q72 9 259 40l-35 183l-84.5 -13.5l-79 -12.5t-46.5 -8q-45 -8 -86 -19l-21 111q45 2 87 7q54 6 211 30l-8.5 43t-7.5 36.5t-4 19.5q-9 41 -19 72l111 19q0 -2 4 -30.5t7 -42.5q1 -5 3.5 -19l6.5 -37.5t8 -44.5q168 27 216 36q48 10 67 15q-37 73 -76 130l65 27
q37 -54 80 -137l-53 -23l19 -98q-17 -1 -81 -10z" />
    <glyph glyph-name="Identity.469" unicode="&#x30af;" 
d="M802 674l82 -50q-15 -24 -28 -61q-54 -190 -176 -340q-146 -179 -400 -277l-93 83q250 75 401 250q53 61 95.5 145t56.5 150h-312q-110 -148 -254 -244l-88 65q202 120 314 331q23 38 37 90l116 -38q-17 -26 -52 -89l-14 -25h240q48 0 75 10z" />
    <glyph glyph-name="Identity.470" unicode="&#x30b0;" 
d="M450 640h241q48 0 75 10l82 -50q-15 -24 -28 -61q-54 -190 -176 -340q-146 -180 -400 -276l-93 83q250 74 401 249q54 62 96 145.5t56 149.5h-313q-107 -145 -253 -244l-88 65q202 122 314 331q24 41 37 90l116 -38q-21 -31 -52 -88zM707 781l64 27q41 -59 81 -137
l-66 -28q-45 91 -79 138zM820 824l64 27q48 -65 83 -136l-65 -29q-39 79 -82 138z" />
    <glyph glyph-name="Identity.471" unicode="&#x30b1;" 
d="M366 614h454q62 0 98 6v-108q-51 3 -98 3h-156q-13 -202 -89.5 -338.5t-212.5 -222.5l-106 72q50 21 87 50q194 148 213 439h-237q-33 -59 -77.5 -118t-86.5 -95l-99 60q92 69 176 211q32 58 57 139q14 46 17 89l122 -24l-29 -75q-21 -59 -33 -88z" />
    <glyph glyph-name="Identity.472" unicode="&#x30b2;" 
d="M961 704l-65 -28q-42 84 -82 137l64 27q48 -65 83 -136zM846 661l-66 -29q-43 89 -79 139l64 27q41 -59 81 -137zM354 592h454q61 0 98 6v-108q-34 3 -98 3h-156q-25 -385 -302 -560l-107 72q51 19 87 50q194 147 214 438h-237q-33 -59 -77.5 -117.5t-86.5 -94.5l-99 60
q91 67 175 211q31 54 58 138q14 48 17 90l122 -24q-5 -12 -29 -75q-18 -53 -33 -89z" />
    <glyph glyph-name="Identity.473" unicode="&#x30b3;" 
d="M860 -15h-114q0 6 0.5 24.5t0.5 29.5h-474q-62 0 -120 -4v113q73 -5 116 -5h479v446h-467q-38 0 -116 -3v110q70 -6 116 -6h497q44 0 80 2q-2 -44 -2 -84v-517q0 -62 4 -106z" />
    <glyph glyph-name="Identity.474" unicode="&#x30b4;" 
d="M819 696l-67 -29q-38 79 -79 135l67 27q39 -56 79 -133zM834 578v-518q0 -17 4 -105h-113q0 5 0.5 23.5t0.5 30.5h-475q-71 0 -119 -5v113q72 -5 116 -5h479v446h-467q-38 0 -116 -3v110q70 -6 116 -6h497q42 0 80 2q-3 -66 -3 -83zM803 832l67 28q37 -52 81 -133
l-67 -29q-49 91 -81 134z" />
    <glyph glyph-name="Identity.475" unicode="&#x30b5;" 
d="M732 583h94q70 0 100 6v-106q-24 3 -99 3h-95v-34q0 -101 -13 -174t-45.5 -136t-89.5 -110t-144 -86l-85 80q75 28 123 58t84 78t52 117t16 167v40h-264v-150q0 -41 4 -97h-110q5 70 5 97v150h-98q-56 0 -104 -3v107q46 -7 104 -7h98v115q0 15 -5 80h112q-6 -39 -6 -80
v-115h264v116q0 52 -5 87h113q-6 -45 -6 -87v-116z" />
    <glyph glyph-name="Identity.476" unicode="&#x30b6;" 
d="M964 663l-57 -19q-35 96 -57 138l57 18q34 -66 57 -137zM862 632l-58 -20q-35 99 -55 139l57 18q33 -67 56 -137zM715 566h93q62 0 100 6v-106q-23 3 -99 3h-94v-34q0 -202 -62 -316t-231 -189l-85 80q75 27 123 57t84 78t52 117t16 167v40h-263v-150q0 -41 4 -97h-111
q5 35 5 97v150h-98q-53 0 -104 -3v108q52 -8 104 -8h98v115q0 11 -5 81h112q-5 -35 -5 -81v-115h263v116q0 52 -5 87h113q-5 -75 -5 -87v-116z" />
    <glyph glyph-name="Identity.477" unicode="&#x30b7;" 
d="M304 779q111 -63 222 -143l-59 -86q-117 85 -220 143zM139 66q191 33 338 114q124 70 222.5 166.5t160.5 204.5l60 -106q-139 -212 -390 -358q-72 -42 -166 -76t-166 -48zM152 552q125 -67 224 -137l-58 -89q-116 83 -223 140z" />
    <glyph glyph-name="Identity.478" unicode="&#x30b8;" 
d="M722 756q58 -87 92 -155l-70 -31q-45 96 -90 157zM856 804q44 -58 95 -152l-70 -31q-40 82 -94 154zM292 772q95 -52 222 -142l-60 -86q-108 78 -219 142zM126 60q191 33 338 114q124 71 223 167.5t160 203.5l61 -106q-141 -213 -391 -358q-72 -42 -166 -76t-166 -48z
M140 546q127 -70 223 -137l-58 -89q-106 77 -222 140z" />
    <glyph glyph-name="Identity.479" unicode="&#x30b9;" 
d="M750 721l65 -48q-18 -26 -29 -52q-70 -164 -164 -285q72 -62 153.5 -146t132.5 -147l-89 -78q-102 142 -264 292q-182 -194 -385 -287l-81 84q115 44 223 123.5t188 169.5q51 57 96 131.5t63 132.5h-367q-13 0 -109 -6v113q47 -7 109 -7h371q59 0 87 10z" />
    <glyph glyph-name="Identity.480" unicode="&#x30ba;" 
d="M785 660l10 -8q-15 -20 -29 -51q-68 -160 -164 -286q72 -62 153.5 -146t132.5 -147l-89 -77q-104 142 -264 291q-182 -194 -385 -287l-81 85q114 43 222 122.5t189 169.5q51 57 96 131.5t63 132.5h-367q-13 0 -109 -6v113q47 -7 109 -7h371q56 0 87 11l39 -30
q-35 70 -72 124l65 27q51 -78 80 -137zM817 830l64 27q49 -69 82 -136l-65 -29q-37 77 -81 138z" />
    <glyph glyph-name="Identity.481" unicode="&#x30bb;" 
d="M663 237l-87 51q49 45 97 110t73 113q-9 -2 -59.5 -12l-135 -27l-152.5 -31v-283q0 -51 26.5 -69.5t110.5 -18.5q159 0 314 31l-4 -108q-152 -21 -313 -21q-100 0 -152.5 18.5t-69 50.5t-16.5 90v289l-121.5 -25t-99.5 -21l-19 104q61 8 240 41v159q0 60 -7 102h118
q-7 -52 -7 -102v-139q298 58 362 73q43 10 61 20l75 -58q-17 -26 -28 -46q-39 -73 -96 -155.5t-110 -135.5z" />
    <glyph glyph-name="Identity.482" unicode="&#x30bc;" 
d="M848 668l-66 -28q-45 90 -79 138l64 27q41 -59 81 -137zM385 660v-139q239 45 363 73q44 11 61 20l75 -58q-11 -15 -29 -46q-38 -71 -95 -154.5t-110 -137.5l-87 52q49 45 96.5 109.5t73.5 113.5q-9 -2 -61 -12.5l-134.5 -27l-152.5 -30.5v-283q0 -51 26.5 -69.5
t110.5 -18.5q159 0 314 31l-4 -108q-151 -21 -312 -21q-76 0 -123.5 9t-72.5 30.5t-33.5 48.5t-8.5 70v290q-126 -25 -222 -46l-19 104q64 8 241 41v159q0 60 -7 102h118q-8 -48 -8 -102zM816 821l64 27q51 -71 83 -136l-65 -29q-39 79 -82 138z" />
    <glyph glyph-name="Identity.483" unicode="&#x30bd;" 
d="M255 46q218 88 349 280q86 127 122 316q10 49 10 98l126 -17q-13 -45 -24 -95q-42 -208 -137 -355q-134 -204 -352 -308zM112 680l100 51q73 -106 170 -287l-103 -58q-30 65 -80.5 154.5t-86.5 139.5z" />
    <glyph glyph-name="Identity.484" unicode="&#x30be;" 
d="M239 22q376 160 460 551q13 67 12 97l124 -24q-9 -27 -24 -87q-16 -68 -36 -125t-58 -129.5t-86.5 -132t-125.5 -121.5t-172 -110zM95 656l100 51q67 -96 170 -287l-102 -58q-87 180 -168 294zM745 829q39 -53 80 -133l-68 -29q-32 68 -78 135zM876 860q43 -63 81 -133
l-68 -29q-52 96 -81 134z" />
    <glyph glyph-name="Identity.485" unicode="&#x30bf;" 
d="M803 690l81 -50q-19 -35 -28 -62q-44 -146 -142 -287q72 -47 96 -64l-70 -92q-34 28 -95 70q-151 -171 -381 -259l-91 80q227 68 385 237q-119 77 -205 125l66 75q84 -44 206 -117q88 126 118 243h-318q-116 -159 -263 -260l-86 65q117 72 195.5 163.5t124.5 177.5
q26 40 38 90l114 -36q-33 -52 -51 -88l-12 -22h243q45 0 75 11z" />
    <glyph glyph-name="Identity.486" unicode="&#x30c0;" 
d="M852 676l-55 -24l59 -36q-15 -24 -28 -61q-45 -148 -142 -287q58 -37 96 -65l-71 -91q-30 25 -94 70q-153 -173 -382 -259l-90 79q226 69 384 238q-105 69 -204 124l66 75q96 -50 206 -116q89 128 117 243h-317q-114 -157 -264 -261l-85 66q208 128 320 340q24 39 38 91
l114 -36q-17 -26 -52 -89l-12 -21h243q48 0 75 10l4 -2q-42 83 -71 122l64 27q41 -59 81 -137zM820 828l64 27q48 -65 83 -136l-65 -29q-39 79 -82 138z" />
    <glyph glyph-name="Identity.487" unicode="&#x30c1;" 
d="M569 462h266q40 0 84 4v-102q-36 3 -82 3h-270q-10 -137 -71 -239.5t-185 -175.5l-100 68q117 55 179 139.5t73 207.5h-288q-54 0 -91 -3v103q40 -5 90 -5h292v165q-116 -12 -281 -14l-25 92q181 -7 339 16q179 24 255 58l65 -87l-39 -9.5t-26 -6.5q-85 -22 -185 -37
v-177z" />
    <glyph glyph-name="Identity.488" unicode="&#x30c2;" 
d="M543 449h266q31 0 84 5v-103q-48 4 -82 4h-270q-10 -138 -71 -240t-185 -175l-100 68q117 54 179 139t73 208h-288q-41 0 -91 -4v103q62 -5 90 -5h292v165q-99 -9 -280 -14l-25 93q178 -7 338 15q178 24 255 59l66 -87l-65 -17q-74 -19 -186 -36v-178zM844 509l-62 -28
q-34 73 -72 127l60 26q44 -63 74 -125zM818 648l60 27q47 -64 78 -124l-62 -28q-35 70 -76 125z" />
    <glyph glyph-name="Identity.489" unicode="&#x30c3;" 
d="M493 584q51 -119 80 -217l-94 -34q-9 36 -36 110.5t-44 109.5zM748 555l110 -35q-14 -39 -19 -60q-46 -182 -140 -301q-128 -164 -329 -242l-83 85q89 25 178.5 81t149.5 130q52 64 87 155.5t46 186.5zM260 532q41 -82 92 -227l-95 -35q-14 45 -45 123t-46 105z" />
    <glyph glyph-name="Identity.490" unicode="&#x30c4;" 
d="M463 764q18 -37 53 -128.5t49 -136.5l-99 -35q-13 46 -46.5 136t-53.5 131zM796 726l117 -33q-8 -18 -21 -66q-59 -233 -167 -376q-76 -100 -179.5 -175.5t-213.5 -114.5l-87 88q109 31 214 100t179 162q59 75 101.5 190t56.5 225zM185 703q60 -127 114 -277l-101 -37
q-15 49 -54.5 146t-58.5 132z" />
    <glyph glyph-name="Identity.491" unicode="&#x30c5;" 
d="M446 737q18 -37 53.5 -129t48.5 -136l-99 -34q-13 45 -46.5 135t-53.5 132zM768 644l115 -28q-8 -19 -20 -66q-58 -198 -156 -325q-75 -100 -178.5 -175.5t-213.5 -115.5l-87 88q109 32 214.5 100.5t178.5 161.5q113 145 147 360zM168 676q60 -127 114 -277l-101 -36
q-15 47 -54.5 144.5t-58.5 133.5zM753 830q43 -61 80 -134l-68 -29q-29 65 -78 135zM884 860q46 -66 81 -132l-68 -29q-52 96 -81 133z" />
    <glyph glyph-name="Identity.492" unicode="&#x30c6;" 
d="M710 652h-403q-56 0 -98 -3v103q53 -7 98 -7h403q55 0 100 7v-103q-48 3 -100 3zM182 493h654q42 0 84 5v-103q-34 3 -84 3h-257q-6 -159 -62 -267q-28 -52 -81.5 -103t-117.5 -83l-92 68q56 23 105.5 63t79.5 86q53 83 60 236h-289q-49 0 -91 -3v103q47 -5 91 -5z" />
    <glyph glyph-name="Identity.493" unicode="&#x30c7;" 
d="M868 680l-66 -28q-45 90 -79 138l64 27q41 -59 81 -137zM632 642h-337q-44 0 -98 -4v103q45 -6 97 -6h338q54 0 100 6v-103q-64 4 -100 4zM170 483h654q53 0 84 5v-103q-46 2 -84 2h-257q-6 -160 -62 -266q-27 -52 -80.5 -103t-117.5 -84l-93 68q55 22 105.5 62.5
t79.5 86.5q55 86 60 236h-289q-49 0 -91 -3v104q48 -5 91 -5zM836 832l64 27q51 -69 83 -136l-65 -28q-39 81 -82 137z" />
    <glyph glyph-name="Identity.494" unicode="&#x30c8;" 
d="M857 354l-45 -109q-153 83 -378 156v-309q0 -70 8 -128h-123q8 56 8 128v578q0 61 -9 112h123q-7 -77 -7 -112v-156q253 -77 423 -160z" />
    <glyph glyph-name="Identity.495" unicode="&#x30c9;" 
d="M886 634l-68 -33q-42 84 -92 150l67 31q60 -83 93 -148zM758 579l-70 -31q-37 81 -88 153l67 29q63 -91 91 -151zM402 656v-156q100 -30 225 -77t198 -83l-44 -108q-154 81 -379 155l1 -309q0 -63 7 -128h-122q8 56 8 128v578q0 62 -9 112h123q-8 -88 -8 -112z" />
    <glyph glyph-name="Identity.496" unicode="&#x30ca;" 
d="M581 551h248q60 0 96 4v-107q-27 3 -97 3h-247q-2 -110 -28 -196t-88.5 -163.5t-164.5 -137.5l-98 73q139 64 203 170t68 254h-277q-66 0 -103 -3v108q60 -5 101 -5h279v123q0 67 -11 108h126q-7 -36 -7 -108v-123z" />
    <glyph glyph-name="Identity.497" unicode="&#x30cb;" 
d="M90 50v121q72 -6 113 -6h588q52 0 100 6v-121q-55 5 -100 5h-588q-55 0 -113 -5zM175 549v114q55 -5 106 -5h422q59 0 104 5v-114q-56 4 -104 4h-421q-43 0 -107 -4z" />
    <glyph glyph-name="Identity.498" unicode="&#x30cc;" 
d="M836 117l-74 -87q-72 69 -188 158q-75 -81 -171.5 -143.5t-196.5 -99.5l-88 89q216 66 368 219q-137 99 -259 166l64 77q111 -58 264 -163q98 132 132 278h-391q-59 0 -117 -4v107q87 -6 117 -6h398q36 0 64 13l74 -57q-18 -30 -28 -60q-62 -191 -161 -333
q117 -85 193 -154z" />
    <glyph glyph-name="Identity.499" unicode="&#x30cd;" 
d="M555 331v-262q0 -40 5 -118h-114q7 51 7 118q0 134 1 198q-133 -74 -325 -132l-61 93q228 52 407 169q60 38 111 85t77 83h-392q-64 0 -126 -4v104q51 -6 124 -6h186v59q0 56 -6 90h114q-6 -46 -6 -90v-59h146q46 0 71 8l66 -63q-49 -51 -65 -70q-103 -119 -220 -203z
M633 279l65 75q135 -73 241 -144l-66 -87q-118 90 -240 156z" />
    <glyph glyph-name="Identity.500" unicode="&#x30ce;" 
d="M816 725q-8 -16 -37 -98q-84 -237 -186 -365q-69 -87 -169.5 -165.5t-207.5 -122.5l-90 92q112 39 211 108.5t169 154.5q68 83 117 198.5t71 229.5z" />
    <glyph glyph-name="Identity.501" unicode="&#x30cf;" 
d="M219 322q77 188 97 375l113 -23q-13 -46 -20 -85q-39 -182 -89 -307q-58 -151 -147 -280l-109 46q92 121 155 274zM712 353q-75 200 -145 322l103 34q72 -132 147 -321q65 -162 119 -346l-115 -37q-39 166 -109 348z" />
    <glyph glyph-name="Identity.502" unicode="&#x30d0;" 
d="M772 787q44 -64 80 -137l-65 -28q-43 86 -80 138zM885 830q52 -76 82 -136l-64 -29q-45 87 -82 138zM207 305q77 188 96 375l114 -23q-9 -32 -21 -85q-33 -169 -88 -308q-59 -151 -147 -279l-109 46q92 121 155 274zM700 336q-81 210 -145 322l103 34q77 -145 147 -321
q68 -171 118 -346l-114 -37q-41 167 -109 348z" />
    <glyph glyph-name="Identity.503" unicode="&#x30d1;" 
d="M791 707q0 -25 18.5 -43.5t43.5 -18.5q26 0 44.5 18.5t18.5 43.5t-19 44t-44 19t-43.5 -18.5t-18.5 -44.5zM738 707q0 47 33.5 81t81.5 34t82 -34t34 -81q0 -48 -34 -81.5t-82 -33.5t-81.5 33.5t-33.5 81.5zM207 305q77 188 96 375l114 -23q-9 -32 -21 -85
q-33 -169 -88 -308q-59 -151 -147 -279l-109 46q92 121 155 274zM700 336q-81 210 -145 322l103 34q77 -145 147 -321q68 -171 118 -346l-114 -37q-41 167 -109 348z" />
    <glyph glyph-name="Identity.504" unicode="&#x30d2;" 
d="M324 373v-205q0 -34 15.5 -48t52.5 -21q43 -7 125 -7q221 0 345 33v-115q-138 -20 -351 -20q-103 0 -163 10q-63 12 -95 45t-32 94v547q0 46 -7 91h117q-7 -45 -7 -91v-210q206 50 374 120q55 24 97 50l43 -101q-16 -6 -52 -21.5t-52 -21.5q-162 -65 -410 -129z" />
    <glyph glyph-name="Identity.505" unicode="&#x30d3;" 
d="M813 658l-65 -28q-51 97 -80 138l64 27q41 -59 81 -137zM285 353v-204q0 -34 15 -48t53 -22q42 -7 125 -7q221 0 344 33v-115q-138 -20 -350 -20q-104 0 -164 10q-63 12 -95 45t-32 94v548q0 54 -7 90h117q-6 -39 -6 -90v-210q211 52 365 117q52 21 97 49l44 -101
l-46.5 -19.5t-58.5 -22.5q-157 -63 -401 -127zM782 810l64 27q49 -69 82 -136l-65 -28q-41 84 -81 137z" />
    <glyph glyph-name="Identity.506" unicode="&#x30d4;" 
d="M827 641q26 0 44.5 18t18.5 44t-18.5 44.5t-44.5 18.5q-25 0 -43.5 -18.5t-18.5 -44.5q0 -25 18.5 -43.5t43.5 -18.5zM285 667v-210q211 52 365 117q52 21 95 48q-33 35 -33 81q0 47 34 81t81 34q48 0 82 -34t34 -81q0 -48 -34 -81.5t-82 -33.5q-44 0 -78 31l42 -97
l-46.5 -19.5t-58.5 -22.5q-157 -63 -401 -127v-204q0 -34 15 -48t53 -22q42 -7 125 -7q221 0 344 33v-115q-138 -20 -350 -20q-104 0 -164 10q-63 12 -95 45t-32 94v548q0 54 -7 90h117q-6 -39 -6 -90z" />
    <glyph glyph-name="Identity.507" unicode="&#x30d5;" 
d="M796 715l77 -50q-7 -14 -18 -58q-52 -240 -149 -367q-149 -193 -398 -271l-85 94q253 62 390 238q49 61 81.5 146t43.5 161h-491q-58 0 -108 -4v112q56 -8 108 -8h485q38 0 64 7z" />
    <glyph glyph-name="Identity.508" unicode="&#x30d6;" 
d="M836 704l-38 -16l55 -36q-7 -14 -18 -58q-51 -238 -150 -367q-147 -192 -397 -271l-86 94q139 34 231.5 93.5t159.5 144.5q49 62 81.5 147t43.5 160h-491q-33 0 -108 -3v111q49 -7 108 -7h485q28 0 44 2q-27 52 -66 110l67 28q35 -50 79 -132zM823 834l68 28
q46 -66 81 -132l-68 -30q-51 95 -81 134z" />
    <glyph glyph-name="Identity.509" unicode="&#x30d7;" 
d="M866 663q26 0 44.5 18t18.5 44t-18.5 44t-44.5 18t-44 -18.5t-18 -43.5q0 -26 18 -44t44 -18zM227 696h485q27 0 42 2q-3 14 -3 27q0 47 34 81t81 34q48 0 82 -34t34 -81q0 -48 -34 -81.5t-82 -33.5q-14 0 -26 3l-5 -19q-51 -236 -150 -367q-149 -193 -397 -271l-86 94
q139 34 231.5 93.5t159.5 144.5q49 62 81.5 147t43.5 160h-491q-33 0 -108 -3v111q49 -7 108 -7z" />
    <glyph glyph-name="Identity.510" unicode="&#x30d8;" 
d="M54 291q34 29 75 70q21 21 53 59l76.5 92.5l65.5 78.5q43 50 82 53t98 -43q58 -49 206 -206q178 -191 243 -268l-83 -90q-87 110 -221 261q-126 148 -189 201q-29 25 -45.5 23.5t-40.5 -30.5l-87 -112.5l-78 -101.5l-61 -84z" />
    <glyph glyph-name="Identity.511" unicode="&#x30d9;" 
d="M699 685q58 -87 94 -159l-72 -32q-44 94 -92 161zM830 737q60 -83 97 -156l-71 -34q-42 85 -96 158zM46 272q21 18 76 71q20 21 52.5 59l76.5 91.5l66 79.5q43 50 82 53t97 -44q65 -53 206 -205q178 -191 243 -268l-83 -90q-70 89 -220 264q-134 153 -191 201
q-28 24 -45 23t-40 -30l-93.5 -120t-73.5 -95l-60 -84z" />
    <glyph glyph-name="Identity.512" unicode="&#x30da;" 
d="M712 605q0 -29 20 -49t49 -20t49 20t20 49t-20 49t-49 20t-49 -20t-20 -49zM656 605q0 52 36.5 89t88.5 37q53 0 89.5 -36.5t36.5 -89.5q0 -52 -36.5 -88t-89.5 -36q-52 0 -88.5 36t-36.5 88zM46 272q21 18 76 71q20 21 52.5 59l76.5 91.5l66 79.5q43 50 82 53t97 -44
q65 -53 206 -205q178 -191 243 -268l-83 -90q-70 89 -220 264q-134 153 -191 201q-28 24 -45 23t-40 -30l-93.5 -120t-73.5 -95l-60 -84z" />
    <glyph glyph-name="Identity.513" unicode="&#x30db;" 
d="M258 419l89 -43q-32 -62 -90 -145t-102 -131l-86 58q49 47 104 123t85 138zM818 525h-252v-476q0 -85 -94 -85q-88 0 -151 7l-9 99q64 -12 114 -12q37 0 37 38q1 47 1 425v4h-267q-49 0 -91 -3v105q44 -6 90 -6h268v93q0 46 -8 78h118q-8 -37 -8 -79v-92h251q46 0 89 5
v-103q-29 2 -88 2zM684 373l86 47q82 -100 172 -263l-93 -51q-85 169 -165 267z" />
    <glyph glyph-name="Identity.514" unicode="&#x30dc;" 
d="M961 695l-65 -28q-40 80 -79 133l64 27q49 -69 80 -132zM836 666l-66 -29q-40 82 -77 134l65 27q39 -57 78 -132zM241 406l89 -43q-32 -63 -90 -146t-102 -130l-86 59q49 46 104 121.5t85 138.5zM801 512h-252v-476q0 -85 -93 -85q-89 0 -152 7l-9 99q59 -11 114 -11
q37 0 38 37v429h-267q-50 0 -90 -3v105q56 -6 89 -6h268v93q0 46 -8 78h118q-8 -37 -8 -79v-92h251q50 0 89 6v-104q-29 2 -88 2zM667 360l86 47q80 -97 172 -262l-92 -52q-33 65 -81 144t-85 123z" />
    <glyph glyph-name="Identity.515" unicode="&#x30dd;" 
d="M823 804q-25 0 -42 -17.5t-17 -42.5t17 -42.5t42 -17.5t42.5 17.5t17.5 42.5t-17.5 42.5t-42.5 17.5zM823 632q-47 0 -79.5 33t-32.5 79t32.5 79t79.5 33t80 -33t33 -79t-33 -79t-80 -33zM241 406l89 -43q-32 -63 -90 -146t-102 -130l-86 59q49 46 104 121.5t85 138.5z
M801 512h-252v-476q0 -85 -93 -85q-89 0 -152 7l-9 99q59 -11 114 -11q37 0 38 37v429h-267q-50 0 -90 -3v105q56 -6 89 -6h268v93q0 46 -8 78h118q-8 -37 -8 -79v-92h251q50 0 89 6v-104q-29 2 -88 2zM667 360l86 47q80 -97 172 -262l-92 -52q-33 65 -81 144t-85 123z" />
    <glyph glyph-name="Identity.516" unicode="&#x30de;" 
d="M860 697l79 -65q-19 -20 -29 -35q-61 -99 -153.5 -207.5t-199.5 -192.5q99 -99 164 -177l-92 -74q-60 81 -185 210q-48 47 -116.5 106.5t-108.5 87.5l82 67q82 -61 180 -148q92 70 168 159t118 162h-562q-45 0 -108 -6v112q54 -8 108 -8h578q51 0 77 9z" />
    <glyph glyph-name="Identity.517" unicode="&#x30df;" 
d="M286 768q105 -13 274.5 -49.5t259.5 -67.5l-41 -98q-86 32 -253.5 70t-276.5 52zM241 502q119 -20 272 -55t240 -66l-39 -97q-83 32 -239 69t-271 54zM188 213q133 -21 319 -66t285 -83l-44 -98q-93 40 -279 84.5t-321 64.5z" />
    <glyph glyph-name="Identity.518" unicode="&#x30e0;" 
d="M942 9l-106 -48q-22 60 -52 125q-360 -43 -609 -66l-46 -6.5t-42 -5.5l-18 116q70 0 100 2q6 1 20 1.5t21 0.5q39 99 97 277.5t82 265.5q15 50 22 104l125 -26q-27 -66 -38 -101q-111 -352 -171 -510q209 18 412 45q-66 132 -114 195l97 42q53 -79 120.5 -205t99.5 -206z
" />
    <glyph glyph-name="Identity.519" unicode="&#x30e1;" 
d="M706 772l120 -42q-13 -22 -37 -80q-58 -157 -143 -284q147 -122 243 -225l-81 -89q-98 113 -229 225q-163 -198 -383 -317l-91 81q229 109 390 306q-149 118 -275 196l67 80q141 -90 273 -189q75 112 124 256q15 45 22 82z" />
    <glyph glyph-name="Identity.520" unicode="&#x30e2;" 
d="M499 335v-179q0 -40 29 -59t93 -19q144 0 260 14l-6 -107q-117 -8 -271 -8q-117 0 -164 37t-47 110v211h-181q-43 0 -101 -4v105q47 -5 101 -5h181v193h-123q-51 0 -93 -3v100q56 -4 93 -4h478q55 0 86 4v-100q-75 3 -86 3h-249v-193h322q41 0 89 4l1 -102q-26 2 -88 2
h-324z" />
    <glyph glyph-name="Identity.521" unicode="&#x30e3;" 
d="M658 176l-87 44q42 38 90 95.5t71 99.5q-8 -2 -50 -10t-104.5 -21l-117.5 -24q86 -313 100 -355q10 -36 24 -74l-108 -27q-6 45 -16 79q-22 77 -96 357l-197 -41l-24 96q30 2 87 11q9 1 110 20l-29 106q-10 35 -26 64l107 26q3 -17 15 -69l30 -109q300 58 328 64
q29 6 43 14l64 -45q-32 -65 -97 -156.5t-117 -144.5z" />
    <glyph glyph-name="Identity.522" unicode="&#x30e4;" 
d="M674 278l-102 48q55 44 114 116.5t89 123.5q-7 -1 -63 -12.5l-135.5 -27l-149.5 -29.5q117 -421 122 -437q7 -25 28 -85l-117 -28q-8 50 -20 90q-3 10 -118 438q-172 -35 -237 -50l-28 107q77 8 106 13q8 1 25 4.5t50.5 9.5t58.5 10l-36 127q-15 54 -30 81l115 26
q7 -37 18 -82l37 -132q329 62 403 79q27 5 51 15l71 -51q-34 -73 -111.5 -180.5t-140.5 -173.5z" />
    <glyph glyph-name="Identity.523" unicode="&#x30e5;" 
d="M688 96h84q41 0 87 4v-102q-38 2 -85 2h-539q-22 0 -90 -2v103q43 -5 90 -5h346q39 236 43 313h-297q-8 0 -89 -3v104q42 -5 88 -5h284q44 0 60 8l76 -37q-3 -11 -8 -36q-9 -70 -50 -344z" />
    <glyph glyph-name="Identity.524" unicode="&#x30e6;" 
d="M716 156h124q43 0 87 7v-115q-45 5 -87 5h-671q-40 0 -93 -5v115q42 -7 93 -7h434q56 319 60 419h-373q-37 0 -103 -4v111q72 -7 102 -7h346q49 0 75 11l84 -41q-6 -13 -9 -38q-19 -145 -69 -451z" />
    <glyph glyph-name="Identity.525" unicode="&#x30e7;" 
d="M782 -64h-100q1 9 1 40h-392q-17 0 -47 -1t-37 -1v98q34 -4 84 -4h392v158h-342q-77 0 -99 -2v95q69 -3 98 -3h343v147h-353q-71 0 -111 -4v97q29 -4 111 -4h383q13 0 37.5 0.5t30.5 0.5q-1 -12 -1 -58v-499q0 -28 2 -60z" />
    <glyph glyph-name="Identity.526" unicode="&#x30e8;" 
d="M838 641v-605q0 -11 0.5 -34t0.5 -32h-108q0 31 1 50h-482q-59 0 -101 -4v106q40 -4 101 -4h482v206h-419q-24 0 -66.5 -0.5t-53.5 -0.5v101q73 -5 119 -5h420v193h-433q-84 0 -136 -4v104q67 -5 136 -5h463q50 0 77 3q-1 -15 -1 -69z" />
    <glyph glyph-name="Identity.527" unicode="&#x30e9;" 
d="M819 523l70 -44q-14 -32 -15 -34q-52 -176 -147 -281q-136 -151 -358 -213l-78 90q220 46 350 180q79 81 111 200h-509q-55 0 -106 -4v104q68 -7 106 -7h512q41 0 64 9zM228 651v103q45 -5 95 -5h390q56 0 98 5v-103q-38 3 -99 3h-389q-53 0 -95 -3z" />
    <glyph glyph-name="Identity.528" unicode="&#x30ea;" 
d="M210 758h116q-4 -42 -4 -74v-335q0 -41 4 -81h-117q0 5 1.5 20.5t2.5 31.5t1 29v335q0 32 -4 74zM671 766h117q-4 -52 -4 -92v-178q0 -163 -25.5 -247t-84.5 -151q-78 -91 -239 -146l-83 87q162 41 242 131q51 57 67 126t16 206v172q0 40 -6 92z" />
    <glyph glyph-name="Identity.529" unicode="&#x30eb;" 
d="M150 -33l-95 64q123 87 172 243q29 89 29 399q0 50 -8 81h116q-5 -40 -5 -80q0 -312 -31 -427q-46 -168 -178 -280zM581 -33l-66 55q7 30 7 63v592q0 18 -1.5 36.5t-3 30t-1.5 13.5h116q-5 -30 -5 -80v-553q70 32 145.5 93.5t126.5 136.5l60 -86q-61 -81 -154.5 -155.5
t-185.5 -120.5q-10 -5 -38 -25z" />
    <glyph glyph-name="Identity.530" unicode="&#x30ec;" 
d="M284 -28l-74 63q11 22 11 56v559q0 60 -9 101h124q-9 -56 -9 -100v-547q142 38 292 130t241 206l57 -88q-195 -239 -583 -359q-28 -7 -50 -21z" />
    <glyph glyph-name="Identity.531" unicode="&#x30ed;" 
d="M762 594h-519v-450h519v450zM867 609v-491q0 -21 1 -74.5t1 -54.5h-109q0 2 0.5 9.5t1 22t0.5 24.5h-518q0 -51 1 -56h-108q0 1 1 53t1 76v491q0 60 -1 87q39 -2 96 -2h543q59 0 92 1q-2 -27 -2 -86z" />
    <glyph glyph-name="Identity.532" unicode="&#x30ee;" 
d="M769 549l71 -45q-9 -14 -16 -48q-38 -230 -113 -328q-112 -147 -307 -218l-82 84q187 49 293 180q79 100 98 277h-427v-141q0 -40 2 -63h-107q3 33 3 63v172q0 34 -3 63q24 -2 95 -2h429q43 0 64 6z" />
    <glyph glyph-name="Identity.533" unicode="&#x30ef;" 
d="M811 717l76 -49q-9 -21 -15 -55q-13 -81 -21.5 -126t-33.5 -119t-59 -128q-61 -96 -159.5 -169.5t-219.5 -113.5l-87 88q112 29 212 93.5t158 154.5q75 120 93 320h-520v-186q0 -44 3 -72h-115q4 54 4 72v213q0 26 -4 74q42 -3 113 -3h498q51 0 77 6z" />
    <glyph glyph-name="Identity.534" unicode="&#x30f0;" 
d="M389 262h219v270h-219v-270zM710 262h124q37 0 87 6v-106q-27 4 -87 4h-124v-113q0 -43 3 -95h-109q4 52 4 93v115h-429q-49 0 -93 -4v106q37 -6 93 -6h111v270h-75q-50 0 -93 -4v103q47 -6 93 -6h393v79q0 35 -4 74h109q-3 -37 -3 -74v-79h100q35 0 87 6v-103
q-27 4 -87 4h-100v-270z" />
    <glyph glyph-name="Identity.535" unicode="&#x30f1;" 
d="M763 597h-517l-112 -5v108q55 -5 105 -5h543q40 0 68 9l66 -46q-18 -26 -25 -38q-32 -62 -91 -138t-116 -125l-87 58q102 76 166 182zM537 133h304q28 0 89 7v-116q-35 5 -89 5h-666q-41 0 -96 -5v116q45 -7 96 -7h255v294q0 62 -4 95h117q-6 -51 -6 -95v-294z" />
    <glyph glyph-name="Identity.536" unicode="&#x30f2;" 
d="M811 728l79 -50q-9 -20 -14 -40q-51 -267 -119 -373q-70 -110 -171 -186.5t-251 -128.5l-82 88q129 30 234 97.5t170 163.5q20 31 36 67h-416q-52 0 -96 -4v101q56 -4 93 -4h452q24 83 34 165h-497q-58 0 -108 -4v109q64 -8 108 -8h474q49 0 74 7z" />
    <glyph glyph-name="Identity.537" unicode="&#x30f3;" 
d="M233 745q55 -36 135 -101.5t121 -107.5l-79 -81q-42 43 -119.5 109.5t-130.5 102.5zM130 76q218 33 393 140q116 71 207.5 173t139.5 204l61 -109q-57 -101 -147.5 -197t-203.5 -165q-184 -113 -383 -149z" />
    <glyph glyph-name="Identity.538" unicode="&#x30f4;" 
d="M832 684l-65 -28q-43 86 -80 138l65 27q44 -64 80 -137zM526 627h202q50 0 75 10l68 -43q-10 -27 -16 -68q-31 -179 -96 -293q-57 -104 -161 -179t-240 -112l-82 95q56 9 120 32q72 25 140.5 75t111.5 114q71 107 92 276h-532v-165q0 -42 4 -65h-109q4 40 4 72v175
q0 50 -4 81q52 -5 97 -5h218v86q0 40 -7 83h121q-6 -56 -6 -83v-86zM808 828l64 27q41 -56 83 -136l-65 -29q-45 87 -82 138z" />
    <glyph glyph-name="Identity.539" unicode="&#x30f5;" 
d="M744 477l62 -31q-5 -22 -5 -41q-8 -308 -52 -406q-27 -55 -102 -55q-22 0 -139 6l-10 97q70 -12 122 -12q35 0 48 27q18 38 28 137t10 184h-210q-21 -160 -81.5 -265.5t-175.5 -185.5l-85 69q51 25 93 63q126 111 156 319h-131q-66 0 -98 -3v98q46 -6 98 -6h139
q2 50 2 79q0 39 -5 69h105q-1 -9 -4 -66q-2 -54 -4 -82h184q28 0 55 5z" />
    <glyph glyph-name="Identity.540" unicode="&#x30f6;" 
d="M390 463h385q58 0 83 4v-97q-28 3 -83 3h-135q-13 -165 -76 -278t-180 -183l-98 65q43 18 83 49q154 125 172 347h-196q-29 -47 -69 -96.5t-71 -76.5l-92 53q83 62 151 173q38 61 55 128q10 33 13 65l110 -24q-15 -39 -20 -55q-16 -43 -32 -77z" />
    <glyph glyph-name="Identity.541" unicode="&#x30fb;" 
d="M384 380q0 48 34 82t82 34t82 -34t34 -82t-34 -82t-82 -34t-82 34t-34 82z" />
    <glyph glyph-name="Identity.542" unicode="&#x30fc;" 
d="M98 323v123q64 -6 148 -6h543q40 0 112 6v-123q-88 4 -111 4h-544q-82 0 -148 -4z" />
    <glyph glyph-name="Identity.543" unicode="&#x30fd;" 
d="M369 592q88 -76 206.5 -204t183.5 -218l-96 -75q-65 99 -177 223.5t-208 203.5z" />
    <glyph glyph-name="Identity.544" unicode="&#x30fe;" 
d="M588 687q42 -58 92 -151l-71 -30q-54 103 -89 153zM721 730q46 -65 92 -151l-70 -30q-58 109 -92 152zM344 587q88 -76 206.5 -204t183.5 -218l-96 -76q-65 99 -176.5 223.5t-208.5 204.5z" />
    <glyph glyph-name="Identity.545" unicode="&#x4e00;" 
d="M47 441h910v-102h-910v102z" />
    <glyph glyph-name="Identity.546" unicode="&#x4e01;" 
d="M938 754v-96h-354v-596q0 -51 -15 -77t-51 -37q-51 -19 -236 -19q-13 57 -45 108q127 -6 204 -3q19 1 26.5 7t7.5 22v595h-413v96h876z" />
    <glyph glyph-name="Identity.547" unicode="&#x4e03;" 
d="M515 47h231q48 0 63.5 35.5t23.5 156.5q39 -29 94 -44q-11 -139 -45.5 -190t-130.5 -51h-241q-102 0 -139 35.5t-37 134.5v276l-269 -41l-14 93l283 44v324h101v-308l504 79l15 -95l-519 -81v-292q0 -48 14.5 -62t65.5 -14z" />
    <glyph glyph-name="Identity.548" unicode="&#x4e07;" 
d="M935 676h-520q-4 -124 -10 -185h444q0 -30 -1 -43q-13 -238 -28.5 -341.5t-44.5 -135.5q-30 -35 -94 -41q-56 -6 -174 1q-4 47 -32 91q71 -6 169 -6q32 -1 47 12q22 19 34.5 104t22.5 269h-355q-24 -161 -91.5 -282.5t-201.5 -198.5q-19 37 -67 75q44 23 80 53.5t63 61
t48 71.5t35.5 74.5t25 82t16 82.5t10 87t5.5 84t3 85h-253v91h869v-91z" />
    <glyph glyph-name="Identity.549" unicode="&#x4e08;" 
d="M936 561h-283q-7 -140 -35 -241t-89 -177q153 -103 420 -133q-31 -32 -56 -89q-275 37 -434 152q-117 -96 -340 -144q-17 45 -53 81q211 45 318 128q-126 129 -193 361l89 22q53 -199 172 -317q51 64 73 150t28 207h-487v91h490q1 54 1 172h101q0 -117 -2 -172h280v-91z
" />
    <glyph glyph-name="Identity.550" unicode="&#x4e09;" 
d="M126 744h750v-95h-750v95zM191 423h607v-95h-607v95zM69 82h860v-94h-860v94z" />
    <glyph glyph-name="Identity.551" unicode="&#x4e0a;" 
d="M518 63h430v-94h-895v94h365v762h100v-297h361v-93h-361v-372z" />
    <glyph glyph-name="Identity.552" unicode="&#x4e0b;" 
d="M942 672h-413v-169l17 20q91 -44 192 -102.5t156 -101.5l-68 -85q-94 79 -297 192v-503h-99v749h-371v95h883v-95z" />
    <glyph glyph-name="Identity.553" unicode="&#x4e0d;" 
d="M928 676h-312q-47 -76 -66 -103v-651h-101v525q-154 -171 -341 -270q-29 48 -64 83q139 68 257.5 179t192.5 237h-422v95h856v-95zM554 464l70 60q95 -64 190.5 -137.5t146.5 -127.5l-78 -72q-99 113 -329 277z" />
    <glyph glyph-name="Identity.554" unicode="&#x4e0e;" 
d="M946 271v-90h-192q-27 -174 -70 -217q-33 -35 -96 -41q-62 -5 -173 3q-4 51 -34 92q73 -7 172 -7q36 0 51 13q33 28 54 157h-602v90h616q11 106 13 128h-384l-12 -48l-97 9q58 210 101 481l97 -10q-12 -69 -24 -126h474v-89h-491l-16.5 -76.5t-11.5 -54.5h466
q-2 -29 -4 -43q-12 -127 -17 -171h180z" />
    <glyph glyph-name="Identity.555" unicode="&#x4e11;" 
d="M344 41h297q15 128 26 300h-280q-22 -173 -43 -300zM687 687h-258q-18 -161 -30 -255h275q10 170 13 255zM948 341h-185q-11 -181 -24 -300h198v-90h-873v90h183q21 113 47 300h-241v91h253q12 100 28 255h-195v91h647q-6 -161 -17 -346h179v-91z" />
    <glyph glyph-name="Identity.556" unicode="&#x4e14;" 
d="M302 210v-156h407v156h-407zM709 694h-407v-152h407v152zM709 300v156h-407v-156h407zM805 54h140v-90h-888v90h153v729h595v-729z" />
    <glyph glyph-name="Identity.557" unicode="&#x4e16;" 
d="M546 320h164v186h-164v-186zM804 191h-94v42h-164v-46h-93v319h-164v-425h631v-91h-631v-69h-95v585h-146v89h146v216h95v-216h164v237h93v-237h164v226h94v-226h151v-89h-151v-315z" />
    <glyph glyph-name="Identity.558" unicode="&#x4e18;" 
d="M301 400v-348h315v348h-315zM711 52h240v-91h-900v91h154v694l86 -19q303 43 464 100l71 -79q-193 -62 -525 -104v-153h597v-91h-187v-348z" />
    <glyph glyph-name="Identity.559" unicode="&#x4e19;" 
d="M928 684h-382v-136h353v-511q0 -41 -11.5 -63.5t-39.5 -32.5q-39 -16 -187 -16q-7 44 -32 93q43 -2 152 -2q14 1 19.5 5.5t5.5 16.5v423h-264q-5 -40 -14 -70q169 -118 255 -209l-64 -73q-59 70 -222 198q-65 -133 -223 -217q-26 39 -69 71q210 101 236 300h-244v-539
h-93v626h342v136h-376v92h858v-92z" />
    <glyph glyph-name="Identity.560" unicode="&#x4e1e;" 
d="M342 579l58 -26q-38 -144 -115.5 -252.5t-178.5 -170.5q-30 41 -71 67q83 46 149.5 123t103.5 174h-220v82h258zM77 -41v84h845v-84h-845zM844 622l82 -59q-108 -92 -218 -162q113 -133 259 -190q-43 -39 -65 -80q-111 53 -201.5 147.5t-152.5 218.5v-310
q0 -38 -10.5 -57.5t-36.5 -29.5q-39 -14 -177 -14q-6 38 -29 84q30 -1 137 -1q14 1 18.5 5t4.5 15v432h65q63 46 116 97h-451v81h533l20 5l62 -47q-96 -101 -206 -176q25 -58 66 -118q108 78 184 159z" />
    <glyph glyph-name="Identity.561" unicode="&#x4e21;" 
d="M943 680h-404v-115h359v-544q0 -37 -10 -56.5t-35 -29.5q-35 -15 -165 -15q-10 46 -31 83q38 -2 79 -2.5t49 0.5q22 1 22 21v455h-268v-280h101v211h82v-346h-82v53h-288v-71h-78v364h78v-211h96v280h-254v-557h-90v645h344v115h-389v90h884v-90z" />
    <glyph glyph-name="Identity.562" unicode="&#x4e26;" 
d="M439 559v-502h119v502h-119zM651 57h294v-95h-888v95h289v502h-265v92h215q-28 75 -85 155l83 31q68 -87 95 -165l-49 -21h289l-20 7q59 85 97 182l103 -29q-56 -99 -100 -160h212v-92h-270v-502zM124 451l83 22q34 -71 60 -157.5t35 -151.5l-90 -24q-6 64 -30.5 151
t-57.5 160zM769 140l-84 24q66 149 102 317l100 -23q-64 -202 -118 -318z" />
    <glyph glyph-name="Identity.563" unicode="&#x4e2d;" 
d="M546 331h260v242h-260v-242zM190 331h259v242h-259v-242zM546 664h357v-478h-97v54h-260v-318h-97v318h-259v-59h-93v483h352v174h97v-174z" />
    <glyph glyph-name="Identity.564" unicode="&#x4e32;" 
d="M547 163h255v124h-255v-124zM200 163h247v124h-247v-124zM238 527h209v118h-209v-118zM758 645h-211v-118h211v118zM547 373h355v-332h-100v39h-255v-159h-100v159h-247v-40h-97v333h344v73h-304v280h304v113h100v-113h312v-280h-312v-73z" />
    <glyph glyph-name="Identity.565" unicode="&#x4e38;" 
d="M787 28h72q19 0 25.5 33.5t8.5 145.5q33 -27 87 -42q-6 -133 -28.5 -181t-83.5 -48h-98q-61 0 -84 29t-23 109v463h-206q-12 -133 -41 -232q104 -72 162 -130l-70 -76q-46 49 -127 111q-87 -192 -281 -290q-29 48 -68 73q191 91 268 277q-89 63 -175 112l64 66l142 -85
q20 79 28 174h-272v91h277q3 69 3 208h99q0 -116 -4 -208h297v-555q0 -30 5 -37.5t23 -7.5z" />
    <glyph glyph-name="Identity.566" unicode="&#x4e39;" 
d="M373 613l65 52q125 -93 187 -165l-70 -60q-56 71 -182 173zM287 410h435v295h-434v-253q0 -28 -1 -42zM946 410v-89h-130v-285q0 -43 -12.5 -66t-41.5 -34q-43 -16 -206 -16q-9 47 -34 91q97 -5 171 -2q17 1 23 6.5t6 20.5v285h-440q-25 -269 -177 -401q-12 15 -33.5 36
t-35.5 29q131 116 153 336h-133v89h139v42v340h621v-382h130z" />
    <glyph glyph-name="Identity.567" unicode="&#x4e3b;" 
d="M551 45h394v-91h-886v91h390v221h-297v90h297v199h-345v91h420q-68 73 -161 139l76 53q50 -34 103.5 -78.5t83.5 -78.5l-49 -35h318v-91h-344v-199h300v-90h-300v-221z" />
    <glyph glyph-name="Identity.568" unicode="&#x4e43;" 
d="M685 519h250q-2 -33 -3 -46q-13 -246 -30.5 -355.5t-48.5 -143.5q-33 -37 -98 -43q-45 -5 -177 1q-6 55 -35 96q75 -7 176 -7q33 -2 48 12q23 21 38 112.5t26 282.5h-158q-10 -68 -11 -72l-97 9q21 128 40 320h-231v-59q0 -70 -4 -129t-20 -142.5t-43 -153.5t-78.5 -146
t-121.5 -136q-36 53 -71 77q80 67 132 151t74 174.5t29 157t7 147.5v59h-189v91h624q-14 -136 -28 -257z" />
    <glyph glyph-name="Identity.569" unicode="&#x4e45;" 
d="M629 688l67 -31q-37 -146 -94 -259q53 -133 148.5 -237.5t216.5 -154.5q-38 -32 -68 -83q-224 109 -352 375q-163 -259 -430 -379q-10 18 -32.5 43.5t-39.5 39.5q187 77 325 225.5t202 361.5h-237q-96 -180 -218 -288q-12 14 -38 35.5t-45 33.5q98 77 174.5 200
t120.5 269l101 -24q-26 -77 -50 -132h231z" />
    <glyph glyph-name="Identity.570" unicode="&#x4e4b;" 
d="M838 654l70 -45q-84 -139 -221 -284t-279 -245q100 -50 298 -50q86 -2 256 1q-26 -38 -34 -93h-228q-172 0 -283.5 38.5t-182.5 141.5q-57 -114 -111 -195l-91 55q52 63 103.5 158t79.5 178l93 -36l-29 -66q21 -44 51 -76q116 79 232 194.5t193 226.5h-655v91h350v190h96
v-190h272z" />
    <glyph glyph-name="Identity.571" unicode="&#x4e4d;" 
d="M941 583h-454v-131h395v-89h-395v-134h413v-91h-413v-217h-97v662h-107q-72 -124 -156 -213q-36 32 -86 60q78 71 146.5 181t111.5 230l97 -26q-33 -84 -63 -141h608v-91z" />
    <glyph glyph-name="Identity.572" unicode="&#x4e4e;" 
d="M947 374v-95h-387v-238q0 -46 -13.5 -69.5t-45.5 -34.5q-48 -17 -213 -17q-11 49 -40 96q79 -3 181 -3q31 1 31 28v238h-404v95h404v311q-141 -12 -321 -17q-1 34 -22 84q464 17 699 75l47 -84q-130 -31 -303 -49v-320h387zM159 614l81 29q70 -118 94 -209l-86 -34
q-20 88 -89 214zM746 403l-77 31q61 106 101 228l100 -33q-78 -153 -124 -226z" />
    <glyph glyph-name="Identity.573" unicode="&#x4e4f;" 
d="M806 527l68 -45q-80 -114 -209.5 -227t-267.5 -192q88 -37 278 -39q235 0 291 2q-23 -38 -33 -90h-262q-169 0 -273 32.5t-171 121.5q-57 -99 -101 -158l-83 53q45 48 91 123t74 142l86 -31q-3 -7 -10.5 -22l-11.5 -23q18 -33 42 -57q110 57 218.5 143.5t182.5 172.5
h-591v89h326v165q-163 -13 -330 -18q-5 42 -24 83q489 17 721 74l71 -77q-139 -33 -343 -54v-173h242z" />
    <glyph glyph-name="Identity.574" unicode="&#x4e57;" 
d="M328 372v-95h122v95h-122zM328 545v-92h122v92h-122zM671 545h-127v-92h127v92zM671 277v95h-127v-95h127zM907 197h-295q64 -57 157.5 -104t189.5 -72q-37 -34 -67 -86q-94 31 -186 86t-162 123v-222h-94v222q-145 -137 -344 -205q-30 49 -64 79q94 27 187 75t157 104
h-285v80h135v95h-175v81h175v92h-121v80h335v74q-175 -13 -313 -16q-3 39 -21 80q447 13 685 66l63 -76q-125 -28 -320 -46v-82h348v-80h-130v-92h179v-81h-179v-95h145v-80z" />
    <glyph glyph-name="Identity.575" unicode="&#x4e59;" 
d="M315 59h435q53 0 72 39.5t24 167.5q41 -24 95 -35q-11 -160 -53.5 -214t-147.5 -54h-415q-117 0 -175.5 40.5t-58.5 114.5q0 35 12.5 65t59 88.5t152.5 154.5t280 239h-495v96h630l22 5l67 -47q-10 -10 -18 -14l-283.5 -230t-179.5 -155.5t-97 -98.5t-41.5 -58.5
t-7.5 -36.5q0 -67 123 -67z" />
    <glyph glyph-name="Identity.576" unicode="&#x4e5d;" 
d="M768 27h86q19 0 25.5 27t8.5 120q36 -28 88 -42q-7 -113 -30.5 -155t-82.5 -42h-111q-65 0 -89.5 29t-24.5 108v424h-206q-9 -99 -28.5 -177.5t-56 -154.5t-98 -137t-147.5 -106q-29 47 -68 75q78 39 134 91.5t89 118.5t50.5 134.5t25.5 155.5h-251v94h257q3 76 3 237
h101q-2 -186 -5 -237h297v-519q0 -29 5.5 -36.5t27.5 -7.5z" />
    <glyph glyph-name="Identity.577" unicode="&#x4e5e;" 
d="M928 622h-650q-78 -112 -157 -183q-31 33 -82 69q75 57 141.5 145.5t107.5 185.5l97 -30q-19 -43 -49 -95h592v-92zM343 36l430 -1q42 0 57.5 26t19.5 112q35 -22 90 -33q-10 -120 -46.5 -158.5t-129.5 -38.5h-412q-100 0 -150.5 33t-50.5 93q0 22 4.5 38t25 44.5
t59.5 61.5t112.5 83.5t178.5 115.5h-322v89h487l21 3l67 -48q-11 -11 -19 -15l-238.5 -140t-152 -96t-82 -62t-35.5 -39t-7 -26q0 -42 93 -42z" />
    <glyph glyph-name="Identity.578" unicode="&#x4e5f;" 
d="M415 25h329q67 0 88 31t32 137q34 -24 87 -36q-13 -126 -53 -171t-150 -45h-332q-121 0 -164 35t-43 137v288l-151 -47l-25 85l176 55v276h91v-249l184 58v258h92v-230l208 64l10 8l18 14l67 -30l-5 -17q-5 -292 -31 -363q-23 -67 -81 -80q-48 -9 -119 -7q-4 46 -24 86
q32 -3 93 -3q18 0 29.5 9t19.5 35q18 54 21 258l-206 -65v-378h-92v350l-184 -58v-319q0 -54 21.5 -70t93.5 -16z" />
    <glyph glyph-name="Identity.579" unicode="&#x4e71;" 
d="M435 62v184h-259v-184h259zM351 714v-151h211v-84h-211v-150h175v-379h-91v30h-259v-38h-87v387h172v150h-221v84h221v136q-54 -8 -180 -21q-8 40 -26 74q279 30 420 80l70 -72q-67 -23 -194 -46zM732 19h101q24 0 32 35.5t12 149.5q37 -30 83 -41q-7 -132 -30.5 -181
t-88.5 -49h-122q-69 0 -93 30t-24 116v746h92v-747q0 -38 6.5 -48.5t31.5 -10.5z" />
    <glyph glyph-name="Identity.580" unicode="&#x4e73;" 
d="M473 836l55 -77q-159 -46 -463 -64q-5 35 -25 76q283 21 433 65zM327 554l-79 -13q-1 56 -23 144l75 12q24 -76 27 -143zM175 538l-76 -21q-9 69 -44 142l72 18q36 -74 48 -139zM458 708l86 -33q-71 -124 -106 -171l20 6l58 -49q-77 -81 -176 -153v-33l202 16v-85
q-196 -18 -202 -18v-169q0 -36 -9 -55t-32 -29q-32 -14 -146 -14q-5 33 -29 85q77 -3 106 -1q11 1 14.5 4t3.5 12v159q-80 -8 -201 -18l-9 91q136 9 210 15v81h30q39 30 80 73h-276v82h336l-55 22q55 81 95 182zM718 20h111q28 0 36 36t12 156q39 -31 88 -42
q-8 -136 -33.5 -187t-94.5 -51h-133q-73 0 -99 31.5t-26 119.5v736h96v-738q0 -39 7.5 -50t35.5 -11z" />
    <glyph glyph-name="Identity.581" unicode="&#x4e7e;" 
d="M167 384v-68h222v68h-222zM167 517v-68h222v68h-222zM321 247v-72h181v-84h-181v-169h-91v169h-187v84h187v72h-147v338h147v73h-175v82h175v99h91v-99h172v-82h-172v-73h154v-43q90 110 133 297l92 -19q-17 -68 -39 -128h294v-85h-330q-41 -85 -93 -146q-19 20 -57 51
v-265h-154zM668 23h175q24 0 32.5 25t10.5 114q42 -24 80 -31q-4 -83 -18.5 -126t-38.5 -57.5t-68 -14.5h-173q-146 0 -146 105q0 29 9.5 56t59 103.5t146.5 197.5h-187v83h269l22 2l61 -24l-4.5 -9t-5.5 -10q-121 -144 -184.5 -227.5t-77 -110.5t-13.5 -47q0 -29 51 -29z
" />
    <glyph glyph-name="Identity.582" unicode="&#x4e80;" 
d="M610 -6h203q28 0 40.5 11.5t18.5 43.5h-332q1 -34 14 -44.5t56 -10.5zM215 169v-58h233v58h-233zM448 282h-233v-57h233v57zM789 169h-249v-58h249v58zM789 282h-249v-57h249v57zM257 441h191v56h-191v-56zM534 715h-214q-30 -32 -55 -53h230q25 31 39 53zM448 550v56
h-191v-56h191zM736 550v56h-196v-56h196zM736 441v56h-196v-56h196zM879 343v-241q31 -20 79 -32q-8 -84 -35.5 -114t-104.5 -30h-216q-89 0 -121 25.5t-33 97.5h-233v-54h-89v348h322v41h-279v206q-30 -19 -54 -32q-29 41 -66 64q173 84 258 220l99 -19q-3 -4 -29 -41h204
l14 4l61 -39q-22 -39 -58 -85h230v-278h-288v-41h339z" />
    <glyph glyph-name="Identity.583" unicode="&#x4e86;" 
d="M820 771l74 -53q-69 -82 -161.5 -163t-180.5 -133v-387q0 -43 -13 -65.5t-45 -33.5q-45 -15 -209 -15q-10 44 -38 95q54 -2 110.5 -2.5t68.5 0.5q16 0 22 4.5t6 17.5v466h59q109 72 203 171h-612v93h695z" />
    <glyph glyph-name="Identity.584" unicode="&#x4e88;" 
d="M878 472l76 -33q-89 -163 -170 -250l-78 47q50 59 98 141h-249v-348q0 -40 -12 -60.5t-41 -30.5q-43 -15 -187 -15q-9 41 -35 90q43 -2 154 -2q14 1 19 5t5 15v346h-402v89h489q-146 68 -258 113l48 70l169 -68q86 50 162 118h-516v86h607l20 5l68 -52
q-104 -104 -247 -196q76 -34 98 -45l-19 -31h184z" />
    <glyph glyph-name="Identity.585" unicode="&#x4e89;" 
d="M757 226v98h-216v-98h216zM541 501v-92h216v92h-216zM559 676h-235q-42 -48 -93 -93h249q40 38 79 93zM960 409v-85h-108v-231h-95v48h-216v-113q0 -40 -11.5 -61t-39.5 -32q-44 -15 -182 -15q-7 37 -34 90q64 -3 148 -3q15 2 20 6.5t5 16.5v111h-299v85h299v98h-403v85
h403v92h-260v45q-40 -30 -62 -44q-35 44 -70 65q93 54 163 126.5t111 146.5l101 -19q-26 -42 -41 -63h233l15 4l67 -46q-44 -66 -110 -133h258v-174h108z" />
    <glyph glyph-name="Identity.586" unicode="&#x4e8b;" 
d="M756 139v62h-213v-62h213zM543 331v-57h213v57h-213zM261 518h188v60h-188v-60zM740 578h-197v-60h197v60zM954 274v-73h-104v-175h-94v43h-213v-52q0 -38 -10.5 -56.5t-36.5 -28.5q-37 -13 -170 -13q-10 41 -32 75q93 -3 131 -1q14 1 19 5.5t5 17.5v53h-312v70h312v62
h-400v73h400v57h-303v66h303v59h-277v184h277v51h-379v75h379v73h94v-73h390v-75h-390v-51h291v-184h-291v-59h307v-123h104z" />
    <glyph glyph-name="Identity.587" unicode="&#x4e8c;" 
d="M144 700h714v-101h-714v101zM61 118h880v-106h-880v106z" />
    <glyph glyph-name="Identity.588" unicode="&#x4e91;" 
d="M841 768v-95h-674v95h674zM946 -27l-94 -53q-16 36 -44 83q-362 -19 -727 -33l-8 98l152 4q72 140 124 308h-291v96h886v-96h-473q-70 -172 -140 -305q228 7 421 15q-61 89 -130 167l90 43q69 -75 134.5 -166.5t99.5 -160.5z" />
    <glyph glyph-name="Identity.589" unicode="&#x4e92;" 
d="M318 286h324q15 121 22 192h-304q-28 -132 -42 -192zM708 51h241v-87h-895v87h554q14 88 23 152h-332l-13 -50l-101 9q71 248 118 531h-217v87h834v-87h-517l-25 -130h394q-33 -316 -64 -512z" />
    <glyph glyph-name="Identity.590" unicode="&#x4e94;" 
d="M686 364h-241l-63 -299h304v299zM782 65h161v-92h-883v92h219q29 118 64 299h-186v91h204q24 136 34 199h-274v91h754v-91h-376q-9 -54 -37 -199h320v-390z" />
    <glyph glyph-name="Identity.591" unicode="&#x4e95;" 
d="M374 332h255v216h-251v-94q0 -69 -4 -122zM941 332v-94h-214v-317h-98v317h-267q-39 -212 -208 -326q-41 45 -83 68q148 96 188 258h-199v94h215q5 49 5 122v94h-189v93h189v194h98v-194h251v196h98v-196h189v-93h-189v-216h214z" />
    <glyph glyph-name="Identity.592" unicode="&#x4e98;" 
d="M87 779h833v-86h-833v86zM57 44h888v-87h-888v87zM299 333v-116h408v116h-408zM299 526v-114h408v114h-408zM207 610h596v-477h-596v477z" />
    <glyph glyph-name="Identity.593" unicode="&#x4e99;" 
d="M716 50h231v-85h-893v85h566q35 205 59 451h-311q-54 -244 -87 -364l-102 5q71 246 128 550h-224v86h837v-86h-513q-19 -97 -22 -109h399q-31 -314 -68 -533zM595 169l-59 -73q-62 62 -192 128l56 64q124 -55 195 -119zM622 359l-56 -69q-27 25 -76.5 57t-96.5 54l53 62
q113 -51 176 -104z" />
    <glyph glyph-name="Identity.594" unicode="&#x4e9b;" 
d="M828 327h-154q-77 0 -103.5 27t-26.5 103v382h93v-186q127 42 204 90l72 -74q-103 -49 -276 -101v-111q0 -27 8.5 -34.5t39.5 -7.5h136q27 0 35 22.5t12 102.5q38 -27 85 -36q-9 -104 -34.5 -140.5t-90.5 -36.5zM169 160v89h672v-89h-672zM505 439l2 -86l-454 -56l-11 92
l62 5v339h86v-330l75 8v428h92v-162h140v-83h-140v-172zM57 -56v92h887v-92h-887z" />
    <glyph glyph-name="Identity.595" unicode="&#x4e9c;" 
d="M426 206v-162h133v162h-133zM208 289h127v198h-127v-198zM426 696v-125h133v125h-133zM559 289v198h-133v-198h133zM782 487h-133v-198h133v198zM649 44h303v-85h-903v85h286v162h-127v-31h-88v396h215v125h-258v85h847v-85h-275v-125h226v-394h-93v29h-133v-162z" />
    <glyph glyph-name="Identity.596" unicode="&#x4ea1;" 
d="M949 553h-686v-416q0 -50 23 -70t83 -20h377q96 0 158 10q9 -77 12 -93q-35 -10 -172 -10h-365q-114 0 -163 41t-49 146v412h-115v94h398v192h95v-192h404v-94z" />
    <glyph glyph-name="Identity.597" unicode="&#x4ea4;" 
d="M936 717v-92h-872v92h386v124h96v-124h390zM607 555l76 56q182 -120 265 -216l-82 -64q-37 46 -111 109t-148 115zM311 605l96 -36q-52 -69 -127 -135.5t-149 -111.5q-38 42 -77 73q74 38 144 94.5t113 115.5zM632 434l99 -28q-56 -140 -157 -244q151 -113 389 -152
q-30 -31 -62 -89q-247 48 -401 176q-152 -118 -400 -179q-21 44 -59 88q243 50 389 157q-90 98 -147 239l89 27q47 -119 130 -203q86 87 130 208z" />
    <glyph glyph-name="Identity.598" unicode="&#x4ea5;" 
d="M788 421l87 -49q-83 -117 -206 -209q175 -102 264 -173l-90 -69q-79 71 -262 183q-197 -121 -476 -184q-26 56 -56 89q535 113 739 412zM546 718h395v-87h-430l21 -10q-92 -98 -196 -181q50 -34 93 -69q149 90 231 204l84 -44q-101 -136 -261 -234.5t-357 -156.5
q-21 43 -57 83q143 37 265 96q-90 78 -212 152l69 60q31 -17 74 -44q83 71 144 144h-349v87h388v122h98v-122z" />
    <glyph glyph-name="Identity.599" unicode="&#x4ea6;" 
d="M192 485l97 -20q-59 -196 -178 -320q-36 32 -84 56q55 50 98 125t67 159zM937 583h-260v-548q0 -42 -10.5 -64t-37.5 -33q-41 -17 -176 -17q-6 38 -31 97q40 -2 83 -2.5t53 0.5q13 1 17.5 5t4.5 15v547h-130v-109q0 -60 -4 -109.5t-19 -115t-41 -120t-74 -112.5
t-113 -105q-27 39 -71 70q74 51 122.5 114.5t70 132.5t28.5 124t7 122v108h-293v91h390v166h96v-166h388v-91zM720 454l83 36q54 -79 99.5 -167.5t62.5 -151.5l-92 -43q-15 64 -58.5 155t-94.5 171z" />
    <glyph glyph-name="Identity.600" unicode="&#x4ea8;" 
d="M820 347l66 -57q-149 -95 -334 -154v-119q0 -39 -13 -58.5t-45 -27.5q-49 -14 -207 -12q-8 42 -33 84q138 -6 173 -2q16 0 21.5 4t5.5 15v185h76q81 29 141 58h-571v79h699zM709 467v85h-413v-85h413zM807 616v-213h-604v213h604zM545 751h393v-82h-876v82h386v89h97v-89
z" />
    <glyph glyph-name="Identity.601" unicode="&#x4eab;" 
d="M930 759v-80h-862v80h380v81h97v-81h385zM281 557v-76h439v76h-439zM818 416h-629v207h629v-207zM945 187v-79h-398v-98q0 -36 -12 -54t-42 -26q-40 -11 -188 -11q-9 35 -32 77q41 -2 152 -2q14 1 19 5t5 15v94h-392v79h392v51h47q63 19 140 52h-485v74h616l21 4l60 -51
q-122 -76 -301 -129v-1h398z" />
    <glyph glyph-name="Identity.602" unicode="&#x4eac;" 
d="M934 733v-89h-868v89h382v107h99v-107h387zM220 209l94 -30q-80 -131 -195 -222q-28 27 -76 55q52 37 101 92t76 105zM277 481v-142h449v142h-449zM824 259h-277v-235q0 -39 -10.5 -59.5t-38.5 -29.5q-43 -15 -180 -13q-5 35 -30 88q101 -3 139 -1q13 0 18 3.5t5 13.5
v233h-266v304h640v-304zM677 168l86 41q132 -134 184 -213l-91 -47q-55 91 -179 219z" />
    <glyph glyph-name="Identity.603" unicode="&#x4ead;" 
d="M203 164v76h597v-76h-245v-145q0 -39 -12.5 -58.5t-45.5 -28.5q-39 -11 -200 -11q-10 44 -34 84q47 -2 101.5 -2.5t63.5 0.5q16 1 21 5t5 15v141h-251zM70 174v201h860v-201h-86v129h-691v-129h-83zM709 489v78h-420v-78h420zM197 630h610v-206h-610v206zM545 758h394
v-78h-876v78h385v84h97v-84z" />
    <glyph glyph-name="Identity.604" unicode="&#x4eae;" 
d="M939 758v-78h-876v78h385v84h97v-84h394zM930 176h-86v120h-691v-120h-83v193h860v-193zM710 484v81h-420v-81h420zM197 628h611v-207h-611v207zM316 259h97q-6 -77 -20.5 -127t-49 -94.5t-96.5 -72.5t-158 -46q-14 44 -49 79q86 13 139 33.5t81.5 54.5t39.5 72t16 101z
M704 7h115q25 0 32.5 20t10.5 92q31 -25 86 -37q-7 -93 -32 -125t-87 -32h-140q-77 0 -103.5 24t-26.5 91v215h101v-214q0 -22 8 -28t36 -6z" />
    <glyph glyph-name="Identity.605" unicode="&#x4eba;" 
d="M435 812h105q0 -3 -1 -20.5t-2 -28.5q3 -37 7.5 -75t17.5 -102t32 -122t53 -127.5t77 -126.5t107 -111.5t141 -89.5q-44 -34 -71 -78q-299 144 -405 539q-94 -373 -385 -540q-29 41 -77 73q77 41 140 98.5t103 115.5t70 128.5t45.5 127t25 123t12 105.5t4.5 84q1 19 1 27
z" />
    <glyph glyph-name="Identity.606" unicode="&#x4ec0;" 
d="M279 834l87 -26q-32 -86 -93 -200v-686h-90v542q-45 -63 -94 -115q-22 56 -52 95q72 70 136.5 174t105.5 216zM953 502v-91h-258v-490h-96v490h-268v91h268v324h96v-324h258z" />
    <glyph glyph-name="Identity.607" unicode="&#x4ec1;" 
d="M913 675v-98h-517v98h517zM285 836l92 -30q-48 -117 -102 -210v-673h-93v531q-39 -53 -93 -109q-24 53 -56 96q75 72 142 176.5t110 218.5zM340 86h615v-98h-615v98z" />
    <glyph glyph-name="Identity.608" unicode="&#x4ec7;" 
d="M259 835l88 -26q-36 -101 -96 -212v-676h-92v528q-42 -57 -74 -93q-21 53 -52 94q68 71 128 173.5t98 211.5zM826 20h29q13 0 20 5q8 7 11 31q4 40 4 120q31 -28 74 -40q-2 -97 -12 -137q-9 -36 -33 -50q-21 -14 -59 -14h-59q-41 0 -67 21q-14 13 -19.5 36t-5.5 78v452
h-144q-12 -215 -62.5 -363.5t-167.5 -241.5q-25 40 -69 70q107 82 152 213t55 322h-158v90h161q2 72 2 224h93q0 -151 -2 -224h234v-543q0 -38 6 -44q7 -5 17 -5z" />
    <glyph glyph-name="Identity.609" unicode="&#x4eca;" 
d="M739 332l17 5l73 -22q-78 -188 -183 -397l-99 26q75 142 145 300h-538v88h585zM294 530h414q-137 116 -212 221q-76 -111 -202 -221zM444 844h93q78 -112 195.5 -214t234.5 -161q-31 -32 -61 -82q-94 56 -193 139v-82h-429v78q-92 -80 -190 -139q-20 37 -59 74
q124 71 237.5 179.5t171.5 207.5z" />
    <glyph glyph-name="Identity.610" unicode="&#x4ecb;" 
d="M496 745q-58 -97 -167.5 -197t-234.5 -169q-17 36 -58 77q128 64 239 171.5t167 213.5h99q75 -122 190 -221t236 -150q-33 -37 -60 -85q-121 63 -234.5 162t-176.5 198zM623 485h97v-563h-97v563zM276 480h95v-131q0 -62 -7 -111.5t-27.5 -109t-67 -112.5t-116.5 -95
q-33 41 -76 66q64 37 106.5 82.5t61 96t25 91.5t6.5 94v129z" />
    <glyph glyph-name="Identity.611" unicode="&#x4ecf;" 
d="M284 833l93 -29q-44 -106 -103 -206v-674h-93v536q-50 -66 -103 -118q-23 54 -56 96q79 71 149 176.5t113 218.5zM977 -39l-95 -40q-6 33 -29 109q-312 -35 -531 -53l-21 96l94 6q107 329 173 729l104 -17q-74 -376 -181 -704q118 9 332 30q-48 135 -108 261l85 32
q59 -116 108.5 -240t68.5 -209z" />
    <glyph glyph-name="Identity.612" unicode="&#x4ed4;" 
d="M284 833l92 -29q-40 -100 -102 -205v-675h-93v537q-56 -72 -104 -119q-23 54 -56 96q79 70 149 175.5t114 219.5zM966 414v-90h-274v-290q0 -42 -11.5 -64t-40.5 -33q-43 -16 -193 -16q-8 45 -32 94q113 -3 158 -1q14 0 19.5 4.5t5.5 16.5v289h-284v90h284v141h48
q79 61 137 128h-392v86h466l18 6l63 -44q-47 -64 -113.5 -129.5t-132.5 -113.5v-74h274z" />
    <glyph glyph-name="Identity.613" unicode="&#x4ed5;" 
d="M290 837l89 -29q-50 -118 -105 -209v-675h-92v539q-43 -58 -101 -114q-22 50 -55 93q78 70 148.5 175.5t115.5 219.5zM962 441h-271v-390h255v-90h-599v90h249v390h-274v90h274v291h95v-291h271v-90z" />
    <glyph glyph-name="Identity.614" unicode="&#x4ed6;" 
d="M259 835l85 -27q-37 -99 -97 -207v-679h-91v536q-40 -55 -83 -101q-19 46 -51 93q70 69 133 172t104 213zM568 18h231q43 0 57.5 27t20.5 115q44 -29 86 -37q-12 -110 -42.5 -149t-115.5 -39h-243q-97 0 -131.5 31.5t-34.5 122.5v300l-87 -35l-37 83l124 48v250h92v-214
l125 48v267h88v-233l128 50l14 11l17 13l64 -26l-4 -14q-2 -304 -11 -353q-8 -64 -56 -79q-37 -12 -106 -10q-4 51 -22 85q25 -1 70 -1q23 0 29 26q7 30 9 254l-132 -51v-360h-88v325l-125 -48v-337q0 -44 14.5 -57t65.5 -13z" />
    <glyph glyph-name="Identity.615" unicode="&#x4ed8;" 
d="M285 833l92 -29q-46 -116 -101 -211v-670h-94v525q-42 -57 -88 -103q-25 56 -56 95q75 72 140.5 176t106.5 217zM955 621v-93h-119v-488q0 -48 -13.5 -71t-45.5 -34q-49 -18 -221 -16q-8 44 -36 93q108 -5 188 -2q18 1 25 7.5t7 22.5v488h-391v93h391v207h96v-207h119z
M628 201l-87 -47q-33 77 -137 245l81 38q114 -179 143 -236z" />
    <glyph glyph-name="Identity.616" unicode="&#x4ed9;" 
d="M270 837l87 -28q-39 -97 -98 -199v-686h-88v552q-48 -64 -98 -116q-20 46 -51 94q74 69 140 171t108 212zM828 576h91v-627h-91v76h-387v-80h-88v631h88v-464h144v696h92v-696h151v464z" />
    <glyph glyph-name="Identity.617" unicode="&#x4edd;" 
d="M549 294v-251h341v-95h-784v95h341v251h-241v95h583v-95h-240zM438 837h103q76 -124 192 -234t235 -172q-28 -28 -66 -90q-118 73 -231.5 182t-176.5 209q-59 -101 -167 -209t-231 -185q-24 43 -64 81q126 74 238 191.5t168 226.5z" />
    <glyph glyph-name="Identity.618" unicode="&#x4ee3;" 
d="M936 664l-74 -49q-45 71 -150 165l69 44q102 -84 155 -160zM303 830l88 -29q-40 -95 -101 -194v-684h-96v547q-58 -75 -120 -131q-19 48 -53 93q84 71 159 177t123 221zM953 493l-296 -38q53 -405 187 -421q19 -1 30.5 40t18.5 127q32 -33 77 -51q-16 -127 -47 -178
t-75 -49q-61 5 -109 43t-81.5 107.5t-55.5 159.5t-37 209l-219 -28l-14 88l224 28q-12 136 -18 294h94q5 -161 16 -281l293 37z" />
    <glyph glyph-name="Identity.619" unicode="&#x4ee4;" 
d="M841 355v-265q0 -36 -10 -56t-36 -31q-37 -16 -165 -16q-7 42 -32 91q36 -2 127 -2q12 1 16.5 4t4.5 12v179h-267v-350h-97v350h-250v84h709zM304 545h393q-133 109 -201 202q-68 -97 -192 -202zM444 840h94q79 -109 196 -205.5t235 -151.5q-28 -28 -62 -82
q-100 55 -198 135v-75h-417v74q-91 -76 -198 -138q-20 37 -60 75q124 66 238 169t172 199z" />
    <glyph glyph-name="Identity.620" unicode="&#x4ee5;" 
d="M602 480l-90 -48q-20 51 -63 121t-89 124l85 41q48 -53 91.5 -119.5t65.5 -118.5zM442 294l22 -90q-159 -73 -394 -172l-34 97l136 52l-19 601l97 4l17 -566zM969 -2l-78 -75q-59 92 -207 253q-112 -166 -325 -257q-10 16 -34 42t-41 40q99 37 173.5 89.5t126 118
t87.5 155t56.5 190t33.5 232.5l102 -10q-36 -330 -127 -512q177 -183 233 -266z" />
    <glyph glyph-name="Identity.621" unicode="&#x4eee;" 
d="M270 837l87 -28q-40 -101 -98 -200v-685h-88v552q-51 -67 -98 -114q-18 43 -51 95q74 69 140 170t108 210zM820 441h-247q45 -138 130 -246q79 106 117 246zM871 530l57 -22q-44 -225 -163 -380q92 -86 208 -128q-36 -31 -62 -79q-117 48 -208 136q-87 -87 -201 -138
q-33 53 -62 75q117 48 202 132q-92 116 -150 289q-12 -333 -129 -497q-37 39 -75 59q69 98 91 228.5t22 286.5v296h539v-88h-447v-173h361z" />
    <glyph glyph-name="Identity.622" unicode="&#x4ef0;" 
d="M258 837l85 -27q-39 -102 -96 -202v-684h-88v548q-45 -61 -92 -110q-24 57 -50 92q72 70 136.5 172t104.5 211zM445 652v-462q15 4 64 18l76 22l14 -83l-274 -84l-35 86q32 7 69 18v554l39 -10q99 64 151 125l88 -52q-80 -69 -192 -132zM936 735v-544q0 -36 -7.5 -56
t-28.5 -31q-31 -17 -137 -17q-6 50 -25 90q71 -2 93 0q9 0 12.5 3t3.5 13v460h-148v-732h-87v814h324z" />
    <glyph glyph-name="Identity.623" unicode="&#x4ef2;" 
d="M256 837l89 -27q-42 -113 -98 -214v-674h-88v531q-37 -53 -75 -96q-23 54 -52 95q67 70 126.5 172.5t97.5 212.5zM674 327h168v224h-168v-224zM420 327h162v224h-162v-224zM674 637h259v-451h-91v55h-168v-318h-92v318h-162v-62h-88v458h250v191h92v-191z" />
    <glyph glyph-name="Identity.624" unicode="&#x4ef6;" 
d="M260 835l87 -26q-37 -103 -98 -216v-670h-88v530q-40 -56 -78 -97q-22 55 -51 94q68 70 128.5 172.5t99.5 212.5zM954 352v-91h-265v-339h-93v339h-277v91h277v198h-142q-33 -90 -67 -141q-32 23 -80 45q81 115 119 333l90 -18q-13 -60 -32 -128h112v186h93v-186h220v-91
h-220v-198h265z" />
    <glyph glyph-name="Identity.625" unicode="&#x4efb;" 
d="M285 836l91 -28q-42 -105 -102 -208v-678h-92v541q-51 -67 -102 -116q-20 49 -56 95q78 71 147.5 176t113.5 218zM957 330h-267v-283h253v-89h-592v89h245v283h-283v90h283v244q-100 -17 -225 -31q-7 36 -28 79q335 42 512 107l68 -79q-93 -31 -233 -59v-261h267v-90z
" />
    <glyph glyph-name="Identity.626" unicode="&#x4f01;" 
d="M443 843h95q79 -117 196 -218t237 -158q-36 -38 -62 -83q-118 68 -233.5 169.5t-180.5 196.5q-61 -95 -170.5 -196.5t-233.5 -173.5q-19 35 -59 75q126 69 239.5 177.5t171.5 210.5zM555 260v-227h368v-84h-844v84h118v359h91v-359h169v535h98v-224h277v-84h-277z" />
    <glyph glyph-name="Identity.627" unicode="&#x4f0a;" 
d="M270 837l87 -29q-45 -108 -98 -198v-688h-88v554q-41 -58 -98 -117q-22 53 -51 95q74 69 140 171t108 212zM799 313v145h-173v-43q0 -58 -5 -102h178zM626 687v-143h173v143h-173zM958 544v-86h-68v-281h-91v49h-192q-47 -207 -248 -309q-26 41 -63 72q171 76 217 237
h-157v87h173q5 44 5 102v43h-232v86h232v143h-167v86h523v-229h68z" />
    <glyph glyph-name="Identity.628" unicode="&#x4f0d;" 
d="M257 834l86 -26q-35 -93 -83 -184v-702h-90v554q-52 -74 -102 -127q-15 43 -49 95q71 70 134 174t104 216zM777 366h-182q-33 -201 -55 -318h237v318zM871 48h94v-87h-651v87h131q22 108 56 318h-142v87h155q22 152 31 222h-186v88h560v-88h-279q-12 -98 -32 -222h263
v-405z" />
    <glyph glyph-name="Identity.629" unicode="&#x4f0e;" 
d="M263 837l86 -27q-38 -98 -89 -189v-699h-91v556q-53 -73 -99 -119q-21 48 -51 93q73 69 138 171.5t106 213.5zM797 378h-307q53 -119 150 -207q103 87 157 207zM859 467l59 -32q-63 -189 -206 -320q117 -79 263 -113q-38 -35 -61 -84q-157 43 -278 136
q-122 -87 -287 -135q-23 48 -58 81q158 41 276 116q-100 100 -161 240l73 22h-144v85h255v142h-267v86h267v144h94v-144h275v-86h-275v-142h158z" />
    <glyph glyph-name="Identity.630" unicode="&#x4f0f;" 
d="M913 642l-76 -46q-37 76 -112 177l70 40q78 -96 118 -171zM268 838l89 -27q-39 -104 -96 -208v-682h-93v535q-36 -50 -86 -104q-19 50 -51 96q71 71 134 175t103 215zM946 462h-273q82 -340 289 -459q-39 -30 -70 -81q-171 112 -262 385q-63 -237 -251 -387
q-23 27 -77 62q226 177 259 480h-244v91h250q1 15 1 44v239h94v-239q0 -29 -1 -44h285v-91z" />
    <glyph glyph-name="Identity.631" unicode="&#x4f10;" 
d="M893 692l-63 -58q-42 44 -162 142l61 50q111 -83 164 -134zM285 835l90 -27q-37 -96 -100 -207v-678h-93v536q-46 -62 -92 -108q-23 57 -54 93q74 71 140.5 175t108.5 216zM821 474l90 -33q-77 -147 -203 -266q60 -161 129 -161q19 1 29.5 41.5t15.5 135.5q32 -32 81 -51
q-12 -128 -40.5 -174t-92.5 -46q-119 0 -198 189q-118 -91 -260 -154q-27 46 -63 82q162 61 290 163q-39 130 -57 287l-227 -22l-8 87l226 23q-11 116 -13 252h98q-1 -116 10 -244l303 31l7 -86l-301 -31q16 -129 42 -224q90 94 142 201z" />
    <glyph glyph-name="Identity.632" unicode="&#x4f11;" 
d="M285 833l92 -29q-44 -109 -106 -212v-668h-92v535q-46 -60 -102 -113q-25 57 -55 96q79 70 149 173.5t114 217.5zM949 501h-227q46 -115 114 -218.5t141 -163.5q-44 -34 -70 -75q-129 122 -233 365v-488h-92v463q-103 -223 -239 -346q-22 34 -69 74q77 60 148 165
t118 224h-225v91h267v232h92v-232h275v-91z" />
    <glyph glyph-name="Identity.633" unicode="&#x4f1a;" 
d="M284 536h438q-147 104 -225 212q-73 -107 -213 -212zM265 450v72q-88 -63 -174 -104q-19 40 -55 76q125 57 238 153.5t171 190.5h96q78 -108 193 -195.5t235 -134.5q-27 -29 -59 -84q-94 45 -177 104v-78h-468zM93 259v87h821v-87h-458q-70 -141 -106 -206l357 14
q-63 71 -116 119l80 43q68 -57 132.5 -129t99.5 -128l-85 -53q-16 28 -44 65q-297 -15 -662 -30l-12 91l148 5q55 104 93 209h-248z" />
    <glyph glyph-name="Identity.634" unicode="&#x4f1d;" 
d="M910 767v-91h-519v91h519zM270 837l87 -28q-39 -97 -98 -199v-686h-88v552q-48 -64 -98 -116q-20 46 -51 94q74 69 140 171t108 212zM973 -39l-89 -40q-12 44 -31 84q-276 -26 -527 -46l-17 94q44 3 104 6q57 140 102 322h-197v90h645v-90h-342q-53 -172 -112 -315
l304 23q-46 83 -94 153l82 35q57 -79 105 -165.5t67 -150.5z" />
    <glyph glyph-name="Identity.635" unicode="&#x4f2f;" 
d="M270 836l89 -21q-37 -125 -97 -243v-653h-92v500q-37 -51 -79 -94q-32 55 -57 83q77 74 138.5 186.5t97.5 241.5zM462 62h328v212h-328v-212zM790 572h-328v-207h328v207zM625 660h261v-730h-96v39h-328v-46h-93v737h159q37 104 51 179l108 -18q-25 -73 -62 -161z" />
    <glyph glyph-name="Identity.636" unicode="&#x4f34;" 
d="M830 797l94 -34q-64 -138 -110 -214l-76 30q61 114 92 218zM523 581l-85 -34q-20 91 -82 212l78 30q65 -112 89 -208zM270 837l87 -28q-39 -97 -98 -199v-686h-88v552q-48 -64 -98 -116q-20 46 -51 94q74 69 140 171t108 212zM962 280v-86h-284v-272h-94v272h-274v86h274
v157h-234v86h234v304h94v-304h242v-86h-242v-157h284z" />
    <glyph glyph-name="Identity.637" unicode="&#x4f36;" 
d="M270 837l87 -28q-39 -97 -98 -199v-686h-88v552q-48 -64 -98 -116q-20 46 -51 94q74 69 140 171t108 212zM900 371v-260q0 -67 -43 -85q-37 -15 -161 -15q-5 36 -29 87q85 -3 121 -1q12 1 16 4t4 12v173h-202v-365h-92v365h-187v85h573zM463 555h321q-103 93 -165 185
q-62 -96 -156 -185zM572 832h88q60 -90 146 -172.5t171 -128.5q-23 -27 -55 -84q-55 35 -114 87v-62h-365v65q-58 -52 -122 -93q-18 39 -51 78q90 53 173.5 140.5t128.5 169.5z" />
    <glyph glyph-name="Identity.638" unicode="&#x4f38;" 
d="M256 835l87 -26q-40 -106 -99 -211v-675h-88v537q-42 -57 -86 -104q-20 48 -51 94q70 69 133 172t104 213zM675 281h173v119h-173v-119zM415 281h168v119h-168v-119zM583 598h-168v-117h168v117zM848 598h-173v-117h173v117zM675 683h265v-529h-92v43h-173v-275h-92v275
h-168v-51h-87v537h255v152h92v-152z" />
    <glyph glyph-name="Identity.639" unicode="&#x4f3a;" 
d="M255 835l85 -26q-37 -100 -97 -211v-676h-89v535q-34 -47 -83 -102q-6 17 -22 47.5t-27 46.5q69 71 131.5 174t101.5 212zM767 616v-81h-430v81h430zM629 370h-174v-170h174v170zM715 121h-260v-69h-86v397h346v-328zM925 787v-749q0 -80 -49 -100q-38 -17 -184 -17
q-7 46 -32 95q47 -3 146 -3q14 1 20 6.5t6 19.5v664h-483v84h576z" />
    <glyph glyph-name="Identity.640" unicode="&#x4f3c;" 
d="M726 481l-83 -38q-31 103 -115 237l79 33q92 -137 119 -232zM256 835l87 -26q-40 -106 -99 -211v-675h-88v537q-42 -57 -86 -104q-20 48 -51 94q70 69 133 172t104 213zM630 294l18 -81q-250 -103 -329 -133l-39 91q29 9 103 34l-6 577l91 1l6 -546l49 17.5l58 21.5z
M976 -13l-73 -67q-34 62 -146 206q-103 -136 -307 -212q-23 46 -60 81q105 33 179 83.5t121.5 114t76 158t41 197.5t16.5 250l94 -3q-8 -204 -33 -345.5t-78 -243.5q127 -150 169 -219z" />
    <glyph glyph-name="Identity.641" unicode="&#x4f3d;" 
d="M224 840l80 -24q-32 -102 -73 -194v-701h-84v539q-36 -60 -74 -107q-12 43 -45 91q124 150 196 396zM621 636v-42q-7 -335 -15.5 -458t-28.5 -153q-22 -34 -61 -41q-32 -5 -95 -2q-2 47 -23 84q33 -3 76 -3q19 0 29 17q14 21 21.5 131.5t13.5 384.5h-82
q-7 -231 -37.5 -384.5t-107.5 -253.5q-10 16 -29.5 34.5t-36.5 27.5q70 89 97.5 227.5t32.5 348.5h-89v82h90q1 63 1 196h82q0 -133 -1 -196h163zM739 121h106v521h-106v-521zM659 725h269v-768h-83v82h-106v-90h-80v776z" />
    <glyph glyph-name="Identity.642" unicode="&#x4f43;" 
d="M257 835l86 -27q-41 -105 -103 -215v-671h-89v534q-36 -52 -81 -98q-24 55 -50 92q70 70 133 172.5t104 212.5zM676 71h148v270h-148v-270zM444 341v-270h141v270h-141zM585 691h-141v-261h141v261zM824 430v261h-148v-261h148zM355 781h561v-852h-92v52h-380v-60h-89
v860z" />
    <glyph glyph-name="Identity.643" unicode="&#x4f46;" 
d="M785 510v175h-297v-175h297zM785 247v177h-297v-177h297zM885 771v-611h-493v611h493zM270 835l90 -29q-45 -113 -101 -209v-674h-92v532q-37 -50 -87 -102q-22 55 -52 97q71 68 135.5 171t106.5 214zM314 45h649v-86h-649v86z" />
    <glyph glyph-name="Identity.644" unicode="&#x4f4d;" 
d="M337 651h247v176h94v-176h263v-88h-604v88zM573 113l-92 -20q-11 180 -68 398l84 15q62 -225 76 -393zM270 837l87 -28q-40 -101 -98 -200v-685h-88v552q-51 -67 -98 -114q-18 43 -51 95q74 69 140 170t108 210zM741 54h223v-88h-649v88h336q31 92 63 222.5t49 236.5
l100 -17q-57 -261 -122 -442z" />
    <glyph glyph-name="Identity.645" unicode="&#x4f4e;" 
d="M256 835l87 -26q-40 -106 -99 -211v-675h-88v537q-42 -57 -86 -104q-20 48 -51 94q70 69 133 172t104 213zM331 -56v83h412v-83h-412zM456 498h188q-7 76 -10 176q-86 -13 -178 -24v-152zM958 414h-213q20 -161 56 -263.5t73 -102.5q25 0 31 136q28 -29 73 -49
q-10 -104 -34.5 -141t-77.5 -37q-55 0 -98.5 61.5t-70.5 161t-44 234.5h-197v-228q66 10 208 34l4 -84l-169.5 -30t-179.5 -31l-20 87l66 10v572l63 -20q275 34 416 84l71 -71q-88 -27 -188 -46q1 -100 9 -193h222v-84z" />
    <glyph glyph-name="Identity.646" unicode="&#x4f4f;" 
d="M270 837l87 -28q-39 -97 -98 -199v-686h-88v552q-48 -64 -98 -116q-20 46 -51 94q74 69 140 171t108 212zM692 43h270v-89h-642v89h278v227h-221v88h221v198h-254v89h316q-78 66 -189 130l61 66q146 -79 222 -147l-44 -49h237v-89h-255v-198h226v-88h-226v-227z" />
    <glyph glyph-name="Identity.647" unicode="&#x4f50;" 
d="M962 553h-389q-21 -90 -48 -171h414v-86h-190v-256h211v-88h-538v88h235v256h-152v29q-73 -191 -179 -310q-31 36 -67 67v-158h-88v552q-48 -64 -98 -116q-20 46 -51 94q74 69 140 171t108 212l87 -28q-39 -97 -98 -199v-516q145 155 218 459h-169v88h188q16 83 31 189
l95 -11q-14 -96 -30 -178h370v-88z" />
    <glyph glyph-name="Identity.648" unicode="&#x4f51;" 
d="M270 837l87 -27q-39 -99 -98 -199v-688h-88v554q-42 -58 -98 -116q-22 55 -51 94q74 69 140 171t108 211zM826 289h-276v-218h276v218zM962 556h-358q-34 -107 -71 -181h387v-441h-94v50h-276v-59h-90v325q-59 -83 -126 -138q-21 32 -60 73q153 123 233 371h-197v90h222
q23 85 38 189l96 -15q-17 -96 -37 -174h333v-90z" />
    <glyph glyph-name="Identity.649" unicode="&#x4f53;" 
d="M241 834l87 -25q-28 -86 -84 -202v-684h-89v530q-38 -55 -74 -98q-23 56 -52 94q132 145 212 385zM951 560h-234q44 -123 113 -234t145 -175q-42 -31 -71 -74q-140 139 -239 412v-307h148v-84h-148v-171h-91v171h-149v84h149v301q-100 -269 -246 -409q-22 35 -66 71
q78 64 147.5 176t115.5 239h-219v88h268v186h91v-186h286v-88z" />
    <glyph glyph-name="Identity.650" unicode="&#x4f55;" 
d="M262 838l87 -26q-33 -94 -86 -194v-696h-92v546q-34 -50 -83 -104q-15 41 -50 95q67 69 126.5 170t97.5 209zM601 451h-145v-188h145v188zM687 183h-231v-68h-88v417h319v-349zM961 747v-89h-67v-619q0 -44 -12 -67t-41 -34q-48 -19 -200 -17q-7 47 -32 95q48 -2 164 -2
q16 1 22 6t6 20v618h-455v89h615z" />
    <glyph glyph-name="Identity.651" unicode="&#x4f59;" 
d="M257 205l87 -30q-43 -61 -106 -119.5t-126 -100.5q-27 33 -71 64q62 35 120.5 84.5t95.5 101.5zM266 538h470q-159 110 -240 212q-82 -106 -230 -212zM906 255h-360v-228q0 -38 -10.5 -58.5t-37.5 -31.5q-44 -18 -163 -16q-9 44 -37 89q28 -1 128 -1q22 1 22 19v227h-344
v88h344v111h-209v66q-74 -49 -145 -85q-22 40 -58 76q124 56 236.5 146.5t172.5 179.5h93q80 -100 195.5 -185t232.5 -130q-32 -35 -60 -84q-78 39 -153 89v-73h-207v-111h360v-88zM640 162l76 49q152 -113 226 -200l-81 -56q-33 42 -96 101t-125 106z" />
    <glyph glyph-name="Identity.652" unicode="&#x4f5c;" 
d="M274 835l89 -28q-42 -108 -99 -209v-675h-94v528q-37 -52 -82 -98q-22 57 -52 96q71 70 134 173t104 213zM961 586h-296v-127h272v-85h-272v-133h286v-87h-286v-232h-95v664h-56q-68 -125 -136 -201q-37 40 -72 63q65 68 122.5 169.5t93.5 210.5l89 -24q-29 -79 -52 -129
h402v-89z" />
    <glyph glyph-name="Identity.653" unicode="&#x4f73;" 
d="M586 504v126h-209v87h209v122h94v-122h215v-87h-215v-126h260v-88h-610v88h256zM260 835l87 -27q-37 -105 -94 -210v-676h-92v525q-38 -52 -74 -91q-19 52 -50 93q141 148 223 386zM680 46h278v-90h-659v90h287v146h-228v88h228v102h94v-102h233v-88h-233v-146z" />
    <glyph glyph-name="Identity.654" unicode="&#x4f75;" 
d="M270 837l87 -28q-39 -97 -98 -199v-686h-88v552q-48 -64 -98 -116q-20 46 -51 94q74 69 140 171t108 212zM559 363h157v180h-157v-180zM965 363v-89h-157v-352h-92v352h-161q-25 -243 -192 -361q-26 41 -64 68q145 91 164 293h-155v89h159v180h-133v88h157
q-21 76 -82 173l80 32q69 -101 88 -171l-78 -34h269l-69 29q58 95 88 181l97 -34q-67 -119 -109 -176h168v-88h-135v-180h157z" />
    <glyph glyph-name="Identity.655" unicode="&#x4f7c;" 
d="M323 707h267v132h93v-132h278v-87h-638v87zM704 559l72 43q55 -47 109 -105t82 -100l-77 -50q-25 42 -78 101.5t-108 110.5zM473 599l89 -28q-36 -66 -90 -129t-111 -107q-31 35 -73 62q55 37 104.5 90.5t80.5 111.5zM257 834l86 -26q-35 -93 -83 -184v-702h-90v554
q-52 -74 -102 -127q-15 43 -49 95q71 70 134 174t104 216zM730 424l96 -21q-45 -148 -129 -254q114 -106 275 -152q-38 -34 -61 -82q-163 53 -277 166q-117 -109 -300 -164q-18 42 -48 76q177 50 287 155q-82 104 -133 244l84 23q39 -110 110 -199q67 91 96 208z" />
    <glyph glyph-name="Identity.656" unicode="&#x4f7f;" 
d="M271 842l87 -29q-46 -111 -99 -201v-695h-88v561q-48 -65 -97 -114q-22 55 -51 94q74 69 140 171.5t108 212.5zM438 360h153v127h-153v-127zM841 487h-158v-96v-31h158v127zM930 283h-253q-14 -113 -61 -183q143 -74 355 -96q-33 -37 -55 -84q-212 31 -354 114
q-79 -74 -216 -115q-24 45 -57 77q125 30 197 90q-82 67 -134 157l76 24q41 -68 112 -120q35 57 45 136h-232v281h238v86h-263v85h263v99h92v-99h276v-85h-276v-86h247v-281z" />
    <glyph glyph-name="Identity.657" unicode="&#x4f83;" 
d="M786 498v207h-333v-207h333zM879 789v-376h-515v376h515zM256 837l86 -27q-35 -95 -94 -206v-683h-88v541q-37 -52 -84 -104q-24 56 -51 93q69 70 130.5 172.5t100.5 213.5zM394 255v107h86v-110q0 -105 -30 -190.5t-118 -149.5q-21 35 -62 66q75 54 99.5 123t24.5 154z
M573 -40v397h84v-397h-84zM856 1h19q12 0 16 5q6 5 9 28q2 19 4 104q23 -21 64 -35q-2 -94 -11 -121q-7 -31 -28 -44q-19 -12 -51 -12h-47q-40 0 -58 21q-12 11 -16.5 31t-4.5 67v318h87v-323q0 -30 4 -34q5 -5 13 -5z" />
    <glyph glyph-name="Identity.658" unicode="&#x4f8b;" 
d="M227 836l86 -24q-32 -100 -81 -202v-688h-85v532q-37 -59 -79 -109q-21 53 -47 98q62 72 116.5 176.5t89.5 216.5zM546 502h-114q-14 -47 -35 -99q68 -48 107 -84q27 83 42 183zM750 152h-83v558h-187q-18 -94 -26 -127h117l14 3l54 -16q-54 -474 -297 -650
q-10 17 -28 39t-31 32q119 81 189 241q-41 46 -110 97q-27 -51 -63 -93q-22 35 -55 66q104 126 146 408h-79v82h356v-66h83v-574zM842 822h86v-790q0 -40 -10 -61.5t-33 -32.5q-36 -17 -162 -17q-8 47 -29 91q38 -2 125 -2q13 1 18 5.5t5 16.5v790z" />
    <glyph glyph-name="Identity.659" unicode="&#x4f8d;" 
d="M260 835l87 -27q-45 -115 -102 -215v-671h-88v534q-42 -57 -83 -100q-20 48 -51 94q70 69 133 172t104 213zM387 198l79 41q87 -97 123 -171l-85 -46q-32 76 -117 176zM960 439h-139v-97h131v-85h-131v-232q0 -39 -10 -58.5t-36 -29.5q-37 -15 -169 -15q-7 44 -30 88
q38 -2 79.5 -2.5t49.5 0.5q13 1 17.5 5t4.5 14v230h-409v85h409v97h-421v85h279v108h-219v85h219v118h95v-118h228v-85h-228v-108h280v-85z" />
    <glyph glyph-name="Identity.660" unicode="&#x4f9b;" 
d="M261 837l87 -28q-42 -109 -99 -208v-679h-91v536q-40 -55 -83 -101q-19 47 -51 95q70 70 133 172.5t104 212.5zM482 182l88 -28q-74 -131 -194 -230q-29 29 -74 59q111 78 180 199zM703 139l75 41q115 -114 172 -209l-78 -50q-56 103 -169 218zM550 546v-225h172v225
h-172zM813 321h146v-91h-644v91h144v225h-120v89h120v194h91v-194h172v196h91v-196h136v-89h-136v-225z" />
    <glyph glyph-name="Identity.661" unicode="&#x4f9d;" 
d="M890 493l69 -66q-127 -104 -194 -148q81 -192 214 -269q-40 -34 -65 -79q-122 77 -194 225t-111 361q-45 -64 -106 -126v-323q88 18 210 46l9 -83l-238 -57.5t-158 -37.5l-28 90q45 8 117 23v261q-56 -45 -107 -76q-36 51 -58 73v-383h-89v546q-43 -58 -92 -108
q-31 65 -51 95q72 68 137 169.5t106 210.5l87 -28q-43 -107 -98 -202v-292q179 96 291 262h-252v88h285v162h94v-162h273v-88h-256q20 -123 52 -223q93 72 153 139z" />
    <glyph glyph-name="Identity.662" unicode="&#x4fa0;" 
d="M254 837l86 -26q-37 -104 -93 -208v-685h-90v538q-31 -45 -78 -99q-16 47 -49 95q67 69 126.5 172t97.5 213zM951 282h-266q83 -215 285 -283q-38 -34 -63 -79q-183 75 -275 276q-74 -181 -292 -279q-28 46 -64 75q236 91 288 290h-260v85h275q4 48 4 106v144h-247v85
h247v126h95v-126h254v-85h-254v-145q0 -61 -5 -105h278v-85zM365 565l77 26q55 -100 69 -172l-82 -29q-16 80 -64 175zM804 388l-68 27q48 91 74 176l90 -32q-76 -142 -96 -171z" />
    <glyph glyph-name="Identity.663" unicode="&#x4fa1;" 
d="M246 837l84 -27q-37 -103 -93 -205v-683h-87v544q-46 -61 -79 -96q-15 38 -49 91q142 146 224 376zM677 511v146h-94v-146h94zM851 82v346h-95v-346h95zM414 428v-346h90v346h-90zM677 428h-94v-346h94v346zM948 657h-183v-146h176v-566h-90v56h-437v-61h-86v571h168v146
h-179v84h631v-84z" />
    <glyph glyph-name="Identity.664" unicode="&#x4fad;" 
d="M421 113l53 62q79 -36 164.5 -86t133.5 -89l-58 -71q-46 40 -130.5 93t-162.5 91zM726 242l-61 -64q-29 32 -86 76.5t-111 78.5l58 58q146 -92 200 -149zM468 705v-68q0 -40 -3 -85h341v153h-338zM899 470h-149q38 -95 97.5 -173.5t131.5 -122.5q-42 -35 -67 -77
q-82 57 -146.5 154.5t-105.5 218.5h-203q-30 -238 -153 -370q-23 23 -60 45v-223h-88v535q-28 -41 -78 -101q-21 53 -52 94q65 70 123 172.5t95 213.5l88 -25q-37 -105 -88 -204v-439q135 160 135 470v149h520v-317z" />
    </font>
</defs>
</svg>
