<svg width="21" height="22" viewBox="0 0 21 22" fill="none" xmlns="http://www.w3.org/2000/svg">
<path d="M10.153 14.3439C7.77757 15.815 7.04667 16.5506 7.04667 17.654C7.04667 18.0217 7.2294 18.3895 7.59485 18.5734C8.14303 18.9412 9.23938 19.1251 10.8839 19.1251C12.163 19.1251 13.9903 18.9412 15.2693 18.7573C15.8175 18.7573 16.0002 18.5734 17.0966 18.3895C17.0966 18.3895 17.0966 18.3895 17.2793 18.3895C17.462 18.3895 17.6448 18.5734 17.6448 18.7573C17.8275 19.309 17.8275 20.0446 17.8275 20.964C17.8275 21.3318 17.6448 21.5157 17.462 21.5157C16.9139 21.6996 14.173 21.6996 12.3457 21.6996C9.42211 21.6996 7.77758 21.5157 6.68122 20.964C5.21942 20.4123 4.4885 19.309 4.4885 17.654C4.4885 16.1828 5.2194 14.8956 6.49849 13.9761C7.59484 13.0567 7.77757 13.0567 9.97028 11.7694C9.78756 11.0338 9.42211 10.6661 8.69121 10.6661C7.77758 10.6661 6.68122 11.0338 5.40213 11.7694C4.67123 12.3211 3.94033 12.8728 3.39215 13.4244C2.66125 14.16 2.66125 14.16 2.47852 14.16C2.29579 14.16 1.74762 13.6083 1.19944 12.6889C1.01672 12.3211 0.833984 11.9533 0.833984 11.7694C0.833984 11.5855 0.83399 11.5855 1.38217 11.2177C3.39215 9.9305 5.03668 8.09157 6.13304 6.43655C4.48851 6.62044 3.57488 6.62044 2.47852 6.62044C2.11307 6.62044 2.11306 6.62044 1.93034 6.06876C1.93034 5.70098 1.74761 4.41373 1.74761 3.86206C2.66124 4.04595 3.0267 4.04595 4.30578 4.04595C5.21941 4.04595 6.31576 4.04595 7.41212 4.04595C7.96029 2.57481 8.14302 1.83925 8.14302 0.552002C10.3357 0.919786 11.2494 1.28757 11.2494 1.65535C11.2494 1.83925 11.2494 1.83925 11.0666 2.02314C10.8839 2.20703 10.7012 2.57481 10.3357 3.31038C10.3357 3.49427 10.3357 3.49427 10.3357 3.49427C11.7976 3.31038 12.8939 3.12649 13.8075 2.9426C14.3557 2.75871 14.5384 2.75871 14.5384 2.75871C14.7212 2.75871 14.9039 2.75871 14.9039 2.9426C15.0866 3.31038 15.0866 4.59763 15.0866 4.78152C15.0866 4.96541 14.9039 5.1493 14.7212 5.33319C13.9903 5.51709 11.2494 5.88487 9.05665 6.25265C8.32575 7.5399 7.77757 8.45936 7.04667 9.19493C8.14303 8.64325 9.05665 8.45936 9.97028 8.45936C11.0666 8.45936 11.7975 9.01103 12.3457 10.4822C14.7212 9.19493 16.0002 8.45936 16.183 8.27547C17.2793 7.5399 17.8275 7.17211 18.3757 6.62044C19.2893 7.72379 20.3857 9.19493 20.3857 9.56271C20.3857 9.7466 20.2029 9.7466 20.0202 9.93049C18.7411 10.2983 16.5484 11.2177 12.8939 13.0567C12.8939 13.4244 12.8939 14.7117 12.8939 15.4473C12.8939 15.6311 12.8939 15.815 12.8939 15.9989C12.8939 16.1828 12.8939 16.1828 12.8939 16.1828V16.5506C12.8939 16.9184 12.8939 16.9184 12.7112 17.1023C12.5284 17.2862 11.9803 17.2862 11.2494 17.2862C10.3357 17.2862 10.3357 17.2862 10.3357 16.7345C10.3357 16.7345 10.3357 16.7345 10.3357 16.5506C10.153 15.9989 10.153 15.0795 10.153 14.3439Z" fill="#191919"/>
</svg>
