<svg width="21" height="22" viewBox="0 0 21 22" fill="none" xmlns="http://www.w3.org/2000/svg">
<path d="M2.97906 7.35568C2.61361 7.35568 2.24815 7.35568 2.06543 7.35568C1.8827 7.35568 1.88271 7.35568 1.88271 7.35568C1.69998 7.35568 1.51725 7.35568 1.51725 6.98789C1.33453 6.62011 1.1518 5.33287 1.1518 4.5973C1.33452 4.5973 2.06543 4.5973 2.97906 4.5973C3.16178 4.5973 5.17177 4.41341 6.0854 4.41341C6.45085 2.3906 6.63358 1.47114 6.63358 0C9.19174 0.367784 10.1054 0.551676 10.1054 1.10335C10.1054 1.28724 10.1054 1.28724 9.73992 1.83892C9.19174 2.3906 9.19175 2.75838 8.82629 4.22952C9.92265 4.04562 10.6536 3.86173 11.5672 3.49395C11.7499 3.49395 11.7499 3.49395 11.9326 3.49395C12.1154 3.49395 12.1154 3.67784 12.2981 4.41341C12.4808 4.96508 12.4808 5.51676 12.4808 5.88454C12.4808 6.25233 12.4808 6.25233 11.7499 6.43622C10.8363 6.62011 9.5572 6.804 7.91266 6.98789C6.99903 9.74627 6.45086 11.2174 5.3545 13.608C4.44087 15.263 4.07542 16.1825 3.34451 17.2858C3.16179 17.6536 2.97906 17.6536 2.79634 17.6536C2.61361 17.6536 1.88271 17.2858 0.969075 16.7342C0.603623 16.5503 0.420898 16.3664 0.420898 16.1825C0.420898 15.9986 0.603626 15.8147 0.786352 15.4469C1.51726 14.5275 2.43088 13.0563 3.16179 11.4013C3.89269 10.1141 4.07541 9.56238 4.80632 7.53957C4.07541 7.35568 4.07541 7.35568 2.97906 7.35568ZM11.019 21.5154C8.27812 21.5154 6.63358 20.0442 6.63358 17.8375C6.63358 15.6308 8.46084 13.7919 11.019 13.7919C11.5672 13.7919 11.9326 13.7919 12.8463 13.9758C12.6635 12.8724 12.6635 12.3208 12.6635 10.1141C12.6635 9.56238 12.6635 9.01071 12.4808 8.27514C13.7599 8.45903 14.6735 8.45903 15.2217 8.82681C15.4044 8.82681 15.5872 9.01071 15.5872 9.1946C15.5872 9.37849 15.5872 9.37849 15.5872 9.56238C15.4044 10.1141 15.4044 10.4818 15.4044 11.0335C15.4044 11.953 15.4044 13.4241 15.5872 14.7114C17.2317 15.4469 17.9626 15.8147 19.2417 16.9181C19.7899 17.2858 19.9726 17.4697 19.9726 17.8375C19.9726 18.0214 19.7899 18.3892 19.2417 19.4925C18.8762 20.0442 18.6935 20.2281 18.5108 20.2281C18.328 20.2281 18.328 20.2281 17.5971 19.6764C17.049 19.1248 16.5008 18.757 15.5872 18.2053C15.4044 20.2281 13.7599 21.5154 11.019 21.5154ZM10.8363 16.3664C9.73993 16.3664 8.82629 16.9181 8.82629 17.8375C8.82629 18.5731 9.5572 19.1248 10.6536 19.1248C11.9326 19.1248 12.6635 18.3892 12.6635 17.102C12.6635 16.9181 12.6635 16.7342 12.6635 16.7342C12.2981 16.3664 11.5672 16.3664 10.8363 16.3664ZM19.9726 9.37849C19.6071 9.74627 19.6071 9.93017 19.4244 9.93017C19.2417 9.93017 19.2417 9.93017 19.059 9.74627C18.5108 9.1946 17.5971 8.45903 16.6835 7.90735C16.1353 7.53957 16.1353 7.53957 15.039 6.98789C14.6735 6.804 14.4908 6.804 14.4908 6.62011C14.4908 6.43622 14.6735 6.25233 15.039 5.70065C15.5872 4.78119 15.7699 4.78119 15.9526 4.78119C16.5008 4.78119 18.1453 5.70065 19.6071 6.62011C20.7035 7.35568 20.8862 7.53957 20.8862 7.90735C20.8862 7.90735 20.5208 8.64292 19.9726 9.37849Z" fill="#191919"/>
</svg>
