<svg width="16" height="18" viewBox="0 0 16 18" fill="none" xmlns="http://www.w3.org/2000/svg">
<path d="M0.966906 4.62051C0.966906 2.96548 0.966906 1.86213 0.78418 0.390991C2.06326 0.390991 2.97689 0.574883 3.89052 0.758775C4.25598 0.942667 4.4387 0.942667 4.4387 1.12656C4.4387 1.31045 4.4387 1.31045 4.25598 1.67823C3.89052 2.59769 3.89052 2.59769 3.89052 13.6312C7.54504 12.344 9.55503 11.4245 12.1132 9.40169C13.575 8.48223 14.4886 7.56278 15.585 6.27553C15.585 6.45942 15.585 6.45942 15.585 6.45942C15.585 7.37888 15.585 8.11445 15.7677 9.2178C15.7677 9.4017 15.7677 9.58559 15.7677 9.58559C15.7677 9.95337 15.4023 10.3212 14.1232 11.4245C13.0268 12.7118 10.8341 13.999 9.3723 14.7346C8.09322 15.4701 6.81414 16.0218 4.98688 16.5735C4.4387 16.7574 4.07325 16.9413 3.7078 17.1252C3.52507 17.309 3.34235 17.309 3.15962 17.309C2.42872 17.309 0.78418 15.654 0.78418 14.9185C0.78418 14.7346 0.78418 14.7346 0.78418 14.3668C0.966906 13.999 0.966906 13.6312 0.966906 12.7117V4.62051Z" fill="#191919"/>
</svg>
