<svg width="19" height="22" viewBox="0 0 19 22" fill="none" xmlns="http://www.w3.org/2000/svg">
<path d="M12.5477 9.01166C16.0195 9.01166 18.395 11.4023 18.395 14.7123C18.395 16.919 17.1159 19.1257 15.1059 20.2291C13.6441 21.1485 11.9995 21.5163 9.98954 21.5163C6.8832 21.5163 5.05594 20.2291 5.05594 18.2063C5.05594 16.1834 6.70049 14.8962 8.8932 14.8962C10.9032 14.8962 12.5477 15.9996 13.4614 18.2063C14.7404 17.2868 15.2886 16.3673 15.2886 15.0801C15.2886 13.0573 13.8268 11.5861 11.4514 11.5861C9.07592 11.5861 6.51776 12.8734 4.32505 14.8962C3.9596 15.264 3.59414 15.6318 3.04596 16.1834C2.86323 16.3673 2.68051 16.5512 2.68051 16.5512C2.31506 16.5512 0.487793 14.8962 0.487793 14.3445C0.487793 14.1606 0.670525 13.9767 1.03598 13.609C1.58415 13.2412 2.31506 12.5056 3.41142 11.4023C5.78686 9.19555 7.43138 7.17274 9.98954 4.04657C6.8832 4.41436 4.87322 4.78214 4.14231 4.96603C3.95959 4.96603 3.95959 4.96603 3.95959 4.96603C3.77686 4.96603 3.59415 4.78214 3.41142 4.41436C3.04597 3.67879 3.04596 2.94322 2.86324 1.83987C3.59414 2.02376 3.9596 2.02376 4.50777 2.02376C5.60413 2.02376 7.61411 1.83987 10.1723 1.47209C11.0859 1.28819 11.4514 1.28819 11.9995 1.1043C12.1823 0.92041 12.365 0.92041 12.5477 0.92041C12.9132 0.92041 13.2786 1.28819 13.8268 2.20765C14.375 2.75933 14.375 3.12711 14.375 3.31101C14.375 3.67879 14.375 3.67879 13.8268 4.04657C13.4613 4.23047 13.0959 4.59825 12.5477 5.14993C11.2686 6.25328 11.2686 6.25328 9.80683 7.9083C8.71048 9.01166 8.52776 9.19555 7.61413 10.115C9.80684 9.37944 11.0859 9.01166 12.5477 9.01166ZM10.1723 17.4707C9.80683 17.2868 9.44138 17.1029 8.8932 17.1029C8.1623 17.1029 7.61413 17.4707 7.61413 18.0224C7.61413 18.7579 8.34501 19.1257 9.6241 19.1257C10.1723 19.1257 10.5377 19.1257 11.2686 18.9418C10.9032 18.2063 10.7205 17.8385 10.1723 17.4707Z" fill="#191919"/>
</svg>
