<svg width="16" height="22" viewBox="0 0 16 22" fill="none" xmlns="http://www.w3.org/2000/svg">
<path d="M3.4528 1.28819C4.00098 1.47209 4.18371 1.65598 4.18371 1.83987C4.18371 2.02376 4.1837 2.02376 4.00097 2.39155C3.81825 3.12711 3.4528 4.41436 3.4528 6.06939C3.27008 10.115 3.08734 13.0573 3.08734 15.4479C3.08734 16.1834 3.08735 16.7351 3.27008 17.2868C3.63553 18.2063 4.54915 18.7579 5.82823 18.7579C8.02095 18.7579 10.0309 17.8385 12.0409 15.9996C12.9546 15.0801 13.5027 14.5284 14.4164 13.0573C14.5991 13.7928 14.7818 14.3445 15.33 15.4479C15.33 15.6318 15.5127 15.8157 15.5127 15.9996C15.5127 16.3673 14.9645 17.1029 13.8682 18.2063C11.4927 20.413 8.75186 21.5163 6.01097 21.5163C4.18371 21.5163 2.72189 20.9646 1.99099 20.2291C1.07736 19.3096 0.711914 18.0224 0.711914 15.4479C0.711914 13.609 0.711911 12.1378 0.894637 6.25328C0.894637 5.33382 0.894637 4.96603 0.894637 4.59825C0.894637 2.57544 0.89464 1.83987 0.711914 0.92041C1.80827 1.1043 2.7219 1.1043 3.4528 1.28819Z" fill="#191919"/>
</svg>
