<svg width="21" height="22" viewBox="0 0 21 22" fill="none" xmlns="http://www.w3.org/2000/svg">
<path d="M7.13163 6.25235C6.03527 6.25235 4.93891 6.43625 4.02528 6.43625C2.92893 6.43625 2.92893 6.43625 2.92893 6.25235C2.92893 6.06846 2.7462 5.149 2.7462 4.41343C2.7462 4.22954 2.7462 4.22954 2.7462 3.86176C3.84256 3.86176 4.39073 3.86176 4.93891 3.86176C5.48709 3.86176 6.40073 3.86176 7.13163 3.86176C7.31436 2.39062 7.31435 2.02284 7.31435 1.47116C7.31435 1.28727 7.31435 1.10338 7.31435 0.735596C8.41071 0.735596 9.32434 0.919488 10.0552 0.919488C10.238 0.919488 10.4207 1.10338 10.4207 1.28727C10.4207 1.47116 10.4207 1.47116 10.238 1.83895C10.0552 2.39062 9.87252 2.9423 9.87252 3.67787C11.5171 3.49397 13.3443 3.31008 14.0752 3.12619C14.8061 2.9423 15.3543 2.9423 15.3543 2.9423C15.9025 2.9423 16.2679 2.75841 16.4507 2.75841C16.4507 2.75841 16.4506 2.75841 16.6334 2.75841C16.8161 2.75841 16.8161 2.9423 16.8161 2.9423C16.8161 3.31008 16.9988 4.22954 16.9988 4.78122C16.9988 5.149 16.9988 5.33289 16.6334 5.33289C15.1716 5.70068 12.248 6.06846 9.6898 6.25235C9.6898 6.43625 9.6898 6.43625 9.6898 6.62014C9.6898 7.17181 9.6898 7.17181 9.6898 8.27517C10.7862 8.09127 11.6998 7.90738 12.9789 7.90738C13.1616 7.17181 13.1616 6.98792 13.1616 6.43625C14.9888 6.80403 15.9025 7.17181 15.9025 7.5396C15.9025 7.72349 15.9025 7.72349 15.7197 8.09127C15.7197 8.27517 15.537 8.27517 15.537 8.45906C18.6434 9.19463 20.6534 11.5852 20.6534 14.5275C20.6534 17.2859 19.1915 19.3087 16.4507 20.7798C15.3543 21.3315 13.8925 21.8832 13.527 21.8832C13.3443 21.8832 12.9789 21.6993 12.9789 21.5154C12.4307 20.7798 12.0652 20.412 11.3343 19.8604C13.8925 19.3087 15.1716 18.9409 16.2679 17.8375C17.3643 16.9181 17.9125 15.8147 17.9125 14.3436C17.9125 12.3208 16.8161 10.8497 14.8061 10.298C13.1616 13.608 12.2479 15.0792 10.4207 16.9181C10.6034 17.2859 10.6034 17.6537 10.7861 18.0214C10.9689 18.2053 10.9689 18.2053 10.9689 18.3892C10.9689 18.5731 10.7861 18.757 10.238 18.9409C9.68979 19.3087 8.95888 19.4926 8.59343 19.4926C8.4107 19.4926 8.41071 19.4926 8.04526 18.5731C6.58345 19.4926 5.12164 20.0443 3.65983 20.0443C2.0153 20.0443 0.918945 18.757 0.918945 16.7342C0.918945 13.608 3.11165 10.6658 6.76617 8.82684C6.9489 7.90738 6.9489 6.80403 7.13163 6.25235ZM3.65983 16.5503C3.65983 17.102 4.02529 17.4698 4.57346 17.4698C5.48709 17.4698 6.58344 16.9181 7.6798 16.1825C7.31435 14.5275 7.13163 13.4241 7.13163 11.5852C4.93892 13.2402 3.65983 15.0792 3.65983 16.5503ZM12.2479 9.7463C11.1516 9.93019 10.6034 9.93019 9.50706 10.298C9.50706 11.953 9.68979 12.8725 9.87252 13.9758C10.7861 12.8725 11.517 11.5852 12.2479 9.7463Z" fill="#191919"/>
</svg>
