<svg width="18" height="20" viewBox="0 0 18 20" fill="none" xmlns="http://www.w3.org/2000/svg">
<path d="M12.878 12.0565C12.878 15.1827 12.878 17.3894 13.0607 19.0444V19.2283C13.0607 19.4122 13.0607 19.5961 12.6953 19.5961C12.3298 19.5961 11.4162 19.78 10.5026 19.78C9.77167 19.78 9.58894 19.78 9.58894 19.2283C9.58894 19.2283 9.58894 19.2283 9.58894 19.0444C9.77167 17.7571 9.77167 14.9988 9.77167 11.8726V8.74644C8.12714 9.84979 7.2135 10.4015 5.93442 11.137C4.10716 12.0565 3.37626 12.4243 3.0108 12.4243C2.82808 12.4243 2.64535 12.4243 2.46262 12.2404C1.73172 11.5048 1.36627 11.137 0.452637 10.4015C3.55898 9.29811 5.38624 8.37865 7.57896 7.09141C10.3198 5.43638 13.0607 3.04579 14.7053 1.20687C15.0707 0.839083 15.2534 0.655192 15.4362 0.103516C16.898 1.20687 17.9943 2.12633 17.9943 2.678C17.9943 2.8619 17.8116 2.86189 17.6289 3.04579C17.2634 3.22968 17.0807 3.41357 15.8016 4.33303C14.7053 5.25249 13.6089 6.17195 12.6953 6.90752V12.0565H12.878Z" fill="#191919"/>
</svg>
