<svg width="19" height="22" viewBox="0 0 19 22" fill="none" xmlns="http://www.w3.org/2000/svg">
<path d="M5.66451 1.10314C6.76086 0.919243 7.85722 0.735352 8.77085 0.735352C9.31903 0.735352 9.50175 0.919244 9.50175 1.28703C9.50175 1.47092 9.50175 1.47092 9.50175 1.65481C9.50175 1.8387 9.50175 2.0226 9.50175 2.20649C9.50175 2.75816 9.50175 3.12595 9.8672 4.78097C12.4254 4.41319 14.4354 3.86151 15.349 3.67762C15.5317 3.67762 15.5317 3.67762 15.7144 3.67762C15.8972 3.67762 15.8972 3.86152 16.0799 4.2293C16.2626 4.59708 16.4453 5.88433 16.4453 6.06822C16.4453 6.436 16.2626 6.436 15.349 6.436C14.4354 6.436 14.0699 6.61989 10.2327 7.17157C10.5981 9.37827 10.5981 9.37827 10.7808 10.4816C11.329 10.2977 11.329 10.2977 11.8772 10.2977C14.4354 9.92995 16.0799 9.56217 17.1762 9.37827C17.5417 9.19438 17.7244 9.19438 17.9071 9.19438C18.0899 9.19438 18.0899 9.19438 18.2726 9.37827C18.4553 9.92995 18.6381 11.2172 18.6381 11.585C18.6381 11.7689 18.6381 11.7689 17.9071 11.9528C17.5417 11.9528 17.5417 11.9528 16.6281 12.1367C15.349 12.5044 15.349 12.5044 11.329 13.24C12.0599 16.1823 12.0599 16.1823 12.7908 19.8601C12.7908 20.044 12.7908 20.2279 12.7908 20.2279C12.7908 20.4118 12.6081 20.5957 12.2426 20.7796C11.5117 20.9635 10.2327 21.3313 9.8672 21.3313C9.68448 21.3313 9.50175 21.3313 9.50175 20.7796C9.68448 19.4923 9.1363 17.2856 8.58812 13.6078C3.65452 14.5272 3.28907 14.7111 1.82726 15.2628C1.46181 15.2628 1.46181 15.2628 1.27908 15.2628C1.09636 15.2628 0.91363 15.2628 0.91363 14.895C0.548178 14.3434 0.365452 13.6078 0 12.3205C1.27908 12.3205 2.55816 12.1367 8.03994 11.2172C7.85722 9.74606 7.67449 8.64271 7.49177 7.72325C2.92362 8.64271 2.92362 8.64271 1.82726 9.01049C1.64453 9.01049 1.64453 9.01049 1.46181 9.01049C1.09636 9.01049 1.09636 9.01049 0.365452 6.06822C1.64453 6.06822 1.64453 6.06822 6.94359 5.14876C6.57814 3.49373 6.21268 2.0226 5.66451 1.10314Z" fill="#191919"/>
</svg>
