<svg width="22" height="23" viewBox="0 0 22 23" fill="none" xmlns="http://www.w3.org/2000/svg">
<path d="M4.1771 16.9183C4.1771 16.5505 4.1771 16.3666 4.1771 16.1827C3.62892 18.3894 3.08073 19.6767 2.1671 21.3317C1.4362 20.4123 0.888021 19.8606 0.339844 19.3089C1.98438 16.9183 2.53256 14.1599 2.53256 9.01095C2.53256 8.27538 2.53256 7.53981 2.53256 6.98814C2.34984 7.17203 2.34983 7.17203 2.1671 7.17203C1.61892 6.25257 1.25348 5.70089 0.522581 4.96533C2.16711 4.04587 3.26346 3.3103 4.54254 2.20695C5.45617 1.47138 6.00435 0.735812 6.55253 0.000244141H9.11069C10.3898 1.47138 11.8516 2.57473 14.227 3.67808C13.6788 4.59754 13.3134 4.96533 12.9479 6.06868C12.0343 5.517 11.6688 5.33311 11.1207 4.96533V6.06868C10.7552 6.06868 10.3898 6.06868 9.8416 6.06868H6.55253C5.82162 6.06868 5.6389 6.06868 5.27345 6.06868V5.33311C4.35982 6.06868 3.62892 6.62035 3.26347 6.98814C3.99437 6.98814 4.35982 6.98814 5.27345 6.98814H11.1207C12.0343 6.98814 12.3998 6.98814 12.9479 6.98814C12.9479 7.53981 12.9479 8.09149 12.9479 8.82706V12.6888C12.9479 13.6082 12.9479 13.976 12.9479 14.5277C12.217 14.5277 12.0343 14.5277 11.3034 14.5277H5.09073C5.09073 14.8955 5.09072 15.2633 4.90799 15.4472C5.27344 15.4472 5.45618 15.4472 6.18708 15.4472H11.6689C12.3998 15.4472 12.7652 15.4472 13.3134 15.4472C13.3134 15.9988 13.3134 16.3666 13.3134 17.1022V19.8606C13.3134 20.5961 13.3134 21.1478 13.4961 21.6995H11.1207V20.9639H7.46616V22.0673H5.09073C5.09073 21.5156 5.27345 20.9639 5.27345 20.2284V16.9183H4.1771ZM4.72527 11.5854C4.72527 11.9532 4.72527 12.1371 4.54254 12.5049H9.8416V11.5854H4.72527ZM9.8416 9.74652V8.82706H4.72527V9.74652H9.8416ZM9.29341 4.41365C9.47614 4.41365 9.47615 4.41365 9.65887 4.41365C8.74524 3.67808 8.37978 3.3103 7.64888 2.39084C7.1007 3.12641 6.73526 3.49419 6.00436 4.41365H6.18708H9.29341ZM6.3698 18.9411H10.0243V17.1022H6.3698V18.9411ZM16.6024 2.02306C16.4197 2.57473 16.4197 3.3103 16.4197 4.41365V13.7921C16.4197 15.2633 16.4197 15.6311 16.6024 16.3666H14.0443C14.0443 15.6311 14.227 15.0794 14.227 13.7921V4.59754C14.227 3.49419 14.227 2.75862 14.0443 2.02306H16.6024ZM21.5361 0.368028C21.3533 1.1036 21.3533 1.83916 21.3533 3.12641V18.7572C21.3533 20.9639 20.8052 21.5156 17.8815 21.5156C17.3334 21.5156 17.3334 21.5156 15.6888 21.5156C15.5061 20.4123 15.5061 19.8606 15.1406 18.9411C16.0543 19.125 17.1506 19.125 17.8815 19.125C18.7952 19.125 18.9779 18.9411 18.9779 18.3894V3.3103C18.9779 1.83916 18.9779 1.1036 18.7952 0.368028H21.5361Z" fill="#191919"/>
</svg>
