<svg width="265" height="23" viewBox="0 0 265 23" fill="none" xmlns="http://www.w3.org/2000/svg">
<path d="M6.43013 1.10301C7.52649 0.919121 8.62284 0.735229 9.53647 0.735229C10.0847 0.735229 10.2674 0.919121 10.2674 1.28691C10.2674 1.4708 10.2674 1.4708 10.2674 1.65469C10.2674 1.83858 10.2674 2.02247 10.2674 2.20637C10.2674 2.75804 10.2674 3.12583 10.6328 4.78085C13.191 4.41307 15.201 3.86139 16.1146 3.6775C16.2973 3.6775 16.2973 3.6775 16.4801 3.6775C16.6628 3.6775 16.6628 3.86139 16.8455 4.22918C17.0282 4.59696 17.211 5.8842 17.211 6.0681C17.211 6.43588 17.0282 6.43588 16.1146 6.43588C15.201 6.43588 14.8355 6.61977 10.9983 7.17145C11.3637 9.37815 11.3637 9.37815 11.5465 10.4815C12.0946 10.2976 12.0946 10.2976 12.6428 10.2976C15.201 9.92983 16.8455 9.56204 17.9419 9.37815C18.3073 9.19426 18.49 9.19426 18.6728 9.19426C18.8555 9.19426 18.8555 9.19426 19.0382 9.37815C19.221 9.92983 19.4037 11.2171 19.4037 11.5849C19.4037 11.7687 19.4037 11.7687 18.6728 11.9526C18.3073 11.9526 18.3073 11.9526 17.3937 12.1365C16.1146 12.5043 16.1146 12.5043 12.0946 13.2399C12.8255 16.1822 12.8255 16.1822 13.5564 19.86C13.5564 20.0439 13.5564 20.2278 13.5564 20.2278C13.5564 20.4117 13.3737 20.5956 13.0083 20.7795C12.2774 20.9633 10.9983 21.3311 10.6328 21.3311C10.4501 21.3311 10.2674 21.3311 10.2674 20.7795C10.4501 19.4922 9.90193 17.2855 9.35375 13.6077C4.42014 14.5271 4.05469 14.711 2.59289 15.2627C2.22743 15.2627 2.22743 15.2627 2.04471 15.2627C1.86198 15.2627 1.67926 15.2627 1.67926 14.8949C1.3138 14.3432 1.13108 13.6077 0.765625 12.3204C2.04471 12.3204 3.32379 12.1365 8.80557 11.2171C8.62284 9.74594 8.44012 8.64258 8.25739 7.72312C3.68924 8.64258 3.68924 8.64258 2.59289 9.01037C2.41016 9.01037 2.41016 9.01037 2.22743 9.01037C1.86198 9.01037 1.86198 9.01037 1.13108 6.0681C2.41016 6.0681 2.41016 6.0681 7.70921 5.14864C7.34376 3.49361 6.97831 2.02247 6.43013 1.10301Z" fill="#191919"/>
<path d="M30.7325 6.62051C30.7325 4.96548 30.7325 3.86213 30.5498 2.39099C31.8289 2.39099 32.7425 2.57488 33.6561 2.75877C34.0216 2.94267 34.2043 2.94267 34.2043 3.12656C34.2043 3.31045 34.2043 3.31045 34.0216 3.67823C33.6561 4.59769 33.6561 4.59769 33.6561 15.6312C37.3107 14.344 39.3207 13.4245 41.8788 11.4017C43.3406 10.4822 44.2543 9.56278 45.3506 8.27553C45.3506 8.45942 45.3506 8.45942 45.3506 8.45942C45.3506 9.37888 45.3506 10.1145 45.5333 11.2178C45.5333 11.4017 45.5333 11.5856 45.5333 11.5856C45.5333 11.9534 45.1679 12.3212 43.8888 13.4245C42.7925 14.7118 40.5997 15.999 39.1379 16.7346C37.8588 17.4701 36.5798 18.0218 34.7525 18.5735C34.2043 18.7574 33.8389 18.9413 33.4734 19.1252C33.2907 19.309 33.108 19.309 32.9252 19.309C32.1943 19.309 30.5498 17.654 30.5498 16.9185C30.5498 16.7346 30.5498 16.7346 30.5498 16.3668C30.7325 15.999 30.7325 15.6312 30.7325 14.7117V6.62051Z" fill="#191919"/>
<path d="M67.6436 13.0566C67.6436 16.1828 67.6436 18.3895 67.8264 20.0445V20.2284C67.8264 20.4123 67.8264 20.5962 67.4609 20.5962C67.0955 20.5962 66.1818 20.7801 65.2682 20.7801C64.5373 20.7801 64.3546 20.7801 64.3546 20.2284C64.3546 20.2284 64.3546 20.2284 64.3546 20.0445C64.5373 18.7573 64.5373 15.9989 64.5373 12.8727V9.74656C62.8928 10.8499 61.9791 11.4016 60.7 12.1372C58.8728 13.0566 58.1419 13.4244 57.7764 13.4244C57.5937 13.4244 57.411 13.4244 57.2282 13.2405C56.4973 12.5049 56.1319 12.1372 55.2183 11.4016C58.3246 10.2982 60.1519 9.37878 62.3446 8.09153C65.0855 6.4365 67.8264 4.04591 69.4709 2.20699C69.8363 1.83921 70.0191 1.65531 70.2018 1.10364C71.6636 2.20699 72.76 3.12645 72.76 3.67813C72.76 3.86202 72.5772 3.86202 72.3945 4.04591C72.0291 4.2298 71.8463 4.41369 70.5673 5.33315C69.4709 6.25261 68.3745 7.17207 67.4609 7.90764V13.0566H67.6436Z" fill="#191919"/>
<path d="M87.7447 7.35568C87.3792 7.35568 87.0138 7.35568 86.8311 7.35568C86.6483 7.35568 86.6483 7.35568 86.6483 7.35568C86.4656 7.35568 86.2829 7.35568 86.2829 6.98789C86.1002 6.62011 85.9174 5.33287 85.9174 4.5973C86.1001 4.5973 86.8311 4.5973 87.7447 4.5973C87.9274 4.5973 89.9374 4.41341 90.851 4.41341C91.2165 2.3906 91.3992 1.47114 91.3992 0C93.9574 0.367784 94.871 0.551676 94.871 1.10335C94.871 1.28724 94.871 1.28724 94.5055 1.83892C93.9574 2.3906 93.9574 2.75838 93.5919 4.22952C94.6883 4.04562 95.4192 3.86173 96.3328 3.49395C96.5155 3.49395 96.5155 3.49395 96.6983 3.49395C96.881 3.49395 96.881 3.67784 97.0637 4.41341C97.2464 4.96508 97.2464 5.51676 97.2464 5.88454C97.2464 6.25233 97.2464 6.25233 96.5155 6.43622C95.6019 6.62011 94.3228 6.804 92.6783 6.98789C91.7647 9.74627 91.2165 11.2174 90.1201 13.608C89.2065 15.263 88.841 16.1825 88.1101 17.2858C87.9274 17.6536 87.7447 17.6536 87.562 17.6536C87.3792 17.6536 86.6483 17.2858 85.7347 16.7342C85.3692 16.5503 85.1865 16.3664 85.1865 16.1825C85.1865 15.9986 85.3693 15.8147 85.552 15.4469C86.2829 14.5275 87.1965 13.0563 87.9274 11.4013C88.6583 10.1141 88.841 9.56238 89.5719 7.53957C88.841 7.35568 88.841 7.35568 87.7447 7.35568ZM95.7846 21.5154C93.0437 21.5154 91.3992 20.0442 91.3992 17.8375C91.3992 15.6308 93.2265 13.7919 95.7846 13.7919C96.3328 13.7919 96.6983 13.7919 97.6119 13.9758C97.4292 12.8724 97.4292 12.3208 97.4292 10.1141C97.4292 9.56238 97.4292 9.01071 97.2464 8.27514C98.5255 8.45903 99.4392 8.45903 99.9873 8.82681C100.17 8.82681 100.353 9.01071 100.353 9.1946C100.353 9.37849 100.353 9.37849 100.353 9.56238C100.17 10.1141 100.17 10.4818 100.17 11.0335C100.17 11.953 100.17 13.4241 100.353 14.7114C101.997 15.4469 102.728 15.8147 104.007 16.9181C104.555 17.2858 104.738 17.4697 104.738 17.8375C104.738 18.0214 104.555 18.3892 104.007 19.4925C103.642 20.0442 103.459 20.2281 103.276 20.2281C103.094 20.2281 103.094 20.2281 102.363 19.6764C101.815 19.1248 101.266 18.757 100.353 18.2053C100.17 20.2281 98.5255 21.5154 95.7846 21.5154ZM95.6019 16.3664C94.5056 16.3664 93.5919 16.9181 93.5919 17.8375C93.5919 18.5731 94.3228 19.1248 95.4192 19.1248C96.6983 19.1248 97.4292 18.3892 97.4292 17.102C97.4292 16.9181 97.4292 16.7342 97.4292 16.7342C97.0637 16.3664 96.3328 16.3664 95.6019 16.3664ZM104.738 9.37849C104.373 9.74627 104.373 9.93017 104.19 9.93017C104.007 9.93017 104.007 9.93017 103.825 9.74627C103.276 9.1946 102.363 8.45903 101.449 7.90735C100.901 7.53957 100.901 7.53957 99.8046 6.98789C99.4392 6.804 99.2564 6.804 99.2564 6.62011C99.2564 6.43622 99.4392 6.25233 99.8046 5.70065C100.353 4.78119 100.536 4.78119 100.718 4.78119C101.266 4.78119 102.911 5.70065 104.373 6.62011C105.469 7.35568 105.652 7.53957 105.652 7.90735C105.652 7.90735 105.286 8.64292 104.738 9.37849Z" fill="#191919"/>
<path d="M121.897 6.25211C120.801 6.25211 119.705 6.436 118.791 6.436C117.695 6.436 117.695 6.436 117.695 6.25211C117.695 6.06822 117.512 5.14876 117.512 4.41319C117.512 4.2293 117.512 4.2293 117.512 3.86151C118.608 3.86151 119.156 3.86151 119.705 3.86151C120.253 3.86151 121.166 3.86151 121.897 3.86151C122.08 2.39038 122.08 2.0226 122.08 1.47092C122.08 1.28703 122.08 1.10314 122.08 0.735352C123.176 0.735352 124.09 0.919244 124.821 0.919244C125.004 0.919244 125.186 1.10314 125.186 1.28703C125.186 1.47092 125.186 1.47092 125.004 1.8387C124.821 2.39038 124.638 2.94205 124.638 3.67762C126.283 3.49373 128.11 3.30984 128.841 3.12595C129.572 2.94205 130.12 2.94205 130.12 2.94205C130.668 2.94205 131.034 2.75816 131.216 2.75816C131.216 2.75816 131.216 2.75816 131.399 2.75816C131.582 2.75816 131.582 2.94205 131.582 2.94205C131.582 3.30984 131.764 4.2293 131.764 4.78097C131.764 5.14876 131.764 5.33265 131.399 5.33265C129.937 5.70043 127.014 6.06822 124.455 6.25211C124.455 6.436 124.455 6.436 124.455 6.61989C124.455 7.17157 124.455 7.17157 124.455 8.27492C125.552 8.09103 126.465 7.90714 127.744 7.90714C127.927 7.17157 127.927 6.98768 127.927 6.436C129.754 6.80379 130.668 7.17157 130.668 7.53935C130.668 7.72325 130.668 7.72325 130.485 8.09103C130.485 8.27492 130.303 8.27492 130.303 8.45881C133.409 9.19438 135.419 11.585 135.419 14.5272C135.419 17.2856 133.957 19.3084 131.216 20.7796C130.12 21.3313 128.658 21.8829 128.293 21.8829C128.11 21.8829 127.744 21.699 127.744 21.5151C127.196 20.7796 126.831 20.4118 126.1 19.8601C128.658 19.3084 129.937 18.9407 131.034 17.8373C132.13 16.9178 132.678 15.8145 132.678 14.3434C132.678 12.3205 131.582 10.8494 129.572 10.2977C127.927 13.6078 127.014 15.0789 125.186 16.9178C125.369 17.2856 125.369 17.6534 125.552 18.0212C125.734 18.2051 125.734 18.2051 125.734 18.389C125.734 18.5729 125.552 18.7568 125.004 18.9407C124.455 19.3084 123.725 19.4923 123.359 19.4923C123.176 19.4923 123.176 19.4923 122.811 18.5729C121.349 19.4923 119.887 20.044 118.425 20.044C116.781 20.044 115.685 18.7568 115.685 16.734C115.685 13.6078 117.877 10.6655 121.532 8.8266C121.715 7.90714 121.715 6.80379 121.897 6.25211ZM118.425 16.5501C118.425 17.1017 118.791 17.4695 119.339 17.4695C120.253 17.4695 121.349 16.9178 122.445 16.1823C122.08 14.5272 121.897 13.4239 121.897 11.585C119.705 13.24 118.425 15.0789 118.425 16.5501ZM127.014 9.74606C125.917 9.92995 125.369 9.92995 124.273 10.2977C124.273 11.9528 124.455 12.8722 124.638 13.9756C125.552 12.8722 126.283 11.585 127.014 9.74606Z" fill="#191919"/>
<path d="M150.218 1.28795C150.767 1.47184 150.949 1.65573 150.949 1.83963C150.949 2.02352 150.949 2.02352 150.767 2.3913C150.584 3.12687 150.218 4.41411 150.218 6.06914C150.036 10.1148 149.853 13.057 149.853 15.4476C149.853 16.1832 149.853 16.7349 150.036 17.2866C150.401 18.206 151.315 18.7577 152.594 18.7577C154.787 18.7577 156.797 17.8382 158.807 15.9993C159.72 15.0798 160.268 14.5282 161.182 13.057C161.365 13.7926 161.547 14.3443 162.096 15.4476C162.096 15.6315 162.278 15.8154 162.278 15.9993C162.278 16.3671 161.73 17.1027 160.634 18.206C158.258 20.4127 155.517 21.5161 152.777 21.5161C150.949 21.5161 149.488 20.9644 148.757 20.2288C147.843 19.3094 147.478 18.0221 147.478 15.4476C147.478 13.6087 147.478 12.1376 147.66 6.25303C147.66 5.33357 147.66 4.96579 147.66 4.59801C147.66 2.57519 147.66 1.83963 147.478 0.920166C148.574 1.10406 149.488 1.10406 150.218 1.28795Z" fill="#191919"/>
<path d="M180.919 14.3437C178.543 15.8148 177.812 16.5504 177.812 17.6537C177.812 18.0215 177.995 18.3893 178.36 18.5732C178.909 18.941 180.005 19.1248 181.65 19.1248C182.929 19.1248 184.756 18.941 186.035 18.7571C186.583 18.7571 186.766 18.5732 187.862 18.3893C187.862 18.3893 187.862 18.3893 188.045 18.3893C188.228 18.3893 188.41 18.5732 188.41 18.7571C188.593 19.3087 188.593 20.0443 188.593 20.9638C188.593 21.3316 188.41 21.5154 188.228 21.5154C187.679 21.6993 184.939 21.6993 183.111 21.6993C180.188 21.6993 178.543 21.5154 177.447 20.9638C175.985 20.4121 175.254 19.3087 175.254 17.6537C175.254 16.1826 175.985 14.8953 177.264 13.9759C178.36 13.0564 178.543 13.0564 180.736 11.7692C180.553 11.0336 180.188 10.6658 179.457 10.6658C178.543 10.6658 177.447 11.0336 176.168 11.7692C175.437 12.3208 174.706 12.8725 174.158 13.4242C173.427 14.1598 173.427 14.1598 173.244 14.1598C173.061 14.1598 172.513 13.6081 171.965 12.6886C171.782 12.3208 171.6 11.9531 171.6 11.7692C171.6 11.5853 171.6 11.5853 172.148 11.2175C174.158 9.93025 175.802 8.09133 176.899 6.4363C175.254 6.62019 174.341 6.62019 173.244 6.62019C172.879 6.62019 172.879 6.62019 172.696 6.06852C172.696 5.70073 172.513 4.41349 172.513 3.86181C173.427 4.04571 173.792 4.04571 175.071 4.04571C175.985 4.04571 177.081 4.04571 178.178 4.04571C178.726 2.57457 178.909 1.839 178.909 0.551758C181.101 0.919542 182.015 1.28733 182.015 1.65511C182.015 1.839 182.015 1.839 181.832 2.02289C181.65 2.20679 181.467 2.57457 181.101 3.31014C181.101 3.49403 181.101 3.49403 181.101 3.49403C182.563 3.31014 183.66 3.12625 184.573 2.94235C185.121 2.75846 185.304 2.75846 185.304 2.75846C185.487 2.75846 185.67 2.75846 185.67 2.94235C185.852 3.31014 185.852 4.59738 185.852 4.78127C185.852 4.96517 185.67 5.14906 185.487 5.33295C184.756 5.51684 182.015 5.88463 179.822 6.25241C179.091 7.53965 178.543 8.45912 177.812 9.19468C178.909 8.64301 179.822 8.45911 180.736 8.45911C181.832 8.45911 182.563 9.01079 183.111 10.4819C185.487 9.19468 186.766 8.45912 186.949 8.27522C188.045 7.53965 188.593 7.17187 189.141 6.62019C190.055 7.72355 191.151 9.19468 191.151 9.56247C191.151 9.74636 190.969 9.74636 190.786 9.93025C189.507 10.298 187.314 11.2175 183.66 13.0564C183.66 13.4242 183.66 14.7114 183.66 15.447C183.66 15.6309 183.66 15.8148 183.66 15.9987C183.66 16.1826 183.66 16.1826 183.66 16.1826V16.5504C183.66 16.9181 183.66 16.9181 183.477 17.102C183.294 17.2859 182.746 17.2859 182.015 17.2859C181.101 17.2859 181.101 17.2859 181.101 16.7343C181.101 16.7343 181.101 16.7343 181.101 16.5504C180.919 15.9987 180.919 15.0792 180.919 14.3437Z" fill="#191919"/>
<path d="M203.943 16.9182C203.943 16.5504 203.943 16.3665 203.943 16.1826C203.395 18.3893 202.846 19.6766 201.933 21.3316C201.202 20.4121 200.654 19.8605 200.105 19.3088C201.75 16.9182 202.298 14.1598 202.298 9.01083C202.298 8.27526 202.298 7.53969 202.298 6.98802C202.115 7.17191 202.115 7.17191 201.933 7.17191C201.385 6.25245 201.019 5.70077 200.288 4.9652C201.933 4.04574 203.029 3.31018 204.308 2.20683C205.222 1.47126 205.77 0.73569 206.318 0.00012207H208.876C210.155 1.47126 211.617 2.57461 213.993 3.67796C213.444 4.59742 213.079 4.9652 212.714 6.06856C211.8 5.51688 211.434 5.33299 210.886 4.9652V6.06856C210.521 6.06856 210.155 6.06856 209.607 6.06856H206.318C205.587 6.06856 205.405 6.06856 205.039 6.06856V5.33299C204.125 6.06856 203.395 6.62023 203.029 6.98802C203.76 6.98802 204.125 6.98802 205.039 6.98802H210.886C211.8 6.98802 212.165 6.98802 212.714 6.98802C212.714 7.53969 212.714 8.09137 212.714 8.82693V12.6887C212.714 13.6081 212.714 13.9759 212.714 14.5276C211.983 14.5276 211.8 14.5276 211.069 14.5276H204.856C204.856 14.8954 204.856 15.2632 204.674 15.447C205.039 15.447 205.222 15.447 205.953 15.447H211.434C212.165 15.447 212.531 15.447 213.079 15.447C213.079 15.9987 213.079 16.3665 213.079 17.1021V19.8605C213.079 20.596 213.079 21.1477 213.262 21.6994H210.886V20.9638H207.232V22.0672H204.856C204.856 21.5155 205.039 20.9638 205.039 20.2282V16.9182H203.943ZM204.491 11.5853C204.491 11.9531 204.491 12.137 204.308 12.5048H209.607V11.5853H204.491ZM209.607 9.7464V8.82693H204.491V9.7464H209.607ZM209.059 4.41353C209.242 4.41353 209.242 4.41353 209.424 4.41353C208.511 3.67796 208.145 3.31018 207.415 2.39072C206.866 3.12629 206.501 3.49407 205.77 4.41353H205.953H209.059ZM206.135 18.941H209.79V17.1021H206.135V18.941ZM216.368 2.02293C216.185 2.57461 216.185 3.31018 216.185 4.41353V13.792C216.185 15.2632 216.185 15.6309 216.368 16.3665H213.81C213.81 15.6309 213.993 15.0793 213.993 13.792V4.59742C213.993 3.49407 213.993 2.7585 213.81 2.02293H216.368ZM221.302 0.367906C221.119 1.10347 221.119 1.83904 221.119 3.12629V18.7571C221.119 20.9638 220.571 21.5155 217.647 21.5155C217.099 21.5155 217.099 21.5155 215.454 21.5155C215.272 20.4121 215.272 19.8605 214.906 18.941C215.82 19.1249 216.916 19.1249 217.647 19.1249C218.561 19.1249 218.744 18.941 218.744 18.3893V3.31018C218.744 1.83904 218.744 1.10347 218.561 0.367906H221.302Z" fill="#191919"/>
<path d="M242.313 9.01141C245.785 9.01141 248.161 11.402 248.161 14.7121C248.161 16.9188 246.881 19.1255 244.872 20.2288C243.41 21.1483 241.765 21.5161 239.755 21.5161C236.649 21.5161 234.822 20.2288 234.822 18.206C234.822 16.1832 236.466 14.896 238.659 14.896C240.669 14.896 242.313 15.9993 243.227 18.206C244.506 17.2866 245.054 16.3671 245.054 15.0798C245.054 13.057 243.592 11.5859 241.217 11.5859C238.842 11.5859 236.283 12.8731 234.091 14.896C233.725 15.2637 233.36 15.6315 232.812 16.1832C232.629 16.3671 232.446 16.551 232.446 16.551C232.081 16.551 230.253 14.896 230.253 14.3443C230.253 14.1604 230.436 13.9765 230.802 13.6087C231.35 13.2409 232.081 12.5054 233.177 11.402C235.552 9.1953 237.197 7.17249 239.755 4.04633C236.649 4.41411 234.639 4.7819 233.908 4.96579C233.725 4.96579 233.725 4.96579 233.725 4.96579C233.542 4.96579 233.36 4.7819 233.177 4.41411C232.812 3.67855 232.812 2.94298 232.629 1.83963C233.36 2.02352 233.725 2.02352 234.273 2.02352C235.37 2.02352 237.38 1.83963 239.938 1.47184C240.852 1.28795 241.217 1.28795 241.765 1.10406C241.948 0.920166 242.131 0.920166 242.313 0.920166C242.679 0.920166 243.044 1.28795 243.592 2.20741C244.141 2.75909 244.141 3.12687 244.141 3.31076C244.141 3.67855 244.141 3.67855 243.592 4.04633C243.227 4.23022 242.862 4.59801 242.313 5.14968C241.034 6.25303 241.034 6.25303 239.572 7.90806C238.476 9.01141 238.293 9.1953 237.38 10.1148C239.572 9.3792 240.852 9.01141 242.313 9.01141ZM239.938 17.4704C239.572 17.2866 239.207 17.1027 238.659 17.1027C237.928 17.1027 237.38 17.4704 237.38 18.0221C237.38 18.7577 238.111 19.1255 239.39 19.1255C239.938 19.1255 240.303 19.1255 241.034 18.9416C240.669 18.206 240.486 17.8382 239.938 17.4704Z" fill="#191919"/>
<path d="M264.059 18.3899C264.059 20.4127 262.414 22.0677 260.404 22.0677C258.394 22.0677 256.75 20.4127 256.75 18.3899C256.75 16.3671 258.394 14.712 260.404 14.712C262.414 14.712 264.059 16.3671 264.059 18.3899ZM258.029 18.3899C258.029 19.6771 259.125 20.5966 260.221 20.5966C261.318 20.5966 262.414 19.4932 262.414 18.3899C262.414 17.1026 261.318 16.1832 260.221 16.1832C259.125 16.1832 258.029 17.1026 258.029 18.3899Z" fill="#191919"/>
</svg>
