<svg width="235" height="20" viewBox="0 0 235 20" fill="none" xmlns="http://www.w3.org/2000/svg">
<path d="M5.22875 0.983886C6.20656 0.819879 7.18436 0.655871 7.9992 0.655871C8.4881 0.655871 8.65107 0.819879 8.65107 1.14789C8.65107 1.3119 8.65107 1.3119 8.65107 1.47591C8.65107 1.63992 8.65107 1.80392 8.65107 1.96793C8.65107 2.45995 8.65107 2.78797 8.97701 4.26404C11.2586 3.93602 13.0512 3.444 13.866 3.27999C14.029 3.27999 14.029 3.27999 14.192 3.27999C14.3549 3.27999 14.3549 3.444 14.5179 3.77201C14.6809 4.10003 14.8438 5.24808 14.8438 5.41209C14.8438 5.7401 14.6809 5.7401 13.866 5.7401C13.0512 5.7401 12.7253 5.90411 9.30294 6.39613C9.62888 8.36422 9.62888 8.36422 9.79185 9.34827C10.2807 9.18426 10.2807 9.18426 10.7697 9.18426C13.0512 8.85624 14.5179 8.52823 15.4957 8.36422C15.8216 8.20021 15.9846 8.20021 16.1476 8.20021C16.3105 8.20021 16.3105 8.20021 16.4735 8.36422C16.6365 8.85624 16.7995 10.0043 16.7995 10.3323C16.7995 10.4963 16.7995 10.4963 16.1476 10.6603C15.8216 10.6603 15.8216 10.6603 15.0068 10.8243C13.866 11.1523 13.866 11.1523 10.2807 11.8084C10.9326 14.4325 10.9326 14.4325 11.5845 17.7126C11.5845 17.8767 11.5845 18.0407 11.5845 18.0407C11.5845 18.2047 11.4215 18.3687 11.0956 18.5327C10.4437 18.6967 9.30294 19.0247 8.97701 19.0247C8.81404 19.0247 8.65107 19.0247 8.65107 18.5327C8.81404 17.3846 8.32514 15.4165 7.83623 12.1364C3.43611 12.9564 3.11017 13.1204 1.80643 13.6125C1.4805 13.6125 1.4805 13.6125 1.31753 13.6125C1.15456 13.6125 0.991596 13.6125 0.991596 13.2844C0.665661 12.7924 0.502693 12.1364 0.176758 10.9883C1.31753 10.9883 2.4583 10.8243 7.34733 10.0043C7.18436 8.69224 7.0214 7.70819 6.85843 6.88815C2.78424 7.70819 2.78424 7.70819 1.80643 8.03621C1.64347 8.03621 1.64347 8.03621 1.4805 8.03621C1.15456 8.03621 1.15456 8.03621 0.502693 5.41209C1.64347 5.41209 1.64347 5.41209 6.36953 4.59205C6.04359 3.11598 5.71766 1.80392 5.22875 0.983886Z" fill="#191919"/>
<path d="M26.903 5.90449C26.903 4.42843 26.903 3.44438 26.7401 2.13232C27.8808 2.13232 28.6957 2.29633 29.5105 2.46034C29.8365 2.62435 29.9994 2.62435 29.9994 2.78835C29.9994 2.95236 29.9994 2.95236 29.8365 3.28038C29.5105 4.10041 29.5105 4.10041 29.5105 13.9409C32.7699 12.7928 34.5625 11.9728 36.8441 10.1687C38.1478 9.34865 38.9626 8.52861 39.9404 7.38056C39.9404 7.54457 39.9404 7.54457 39.9404 7.54457C39.9404 8.36461 39.9404 9.02064 40.1034 10.0047C40.1034 10.1687 40.1034 10.3327 40.1034 10.3327C40.1034 10.6607 39.7775 10.9887 38.6367 11.9728C37.6589 13.1208 35.7033 14.2689 34.3995 14.9249C33.2588 15.5809 32.118 16.073 30.4883 16.565C29.9994 16.729 29.6735 16.893 29.3476 17.057C29.1846 17.221 29.0216 17.221 28.8587 17.221C28.2068 17.221 26.7401 15.7449 26.7401 15.0889C26.7401 14.9249 26.7401 14.9249 26.7401 14.5969C26.903 14.2689 26.903 13.9409 26.903 13.1208V5.90449Z" fill="#191919"/>
<path d="M59.8234 11.6449C59.8234 14.433 59.8234 16.4011 59.9864 17.8772V18.0412C59.9864 18.2052 59.9864 18.3692 59.6605 18.3692C59.3345 18.3692 58.5197 18.5332 57.7049 18.5332C57.053 18.5332 56.89 18.5332 56.89 18.0412C56.89 18.0412 56.89 18.0412 56.89 17.8772C57.053 16.7291 57.053 14.269 57.053 11.4809V8.69275C55.5863 9.6768 54.7714 10.1688 53.6307 10.8248C52.001 11.6449 51.3491 11.9729 51.0232 11.9729C50.8602 11.9729 50.6973 11.9729 50.5343 11.8089C49.8824 11.1529 49.5565 10.8248 48.7416 10.1688C51.5121 9.18477 53.1418 8.36474 55.0974 7.21668C57.5419 5.74062 59.9864 3.60852 61.4531 1.96845C61.7791 1.64043 61.942 1.47642 62.105 0.9844C63.4087 1.96845 64.3865 2.78848 64.3865 3.2805C64.3865 3.44451 64.2236 3.44451 64.0606 3.60852C63.7347 3.77253 63.5717 3.93653 62.4309 4.75657C61.4531 5.57661 60.4753 6.39665 59.6605 7.05268V11.6449H59.8234Z" fill="#191919"/>
<path d="M77.7498 6.5603C77.4239 6.5603 77.0979 6.5603 76.935 6.5603C76.772 6.5603 76.772 6.5603 76.772 6.5603C76.609 6.5603 76.4461 6.5603 76.4461 6.23228C76.2831 5.90427 76.1201 4.75622 76.1201 4.10019C76.2831 4.10019 76.935 4.10019 77.7498 4.10019C77.9128 4.10019 79.7054 3.93618 80.5202 3.93618C80.8462 2.1321 81.0091 1.31206 81.0091 0C83.2907 0.328015 84.1055 0.492022 84.1055 0.984045C84.1055 1.14805 84.1055 1.14805 83.7796 1.64007C83.2907 2.1321 83.2907 2.46011 82.9648 3.77217C83.9426 3.60816 84.5944 3.44416 85.4093 3.11614C85.5722 3.11614 85.5722 3.11614 85.7352 3.11614C85.8982 3.11614 85.8982 3.28015 86.0611 3.93618C86.2241 4.4282 86.2241 4.92022 86.2241 5.24824C86.2241 5.57625 86.2241 5.57625 85.5723 5.74026C84.7574 5.90427 83.6166 6.06828 82.1499 6.23228C81.3351 8.6924 80.8462 10.0045 79.8684 12.1366C79.0535 13.6126 78.7276 14.4327 78.0757 15.4167C77.9128 15.7447 77.7498 15.7447 77.5868 15.7447C77.4239 15.7447 76.772 15.4167 75.9572 14.9247C75.6312 14.7607 75.4683 14.5967 75.4683 14.4327C75.4683 14.2687 75.6312 14.1046 75.7942 13.7766C76.4461 12.9566 77.2609 11.6445 77.9128 10.1685C78.5646 9.02041 78.7276 8.52839 79.3795 6.72431C78.7276 6.5603 78.7276 6.5603 77.7498 6.5603ZM84.9204 19.1889C82.4759 19.1889 81.0091 17.8768 81.0091 15.9087C81.0091 13.9406 82.6388 12.3006 84.9204 12.3006C85.4093 12.3006 85.7352 12.3006 86.55 12.4646C86.3871 11.4805 86.3871 10.9885 86.3871 9.02041C86.3871 8.52839 86.3871 8.03637 86.2241 7.38034C87.3649 7.54434 88.1797 7.54434 88.6686 7.87236C88.8316 7.87236 88.9946 8.03637 88.9946 8.20037C88.9946 8.36438 88.9946 8.36438 88.9946 8.52839C88.8316 9.02041 88.8316 9.34843 88.8316 9.84045C88.8316 10.6605 88.8316 11.9725 88.9946 13.1206C90.4613 13.7766 91.1131 14.1046 92.2539 15.0887C92.7428 15.4167 92.9058 15.5807 92.9058 15.9087C92.9058 16.0727 92.7428 16.4007 92.2539 17.3848C91.928 17.8768 91.765 18.0408 91.602 18.0408C91.4391 18.0408 91.4391 18.0408 90.7872 17.5488C90.2983 17.0568 89.8094 16.7288 88.9946 16.2367C88.8316 18.0408 87.3649 19.1889 84.9204 19.1889ZM84.7574 14.5967C83.7796 14.5967 82.9648 15.0887 82.9648 15.9087C82.9648 16.5648 83.6166 17.0568 84.5944 17.0568C85.7352 17.0568 86.3871 16.4007 86.3871 15.2527C86.3871 15.0887 86.3871 14.9247 86.3871 14.9247C86.0612 14.5967 85.4093 14.5967 84.7574 14.5967ZM92.9058 8.36438C92.5799 8.6924 92.5798 8.8564 92.4169 8.8564C92.2539 8.8564 92.2539 8.8564 92.091 8.6924C91.602 8.20037 90.7872 7.54434 89.9724 7.05232C89.4835 6.72431 89.4835 6.72431 88.5057 6.23228C88.1797 6.06828 88.0168 6.06828 88.0168 5.90427C88.0168 5.74026 88.1797 5.57625 88.5057 5.08423C88.9946 4.26419 89.1575 4.26419 89.3205 4.26419C89.8094 4.26419 91.2761 5.08423 92.5798 5.90427C93.5577 6.5603 93.7206 6.72431 93.7206 7.05232C93.7206 7.05232 93.3947 7.70835 92.9058 8.36438Z" fill="#191919"/>
<path d="M108.211 5.5761C107.233 5.5761 106.255 5.7401 105.44 5.7401C104.463 5.7401 104.463 5.7401 104.463 5.5761C104.463 5.41209 104.3 4.59205 104.3 3.93602C104.3 3.77201 104.3 3.77201 104.3 3.444C105.278 3.444 105.766 3.444 106.255 3.444C106.744 3.444 107.559 3.444 108.211 3.444C108.374 2.13194 108.374 1.80392 108.374 1.3119C108.374 1.14789 108.374 0.983886 108.374 0.655871C109.352 0.655871 110.167 0.819879 110.818 0.819879C110.981 0.819879 111.144 0.983886 111.144 1.14789C111.144 1.3119 111.144 1.3119 110.981 1.63992C110.818 2.13194 110.655 2.62396 110.655 3.27999C112.122 3.11598 113.752 2.95198 114.404 2.78797C115.056 2.62396 115.544 2.62396 115.544 2.62396C116.033 2.62396 116.359 2.45995 116.522 2.45995C116.522 2.45995 116.522 2.45995 116.685 2.45995C116.848 2.45995 116.848 2.62396 116.848 2.62396C116.848 2.95198 117.011 3.77201 117.011 4.26404C117.011 4.59205 117.011 4.75606 116.685 4.75606C115.382 5.08407 112.774 5.41209 110.493 5.5761C110.493 5.7401 110.493 5.7401 110.493 5.90411C110.493 6.39613 110.493 6.39613 110.493 7.38018C111.47 7.21617 112.285 7.05216 113.426 7.05216C113.589 6.39613 113.589 6.23213 113.589 5.7401C115.219 6.06812 116.033 6.39613 116.033 6.72415C116.033 6.88816 116.033 6.88815 115.87 7.21617C115.87 7.38018 115.707 7.38018 115.707 7.54419C118.478 8.20022 120.271 10.3323 120.271 12.9564C120.271 15.4165 118.967 17.2206 116.522 18.5327C115.544 19.0247 114.241 19.5167 113.915 19.5167C113.752 19.5167 113.426 19.3527 113.426 19.1887C112.937 18.5327 112.611 18.2047 111.959 17.7126C114.241 17.2206 115.382 16.8926 116.359 15.9086C117.337 15.0885 117.826 14.1045 117.826 12.7924C117.826 10.9883 116.848 9.67628 115.056 9.18426C113.589 12.1364 112.774 13.4485 111.144 15.0885C111.307 15.4165 111.307 15.7446 111.47 16.0726C111.633 16.2366 111.633 16.2366 111.633 16.4006C111.633 16.5646 111.47 16.7286 110.981 16.8926C110.492 17.2206 109.841 17.3846 109.515 17.3846C109.352 17.3846 109.352 17.3846 109.026 16.5646C107.722 17.3846 106.418 17.8767 105.115 17.8767C103.648 17.8767 102.67 16.7286 102.67 14.9245C102.67 12.1364 104.626 9.51227 107.885 7.8722C108.048 7.05216 108.048 6.06812 108.211 5.5761ZM105.115 14.7605C105.115 15.2525 105.441 15.5806 105.929 15.5806C106.744 15.5806 107.722 15.0885 108.7 14.4325C108.374 12.9564 108.211 11.9724 108.211 10.3323C106.255 11.8084 105.115 13.4485 105.115 14.7605ZM112.774 8.69224C111.796 8.85625 111.307 8.85625 110.33 9.18426C110.33 10.6603 110.492 11.4804 110.655 12.4644C111.47 11.4804 112.122 10.3323 112.774 8.69224Z" fill="#191919"/>
<path d="M133.469 1.1486C133.958 1.3126 134.121 1.47661 134.121 1.64062C134.121 1.80463 134.121 1.80463 133.958 2.13264C133.795 2.78867 133.469 3.93672 133.469 5.41279C133.306 9.02095 133.143 11.6451 133.143 13.7772C133.143 14.4332 133.144 14.9252 133.306 15.4172C133.632 16.2373 134.447 16.7293 135.588 16.7293C137.544 16.7293 139.336 15.9093 141.129 14.2692C141.944 13.4492 142.433 12.9571 143.247 11.6451C143.41 12.3011 143.573 12.7931 144.062 13.7772C144.062 13.9412 144.225 14.1052 144.225 14.2692C144.225 14.5972 143.736 15.2532 142.759 16.2373C140.64 18.2054 138.196 19.1894 135.751 19.1894C134.121 19.1894 132.818 18.6974 132.166 18.0414C131.351 17.2213 131.025 16.0733 131.025 13.7772C131.025 12.1371 131.025 10.825 131.188 5.5768C131.188 4.75676 131.188 4.42874 131.188 4.10073C131.188 2.29665 131.188 1.64062 131.025 0.820581C132.003 0.984588 132.818 0.984588 133.469 1.1486Z" fill="#191919"/>
<path d="M160.85 12.7926C158.732 14.1047 158.08 14.7607 158.08 15.7447C158.08 16.0728 158.243 16.4008 158.569 16.5648C159.058 16.8928 160.035 17.0568 161.502 17.0568C162.643 17.0568 164.273 16.8928 165.413 16.7288C165.902 16.7288 166.065 16.5648 167.043 16.4008C167.043 16.4008 167.043 16.4008 167.206 16.4008C167.369 16.4008 167.532 16.5648 167.532 16.7288C167.695 17.2208 167.695 17.8768 167.695 18.6969C167.695 19.0249 167.532 19.1889 167.369 19.1889C166.88 19.3529 164.436 19.3529 162.806 19.3529C160.198 19.3529 158.732 19.1889 157.754 18.6969C156.45 18.2049 155.798 17.2208 155.798 15.7447C155.798 14.4327 156.45 13.2846 157.591 12.4646C158.569 11.6446 158.732 11.6446 160.687 10.4965C160.524 9.84048 160.198 9.51246 159.547 9.51246C158.732 9.51246 157.754 9.84048 156.613 10.4965C155.961 10.9885 155.309 11.4806 154.821 11.9726C154.169 12.6286 154.169 12.6286 154.006 12.6286C153.843 12.6286 153.354 12.1366 152.865 11.3165C152.702 10.9885 152.539 10.6605 152.539 10.4965C152.539 10.3325 152.539 10.3325 153.028 10.0045C154.821 8.85643 156.287 7.21636 157.265 5.74029C155.798 5.9043 154.983 5.9043 154.006 5.9043C153.68 5.9043 153.68 5.9043 153.517 5.41228C153.517 5.08426 153.354 3.93621 153.354 3.44419C154.169 3.60819 154.495 3.60819 155.635 3.60819C156.45 3.60819 157.428 3.60819 158.406 3.60819C158.895 2.29613 159.058 1.6401 159.058 0.492052C161.013 0.820067 161.828 1.14808 161.828 1.4761C161.828 1.6401 161.828 1.6401 161.665 1.80411C161.502 1.96812 161.339 2.29613 161.013 2.95216C161.013 3.11617 161.013 3.11617 161.013 3.11617C162.317 2.95216 163.295 2.78816 164.11 2.62415C164.599 2.46014 164.762 2.46014 164.762 2.46014C164.925 2.46014 165.087 2.46014 165.087 2.62415C165.25 2.95216 165.25 4.10022 165.25 4.26422C165.25 4.42823 165.087 4.59224 164.924 4.75625C164.273 4.92025 161.828 5.24827 159.873 5.57628C159.221 6.72434 158.732 7.54437 158.08 8.2004C159.058 7.70838 159.873 7.54437 160.687 7.54437C161.665 7.54437 162.317 8.0364 162.806 9.34846C164.925 8.2004 166.065 7.54437 166.228 7.38037C167.206 6.72434 167.695 6.39632 168.184 5.9043C168.999 6.88834 169.977 8.2004 169.977 8.52842C169.977 8.69243 169.814 8.69243 169.651 8.85643C168.51 9.18445 166.554 10.0045 163.295 11.6446C163.295 11.9726 163.295 13.1206 163.295 13.7767C163.295 13.9407 163.295 14.1047 163.295 14.2687C163.295 14.4327 163.295 14.4327 163.295 14.4327V14.7607C163.295 15.0887 163.295 15.0887 163.132 15.2527C162.969 15.4167 162.48 15.4167 161.828 15.4167C161.013 15.4167 161.013 15.4167 161.013 14.9247C161.013 14.9247 161.013 14.9247 161.013 14.7607C160.85 14.2687 160.85 13.4486 160.85 12.7926Z" fill="#191919"/>
<path d="M181.384 15.0887C181.384 14.7607 181.384 14.5967 181.384 14.4327C180.895 16.4007 180.406 17.5488 179.591 19.0249C178.939 18.2048 178.45 17.7128 177.962 17.2208C179.428 15.0887 179.917 12.6286 179.917 8.03636C179.917 7.38034 179.917 6.72431 179.917 6.23228C179.754 6.39629 179.754 6.39629 179.591 6.39629C179.102 5.57625 178.776 5.08423 178.125 4.4282C179.591 3.60816 180.569 2.95213 181.71 1.96809C182.525 1.31206 183.014 0.65603 183.502 0H185.784C186.925 1.31206 188.229 2.2961 190.347 3.28015C189.858 4.10019 189.532 4.4282 189.206 5.41225C188.391 4.92022 188.066 4.75622 187.577 4.4282V5.41225C187.251 5.41225 186.925 5.41225 186.436 5.41225H183.502C182.851 5.41225 182.688 5.41225 182.362 5.41225V4.75622C181.547 5.41225 180.895 5.90427 180.569 6.23228C181.221 6.23228 181.547 6.23228 182.362 6.23228H187.577C188.391 6.23228 188.717 6.23228 189.206 6.23228C189.206 6.72431 189.206 7.21633 189.206 7.87236V11.3165C189.206 12.1366 189.206 12.4646 189.206 12.9566C188.554 12.9566 188.391 12.9566 187.74 12.9566H182.199C182.199 13.2846 182.199 13.6126 182.036 13.7766C182.362 13.7766 182.525 13.7766 183.177 13.7766H188.066C188.717 13.7766 189.043 13.7766 189.532 13.7766C189.532 14.2686 189.532 14.5967 189.532 15.2527V17.7128C189.532 18.3688 189.532 18.8609 189.695 19.3529H187.577V18.6968H184.317V19.6809H182.199C182.199 19.1889 182.362 18.6968 182.362 18.0408V15.0887H181.384ZM181.873 10.3325C181.873 10.6605 181.873 10.8245 181.71 11.1525H186.436V10.3325H181.873ZM186.436 8.6924V7.87236H181.873V8.6924H186.436ZM185.947 3.93618C186.11 3.93618 186.11 3.93618 186.273 3.93618C185.458 3.28015 185.132 2.95213 184.48 2.1321C183.991 2.78813 183.665 3.11614 183.014 3.93618H185.947ZM183.339 16.8928H186.599V15.2527H183.339V16.8928ZM192.466 1.80408C192.303 2.2961 192.303 2.95213 192.303 3.93618V12.3006C192.303 13.6126 192.303 13.9406 192.466 14.5967H190.184C190.184 13.9406 190.347 13.4486 190.347 12.3006V4.10019C190.347 3.11614 190.347 2.46011 190.184 1.80408H192.466ZM196.866 0.328015C196.703 0.984045 196.703 1.64007 196.703 2.78813V16.7288C196.703 18.6968 196.214 19.1889 193.606 19.1889C193.118 19.1889 193.118 19.1889 191.651 19.1889C191.488 18.2048 191.488 17.7128 191.162 16.8928C191.977 17.0568 192.955 17.0568 193.606 17.0568C194.421 17.0568 194.584 16.8928 194.584 16.4007V2.95213C194.584 1.64007 194.584 0.984045 194.421 0.328015H196.866Z" fill="#191919"/>
<path d="M215.606 8.03691C218.703 8.03691 220.821 10.169 220.821 13.1211C220.821 15.0892 219.68 17.0573 217.888 18.0414C216.584 18.8614 215.117 19.1894 213.325 19.1894C210.554 19.1894 208.924 18.0414 208.924 16.2373C208.924 14.4332 210.391 13.2851 212.347 13.2851C214.139 13.2851 215.606 14.2692 216.421 16.2373C217.562 15.4172 218.051 14.5972 218.051 13.4492C218.051 11.6451 216.747 10.333 214.628 10.333C212.51 10.333 210.228 11.4811 208.273 13.2851C207.947 13.6132 207.621 13.9412 207.132 14.4332C206.969 14.5972 206.806 14.7612 206.806 14.7612C206.48 14.7612 204.85 13.2851 204.85 12.7931C204.85 12.6291 205.013 12.4651 205.339 12.1371C205.828 11.8091 206.48 11.1531 207.458 10.169C209.576 8.20092 211.043 6.39683 213.325 3.60871C210.554 3.93672 208.762 4.26474 208.11 4.42875C207.947 4.42875 207.947 4.42875 207.947 4.42875C207.784 4.42875 207.621 4.26474 207.458 3.93672C207.132 3.28069 207.132 2.62466 206.969 1.64062C207.621 1.80463 207.947 1.80463 208.436 1.80463C209.413 1.80463 211.206 1.64062 213.488 1.3126C214.302 1.1486 214.628 1.1486 215.117 0.984588C215.28 0.820581 215.443 0.820581 215.606 0.820581C215.932 0.820581 216.258 1.1486 216.747 1.96863C217.236 2.46066 217.236 2.78867 217.236 2.95268C217.236 3.28069 217.236 3.28069 216.747 3.60871C216.421 3.77272 216.095 4.10073 215.606 4.59275C214.465 5.5768 214.465 5.5768 213.162 7.05286C212.184 8.03691 212.021 8.20092 211.206 9.02095C213.162 8.36492 214.302 8.03691 215.606 8.03691ZM213.488 15.5813C213.162 15.4172 212.836 15.2532 212.347 15.2532C211.695 15.2532 211.206 15.5813 211.206 16.0733C211.206 16.7293 211.858 17.0573 212.999 17.0573C213.488 17.0573 213.814 17.0573 214.465 16.8933C214.139 16.2373 213.976 15.9093 213.488 15.5813Z" fill="#191919"/>
<path d="M235 16.4014C235 18.2055 233.533 19.6816 231.741 19.6816C229.948 19.6816 228.481 18.2055 228.481 16.4014C228.481 14.5973 229.948 13.1213 231.741 13.1213C233.533 13.1213 235 14.5973 235 16.4014ZM229.622 16.4014C229.622 17.5495 230.6 18.3695 231.578 18.3695C232.556 18.3695 233.533 17.3855 233.533 16.4014C233.533 15.2534 232.556 14.4333 231.578 14.4333C230.6 14.4333 229.622 15.2534 229.622 16.4014Z" fill="#191919"/>
</svg>
