<svg width="114" height="29" viewBox="0 0 114 29" fill="none" xmlns="http://www.w3.org/2000/svg">
<g clip-path="url(#clip0)">
<path d="M21.2378 5.75838C21.2179 5.73183 21.1848 5.71855 21.1518 5.71855H18.5128C18.4665 5.71855 18.4268 5.75174 18.4136 5.7982L15.4571 16.5643C15.4372 16.6373 15.3711 16.6837 15.2983 16.6837C15.2256 16.6837 15.1594 16.6306 15.1396 16.5643L12.1897 5.79156C12.1765 5.7451 12.1368 5.71191 12.0905 5.71191H9.57055C9.52425 5.71191 9.48457 5.7451 9.47134 5.79156L6.51485 16.5576C6.49501 16.6306 6.42887 16.6771 6.35611 16.6771C6.28336 16.6771 6.21722 16.624 6.19738 16.5576L3.83616 7.96867C3.39301 6.34912 3.0094 5.71855 1.67997 5.71855H0.105825C0.0462984 5.71855 0 5.76501 0 5.82475V8.18107C0 8.24081 0.0462984 8.28727 0.105825 8.28727H0.377002C1.11116 8.28727 1.15746 8.44657 1.42864 9.36919L5.00023 21.5623C5.01346 21.6088 5.05314 21.6353 5.09944 21.6353H7.6194C7.6657 21.6353 7.70538 21.6021 7.71861 21.5557L10.6751 10.8958C10.6949 10.8228 10.7611 10.7763 10.8338 10.7763C10.9066 10.7763 10.9727 10.8228 10.9926 10.8958L13.8829 21.3366L13.9557 21.5557C13.9689 21.6021 14.0086 21.6287 14.0549 21.6287H16.555C16.6013 21.6287 16.641 21.5955 16.6542 21.5557L21.2576 5.85794C21.2642 5.81811 21.2576 5.78493 21.2378 5.75838Z" fill="#191919"/>
<path d="M54.2616 21.9207C53.1968 21.9207 52.3303 21.5623 51.7483 20.8919C51.1596 20.2082 50.8554 19.2325 50.8554 17.9913V3.13654C50.8554 2.99715 50.743 2.88431 50.6041 2.88431H49.6053C49.5458 2.88431 49.4995 2.83785 49.4995 2.77811V0.36206C49.4995 0.302322 49.5458 0.255859 49.6053 0.255859H53.4547C53.4812 0.255859 53.5076 0.269134 53.5275 0.289047C53.5473 0.308959 53.5606 0.33551 53.5606 0.36206V17.0023C53.5606 17.7723 53.5606 18.5024 54.0434 18.9006C54.2881 19.0998 54.632 19.1993 55.1016 19.1993C55.3464 19.1993 55.6374 19.1728 55.9549 19.113C55.9615 19.113 55.9681 19.113 55.9747 19.113C56.0011 19.113 56.021 19.1197 56.0408 19.1396C56.0673 19.1595 56.0805 19.1927 56.0805 19.2192L56.021 21.6884C56.021 21.7415 55.9813 21.7813 55.9284 21.788L55.3662 21.8543C55.3067 21.861 54.8172 21.9207 54.2616 21.9207Z" fill="#191919"/>
<path d="M67.5956 21.9207C66.5308 21.9207 65.6643 21.5623 65.0823 20.8919C64.4936 20.2082 64.1894 19.2325 64.1894 17.9913V3.13654C64.1894 2.99715 64.0769 2.88431 63.938 2.88431H62.9393C62.8798 2.88431 62.8335 2.83785 62.8335 2.77811V0.36206C62.8335 0.302322 62.8798 0.255859 62.9393 0.255859H66.7887C66.8152 0.255859 66.8416 0.269134 66.8615 0.289047C66.8813 0.308959 66.8945 0.33551 66.8945 0.36206V17.0023C66.8945 17.7723 66.8945 18.5024 67.3774 18.9006C67.6221 19.0998 67.966 19.1993 68.4356 19.1993C68.6803 19.1993 68.9714 19.1728 69.2888 19.113C69.2955 19.113 69.3021 19.113 69.3087 19.113C69.3351 19.113 69.355 19.1197 69.3748 19.1396C69.4013 19.1595 69.4145 19.1927 69.4145 19.2192L69.355 21.6884C69.355 21.7415 69.3153 21.7813 69.2624 21.788L68.7002 21.8543C68.6407 21.861 68.1512 21.9207 67.5956 21.9207Z" fill="#191919"/>
<path d="M84.131 21.9141C82.2262 21.9141 80.619 21.403 79.488 20.4273C78.0593 19.206 77.2061 17.2081 77.0143 14.646V14.6394C76.9614 14.0951 76.9614 13.4977 77.0143 12.7477C77.2259 9.90021 78.2048 7.84258 79.9112 6.63456C81.3597 5.61238 83.0066 5.45972 83.8598 5.45972C84.303 5.45972 84.7527 5.49954 85.1893 5.57255C86.1152 5.73185 86.9486 6.05709 87.6695 6.53499C88.5889 7.13901 89.3429 8.03507 89.8456 9.12362C90.3284 10.1657 90.6128 11.3804 90.7186 12.8406C90.7385 13.1659 90.7517 13.511 90.7583 13.8827C90.7583 13.9093 90.7451 13.9358 90.7252 13.9557C90.7054 13.9756 90.6789 13.9889 90.6525 13.9889H80.0435C79.9708 13.9889 79.9046 14.0155 79.8583 14.0686C79.812 14.1217 79.7856 14.188 79.7922 14.2611C79.7922 14.2876 79.7988 14.3208 79.7988 14.354L79.8054 14.4336C79.984 16.79 80.7843 18.2701 82.1931 18.8277C82.7619 19.0533 83.4564 19.1728 84.2435 19.1728C85.5597 19.1728 87.1272 18.8277 88.3309 18.2768C88.3442 18.2701 88.3574 18.2701 88.3772 18.2701C88.3971 18.2701 88.4169 18.2768 88.4302 18.2834C88.4632 18.3033 88.4765 18.3365 88.4765 18.3697C88.4831 18.7215 88.4831 19.5047 88.4831 21.0645C88.4831 21.111 88.4566 21.1508 88.4103 21.1641C87.0081 21.6486 85.4869 21.9141 84.131 21.9141ZM83.8135 8.27402C81.8029 8.2873 80.619 9.22319 80.0832 11.2211C80.0634 11.2941 80.0766 11.3804 80.1295 11.4401C80.1758 11.4999 80.2486 11.5397 80.3279 11.5397H87.3918C87.4711 11.5397 87.5439 11.4999 87.5902 11.4401C87.6365 11.3804 87.6563 11.2941 87.6365 11.2211C87.114 9.24974 85.9499 8.31385 83.9855 8.27402C83.9855 8.27402 83.9855 8.27402 83.9789 8.27402C83.9723 8.27402 83.9657 8.27402 83.9591 8.27402H83.9458C83.9194 8.27402 83.8268 8.27402 83.8202 8.27402C83.8202 8.27402 83.8202 8.27402 83.8135 8.27402Z" fill="#191919"/>
<path d="M104.714 28.5383C103.358 28.5383 101.837 28.2728 100.428 27.7883C100.388 27.775 100.355 27.7352 100.355 27.6887V26.2749C100.355 25.6112 100.355 25.2129 100.355 24.9939C100.355 24.9607 100.375 24.9275 100.401 24.9076C100.421 24.8943 100.441 24.8943 100.454 24.8943C100.468 24.8943 100.481 24.8943 100.501 24.9009C101.711 25.4519 103.279 25.797 104.595 25.797C105.388 25.797 106.076 25.6842 106.645 25.4519C108.027 24.9009 108.828 23.4606 109.02 21.1773C109.026 21.0844 108.98 20.9915 108.9 20.9384C108.861 20.9118 108.814 20.8985 108.768 20.8985C108.722 20.8985 108.676 20.9118 108.636 20.9384C107.326 21.7548 105.918 21.9273 104.972 21.9273C103.927 21.9273 102.392 21.7216 101.017 20.7525C99.3035 19.5445 98.3312 17.4868 98.1195 14.646V14.6394C98.1063 14.4933 98.0931 14.334 98.0865 14.1814L98.0799 14.0022C98.0799 13.9955 98.0799 13.9557 98.0799 13.9491V13.8893C98.0799 13.8229 98.0732 13.7632 98.0732 13.6968C98.0732 13.6305 98.0732 13.5707 98.0799 13.5043C98.0799 13.5043 98.0799 13.4446 98.0799 13.438V13.3185V13.3118C98.0799 13.2919 98.0865 13.2123 98.0865 13.2056C98.0931 13.053 98.1063 12.9003 98.1195 12.7543V12.7477C98.3312 9.90017 99.3101 7.84254 101.017 6.64115C102.465 5.61897 104.112 5.46631 104.965 5.46631C106.361 5.46631 108.934 5.83801 110.508 8.32708C110.554 8.39345 110.627 8.43991 110.706 8.44655C110.713 8.44655 110.713 8.44655 110.719 8.44655C110.799 8.44655 110.865 8.41336 110.918 8.35363C111.341 7.82263 111.85 7.32481 112.426 6.86682C112.446 6.85355 112.465 6.84691 112.492 6.84691C112.499 6.84691 112.499 6.84691 112.505 6.84691C112.532 6.85355 112.558 6.86682 112.578 6.88674L113.967 8.69878C114 8.74524 113.993 8.81161 113.947 8.8448C113.127 9.50192 112.532 10.232 112.188 11.002C111.903 11.6392 111.883 12.1237 111.883 12.2498V16.1129C111.883 16.1262 111.883 16.1394 111.877 16.1527C111.864 16.1793 111.857 16.2124 111.857 16.2456V20.7658C111.857 20.7724 111.857 20.7724 111.857 20.7791L111.85 20.8454C111.85 20.8521 111.85 20.8587 111.85 20.8653C111.844 21.0114 111.837 21.1375 111.824 21.2636V21.2702C111.632 23.8323 110.779 25.8302 109.35 27.0515C108.226 28.0206 106.619 28.5383 104.714 28.5383ZM104.925 8.27398C102.432 8.29389 101.155 9.78069 100.917 12.9534L100.911 13.0331C100.897 13.1791 100.884 13.3251 100.878 13.4712C100.878 13.4844 100.871 13.657 100.871 13.6836C100.871 13.7101 100.878 13.876 100.878 13.896C100.884 14.042 100.891 14.1946 100.911 14.3407L100.917 14.4203C101.155 17.5997 102.432 19.0865 104.939 19.0998H104.978C107.525 19.0998 108.814 17.5864 109.033 14.3407L109.039 14.2677C109.053 14.1482 109.059 14.0221 109.059 13.8694L109.066 13.6836V13.6703L109.059 13.4844C109.053 13.3318 109.046 13.2056 109.039 13.0862L109.033 13.0132C108.814 9.82715 107.571 8.3138 105.124 8.2607L105.117 8.1545V8.2607C105.111 8.2607 105.097 8.2607 105.091 8.2607C105.084 8.2607 105.084 8.2607 105.078 8.2607C105.078 8.28061 104.945 8.27398 104.925 8.27398Z" fill="#191919"/>
<path d="M35.0812 21.9141C33.1764 21.9141 31.5692 21.403 30.4382 20.4273C29.0095 19.206 28.1563 17.2081 27.9645 14.646V14.6394C27.9116 14.0951 27.9116 13.4911 27.9645 12.7477C28.1761 9.90021 29.155 7.84258 30.8615 6.63456C32.3099 5.61238 33.9568 5.45972 34.81 5.45972C35.2532 5.45972 35.703 5.49954 36.1395 5.57255C37.0654 5.73185 37.8988 6.05709 38.6198 6.53499C39.5391 7.13901 40.2931 8.03507 40.7958 9.12362C41.2786 10.1657 41.563 11.3804 41.6688 12.8406C41.6887 13.1659 41.7019 13.5044 41.7085 13.8827C41.7085 13.9093 41.6953 13.9358 41.6755 13.9557C41.6556 13.9756 41.6292 13.9889 41.6027 13.9889H30.9937C30.921 13.9889 30.8548 14.0155 30.8085 14.0686C30.7622 14.1217 30.7358 14.188 30.7424 14.2611C30.7424 14.2876 30.749 14.3208 30.749 14.354L30.7556 14.4336C30.9342 16.79 31.7345 18.2701 33.1433 18.8277C33.7121 19.0533 34.4066 19.1728 35.1937 19.1728C36.5099 19.1728 38.0774 18.8277 39.2812 18.2768C39.2944 18.2701 39.3076 18.2701 39.3275 18.2701C39.3473 18.2701 39.3671 18.2768 39.3804 18.2834C39.4134 18.3033 39.4267 18.3365 39.4267 18.3697C39.4333 18.7281 39.4333 19.5578 39.4333 21.0579C39.4333 21.1043 39.4068 21.1442 39.3605 21.1574C37.9583 21.6486 36.4371 21.9141 35.0812 21.9141ZM34.7638 8.27402C32.7531 8.2873 31.5692 9.22319 31.0334 11.2211C31.0136 11.2941 31.0268 11.3804 31.0797 11.4401C31.1326 11.4999 31.1988 11.5397 31.2781 11.5397H38.342C38.4213 11.5397 38.4941 11.4999 38.5404 11.4401C38.5867 11.3804 38.6065 11.2941 38.5867 11.2211C38.0642 9.24974 36.9001 8.31385 34.9357 8.27402C34.9357 8.27402 34.9357 8.27402 34.9291 8.27402C34.9225 8.27402 34.9159 8.27402 34.9093 8.27402H34.896C34.8696 8.27402 34.777 8.27402 34.7704 8.27402H34.7638Z" fill="#191919"/>
<path d="M52.1186 11.0485C50.2469 11.1613 48.8579 12.5154 48.8579 14.3208C48.8579 16.1262 50.3196 17.5931 52.1186 17.5931C53.9177 17.5931 55.3132 16.1262 55.3794 14.3208C55.4984 11.1149 55.1876 10.8627 52.1186 11.0485Z" fill="#6CB6D8"/>
<path d="M69.2162 19.0534C68.31 19.2127 67.7148 19.1463 67.351 18.8542C66.888 18.4759 66.888 17.759 66.888 17.0024V0.441771C66.888 0.401946 66.8748 0.362121 66.8417 0.328933C66.8153 0.302383 66.7756 0.282471 66.7293 0.282471H62.8931C62.8071 0.282471 62.7344 0.355483 62.7344 0.441771V2.85119C62.7344 2.93748 62.8071 3.01049 62.8931 3.01049H63.8918C64.0043 3.01049 64.0903 3.09678 64.0903 3.20961V17.9914C64.0903 20.507 65.3469 21.9539 67.5296 21.9539C68.0852 21.9539 68.5812 21.9008 68.6341 21.8942L69.1963 21.8278C69.2757 21.8212 69.3352 21.7548 69.3352 21.6752L69.3947 19.2193C69.3947 19.1728 69.3749 19.1264 69.3418 19.0998C69.3088 19.0534 69.2691 19.0401 69.2162 19.0534Z" fill="#191919"/>
<path d="M65.3999 4.84231C63.5281 4.95514 62.1392 6.3092 62.1392 8.1146C62.1392 9.92 63.6009 11.3869 65.3999 11.3869C67.1989 11.3869 68.5945 9.92 68.6607 8.1146C68.7731 4.90204 68.4689 4.64982 65.3999 4.84231Z" fill="#D6E2E7"/>
</g>
<defs>
<clipPath id="clip0">
<rect width="114" height="28.2824" fill="white" transform="translate(0 0.255859)"/>
</clipPath>
</defs>
</svg>
