<svg width="933" height="84" viewBox="0 0 933 84" fill="none" xmlns="http://www.w3.org/2000/svg">
<path d="M38.6875 3.375L38.4913 3.83492L38.4965 3.83708L38.6875 3.375ZM46.8125 8.8125L46.4558 9.16287L46.4589 9.16605L46.8125 8.8125ZM52.3125 16.8125L51.8569 17.0185L51.858 17.0208L52.3125 16.8125ZM52.3125 35.875L52.767 36.0833L52.7681 36.081L52.3125 35.875ZM46.8125 43.875L47.1661 44.2286L47.1692 44.2254L46.8125 43.875ZM38.6875 49.3125L38.8785 49.7746L38.8837 49.7724L38.6875 49.3125ZM11.5 51.25V50.75H11V51.25H11.5ZM11.5 82V82.5H12V82H11.5ZM1.25 82H0.75V82.5H1.25V82ZM1.25 1.375V0.875H0.75V1.375H1.25ZM34.625 41.125L34.8195 41.5857L34.8281 41.5819L34.625 41.125ZM39.5625 37.75L39.9161 38.1036L39.9211 38.0984L39.5625 37.75ZM42.875 32.625L42.4134 32.4327L42.4114 32.4376L42.875 32.625ZM42.875 20.0625L42.4114 20.2499L42.4149 20.2583L42.875 20.0625ZM34.625 11.5625L34.4219 12.0195L34.4305 12.0231L34.625 11.5625ZM11.5 10.3125V9.8125H11V10.3125H11.5ZM11.5 42.3125H11V42.8125H11.5V42.3125ZM28.75 1.875C32.1846 1.875 35.4302 2.52883 38.4913 3.83489L38.8837 2.91511C35.6948 1.5545 32.3154 0.875 28.75 0.875V1.875ZM38.4965 3.83708C41.5615 5.10393 44.2129 6.87918 46.4558 9.16285L47.1692 8.46215C44.8288 6.07916 42.0635 4.2294 38.8785 2.91292L38.4965 3.83708ZM46.4589 9.16605C48.7067 11.4138 50.506 14.0301 51.8569 17.0185L52.7681 16.6065C51.369 13.5116 49.5016 10.7945 47.1661 8.45895L46.4589 9.16605ZM51.858 17.0208C53.2027 19.9548 53.875 23.0503 53.875 26.3125H54.875C54.875 22.908 54.1723 19.6702 52.767 16.6042L51.858 17.0208ZM53.875 26.3125C53.875 29.5747 53.2027 32.692 51.8569 35.669L52.7681 36.081C54.1723 32.9747 54.875 29.717 54.875 26.3125H53.875ZM51.858 35.6667C50.5069 38.6145 48.7065 41.233 46.4558 43.5246L47.1692 44.2254C49.5018 41.8503 51.3681 39.1355 52.767 36.0833L51.858 35.6667ZM46.4589 43.5214C44.2146 45.7658 41.5604 47.5431 38.4913 48.8526L38.8837 49.7724C42.0646 48.4152 44.827 46.5676 47.1661 44.2286L46.4589 43.5214ZM38.4965 48.8504C35.4342 50.1162 32.1868 50.75 28.75 50.75V51.75C32.3132 51.75 35.6908 51.0922 38.8785 49.7746L38.4965 48.8504ZM28.75 50.75H11.5V51.75H28.75V50.75ZM11 51.25L11 82H12L12 51.25H11ZM11.5 81.5H1.25V82.5H11.5L11.5 81.5ZM1.75 82L1.75 1.375H0.75L0.75 82H1.75ZM1.25 1.875L28.75 1.875V0.875L1.25 0.875V1.875ZM28.75 42.8125C30.8583 42.8125 32.8827 42.4034 34.8195 41.5856L34.4305 40.6644C32.6173 41.43 30.7251 41.8125 28.75 41.8125V42.8125ZM34.8281 41.5819C36.7578 40.7243 38.4549 39.5647 39.9161 38.1036L39.2089 37.3964C37.8367 38.7687 36.2422 39.8591 34.4219 40.6681L34.8281 41.5819ZM39.9211 38.0984C41.3846 36.5919 42.5236 34.8283 43.3386 32.8124L42.4114 32.4376C41.6431 34.3384 40.5737 35.9915 39.2039 37.4016L39.9211 38.0984ZM43.3365 32.8173C44.1958 30.7552 44.625 28.5855 44.625 26.3125H43.625C43.625 28.4561 43.2209 30.4948 42.4135 32.4327L43.3365 32.8173ZM44.625 26.3125C44.625 24.0395 44.1957 21.8893 43.3351 19.8667L42.4149 20.2583C43.2209 22.1524 43.625 24.1689 43.625 26.3125H44.625ZM43.3386 19.8751C42.5236 17.8592 41.3846 16.0956 39.9211 14.5891L39.2039 15.2859C40.5737 16.696 41.6431 18.3491 42.4114 20.2499L43.3386 19.8751ZM39.9211 14.5891C38.4578 13.0827 36.7561 11.9196 34.8195 11.1019L34.4305 12.0231C36.2439 12.7888 37.8339 13.8756 39.2039 15.2859L39.9211 14.5891ZM34.8281 11.1056C32.8895 10.244 30.862 9.8125 28.75 9.8125V10.8125C30.7213 10.8125 32.6105 11.2143 34.4219 12.0194L34.8281 11.1056ZM28.75 9.8125L11.5 9.8125V10.8125L28.75 10.8125V9.8125ZM11 10.3125L11 42.3125H12L12 10.3125H11ZM11.5 42.8125H28.75V41.8125H11.5V42.8125ZM101.713 48.75L102.145 48.4995L102.001 48.25H101.713V48.75ZM86.4 48.75V48.25H85.9V48.75H86.4ZM86.4 82V82.5H86.9V82H86.4ZM76.15 82H75.65V82.5H76.15V82ZM76.15 1.375V0.875H75.65V1.375H76.15ZM115.65 3.3125L115.45 3.77079L115.458 3.77404L115.65 3.3125ZM123.4 8.4375L123.046 8.79112L123.053 8.79779L123.4 8.4375ZM128.587 16L128.128 16.197L128.131 16.2049L128.587 16ZM127.712 36.5625L128.133 36.8329L128.135 36.8302L127.712 36.5625ZM121.587 43.5L121.282 43.1045L121.281 43.1053L121.587 43.5ZM112.775 48.0625L112.628 47.5846L112.027 47.7695L112.343 48.3134L112.775 48.0625ZM132.462 82V82.5H133.331L132.895 81.7491L132.462 82ZM120.962 82L120.53 82.2505L120.674 82.5H120.962V82ZM86.4 39.75H85.9V40.25H86.4V39.75ZM111.588 38.625L111.789 39.0829L111.798 39.0787L111.588 38.625ZM116.088 35.5L116.441 35.8536L116.447 35.8479L116.088 35.5ZM119.15 19.3125L118.687 19.5018L118.689 19.5056L119.15 19.3125ZM116.088 14.625L115.728 14.9729L115.734 14.9786L116.088 14.625ZM111.588 11.5L111.377 11.9537L111.387 11.9578L111.588 11.5ZM86.4 10.3125V9.8125H85.9V10.3125H86.4ZM101.713 48.25H86.4V49.25H101.713V48.25ZM85.9 48.75V82H86.9V48.75H85.9ZM86.4 81.5H76.15V82.5H86.4V81.5ZM76.65 82L76.65 1.375H75.65L75.65 82H76.65ZM76.15 1.875L106.213 1.875V0.875L76.15 0.875V1.875ZM106.213 1.875C109.479 1.875 112.557 2.50752 115.45 3.77073L115.85 2.85427C112.827 1.53415 109.612 0.875 106.213 0.875V1.875ZM115.458 3.77404C118.401 5.00047 120.929 6.67332 123.046 8.79105L123.754 8.08395C121.538 5.86834 118.899 4.12453 115.842 2.85096L115.458 3.77404ZM123.053 8.79779C125.212 10.8748 126.903 13.3395 128.128 16.197L129.047 15.803C127.772 12.8272 126.005 10.2502 123.747 8.07721L123.053 8.79779ZM128.131 16.2049C129.394 19.0152 130.025 21.9661 130.025 25.0625H131.025C131.025 21.8255 130.364 18.7348 129.044 15.7951L128.131 16.2049ZM130.025 25.0625C130.025 29.7078 129.1 33.4397 127.29 36.2948L128.135 36.8302C130.075 33.7686 131.025 29.8339 131.025 25.0625H130.025ZM127.292 36.2921C125.441 39.172 123.435 41.4383 121.282 43.1045L121.893 43.8955C124.156 42.145 126.234 39.7863 128.133 36.8329L127.292 36.2921ZM121.281 43.1053C118.704 45.1089 115.821 46.602 112.628 47.5846L112.922 48.5404C116.229 47.523 119.221 45.9744 121.894 43.8947L121.281 43.1053ZM112.343 48.3134L132.03 82.2509L132.895 81.7491L113.207 47.8116L112.343 48.3134ZM132.462 81.5L120.962 81.5V82.5L132.462 82.5V81.5ZM121.395 81.7495L102.145 48.4995L101.28 49.0005L120.53 82.2505L121.395 81.7495ZM86.4 40.25H106.213V39.25H86.4V40.25ZM106.213 40.25C108.156 40.25 110.016 39.8608 111.788 39.0828L111.387 38.1672C109.742 38.8892 108.019 39.25 106.213 39.25V40.25ZM111.798 39.0787C113.558 38.2631 115.107 37.188 116.441 35.8536L115.734 35.1464C114.485 36.3953 113.034 37.4036 111.377 38.1713L111.798 39.0787ZM116.447 35.8479C117.784 34.4677 118.838 32.8521 119.611 31.0056L118.689 30.6194C117.962 32.3563 116.975 33.8656 115.728 35.1521L116.447 35.8479ZM119.611 31.0056C120.388 29.1497 120.775 27.167 120.775 25.0625H119.775C119.775 27.0413 119.412 28.892 118.689 30.6194L119.611 31.0056ZM120.775 25.0625C120.775 22.958 120.388 20.9753 119.611 19.1194L118.689 19.5056C119.412 21.233 119.775 23.0837 119.775 25.0625H120.775ZM119.613 19.1232C118.84 17.2336 117.784 15.6139 116.441 14.2714L115.734 14.9786C116.975 16.2194 117.96 17.7247 118.687 19.5018L119.613 19.1232ZM116.447 14.2771C115.11 12.897 113.556 11.8181 111.788 11.0422L111.387 11.9578C113.036 12.6819 114.482 13.6863 115.728 14.9729L116.447 14.2771ZM111.798 11.0463C110.024 10.2243 108.16 9.8125 106.213 9.8125V10.8125C108.015 10.8125 109.735 11.1924 111.377 11.9537L111.798 11.0463ZM106.213 9.8125L86.4 9.8125V10.8125L106.213 10.8125V9.8125ZM85.9 10.3125V39.75H86.9V10.3125H85.9ZM163.8 82V82.5H164.3V82H163.8ZM153.55 82H153.05V82.5H153.55V82ZM153.55 1.375V0.875H153.05V1.375H153.55ZM163.8 1.375H164.3V0.875H163.8V1.375ZM163.8 81.5H153.55V82.5H163.8V81.5ZM154.05 82L154.05 1.375H153.05L153.05 82H154.05ZM153.55 1.875H163.8V0.875H153.55V1.875ZM163.3 1.375L163.3 82H164.3L164.3 1.375H163.3ZM221.387 82V82.5H221.737L221.857 82.1715L221.387 82ZM211.2 82L210.73 82.1718L210.851 82.5H211.2V82ZM181.7 1.375V0.875H180.985L181.23 1.54681L181.7 1.375ZM192.637 1.375L193.108 1.20621L192.989 0.875H192.637V1.375ZM216.262 67.25L215.792 67.4188L216.262 68.7294L216.733 67.4192L216.262 67.25ZM239.95 1.375V0.875H239.598L239.479 1.20581L239.95 1.375ZM250.825 1.375L251.295 1.54649L251.54 0.875H250.825V1.375ZM221.387 81.5L211.2 81.5V82.5L221.387 82.5V81.5ZM211.67 81.8282L182.17 1.20319L181.23 1.54681L210.73 82.1718L211.67 81.8282ZM181.7 1.875L192.637 1.875V0.875L181.7 0.875V1.875ZM192.167 1.54379L215.792 67.4188L216.733 67.0812L193.108 1.20621L192.167 1.54379ZM216.733 67.4192L240.421 1.54419L239.479 1.20581L215.792 67.0808L216.733 67.4192ZM239.95 1.875H250.825V0.875H239.95V1.875ZM250.355 1.20351L220.918 81.8285L221.857 82.1715L251.295 1.54649L250.355 1.20351ZM303.913 62.1875L304.379 62.0066L304.255 61.6875H303.913V62.1875ZM270.663 62.1875V61.6875H270.32L270.196 62.0066L270.663 62.1875ZM262.975 82V82.5H263.317L263.441 82.1809L262.975 82ZM252.1 82L251.633 81.8218L251.374 82.5H252.1V82ZM282.85 1.375V0.875H282.506L282.383 1.19682L282.85 1.375ZM291.788 1.375L292.255 1.19714L292.132 0.875H291.788V1.375ZM322.475 82V82.5H323.2L322.942 81.8221L322.475 82ZM311.6 82L311.134 82.1809L311.258 82.5H311.6V82ZM273.85 53.1875L273.383 53.0091L273.124 53.6875H273.85V53.1875ZM300.725 53.1875V53.6875H301.451L301.192 53.0091L300.725 53.1875ZM287.288 18L287.755 17.8216L287.288 16.5985L286.82 17.8216L287.288 18ZM303.913 61.6875L270.663 61.6875V62.6875L303.913 62.6875V61.6875ZM270.196 62.0066L262.509 81.8191L263.441 82.1809L271.129 62.3684L270.196 62.0066ZM262.975 81.5H252.1V82.5H262.975V81.5ZM252.567 82.1782L283.317 1.55318L282.383 1.19682L251.633 81.8218L252.567 82.1782ZM282.85 1.875H291.788V0.875H282.85V1.875ZM291.32 1.55286L322.008 82.1779L322.942 81.8221L292.255 1.19714L291.32 1.55286ZM322.475 81.5H311.6V82.5H322.475V81.5ZM312.066 81.8191L304.379 62.0066L303.446 62.3684L311.134 82.1809L312.066 81.8191ZM273.85 53.6875L300.725 53.6875V52.6875L273.85 52.6875V53.6875ZM301.192 53.0091L287.755 17.8216L286.82 18.1784L300.258 53.3659L301.192 53.0091ZM286.82 17.8216L273.383 53.0091L274.317 53.3659L287.755 18.1784L286.82 17.8216ZM358.25 12.0625L358.035 11.6109L358.25 12.0625ZM349.375 18.75L349.003 18.4158L349.003 18.4161L349.375 18.75ZM343.25 28.875L342.785 28.6919L342.783 28.6962L343.25 28.875ZM343.25 54.5L342.783 54.6788L342.785 54.6831L343.25 54.5ZM349.375 64.6875L349 65.0187L349.006 65.0244L349.375 64.6875ZM358.25 71.3125L358.035 71.7641L358.25 71.3125ZM377.188 72.25L377.359 72.7197L377.363 72.7182L377.188 72.25ZM389.125 62.375L388.693 62.1236L388.691 62.1261L389.125 62.375ZM392.188 55.125V54.625H391.808L391.706 54.9908L392.188 55.125ZM403.062 55.125L403.542 55.2658L403.73 54.625H403.062V55.125ZM398.312 65.875L397.886 65.6138L398.312 65.875ZM390.812 74.6875L391.138 75.0671L391.138 75.0667L390.812 74.6875ZM380.75 80.5625L380.922 81.0319L380.925 81.0309L380.75 80.5625ZM354.188 79.5L353.979 79.9545L353.981 79.9552L354.188 79.5ZM333.875 57.8125L333.414 58.0062L333.875 57.8125ZM333.875 25.625L333.413 25.4327L333.875 25.625ZM354.188 3.875L353.981 3.41982L353.979 3.42053L354.188 3.875ZM380.438 2.875L380.255 3.34072L380.26 3.3425L380.438 2.875ZM390.25 8.75L389.922 9.12697L389.925 9.12963L390.25 8.75ZM397.688 17.5L398.114 17.2388L397.688 17.5ZM402.438 28.25V28.75H403.105L402.917 28.1092L402.438 28.25ZM391.5 28.25L391.016 28.3769L391.114 28.75H391.5V28.25ZM388.5 21.0625L388.064 21.3081L388.07 21.3174L388.5 21.0625ZM383.562 15.125L383.238 15.5058L383.242 15.5091L383.562 15.125ZM376.875 11.1875L376.689 11.6518L376.696 11.6544L376.875 11.1875ZM368.5 9.1875C364.922 9.1875 361.432 9.99746 358.035 11.6109L358.465 12.5141C361.735 10.9609 365.078 10.1875 368.5 10.1875V9.1875ZM358.035 11.6109C354.64 13.2239 351.628 15.494 349.003 18.4158L349.747 19.0842C352.288 16.256 355.194 14.0678 358.465 12.5141L358.035 11.6109ZM349.003 18.4161C346.417 21.2982 344.346 24.7257 342.785 28.6919L343.715 29.0581C345.237 25.191 347.249 21.8685 349.747 19.0839L349.003 18.4161ZM342.783 28.6962C341.259 32.6755 340.5 37.0076 340.5 41.6875H341.5C341.5 37.1174 342.241 32.9078 343.717 29.0538L342.783 28.6962ZM340.5 41.6875C340.5 46.3674 341.259 50.6995 342.783 54.6788L343.717 54.3212C342.241 50.4672 341.5 46.2576 341.5 41.6875H340.5ZM342.785 54.6831C344.346 58.6488 346.417 62.096 349 65.0187L349.75 64.3563C347.25 61.529 345.238 58.1845 343.715 54.3169L342.785 54.6831ZM349.006 65.0244C351.631 67.9037 354.641 70.1519 358.035 71.7641L358.465 70.8609C355.192 69.3064 352.286 67.1379 349.744 64.3506L349.006 65.0244ZM358.035 71.7641C361.432 73.3775 364.922 74.1875 368.5 74.1875V73.1875C365.078 73.1875 361.735 72.4141 358.465 70.8609L358.035 71.7641ZM368.5 74.1875C371.717 74.1875 374.672 73.7006 377.359 72.7197L377.016 71.7803C374.453 72.7161 371.616 73.1875 368.5 73.1875V74.1875ZM377.363 72.7182C380.077 71.7003 382.461 70.3399 384.508 68.6341L383.867 67.8659C381.914 69.4934 379.631 70.7997 377.012 71.7818L377.363 72.7182ZM384.508 68.6341C386.553 66.9296 388.237 64.9256 389.559 62.6239L388.691 62.1261C387.429 64.3244 385.822 66.2371 383.867 67.8659L384.508 68.6341ZM389.557 62.6264C390.912 60.2982 391.949 57.8421 392.669 55.2592L391.706 54.9908C391.009 57.4912 390.005 59.8685 388.693 62.1236L389.557 62.6264ZM392.188 55.625H403.062V54.625H392.188V55.625ZM402.583 54.9842C401.47 58.7762 399.904 62.3189 397.886 65.6138L398.739 66.1362C400.804 62.7644 402.405 59.1405 403.542 55.2658L402.583 54.9842ZM397.886 65.6138C395.872 68.9029 393.405 71.8006 390.487 74.3083L391.138 75.0667C394.136 72.4911 396.67 69.5137 398.739 66.1362L397.886 65.6138ZM390.487 74.3079C387.617 76.7677 384.315 78.6969 380.575 80.0941L380.925 81.0309C384.769 79.5948 388.174 77.6073 391.138 75.0671L390.487 74.3079ZM380.578 80.0931C376.889 81.4458 372.864 82.125 368.5 82.125V83.125C372.969 83.125 377.111 82.4292 380.922 81.0319L380.578 80.0931ZM368.5 82.125C363.614 82.125 358.914 81.0991 354.394 79.0448L353.981 79.9552C358.628 82.0676 363.469 83.125 368.5 83.125V82.125ZM354.396 79.0455C349.914 76.9898 345.968 74.1328 342.553 70.4715L341.822 71.1535C345.324 74.9088 349.377 77.8435 353.979 79.9545L354.396 79.0455ZM342.553 70.4715C339.137 66.8088 336.398 62.5261 334.336 57.6188L333.414 58.0062C335.519 63.0155 338.321 67.3995 341.822 71.1535L342.553 70.4715ZM334.336 57.6188C332.28 52.7264 331.25 47.4178 331.25 41.6875H330.25C330.25 47.5405 331.303 52.9819 333.414 58.0062L334.336 57.6188ZM331.25 41.6875C331.25 36.0416 332.28 30.7531 334.337 25.8173L333.413 25.4327C331.303 30.4969 330.25 35.9168 330.25 41.6875H331.25ZM334.337 25.8173C336.399 20.8684 339.138 16.5655 342.553 12.9035L341.822 12.2215C338.32 15.9762 335.518 20.3816 333.413 25.4327L334.337 25.8173ZM342.553 12.9035C345.968 9.24216 349.914 6.38519 354.396 4.32947L353.979 3.42053C349.377 5.53148 345.324 8.46617 341.822 12.2215L342.553 12.9035ZM354.394 4.33018C358.914 2.27592 363.614 1.25 368.5 1.25V0.25C363.469 0.25 358.628 1.30742 353.981 3.41982L354.394 4.33018ZM368.5 1.25C372.778 1.25 376.695 1.94913 380.255 3.3407L380.62 2.4093C376.93 0.967537 372.889 0.25 368.5 0.25V1.25ZM380.26 3.3425C383.83 4.69655 387.05 6.62426 389.922 9.12695L390.578 8.37305C387.617 5.7924 384.295 3.80345 380.615 2.4075L380.26 3.3425ZM389.925 9.12963C392.801 11.5951 395.246 14.4715 397.261 17.7612L398.114 17.2388C396.045 13.8618 393.532 10.9049 390.575 8.37037L389.925 9.12963ZM397.261 17.7612C399.279 21.0561 400.845 24.5988 401.958 28.3908L402.917 28.1092C401.78 24.2345 400.179 20.6106 398.114 17.2388L397.261 17.7612ZM402.438 27.75H391.5V28.75H402.438V27.75ZM391.984 28.1231C391.305 25.5367 390.287 23.0978 388.93 20.8076L388.07 21.3174C389.379 23.5272 390.361 25.8799 391.016 28.3769L391.984 28.1231ZM388.936 20.817C387.614 18.4731 385.93 16.4468 383.883 14.7409L383.242 15.5091C385.195 17.1365 386.802 19.0686 388.064 21.308L388.936 20.817ZM383.887 14.7442C381.883 13.0394 379.605 11.6984 377.054 10.7206L376.696 11.6544C379.145 12.5933 381.325 13.8773 383.238 15.5058L383.887 14.7442ZM377.061 10.7233C374.494 9.69646 371.638 9.1875 368.5 9.1875V10.1875C371.529 10.1875 374.256 10.6785 376.689 11.6517L377.061 10.7233ZM411.9 1.375V0.875H411.076L411.456 1.60578L411.9 1.375ZM422.837 1.375L423.282 1.14562L423.142 0.875H422.837V1.375ZM442.65 39.75L442.206 39.9794L442.65 40.8399L443.094 39.9794L442.65 39.75ZM462.462 1.375V0.875H462.158L462.018 1.14562L462.462 1.375ZM473.4 1.375L473.844 1.60578L474.224 0.875H473.4V1.375ZM447.775 50.625L447.331 50.3942L447.275 50.5027V50.625H447.775ZM447.775 82V82.5H448.275V82H447.775ZM437.525 82H437.025V82.5H437.525V82ZM437.525 50.625H438.025V50.5027L437.969 50.3942L437.525 50.625ZM411.9 1.875H422.837V0.875H411.9V1.875ZM422.393 1.60438L442.206 39.9794L443.094 39.5206L423.282 1.14562L422.393 1.60438ZM443.094 39.9794L462.907 1.60438L462.018 1.14562L442.206 39.5206L443.094 39.9794ZM462.462 1.875H473.4V0.875H462.462V1.875ZM472.956 1.14422L447.331 50.3942L448.219 50.8558L473.844 1.60578L472.956 1.14422ZM447.275 50.625V82H448.275V50.625H447.275ZM447.775 81.5H437.525V82.5H447.775V81.5ZM438.025 82V50.625H437.025V82H438.025ZM437.969 50.3942L412.344 1.14422L411.456 1.60578L437.081 50.8558L437.969 50.3942ZM562.638 3.375L562.441 3.83492L562.447 3.83708L562.638 3.375ZM570.763 8.8125L570.406 9.16287L570.409 9.16605L570.763 8.8125ZM576.263 16.8125L575.807 17.0185L575.808 17.0208L576.263 16.8125ZM576.263 35.875L576.717 36.0833L576.718 36.081L576.263 35.875ZM570.763 43.875L571.116 44.2286L571.119 44.2254L570.763 43.875ZM562.638 49.3125L562.828 49.7746L562.834 49.7724L562.638 49.3125ZM535.45 51.25V50.75H534.95V51.25H535.45ZM535.45 82V82.5H535.95V82H535.45ZM525.2 82H524.7V82.5H525.2V82ZM525.2 1.375V0.875H524.7V1.375H525.2ZM558.575 41.125L558.77 41.5857L558.778 41.5819L558.575 41.125ZM563.513 37.75L563.866 38.1036L563.871 38.0984L563.513 37.75ZM566.825 32.625L566.363 32.4327L566.361 32.4376L566.825 32.625ZM566.825 20.0625L566.361 20.2499L566.365 20.2583L566.825 20.0625ZM558.575 11.5625L558.372 12.0195L558.381 12.0231L558.575 11.5625ZM535.45 10.3125V9.8125H534.95V10.3125H535.45ZM535.45 42.3125H534.95V42.8125H535.45V42.3125ZM552.7 1.875C556.135 1.875 559.38 2.52883 562.441 3.83489L562.834 2.91511C559.645 1.5545 556.265 0.875 552.7 0.875V1.875ZM562.447 3.83708C565.511 5.10393 568.163 6.87918 570.406 9.16285L571.119 8.46215C568.779 6.07916 566.014 4.2294 562.828 2.91292L562.447 3.83708ZM570.409 9.16605C572.657 11.4138 574.456 14.0301 575.807 17.0185L576.718 16.6065C575.319 13.5116 573.452 10.7945 571.116 8.45895L570.409 9.16605ZM575.808 17.0208C577.153 19.9548 577.825 23.0503 577.825 26.3125H578.825C578.825 22.908 578.122 19.6702 576.717 16.6042L575.808 17.0208ZM577.825 26.3125C577.825 29.5747 577.153 32.692 575.807 35.669L576.718 36.081C578.122 32.9747 578.825 29.717 578.825 26.3125H577.825ZM575.808 35.6667C574.457 38.6145 572.656 41.233 570.406 43.5246L571.119 44.2254C573.452 41.8503 575.318 39.1355 576.717 36.0833L575.808 35.6667ZM570.409 43.5214C568.165 45.7658 565.51 47.5431 562.441 48.8526L562.834 49.7724C566.015 48.4152 568.777 46.5676 571.116 44.2286L570.409 43.5214ZM562.447 48.8504C559.384 50.1162 556.137 50.75 552.7 50.75V51.75C556.263 51.75 559.641 51.0922 562.828 49.7746L562.447 48.8504ZM552.7 50.75H535.45V51.75H552.7V50.75ZM534.95 51.25V82H535.95V51.25H534.95ZM535.45 81.5H525.2V82.5H535.45V81.5ZM525.7 82V1.375H524.7V82H525.7ZM525.2 1.875L552.7 1.875V0.875L525.2 0.875V1.875ZM552.7 42.8125C554.808 42.8125 556.833 42.4034 558.769 41.5856L558.381 40.6644C556.567 41.43 554.675 41.8125 552.7 41.8125V42.8125ZM558.778 41.5819C560.708 40.7243 562.405 39.5647 563.866 38.1036L563.159 37.3964C561.787 38.7687 560.192 39.8591 558.372 40.6681L558.778 41.5819ZM563.871 38.0984C565.335 36.5919 566.474 34.8283 567.289 32.8124L566.361 32.4376C565.593 34.3384 564.524 35.9915 563.154 37.4016L563.871 38.0984ZM567.287 32.8173C568.146 30.7552 568.575 28.5855 568.575 26.3125H567.575C567.575 28.4561 567.171 30.4948 566.363 32.4327L567.287 32.8173ZM568.575 26.3125C568.575 24.0395 568.146 21.8893 567.285 19.8667L566.365 20.2583C567.171 22.1524 567.575 24.1689 567.575 26.3125H568.575ZM567.289 19.8751C566.474 17.8592 565.335 16.0956 563.871 14.5891L563.154 15.2859C564.524 16.696 565.593 18.3491 566.361 20.2499L567.289 19.8751ZM563.871 14.5891C562.408 13.0827 560.706 11.9196 558.769 11.1019L558.381 12.0231C560.194 12.7888 561.784 13.8756 563.154 15.2859L563.871 14.5891ZM558.778 11.1056C556.839 10.244 554.812 9.8125 552.7 9.8125V10.8125C554.671 10.8125 556.561 11.2143 558.372 12.0194L558.778 11.1056ZM552.7 9.8125L535.45 9.8125V10.8125L552.7 10.8125V9.8125ZM534.95 10.3125V42.3125H535.95V10.3125H534.95ZM535.45 42.8125H552.7V41.8125H535.45V42.8125ZM606.85 54.5L606.383 54.6788L606.385 54.6831L606.85 54.5ZM612.975 64.6875L612.6 65.0187L612.605 65.0244L612.975 64.6875ZM621.85 71.3125L621.635 71.7641L621.85 71.3125ZM651.162 64.6875L651.535 65.0214L651.537 65.0187L651.162 64.6875ZM657.287 54.5L657.753 54.6831L657.753 54.6815L657.287 54.5ZM651.162 18.75L650.788 19.0812L650.79 19.0839L651.162 18.75ZM621.85 12.0625L621.635 11.6109L621.85 12.0625ZM612.975 18.75L612.603 18.4158L612.603 18.4161L612.975 18.75ZM606.85 28.875L606.385 28.6919L606.383 28.6962L606.85 28.875ZM646.35 79.5L646.143 79.0448L646.141 79.0455L646.35 79.5ZM617.787 79.5L617.579 79.9545L617.581 79.9552L617.787 79.5ZM597.475 57.8125L597.014 58.0062L597.475 57.8125ZM597.475 25.625L597.013 25.4327L597.475 25.625ZM617.787 3.875L617.581 3.41982L617.579 3.42053L617.787 3.875ZM646.35 3.875L646.141 4.32947L646.143 4.33018L646.35 3.875ZM604.1 41.6875C604.1 46.3674 604.859 50.6995 606.383 54.6788L607.317 54.3212C605.841 50.4672 605.1 46.2576 605.1 41.6875H604.1ZM606.385 54.6831C607.946 58.6488 610.017 62.096 612.6 65.0187L613.35 64.3563C610.85 61.529 608.838 58.1845 607.315 54.3169L606.385 54.6831ZM612.605 65.0244C615.231 67.9037 618.241 70.1519 621.635 71.7641L622.065 70.8609C618.792 69.3064 615.886 67.1379 613.344 64.3506L612.605 65.0244ZM621.635 71.7641C625.032 73.3775 628.522 74.1875 632.1 74.1875V73.1875C628.678 73.1875 625.335 72.4141 622.065 70.8609L621.635 71.7641ZM632.1 74.1875C635.678 74.1875 639.168 73.3775 642.565 71.7641L642.135 70.8609C638.865 72.4141 635.522 73.1875 632.1 73.1875V74.1875ZM642.565 71.7641C645.96 70.1515 648.95 67.9024 651.535 65.0214L650.79 64.3536C648.291 67.1392 645.407 69.3068 642.135 70.8609L642.565 71.7641ZM651.537 65.0187C654.121 62.096 656.192 58.6488 657.753 54.6831L656.822 54.3169C655.3 58.1845 653.287 61.529 650.788 64.3563L651.537 65.0187ZM657.753 54.6815C659.319 50.6609 660.1 46.328 660.1 41.6875H659.1C659.1 46.2137 658.339 50.4225 656.822 54.3185L657.753 54.6815ZM660.1 41.6875C660.1 37.006 659.32 32.6724 657.753 28.6919L656.822 29.0581C658.339 32.911 659.1 37.119 659.1 41.6875H660.1ZM657.753 28.6919C656.192 24.7257 654.12 21.2982 651.535 18.4161L650.79 19.0839C653.288 21.8685 655.3 25.191 656.822 29.0581L657.753 28.6919ZM651.537 18.4188C648.953 15.4953 645.961 13.2243 642.565 11.6109L642.135 12.5141C645.405 14.0674 648.289 16.2547 650.788 19.0812L651.537 18.4188ZM642.565 11.6109C639.168 9.99746 635.678 9.1875 632.1 9.1875V10.1875C635.522 10.1875 638.865 10.9609 642.135 12.5141L642.565 11.6109ZM632.1 9.1875C628.522 9.1875 625.032 9.99746 621.635 11.6109L622.065 12.5141C625.335 10.9609 628.678 10.1875 632.1 10.1875V9.1875ZM621.635 11.6109C618.24 13.2239 615.228 15.494 612.603 18.4158L613.347 19.0842C615.888 16.256 618.794 14.0678 622.065 12.5141L621.635 11.6109ZM612.603 18.4161C610.017 21.2982 607.946 24.7257 606.385 28.6919L607.315 29.0581C608.837 25.191 610.849 21.8685 613.347 19.0839L612.603 18.4161ZM606.383 28.6962C604.859 32.6755 604.1 37.0076 604.1 41.6875H605.1C605.1 37.1174 605.841 32.9078 607.317 29.0538L606.383 28.6962ZM669.35 41.6875C669.35 47.4178 668.32 52.7264 666.264 57.6188L667.186 58.0062C669.297 52.9819 670.35 47.5405 670.35 41.6875H669.35ZM666.264 57.6188C664.202 62.5261 661.463 66.8088 658.047 70.4715L658.778 71.1535C662.279 67.3995 665.081 63.0155 667.186 58.0062L666.264 57.6188ZM658.047 70.4715C654.633 74.132 650.666 76.9889 646.143 79.0448L646.557 79.9552C651.201 77.8444 655.275 74.9096 658.778 71.1535L658.047 70.4715ZM646.141 79.0455C641.665 81.0991 636.986 82.125 632.1 82.125V83.125C637.131 83.125 641.952 82.0676 646.558 79.9545L646.141 79.0455ZM632.1 82.125C627.214 82.125 622.514 81.0991 617.994 79.0448L617.581 79.9552C622.228 82.0676 627.069 83.125 632.1 83.125V82.125ZM617.996 79.0455C613.514 76.9898 609.568 74.1328 606.153 70.4715L605.422 71.1535C608.924 74.9088 612.977 77.8435 617.579 79.9545L617.996 79.0455ZM606.153 70.4715C602.737 66.8088 599.998 62.5261 597.936 57.6188L597.014 58.0062C599.119 63.0155 601.921 67.3995 605.422 71.1535L606.153 70.4715ZM597.936 57.6188C595.88 52.7264 594.85 47.4178 594.85 41.6875H593.85C593.85 47.5405 594.903 52.9819 597.014 58.0062L597.936 57.6188ZM594.85 41.6875C594.85 36.0416 595.88 30.7531 597.937 25.8173L597.013 25.4327C594.903 30.4969 593.85 35.9168 593.85 41.6875H594.85ZM597.937 25.8173C599.999 20.8684 602.738 16.5655 606.153 12.9035L605.422 12.2215C601.92 15.9762 599.118 20.3816 597.013 25.4327L597.937 25.8173ZM606.153 12.9035C609.568 9.24216 613.514 6.38519 617.996 4.32947L617.579 3.42053C612.977 5.53148 608.924 8.46617 605.422 12.2215L606.153 12.9035ZM617.994 4.33018C622.514 2.27592 627.214 1.25 632.1 1.25V0.25C627.069 0.25 622.228 1.30742 617.581 3.41982L617.994 4.33018ZM632.1 1.25C636.986 1.25 641.665 2.27589 646.141 4.32947L646.558 3.42053C641.952 1.30744 637.131 0.25 632.1 0.25V1.25ZM646.143 4.33018C650.666 6.38608 654.633 9.24296 658.047 12.9035L658.778 12.2215C655.275 8.46537 651.201 5.53059 646.557 3.41982L646.143 4.33018ZM658.047 12.9035C661.462 16.5655 664.201 20.8684 666.263 25.8173L667.187 25.4327C665.082 20.3816 662.28 15.9762 658.778 12.2215L658.047 12.9035ZM666.263 25.8173C668.32 30.7531 669.35 36.0416 669.35 41.6875H670.35C670.35 35.9168 669.297 30.4969 667.187 25.4327L666.263 25.8173ZM739.625 73.0625H740.125V72.5625H739.625V73.0625ZM739.625 82V82.5H740.125V82H739.625ZM691 82H690.5V82.5H691V82ZM691 1.375V0.875H690.5V1.375H691ZM701.25 1.375H701.75V0.875H701.25V1.375ZM701.25 73.0625H700.75V73.5625H701.25V73.0625ZM739.125 73.0625V82H740.125V73.0625H739.125ZM739.625 81.5H691V82.5H739.625V81.5ZM691.5 82V1.375H690.5V82H691.5ZM691 1.875H701.25V0.875H691V1.875ZM700.75 1.375V73.0625H701.75V1.375H700.75ZM701.25 73.5625H739.625V72.5625H701.25V73.5625ZM767.775 82V82.5H768.275V82H767.775ZM757.525 82H757.025V82.5H757.525V82ZM757.525 1.375V0.875H757.025V1.375H757.525ZM767.775 1.375H768.275V0.875H767.775V1.375ZM767.775 81.5H757.525V82.5H767.775V81.5ZM758.025 82V1.375H757.025V82H758.025ZM757.525 1.875L767.775 1.875V0.875L757.525 0.875V1.875ZM767.275 1.375V82H768.275V1.375H767.275ZM816.425 12.0625L816.21 11.6109L816.425 12.0625ZM807.55 18.75L807.178 18.4158L807.178 18.4161L807.55 18.75ZM801.425 28.875L800.96 28.6919L800.958 28.6962L801.425 28.875ZM801.425 54.5L800.958 54.6788L800.96 54.6831L801.425 54.5ZM807.55 64.6875L807.175 65.0187L807.18 65.0244L807.55 64.6875ZM816.425 71.3125L816.21 71.7641L816.425 71.3125ZM835.362 72.25L835.534 72.7197L835.538 72.7182L835.362 72.25ZM847.3 62.375L846.868 62.1236L846.866 62.1261L847.3 62.375ZM850.362 55.125V54.625H849.983L849.881 54.9908L850.362 55.125ZM861.237 55.125L861.717 55.2658L861.905 54.625H861.237V55.125ZM856.487 65.875L856.061 65.6138L856.487 65.875ZM848.987 74.6875L849.313 75.0671L849.313 75.0667L848.987 74.6875ZM838.925 80.5625L839.097 81.0319L839.1 81.0309L838.925 80.5625ZM812.362 79.5L812.154 79.9545L812.156 79.9552L812.362 79.5ZM792.05 57.8125L791.589 58.0062L792.05 57.8125ZM792.05 25.625L791.588 25.4327L792.05 25.625ZM812.362 3.875L812.156 3.41982L812.154 3.42053L812.362 3.875ZM838.612 2.875L838.43 3.34072L838.435 3.3425L838.612 2.875ZM848.425 8.75L848.096 9.12697L848.1 9.12963L848.425 8.75ZM855.862 17.5L856.289 17.2388L855.862 17.5ZM860.612 28.25V28.75H861.28L861.092 28.1092L860.612 28.25ZM849.675 28.25L849.191 28.3769L849.289 28.75H849.675V28.25ZM846.675 21.0625L846.239 21.3081L846.245 21.3174L846.675 21.0625ZM841.737 15.125L841.413 15.5058L841.417 15.5091L841.737 15.125ZM835.05 11.1875L834.864 11.6518L834.871 11.6544L835.05 11.1875ZM826.675 9.1875C823.097 9.1875 819.607 9.99746 816.21 11.6109L816.64 12.5141C819.91 10.9609 823.253 10.1875 826.675 10.1875V9.1875ZM816.21 11.6109C812.815 13.2239 809.803 15.494 807.178 18.4158L807.922 19.0842C810.463 16.256 813.369 14.0678 816.64 12.5141L816.21 11.6109ZM807.178 18.4161C804.592 21.2982 802.521 24.7257 800.96 28.6919L801.89 29.0581C803.412 25.191 805.424 21.8685 807.922 19.0839L807.178 18.4161ZM800.958 28.6962C799.434 32.6755 798.675 37.0076 798.675 41.6875H799.675C799.675 37.1174 800.416 32.9078 801.892 29.0538L800.958 28.6962ZM798.675 41.6875C798.675 46.3674 799.434 50.6995 800.958 54.6788L801.892 54.3212C800.416 50.4672 799.675 46.2576 799.675 41.6875H798.675ZM800.96 54.6831C802.521 58.6488 804.592 62.096 807.175 65.0187L807.925 64.3563C805.425 61.529 803.413 58.1845 801.89 54.3169L800.96 54.6831ZM807.18 65.0244C809.806 67.9037 812.816 70.1519 816.21 71.7641L816.64 70.8609C813.367 69.3064 810.461 67.1379 807.919 64.3506L807.18 65.0244ZM816.21 71.7641C819.607 73.3775 823.097 74.1875 826.675 74.1875V73.1875C823.253 73.1875 819.91 72.4141 816.64 70.8609L816.21 71.7641ZM826.675 74.1875C829.892 74.1875 832.847 73.7006 835.534 72.7197L835.191 71.7803C832.628 72.7161 829.791 73.1875 826.675 73.1875V74.1875ZM835.538 72.7182C838.252 71.7003 840.636 70.3399 842.683 68.6341L842.042 67.8659C840.089 69.4934 837.806 70.7997 835.187 71.7818L835.538 72.7182ZM842.683 68.6341C844.728 66.9296 846.412 64.9256 847.734 62.6239L846.866 62.1261C845.604 64.3244 843.997 66.2371 842.042 67.8659L842.683 68.6341ZM847.732 62.6264C849.087 60.2982 850.124 57.8421 850.844 55.2592L849.881 54.9908C849.184 57.4912 848.18 59.8685 846.868 62.1236L847.732 62.6264ZM850.362 55.625H861.237V54.625H850.362V55.625ZM860.758 54.9842C859.645 58.7762 858.079 62.3189 856.061 65.6138L856.914 66.1362C858.979 62.7644 860.58 59.1405 861.717 55.2658L860.758 54.9842ZM856.061 65.6138C854.047 68.9029 851.58 71.8006 848.662 74.3083L849.313 75.0667C852.311 72.4911 854.845 69.5137 856.914 66.1362L856.061 65.6138ZM848.662 74.3079C845.792 76.7677 842.49 78.6969 838.75 80.0941L839.1 81.0309C842.944 79.5948 846.349 77.6073 849.313 75.0671L848.662 74.3079ZM838.753 80.0931C835.064 81.4458 831.039 82.125 826.675 82.125V83.125C831.144 83.125 835.286 82.4292 839.097 81.0319L838.753 80.0931ZM826.675 82.125C821.789 82.125 817.089 81.0991 812.569 79.0448L812.156 79.9552C816.803 82.0676 821.644 83.125 826.675 83.125V82.125ZM812.571 79.0455C808.089 76.9898 804.143 74.1328 800.728 70.4715L799.997 71.1535C803.499 74.9088 807.552 77.8435 812.154 79.9545L812.571 79.0455ZM800.728 70.4715C797.312 66.8088 794.573 62.5261 792.511 57.6188L791.589 58.0062C793.694 63.0155 796.496 67.3995 799.997 71.1535L800.728 70.4715ZM792.511 57.6188C790.455 52.7264 789.425 47.4178 789.425 41.6875H788.425C788.425 47.5405 789.478 52.9819 791.589 58.0062L792.511 57.6188ZM789.425 41.6875C789.425 36.0416 790.455 30.7531 792.512 25.8173L791.588 25.4327C789.478 30.4969 788.425 35.9168 788.425 41.6875H789.425ZM792.512 25.8173C794.574 20.8684 797.313 16.5655 800.728 12.9035L799.997 12.2215C796.495 15.9762 793.693 20.3816 791.588 25.4327L792.512 25.8173ZM800.728 12.9035C804.143 9.24216 808.089 6.38519 812.571 4.32947L812.154 3.42053C807.552 5.53148 803.499 8.46617 799.997 12.2215L800.728 12.9035ZM812.569 4.33018C817.089 2.27592 821.789 1.25 826.675 1.25V0.25C821.644 0.25 816.803 1.30742 812.156 3.41982L812.569 4.33018ZM826.675 1.25C830.953 1.25 834.87 1.94913 838.43 3.3407L838.794 2.4093C835.105 0.967537 831.064 0.25 826.675 0.25V1.25ZM838.435 3.3425C842.005 4.69655 845.225 6.62426 848.096 9.12695L848.753 8.37305C845.792 5.7924 842.47 3.80345 838.79 2.4075L838.435 3.3425ZM848.1 9.12963C850.976 11.5951 853.421 14.4715 855.436 17.7612L856.289 17.2388C854.22 13.8618 851.707 10.9049 848.75 8.37037L848.1 9.12963ZM855.436 17.7612C857.454 21.0561 859.02 24.5988 860.133 28.3908L861.092 28.1092C859.955 24.2345 858.354 20.6106 856.289 17.2388L855.436 17.7612ZM860.612 27.75H849.675V28.75H860.612V27.75ZM850.159 28.1231C849.48 25.5367 848.462 23.0978 847.105 20.8076L846.245 21.3174C847.554 23.5272 848.536 25.8799 849.191 28.3769L850.159 28.1231ZM847.111 20.817C845.789 18.4731 844.105 16.4468 842.058 14.7409L841.417 15.5091C843.37 17.1365 844.977 19.0686 846.239 21.308L847.111 20.817ZM842.062 14.7442C840.058 13.0394 837.78 11.6984 835.229 10.7206L834.871 11.6544C837.32 12.5933 839.5 13.8773 841.413 15.5058L842.062 14.7442ZM835.236 10.7233C832.669 9.69646 829.813 9.1875 826.675 9.1875V10.1875C829.704 10.1875 832.431 10.6785 834.864 11.6517L835.236 10.7233ZM870.075 1.375V0.875H869.251L869.631 1.60578L870.075 1.375ZM881.013 1.375L881.457 1.14562L881.317 0.875H881.013V1.375ZM900.825 39.75L900.381 39.9794L900.825 40.8399L901.269 39.9794L900.825 39.75ZM920.638 1.375V0.875H920.333L920.193 1.14562L920.638 1.375ZM931.575 1.375L932.019 1.60578L932.399 0.875H931.575V1.375ZM905.95 50.625L905.506 50.3942L905.45 50.5027V50.625H905.95ZM905.95 82V82.5H906.45V82H905.95ZM895.7 82H895.2V82.5H895.7V82ZM895.7 50.625H896.2V50.5027L896.144 50.3942L895.7 50.625ZM870.075 1.875H881.013V0.875H870.075V1.875ZM880.568 1.60438L900.381 39.9794L901.269 39.5206L881.457 1.14562L880.568 1.60438ZM901.269 39.9794L921.082 1.60438L920.193 1.14562L900.381 39.5206L901.269 39.9794ZM920.638 1.875H931.575V0.875H920.638V1.875ZM931.131 1.14422L905.506 50.3942L906.394 50.8558L932.019 1.60578L931.131 1.14422ZM905.45 50.625V82H906.45V50.625H905.45ZM905.95 81.5H895.7V82.5H905.95V81.5ZM896.2 82V50.625H895.2V82H896.2ZM896.144 50.3942L870.519 1.14422L869.631 1.60578L895.256 50.8558L896.144 50.3942Z" fill="#E5E5E5"/>
</svg>
