<svg width="1031" height="84" viewBox="0 0 1031 84" fill="none" xmlns="http://www.w3.org/2000/svg">
<path d="M26.8125 48.75L27.2452 48.4995L27.1008 48.25H26.8125V48.75ZM11.5 48.75V48.25H11V48.75H11.5ZM11.5 82V82.5H12V82H11.5ZM1.25 82H0.75V82.5H1.25V82ZM1.25 1.375V0.875H0.75V1.375H1.25ZM40.75 3.3125L40.5499 3.77079L40.5577 3.77404L40.75 3.3125ZM48.5 8.4375L48.1464 8.79112L48.1533 8.79779L48.5 8.4375ZM53.6875 16L53.2279 16.197L53.2314 16.2049L53.6875 16ZM52.8125 36.5625L53.2331 36.8329L53.2348 36.8302L52.8125 36.5625ZM46.6875 43.5L46.3816 43.1045L46.3805 43.1053L46.6875 43.5ZM37.875 48.0625L37.728 47.5846L37.127 47.7695L37.4425 48.3134L37.875 48.0625ZM57.5625 82V82.5H58.4306L57.995 81.7491L57.5625 82ZM46.0625 82L45.6298 82.2505L45.7742 82.5H46.0625V82ZM11.5 39.75H11V40.25H11.5V39.75ZM36.6875 38.625L36.8885 39.0829L36.8977 39.0787L36.6875 38.625ZM41.1875 35.5L41.5411 35.8536L41.5466 35.8479L41.1875 35.5ZM44.25 19.3125L43.7872 19.5018L43.7888 19.5056L44.25 19.3125ZM41.1875 14.625L40.8283 14.9729L40.8339 14.9786L41.1875 14.625ZM36.6875 11.5L36.4772 11.9537L36.4865 11.9578L36.6875 11.5ZM11.5 10.3125V9.8125H11V10.3125H11.5ZM26.8125 48.25H11.5V49.25H26.8125V48.25ZM11 48.75L11 82H12L12 48.75H11ZM11.5 81.5H1.25V82.5H11.5L11.5 81.5ZM1.75 82L1.75 1.375H0.75L0.75 82H1.75ZM1.25 1.875L31.3125 1.875V0.875L1.25 0.875V1.875ZM31.3125 1.875C34.5793 1.875 37.6568 2.50752 40.5499 3.77073L40.9501 2.85427C37.9266 1.53415 34.7124 0.875 31.3125 0.875V1.875ZM40.5577 3.77404C43.5011 5.00047 46.0287 6.67332 48.1464 8.79105L48.8536 8.08395C46.638 5.86834 43.9989 4.12453 40.9423 2.85096L40.5577 3.77404ZM48.1533 8.79779C50.3118 10.8748 52.0033 13.3395 53.2279 16.197L54.1471 15.803C52.8717 12.8272 51.1049 10.2502 48.8467 8.07721L48.1533 8.79779ZM53.2314 16.2049C54.494 19.0152 55.125 21.9661 55.125 25.0625H56.125C56.125 21.8255 55.4643 18.7348 54.1436 15.7951L53.2314 16.2049ZM55.125 25.0625C55.125 29.7078 54.1998 33.4397 52.3902 36.2948L53.2348 36.8302C55.1752 33.7686 56.125 29.8339 56.125 25.0625H55.125ZM52.3919 36.2921C50.5406 39.172 48.5354 41.4383 46.3816 43.1045L46.9934 43.8955C49.2562 42.145 51.3344 39.7863 53.2331 36.8329L52.3919 36.2921ZM46.3805 43.1053C43.8044 45.1089 40.9214 46.602 37.728 47.5846L38.022 48.5404C41.3286 47.523 44.3206 45.9744 46.9945 43.8947L46.3805 43.1053ZM37.4425 48.3134L57.13 82.2509L57.995 81.7491L38.3075 47.8116L37.4425 48.3134ZM57.5625 81.5H46.0625V82.5H57.5625V81.5ZM46.4952 81.7495L27.2452 48.4995L26.3798 49.0005L45.6298 82.2505L46.4952 81.7495ZM11.5 40.25H31.3125V39.25H11.5V40.25ZM31.3125 40.25C33.2563 40.25 35.1165 39.8608 36.8885 39.0828L36.4865 38.1672C34.8419 38.8892 33.1187 39.25 31.3125 39.25V40.25ZM36.8977 39.0787C38.6577 38.2631 40.2066 37.188 41.5411 35.8536L40.8339 35.1464C39.5851 36.3953 38.134 37.4036 36.4773 38.1713L36.8977 39.0787ZM41.5466 35.8479C42.8837 34.4677 43.9383 32.8521 44.7112 31.0056L43.7888 30.6194C43.0617 32.3563 42.0747 33.8656 40.8284 35.1521L41.5466 35.8479ZM44.7112 31.0056C45.4881 29.1497 45.875 27.167 45.875 25.0625H44.875C44.875 27.0413 44.5119 28.892 43.7888 30.6194L44.7112 31.0056ZM45.875 25.0625C45.875 22.958 45.4881 20.9753 44.7112 19.1194L43.7888 19.5056C44.5119 21.233 44.875 23.0837 44.875 25.0625H45.875ZM44.7128 19.1232C43.9398 17.2336 42.8835 15.6139 41.5411 14.2714L40.8339 14.9786C42.0748 16.2194 43.0602 17.7247 43.7872 19.5018L44.7128 19.1232ZM41.5466 14.2771C40.2096 12.897 38.6559 11.8181 36.8885 11.0422L36.4865 11.9578C38.1358 12.6819 39.582 13.6863 40.8284 14.9729L41.5466 14.2771ZM36.8977 11.0463C35.1238 10.2243 33.2604 9.8125 31.3125 9.8125V10.8125C33.1146 10.8125 34.8345 11.1924 36.4773 11.9537L36.8977 11.0463ZM31.3125 9.8125L11.5 9.8125V10.8125L31.3125 10.8125V9.8125ZM11 10.3125L11 39.75H12L12 10.3125H11ZM131.15 73.0625H131.65V72.5625H131.15V73.0625ZM131.15 82V82.5H131.65V82H131.15ZM78.65 82H78.15V82.5H78.65V82ZM78.65 1.375V0.875H78.15V1.375H78.65ZM129.837 1.375H130.337V0.875H129.837V1.375ZM129.837 10.3125V10.8125H130.337V10.3125H129.837ZM88.9 10.3125V9.8125H88.4V10.3125H88.9ZM88.9 35.9375H88.4V36.4375H88.9V35.9375ZM126.65 35.9375H127.15V35.4375H126.65V35.9375ZM126.65 44.875V45.375H127.15V44.875H126.65ZM88.9 44.875V44.375H88.4V44.875H88.9ZM88.9 73.0625H88.4V73.5625H88.9V73.0625ZM130.65 73.0625V82H131.65V73.0625H130.65ZM131.15 81.5L78.65 81.5V82.5L131.15 82.5V81.5ZM79.15 82L79.15 1.375H78.15L78.15 82H79.15ZM78.65 1.875L129.837 1.875V0.875L78.65 0.875V1.875ZM129.337 1.375V10.3125H130.337V1.375H129.337ZM129.837 9.8125L88.9 9.8125V10.8125L129.837 10.8125V9.8125ZM88.4 10.3125V35.9375H89.4V10.3125H88.4ZM88.9 36.4375L126.65 36.4375V35.4375L88.9 35.4375V36.4375ZM126.15 35.9375V44.875H127.15V35.9375H126.15ZM126.65 44.375L88.9 44.375V45.375L126.65 45.375V44.375ZM88.4 44.875V73.0625H89.4V44.875H88.4ZM88.9 73.5625L131.15 73.5625V72.5625L88.9 72.5625V73.5625ZM175.925 12.0625L175.71 11.6109L175.925 12.0625ZM167.05 18.75L166.678 18.4158L166.678 18.4161L167.05 18.75ZM160.925 28.875L160.46 28.6919L160.458 28.6962L160.925 28.875ZM160.925 54.5L160.458 54.6788L160.46 54.6831L160.925 54.5ZM167.05 64.6875L166.675 65.0187L166.681 65.0244L167.05 64.6875ZM175.925 71.3125L175.71 71.7641L175.925 71.3125ZM194.863 72.25L195.034 72.7197L195.038 72.7182L194.863 72.25ZM206.8 62.375L206.368 62.1236L206.366 62.1261L206.8 62.375ZM209.863 55.125V54.625H209.483L209.381 54.9908L209.863 55.125ZM220.738 55.125L221.217 55.2658L221.405 54.625H220.738V55.125ZM215.988 65.875L215.561 65.6138L215.988 65.875ZM208.488 74.6875L208.813 75.0671L208.813 75.0667L208.488 74.6875ZM198.425 80.5625L198.597 81.0319L198.6 81.0309L198.425 80.5625ZM171.863 79.5L171.654 79.9545L171.656 79.9552L171.863 79.5ZM151.55 57.8125L151.089 58.0062L151.55 57.8125ZM151.55 25.625L151.088 25.4327L151.55 25.625ZM171.863 3.875L171.656 3.41982L171.654 3.42053L171.863 3.875ZM198.113 2.875L197.93 3.34072L197.935 3.3425L198.113 2.875ZM207.925 8.75L207.596 9.12697L207.6 9.12963L207.925 8.75ZM215.363 17.5L215.789 17.2388L215.363 17.5ZM220.113 28.25V28.75H220.78L220.592 28.1092L220.113 28.25ZM209.175 28.25L208.691 28.3769L208.789 28.75H209.175V28.25ZM206.175 21.0625L205.739 21.3081L205.745 21.3174L206.175 21.0625ZM201.238 15.125L200.913 15.5058L200.917 15.5091L201.238 15.125ZM194.55 11.1875L194.364 11.6518L194.371 11.6544L194.55 11.1875ZM186.175 9.1875C182.597 9.1875 179.107 9.99746 175.71 11.6109L176.14 12.5141C179.41 10.9609 182.753 10.1875 186.175 10.1875V9.1875ZM175.71 11.6109C172.315 13.2239 169.303 15.494 166.678 18.4158L167.422 19.0842C169.963 16.256 172.869 14.0678 176.14 12.5141L175.71 11.6109ZM166.678 18.4161C164.092 21.2982 162.021 24.7257 160.46 28.6919L161.39 29.0581C162.912 25.191 164.924 21.8685 167.422 19.0839L166.678 18.4161ZM160.458 28.6962C158.934 32.6755 158.175 37.0076 158.175 41.6875H159.175C159.175 37.1174 159.916 32.9078 161.392 29.0538L160.458 28.6962ZM158.175 41.6875C158.175 46.3674 158.934 50.6995 160.458 54.6788L161.392 54.3212C159.916 50.4672 159.175 46.2576 159.175 41.6875H158.175ZM160.46 54.6831C162.021 58.6488 164.092 62.096 166.675 65.0187L167.425 64.3563C164.925 61.529 162.913 58.1845 161.39 54.3169L160.46 54.6831ZM166.681 65.0244C169.306 67.9037 172.316 70.1519 175.71 71.7641L176.14 70.8609C172.867 69.3064 169.961 67.1379 167.419 64.3506L166.681 65.0244ZM175.71 71.7641C179.107 73.3775 182.597 74.1875 186.175 74.1875V73.1875C182.753 73.1875 179.41 72.4141 176.14 70.8609L175.71 71.7641ZM186.175 74.1875C189.392 74.1875 192.347 73.7006 195.034 72.7197L194.691 71.7803C192.128 72.7161 189.291 73.1875 186.175 73.1875V74.1875ZM195.038 72.7182C197.752 71.7003 200.136 70.3399 202.183 68.6341L201.542 67.8659C199.589 69.4934 197.306 70.7997 194.687 71.7818L195.038 72.7182ZM202.183 68.6341C204.228 66.9296 205.912 64.9256 207.234 62.6239L206.366 62.1261C205.104 64.3244 203.497 66.2371 201.542 67.8659L202.183 68.6341ZM207.232 62.6264C208.587 60.2982 209.624 57.8421 210.344 55.2592L209.381 54.9908C208.684 57.4912 207.68 59.8685 206.368 62.1236L207.232 62.6264ZM209.863 55.625L220.738 55.625V54.625L209.863 54.625V55.625ZM220.258 54.9842C219.145 58.7762 217.579 62.3189 215.561 65.6138L216.414 66.1362C218.479 62.7644 220.08 59.1405 221.217 55.2658L220.258 54.9842ZM215.561 65.6138C213.547 68.9029 211.08 71.8006 208.162 74.3083L208.813 75.0667C211.811 72.4911 214.345 69.5137 216.414 66.1362L215.561 65.6138ZM208.162 74.3079C205.292 76.7677 201.99 78.6969 198.25 80.0941L198.6 81.0309C202.444 79.5948 205.849 77.6073 208.813 75.0671L208.162 74.3079ZM198.253 80.0931C194.564 81.4458 190.539 82.125 186.175 82.125V83.125C190.644 83.125 194.786 82.4292 198.597 81.0319L198.253 80.0931ZM186.175 82.125C181.289 82.125 176.589 81.0991 172.069 79.0448L171.656 79.9552C176.303 82.0676 181.144 83.125 186.175 83.125V82.125ZM172.071 79.0455C167.589 76.9898 163.643 74.1328 160.228 70.4715L159.497 71.1535C162.999 74.9088 167.052 77.8435 171.654 79.9545L172.071 79.0455ZM160.228 70.4715C156.812 66.8088 154.073 62.5261 152.011 57.6188L151.089 58.0062C153.194 63.0155 155.996 67.3995 159.497 71.1535L160.228 70.4715ZM152.011 57.6188C149.955 52.7264 148.925 47.4178 148.925 41.6875H147.925C147.925 47.5405 148.978 52.9819 151.089 58.0062L152.011 57.6188ZM148.925 41.6875C148.925 36.0416 149.955 30.7531 152.012 25.8173L151.088 25.4327C148.978 30.4969 147.925 35.9168 147.925 41.6875H148.925ZM152.012 25.8173C154.074 20.8684 156.813 16.5655 160.228 12.9035L159.497 12.2215C155.995 15.9762 153.193 20.3816 151.088 25.4327L152.012 25.8173ZM160.228 12.9035C163.643 9.24216 167.589 6.38519 172.071 4.32947L171.654 3.42053C167.052 5.53148 162.999 8.46617 159.497 12.2215L160.228 12.9035ZM172.069 4.33018C176.589 2.27592 181.289 1.25 186.175 1.25V0.25C181.144 0.25 176.303 1.30742 171.656 3.41982L172.069 4.33018ZM186.175 1.25C190.453 1.25 194.37 1.94913 197.931 3.3407L198.294 2.4093C194.605 0.967537 190.564 0.25 186.175 0.25V1.25ZM197.935 3.3425C201.505 4.69655 204.725 6.62426 207.597 9.12695L208.253 8.37305C205.292 5.7924 201.97 3.80345 198.29 2.4075L197.935 3.3425ZM207.6 9.12963C210.476 11.5951 212.921 14.4715 214.936 17.7612L215.789 17.2388C213.72 13.8618 211.207 10.9049 208.25 8.37037L207.6 9.12963ZM214.936 17.7612C216.954 21.0561 218.52 24.5988 219.633 28.3908L220.592 28.1092C219.455 24.2345 217.854 20.6106 215.789 17.2388L214.936 17.7612ZM220.113 27.75L209.175 27.75V28.75L220.113 28.75V27.75ZM209.659 28.1231C208.98 25.5367 207.962 23.0978 206.605 20.8076L205.745 21.3174C207.054 23.5272 208.036 25.8799 208.691 28.3769L209.659 28.1231ZM206.611 20.817C205.289 18.4731 203.605 16.4468 201.558 14.7409L200.917 15.5091C202.87 17.1365 204.477 19.0686 205.739 21.308L206.611 20.817ZM201.562 14.7442C199.558 13.0394 197.28 11.6984 194.729 10.7206L194.371 11.6544C196.82 12.5933 199 13.8773 200.913 15.5058L201.562 14.7442ZM194.736 10.7233C192.169 9.69646 189.313 9.1875 186.175 9.1875V10.1875C189.204 10.1875 191.931 10.6785 194.364 11.6517L194.736 10.7233ZM266.763 48.75L267.195 48.4995L267.051 48.25H266.763V48.75ZM251.45 48.75V48.25H250.95V48.75H251.45ZM251.45 82V82.5H251.95V82H251.45ZM241.2 82H240.7V82.5H241.2V82ZM241.2 1.375V0.875H240.7V1.375H241.2ZM280.7 3.3125L280.5 3.77079L280.508 3.77404L280.7 3.3125ZM288.45 8.4375L288.096 8.79112L288.103 8.79779L288.45 8.4375ZM293.638 16L293.178 16.197L293.181 16.2049L293.638 16ZM292.763 36.5625L293.183 36.8329L293.185 36.8302L292.763 36.5625ZM286.638 43.5L286.332 43.1045L286.331 43.1053L286.638 43.5ZM277.825 48.0625L277.678 47.5846L277.077 47.7695L277.393 48.3134L277.825 48.0625ZM297.513 82V82.5H298.381L297.945 81.7491L297.513 82ZM286.013 82L285.58 82.2505L285.724 82.5H286.013V82ZM251.45 39.75H250.95V40.25H251.45V39.75ZM276.638 38.625L276.839 39.0829L276.848 39.0787L276.638 38.625ZM281.138 35.5L281.491 35.8536L281.497 35.8479L281.138 35.5ZM284.2 19.3125L283.737 19.5018L283.739 19.5056L284.2 19.3125ZM281.138 14.625L280.778 14.9729L280.784 14.9786L281.138 14.625ZM276.638 11.5L276.427 11.9537L276.436 11.9578L276.638 11.5ZM251.45 10.3125V9.8125H250.95V10.3125H251.45ZM266.763 48.25H251.45V49.25H266.763V48.25ZM250.95 48.75V82H251.95V48.75H250.95ZM251.45 81.5H241.2V82.5H251.45V81.5ZM241.7 82L241.7 1.375H240.7L240.7 82H241.7ZM241.2 1.875H271.263V0.875H241.2V1.875ZM271.263 1.875C274.529 1.875 277.607 2.50752 280.5 3.77073L280.9 2.85427C277.877 1.53415 274.662 0.875 271.263 0.875V1.875ZM280.508 3.77404C283.451 5.00047 285.979 6.67332 288.096 8.79105L288.804 8.08395C286.588 5.86834 283.949 4.12453 280.892 2.85096L280.508 3.77404ZM288.103 8.79779C290.262 10.8748 291.953 13.3395 293.178 16.197L294.097 15.803C292.822 12.8272 291.055 10.2502 288.797 8.07721L288.103 8.79779ZM293.181 16.2049C294.444 19.0152 295.075 21.9661 295.075 25.0625H296.075C296.075 21.8255 295.414 18.7348 294.094 15.7951L293.181 16.2049ZM295.075 25.0625C295.075 29.7078 294.15 33.4397 292.34 36.2948L293.185 36.8302C295.125 33.7686 296.075 29.8339 296.075 25.0625H295.075ZM292.342 36.2921C290.491 39.172 288.485 41.4383 286.332 43.1045L286.943 43.8955C289.206 42.145 291.284 39.7863 293.183 36.8329L292.342 36.2921ZM286.331 43.1053C283.754 45.1089 280.871 46.602 277.678 47.5846L277.972 48.5404C281.279 47.523 284.271 45.9744 286.944 43.8947L286.331 43.1053ZM277.393 48.3134L297.08 82.2509L297.945 81.7491L278.257 47.8116L277.393 48.3134ZM297.513 81.5H286.013V82.5H297.513V81.5ZM286.445 81.7495L267.195 48.4995L266.33 49.0005L285.58 82.2505L286.445 81.7495ZM251.45 40.25H271.263V39.25H251.45V40.25ZM271.263 40.25C273.206 40.25 275.066 39.8608 276.839 39.0828L276.436 38.1672C274.792 38.8892 273.069 39.25 271.263 39.25V40.25ZM276.848 39.0787C278.608 38.2631 280.157 37.188 281.491 35.8536L280.784 35.1464C279.535 36.3953 278.084 37.4036 276.427 38.1713L276.848 39.0787ZM281.497 35.8479C282.834 34.4677 283.888 32.8521 284.661 31.0056L283.739 30.6194C283.012 32.3563 282.025 33.8656 280.778 35.1521L281.497 35.8479ZM284.661 31.0056C285.438 29.1497 285.825 27.167 285.825 25.0625H284.825C284.825 27.0413 284.462 28.892 283.739 30.6194L284.661 31.0056ZM285.825 25.0625C285.825 22.958 285.438 20.9753 284.661 19.1194L283.739 19.5056C284.462 21.233 284.825 23.0837 284.825 25.0625H285.825ZM284.663 19.1232C283.89 17.2336 282.833 15.6139 281.491 14.2714L280.784 14.9786C282.025 16.2194 283.01 17.7247 283.737 19.5018L284.663 19.1232ZM281.497 14.2771C280.16 12.897 278.606 11.8181 276.839 11.0422L276.436 11.9578C278.086 12.6819 279.532 13.6863 280.778 14.9729L281.497 14.2771ZM276.848 11.0463C275.074 10.2243 273.21 9.8125 271.263 9.8125V10.8125C273.065 10.8125 274.785 11.1924 276.427 11.9537L276.848 11.0463ZM271.263 9.8125H251.45V10.8125H271.263V9.8125ZM250.95 10.3125V39.75H251.95V10.3125H250.95ZM334.85 80.5L334.662 80.9631L334.666 80.965L334.85 80.5ZM325.538 74.5L325.184 74.8536L325.19 74.8592L325.538 74.5ZM317.288 1.375V0.875H316.788V1.375H317.288ZM327.538 1.375H328.038V0.875H327.538V1.375ZM332.788 68.375L332.43 68.7244L332.432 68.7265L332.788 68.375ZM360.663 68.375L360.309 68.0214L360.307 68.0235L360.663 68.375ZM365.975 1.375V0.875H365.475V1.375H365.975ZM376.163 1.375H376.663V0.875H376.163V1.375ZM373.975 65.375L373.513 65.1846L373.512 65.1874L373.975 65.375ZM367.913 74.5L368.263 74.8564L368.263 74.8564L367.913 74.5ZM358.6 80.5L358.784 80.965L358.787 80.9639L358.6 80.5ZM346.725 82.125C342.447 82.125 338.552 81.4258 335.034 80.035L334.666 80.965C338.315 82.4075 342.337 83.125 346.725 83.125V82.125ZM335.038 80.0369C331.511 78.6012 328.462 76.6354 325.885 74.1408L325.19 74.8592C327.863 77.448 331.022 79.4821 334.662 80.9631L335.038 80.0369ZM325.891 74.1464C323.356 71.611 321.371 68.6247 319.937 65.1827L319.013 65.5673C320.496 69.1253 322.553 72.2223 325.184 74.8536L325.891 74.1464ZM319.937 65.1827C318.506 61.75 317.788 57.9621 317.788 53.8125H316.788C316.788 58.0796 317.527 62 319.013 65.5673L319.937 65.1827ZM317.788 53.8125V1.375H316.788V53.8125H317.788ZM317.288 1.875L327.538 1.875V0.875L317.288 0.875V1.875ZM327.038 1.375V53.8125H328.038V1.375H327.038ZM327.038 53.8125C327.038 60.0372 328.819 65.0277 332.43 68.7244L333.145 68.0256C329.756 64.5557 328.038 59.8378 328.038 53.8125H327.038ZM332.432 68.7265C336.041 72.3787 340.823 74.1875 346.725 74.1875V73.1875C341.043 73.1875 336.534 71.4546 333.143 68.0235L332.432 68.7265ZM346.725 74.1875C352.627 74.1875 357.409 72.3787 361.018 68.7265L360.307 68.0235C356.916 71.4546 352.407 73.1875 346.725 73.1875V74.1875ZM361.016 68.7286C364.672 65.0724 366.475 60.0792 366.475 53.8125H365.475C365.475 59.8791 363.736 64.5943 360.309 68.0214L361.016 68.7286ZM366.475 53.8125V1.375H365.475V53.8125H366.475ZM365.975 1.875L376.163 1.875V0.875L365.975 0.875V1.875ZM375.663 1.375V53.8125H376.663V1.375H375.663ZM375.663 53.8125C375.663 57.9196 374.944 61.7085 373.513 65.1846L374.437 65.5654C375.923 61.9582 376.663 58.0387 376.663 53.8125H375.663ZM373.512 65.1874C372.12 68.6257 370.137 71.6095 367.562 74.1436L368.263 74.8564C370.938 72.2239 372.997 69.1243 374.438 65.5626L373.512 65.1874ZM367.562 74.1436C365.029 76.6354 361.982 78.6005 358.413 80.0361L358.787 80.9639C362.468 79.4828 365.629 77.4479 368.263 74.8564L367.562 74.1436ZM358.416 80.035C354.898 81.4258 351.003 82.125 346.725 82.125V83.125C351.113 83.125 355.135 82.4075 358.784 80.965L358.416 80.035ZM412 82V82.5H412.5V82H412ZM401.75 82H401.25V82.5H401.75V82ZM401.75 1.375V0.875H401.25V1.375H401.75ZM412 1.375H412.5V0.875H412V1.375ZM412 81.5H401.75V82.5H412V81.5ZM402.25 82V1.375H401.25V82H402.25ZM401.75 1.875L412 1.875V0.875L401.75 0.875V1.875ZM411.5 1.375V82H412.5V1.375H411.5ZM489.462 10.3125V10.8125H489.962V10.3125H489.462ZM465.15 10.3125V9.8125H464.65V10.3125H465.15ZM465.15 82V82.5H465.65V82H465.15ZM454.9 82H454.4V82.5H454.9V82ZM454.9 10.3125L455.4 10.3125V9.8125L454.9 9.8125V10.3125ZM430.587 10.3125H430.087V10.8125H430.587V10.3125ZM430.587 1.375V0.875H430.087V1.375H430.587ZM489.462 1.375H489.962V0.875H489.462V1.375ZM489.462 9.8125H465.15V10.8125H489.462V9.8125ZM464.65 10.3125V82H465.65V10.3125H464.65ZM465.15 81.5H454.9V82.5H465.15V81.5ZM455.4 82V10.3125L454.4 10.3125V82H455.4ZM454.9 9.8125H430.587V10.8125H454.9V9.8125ZM431.087 10.3125V1.375H430.087V10.3125H431.087ZM430.587 1.875L489.462 1.875V0.875L430.587 0.875V1.875ZM488.962 1.375V10.3125H489.962V1.375H488.962ZM567.513 48.75L567.945 48.4995L567.801 48.25H567.513V48.75ZM552.2 48.75V48.25H551.7V48.75H552.2ZM552.2 82V82.5H552.7V82H552.2ZM541.95 82H541.45V82.5H541.95V82ZM541.95 1.375V0.875H541.45V1.375H541.95ZM581.45 3.3125L581.25 3.77079L581.258 3.77404L581.45 3.3125ZM589.2 8.4375L588.846 8.79112L588.853 8.79779L589.2 8.4375ZM594.388 16L593.928 16.197L593.931 16.2049L594.388 16ZM593.513 36.5625L593.933 36.8329L593.935 36.8302L593.513 36.5625ZM587.388 43.5L587.082 43.1045L587.081 43.1053L587.388 43.5ZM578.575 48.0625L578.428 47.5846L577.827 47.7695L578.143 48.3134L578.575 48.0625ZM598.263 82V82.5H599.131L598.695 81.7491L598.263 82ZM586.763 82L586.33 82.2505L586.474 82.5H586.763V82ZM552.2 39.75H551.7V40.25H552.2V39.75ZM577.388 38.625L577.589 39.0829L577.598 39.0787L577.388 38.625ZM581.888 35.5L582.241 35.8536L582.247 35.8479L581.888 35.5ZM584.95 19.3125L584.487 19.5018L584.489 19.5056L584.95 19.3125ZM581.888 14.625L581.528 14.9729L581.534 14.9786L581.888 14.625ZM577.388 11.5L577.177 11.9537L577.187 11.9578L577.388 11.5ZM552.2 10.3125V9.8125H551.7V10.3125H552.2ZM567.513 48.25L552.2 48.25V49.25L567.513 49.25V48.25ZM551.7 48.75V82H552.7V48.75H551.7ZM552.2 81.5H541.95V82.5H552.2V81.5ZM542.45 82V1.375H541.45V82H542.45ZM541.95 1.875L572.013 1.875V0.875L541.95 0.875V1.875ZM572.013 1.875C575.279 1.875 578.357 2.50752 581.25 3.77073L581.65 2.85427C578.627 1.53415 575.412 0.875 572.013 0.875V1.875ZM581.258 3.77404C584.201 5.00047 586.729 6.67332 588.846 8.79105L589.554 8.08395C587.338 5.86834 584.699 4.12453 581.642 2.85096L581.258 3.77404ZM588.853 8.79779C591.012 10.8748 592.703 13.3395 593.928 16.197L594.847 15.803C593.572 12.8272 591.805 10.2502 589.547 8.07721L588.853 8.79779ZM593.931 16.2049C595.194 19.0152 595.825 21.9661 595.825 25.0625H596.825C596.825 21.8255 596.164 18.7348 594.844 15.7951L593.931 16.2049ZM595.825 25.0625C595.825 29.7078 594.9 33.4397 593.09 36.2948L593.935 36.8302C595.875 33.7686 596.825 29.8339 596.825 25.0625H595.825ZM593.092 36.2921C591.241 39.172 589.235 41.4383 587.082 43.1045L587.693 43.8955C589.956 42.145 592.034 39.7863 593.933 36.8329L593.092 36.2921ZM587.081 43.1053C584.504 45.1089 581.621 46.602 578.428 47.5846L578.722 48.5404C582.029 47.523 585.021 45.9744 587.694 43.8947L587.081 43.1053ZM578.143 48.3134L597.83 82.2509L598.695 81.7491L579.008 47.8116L578.143 48.3134ZM598.263 81.5H586.763V82.5H598.263V81.5ZM587.195 81.7495L567.945 48.4995L567.08 49.0005L586.33 82.2505L587.195 81.7495ZM552.2 40.25L572.013 40.25V39.25L552.2 39.25V40.25ZM572.013 40.25C573.956 40.25 575.816 39.8608 577.589 39.0828L577.187 38.1672C575.542 38.8892 573.819 39.25 572.013 39.25V40.25ZM577.598 39.0787C579.358 38.2631 580.907 37.188 582.241 35.8536L581.534 35.1464C580.285 36.3953 578.834 37.4036 577.177 38.1713L577.598 39.0787ZM582.247 35.8479C583.584 34.4677 584.638 32.8521 585.411 31.0056L584.489 30.6194C583.762 32.3563 582.775 33.8656 581.528 35.1521L582.247 35.8479ZM585.411 31.0056C586.188 29.1497 586.575 27.167 586.575 25.0625H585.575C585.575 27.0413 585.212 28.892 584.489 30.6194L585.411 31.0056ZM586.575 25.0625C586.575 22.958 586.188 20.9753 585.411 19.1194L584.489 19.5056C585.212 21.233 585.575 23.0837 585.575 25.0625H586.575ZM585.413 19.1232C584.64 17.2336 583.583 15.6139 582.241 14.2714L581.534 14.9786C582.775 16.2194 583.76 17.7247 584.487 19.5018L585.413 19.1232ZM582.247 14.2771C580.91 12.897 579.356 11.8181 577.589 11.0422L577.187 11.9578C578.836 12.6819 580.282 13.6863 581.528 14.9729L582.247 14.2771ZM577.598 11.0463C575.824 10.2243 573.96 9.8125 572.013 9.8125V10.8125C573.815 10.8125 575.535 11.1924 577.177 11.9537L577.598 11.0463ZM572.013 9.8125H552.2V10.8125H572.013V9.8125ZM551.7 10.3125V39.75H552.7V10.3125H551.7ZM671.85 73.0625H672.35V72.5625H671.85V73.0625ZM671.85 82V82.5H672.35V82H671.85ZM619.35 82H618.85V82.5H619.35V82ZM619.35 1.375V0.875H618.85V1.375H619.35ZM670.537 1.375H671.037V0.875H670.537V1.375ZM670.537 10.3125V10.8125H671.037V10.3125H670.537ZM629.6 10.3125V9.8125H629.1V10.3125H629.6ZM629.6 35.9375H629.1V36.4375H629.6V35.9375ZM667.35 35.9375H667.85V35.4375H667.35V35.9375ZM667.35 44.875V45.375H667.85V44.875H667.35ZM629.6 44.875V44.375H629.1V44.875H629.6ZM629.6 73.0625H629.1V73.5625H629.6V73.0625ZM671.35 73.0625V82H672.35V73.0625H671.35ZM671.85 81.5L619.35 81.5V82.5L671.85 82.5V81.5ZM619.85 82V1.375H618.85V82H619.85ZM619.35 1.875L670.537 1.875V0.875L619.35 0.875V1.875ZM670.037 1.375V10.3125H671.037V1.375H670.037ZM670.537 9.8125L629.6 9.8125V10.8125L670.537 10.8125V9.8125ZM629.1 10.3125V35.9375H630.1V10.3125H629.1ZM629.6 36.4375L667.35 36.4375V35.4375L629.6 35.4375V36.4375ZM666.85 35.9375V44.875H667.85V35.9375H666.85ZM667.35 44.375L629.6 44.375V45.375L667.35 45.375V44.375ZM629.1 44.875V73.0625H630.1V44.875H629.1ZM629.6 73.5625L671.85 73.5625V72.5625L629.6 72.5625V73.5625ZM716.625 12.0625L716.41 11.6109L716.625 12.0625ZM707.75 18.75L707.378 18.4158L707.378 18.4161L707.75 18.75ZM701.625 28.875L701.16 28.6919L701.158 28.6962L701.625 28.875ZM701.625 54.5L701.158 54.6788L701.16 54.6831L701.625 54.5ZM707.75 64.6875L707.375 65.0187L707.38 65.0244L707.75 64.6875ZM716.625 71.3125L716.41 71.7641L716.625 71.3125ZM735.562 72.25L735.734 72.7197L735.738 72.7182L735.562 72.25ZM747.5 62.375L747.068 62.1236L747.066 62.1261L747.5 62.375ZM750.562 55.125V54.625H750.183L750.081 54.9908L750.562 55.125ZM761.438 55.125L761.917 55.2658L762.105 54.625H761.438V55.125ZM756.688 65.875L756.261 65.6138L756.688 65.875ZM749.188 74.6875L749.513 75.0671L749.513 75.0667L749.188 74.6875ZM739.125 80.5625L739.297 81.0319L739.3 81.0309L739.125 80.5625ZM712.562 79.5L712.354 79.9545L712.356 79.9552L712.562 79.5ZM692.25 57.8125L691.789 58.0062L692.25 57.8125ZM692.25 25.625L691.788 25.4327L692.25 25.625ZM712.562 3.875L712.356 3.41982L712.354 3.42053L712.562 3.875ZM738.812 2.875L738.63 3.34072L738.635 3.3425L738.812 2.875ZM748.625 8.75L748.297 9.12697L748.3 9.12963L748.625 8.75ZM756.062 17.5L756.489 17.2388L756.062 17.5ZM760.812 28.25V28.75H761.48L761.292 28.1092L760.812 28.25ZM749.875 28.25L749.391 28.3769L749.489 28.75H749.875V28.25ZM746.875 21.0625L746.439 21.3081L746.445 21.3174L746.875 21.0625ZM741.938 15.125L741.613 15.5058L741.617 15.5091L741.938 15.125ZM735.25 11.1875L735.064 11.6518L735.071 11.6544L735.25 11.1875ZM726.875 9.1875C723.297 9.1875 719.807 9.99746 716.41 11.6109L716.84 12.5141C720.11 10.9609 723.453 10.1875 726.875 10.1875V9.1875ZM716.41 11.6109C713.015 13.2239 710.003 15.494 707.378 18.4158L708.122 19.0842C710.663 16.256 713.569 14.0678 716.84 12.5141L716.41 11.6109ZM707.378 18.4161C704.792 21.2982 702.721 24.7257 701.16 28.6919L702.09 29.0581C703.612 25.191 705.624 21.8685 708.122 19.0839L707.378 18.4161ZM701.158 28.6962C699.634 32.6755 698.875 37.0076 698.875 41.6875H699.875C699.875 37.1174 700.616 32.9078 702.092 29.0538L701.158 28.6962ZM698.875 41.6875C698.875 46.3674 699.634 50.6995 701.158 54.6788L702.092 54.3212C700.616 50.4672 699.875 46.2576 699.875 41.6875H698.875ZM701.16 54.6831C702.721 58.6488 704.792 62.096 707.375 65.0187L708.125 64.3563C705.625 61.529 703.613 58.1845 702.09 54.3169L701.16 54.6831ZM707.38 65.0244C710.006 67.9037 713.016 70.1519 716.41 71.7641L716.84 70.8609C713.567 69.3064 710.661 67.1379 708.12 64.3506L707.38 65.0244ZM716.41 71.7641C719.807 73.3775 723.297 74.1875 726.875 74.1875V73.1875C723.453 73.1875 720.11 72.4141 716.84 70.8609L716.41 71.7641ZM726.875 74.1875C730.092 74.1875 733.047 73.7006 735.734 72.7197L735.391 71.7803C732.828 72.7161 729.991 73.1875 726.875 73.1875V74.1875ZM735.738 72.7182C738.452 71.7003 740.836 70.3399 742.883 68.6341L742.242 67.8659C740.289 69.4934 738.006 70.7997 735.387 71.7818L735.738 72.7182ZM742.883 68.6341C744.928 66.9296 746.612 64.9256 747.934 62.6239L747.066 62.1261C745.804 64.3244 744.197 66.2371 742.242 67.8659L742.883 68.6341ZM747.932 62.6264C749.287 60.2982 750.324 57.8421 751.044 55.2592L750.081 54.9908C749.384 57.4912 748.38 59.8685 747.068 62.1236L747.932 62.6264ZM750.562 55.625H761.438V54.625H750.562V55.625ZM760.958 54.9842C759.845 58.7762 758.279 62.3189 756.261 65.6138L757.114 66.1362C759.179 62.7644 760.78 59.1405 761.917 55.2658L760.958 54.9842ZM756.261 65.6138C754.247 68.9029 751.78 71.8006 748.862 74.3083L749.513 75.0667C752.511 72.4911 755.045 69.5137 757.114 66.1362L756.261 65.6138ZM748.862 74.3079C745.992 76.7677 742.69 78.6969 738.95 80.0941L739.3 81.0309C743.144 79.5948 746.549 77.6073 749.513 75.0671L748.862 74.3079ZM738.953 80.0931C735.264 81.4458 731.239 82.125 726.875 82.125V83.125C731.344 83.125 735.486 82.4292 739.297 81.0319L738.953 80.0931ZM726.875 82.125C721.989 82.125 717.289 81.0991 712.769 79.0448L712.356 79.9552C717.003 82.0676 721.844 83.125 726.875 83.125V82.125ZM712.771 79.0455C708.289 76.9898 704.343 74.1328 700.928 70.4715L700.197 71.1535C703.699 74.9088 707.752 77.8435 712.354 79.9545L712.771 79.0455ZM700.928 70.4715C697.512 66.8088 694.773 62.5261 692.711 57.6188L691.789 58.0062C693.894 63.0155 696.696 67.3995 700.197 71.1535L700.928 70.4715ZM692.711 57.6188C690.655 52.7264 689.625 47.4178 689.625 41.6875H688.625C688.625 47.5405 689.678 52.9819 691.789 58.0062L692.711 57.6188ZM689.625 41.6875C689.625 36.0416 690.655 30.7531 692.712 25.8173L691.788 25.4327C689.678 30.4969 688.625 35.9168 688.625 41.6875H689.625ZM692.712 25.8173C694.774 20.8684 697.513 16.5655 700.928 12.9035L700.197 12.2215C696.695 15.9762 693.893 20.3816 691.788 25.4327L692.712 25.8173ZM700.928 12.9035C704.343 9.24216 708.289 6.38519 712.771 4.32947L712.354 3.42053C707.752 5.53148 703.699 8.46617 700.197 12.2215L700.928 12.9035ZM712.769 4.33018C717.289 2.27592 721.989 1.25 726.875 1.25V0.25C721.844 0.25 717.003 1.30742 712.356 3.41982L712.769 4.33018ZM726.875 1.25C731.153 1.25 735.07 1.94913 738.63 3.3407L738.995 2.4093C735.305 0.967537 731.264 0.25 726.875 0.25V1.25ZM738.635 3.3425C742.205 4.69655 745.425 6.62426 748.297 9.12695L748.953 8.37305C745.992 5.7924 742.67 3.80345 738.99 2.4075L738.635 3.3425ZM748.3 9.12963C751.176 11.5951 753.621 14.4715 755.636 17.7612L756.489 17.2388C754.42 13.8618 751.907 10.9049 748.95 8.37037L748.3 9.12963ZM755.636 17.7612C757.654 21.0561 759.22 24.5988 760.333 28.3908L761.292 28.1092C760.155 24.2345 758.554 20.6106 756.489 17.2388L755.636 17.7612ZM760.812 27.75H749.875V28.75H760.812V27.75ZM750.359 28.1231C749.68 25.5367 748.662 23.0978 747.305 20.8076L746.445 21.3174C747.754 23.5272 748.736 25.8799 749.391 28.3769L750.359 28.1231ZM747.311 20.817C745.989 18.4731 744.305 16.4468 742.258 14.7409L741.617 15.5091C743.57 17.1365 745.177 19.0686 746.439 21.308L747.311 20.817ZM742.262 14.7442C740.258 13.0394 737.98 11.6984 735.429 10.7206L735.071 11.6544C737.52 12.5933 739.7 13.8773 741.613 15.5058L742.262 14.7442ZM735.436 10.7233C732.869 9.69646 730.013 9.1875 726.875 9.1875V10.1875C729.904 10.1875 732.631 10.6785 735.064 11.6517L735.436 10.7233ZM807.463 48.75L807.895 48.4995L807.751 48.25H807.463V48.75ZM792.15 48.75V48.25H791.65V48.75H792.15ZM792.15 82V82.5H792.65V82H792.15ZM781.9 82H781.4V82.5H781.9V82ZM781.9 1.375V0.875H781.4V1.375H781.9ZM821.4 3.3125L821.2 3.77079L821.208 3.77404L821.4 3.3125ZM829.15 8.4375L828.796 8.79112L828.803 8.79779L829.15 8.4375ZM834.338 16L833.878 16.197L833.881 16.2049L834.338 16ZM833.463 36.5625L833.883 36.8329L833.885 36.8302L833.463 36.5625ZM827.338 43.5L827.032 43.1045L827.031 43.1053L827.338 43.5ZM818.525 48.0625L818.378 47.5846L817.777 47.7695L818.093 48.3134L818.525 48.0625ZM838.213 82V82.5H839.081L838.645 81.7491L838.213 82ZM826.713 82L826.28 82.2505L826.424 82.5H826.713V82ZM792.15 39.75H791.65V40.25H792.15V39.75ZM817.338 38.625L817.539 39.0829L817.548 39.0787L817.338 38.625ZM821.838 35.5L822.191 35.8536L822.197 35.8479L821.838 35.5ZM824.9 19.3125L824.437 19.5018L824.439 19.5056L824.9 19.3125ZM821.838 14.625L821.478 14.9729L821.484 14.9786L821.838 14.625ZM817.338 11.5L817.127 11.9537L817.137 11.9578L817.338 11.5ZM792.15 10.3125V9.8125H791.65V10.3125H792.15ZM807.463 48.25H792.15V49.25H807.463V48.25ZM791.65 48.75V82H792.65V48.75H791.65ZM792.15 81.5H781.9V82.5H792.15V81.5ZM782.4 82V1.375H781.4V82H782.4ZM781.9 1.875L811.963 1.875V0.875L781.9 0.875V1.875ZM811.963 1.875C815.229 1.875 818.307 2.50752 821.2 3.77073L821.6 2.85427C818.577 1.53415 815.362 0.875 811.963 0.875V1.875ZM821.208 3.77404C824.151 5.00047 826.679 6.67332 828.796 8.79105L829.504 8.08395C827.288 5.86834 824.649 4.12453 821.592 2.85096L821.208 3.77404ZM828.803 8.79779C830.962 10.8748 832.653 13.3395 833.878 16.197L834.797 15.803C833.522 12.8272 831.755 10.2502 829.497 8.07721L828.803 8.79779ZM833.881 16.2049C835.144 19.0152 835.775 21.9661 835.775 25.0625H836.775C836.775 21.8255 836.114 18.7348 834.794 15.7951L833.881 16.2049ZM835.775 25.0625C835.775 29.7078 834.85 33.4397 833.04 36.2948L833.885 36.8302C835.825 33.7686 836.775 29.8339 836.775 25.0625H835.775ZM833.042 36.2921C831.191 39.172 829.185 41.4383 827.032 43.1045L827.643 43.8955C829.906 42.145 831.984 39.7863 833.883 36.8329L833.042 36.2921ZM827.031 43.1053C824.454 45.1089 821.571 46.602 818.378 47.5846L818.672 48.5404C821.979 47.523 824.971 45.9744 827.644 43.8947L827.031 43.1053ZM818.093 48.3134L837.78 82.2509L838.645 81.7491L818.958 47.8116L818.093 48.3134ZM838.213 81.5L826.713 81.5V82.5L838.213 82.5V81.5ZM827.145 81.7495L807.895 48.4995L807.03 49.0005L826.28 82.2505L827.145 81.7495ZM792.15 40.25H811.963V39.25H792.15V40.25ZM811.963 40.25C813.906 40.25 815.766 39.8608 817.539 39.0828L817.137 38.1672C815.492 38.8892 813.769 39.25 811.963 39.25V40.25ZM817.548 39.0787C819.308 38.2631 820.857 37.188 822.191 35.8536L821.484 35.1464C820.235 36.3953 818.784 37.4036 817.127 38.1713L817.548 39.0787ZM822.197 35.8479C823.534 34.4677 824.588 32.8521 825.361 31.0056L824.439 30.6194C823.712 32.3563 822.725 33.8656 821.478 35.1521L822.197 35.8479ZM825.361 31.0056C826.138 29.1497 826.525 27.167 826.525 25.0625H825.525C825.525 27.0413 825.162 28.892 824.439 30.6194L825.361 31.0056ZM826.525 25.0625C826.525 22.958 826.138 20.9753 825.361 19.1194L824.439 19.5056C825.162 21.233 825.525 23.0837 825.525 25.0625H826.525ZM825.363 19.1232C824.59 17.2336 823.534 15.6139 822.191 14.2714L821.484 14.9786C822.725 16.2194 823.71 17.7247 824.437 19.5018L825.363 19.1232ZM822.197 14.2771C820.86 12.897 819.306 11.8181 817.539 11.0422L817.137 11.9578C818.786 12.6819 820.232 13.6863 821.478 14.9729L822.197 14.2771ZM817.548 11.0463C815.774 10.2243 813.91 9.8125 811.963 9.8125V10.8125C813.765 10.8125 815.485 11.1924 817.127 11.9537L817.548 11.0463ZM811.963 9.8125L792.15 9.8125V10.8125L811.963 10.8125V9.8125ZM791.65 10.3125V39.75H792.65V10.3125H791.65ZM875.55 80.5L875.362 80.9631L875.366 80.965L875.55 80.5ZM866.237 74.5L865.884 74.8536L865.89 74.8592L866.237 74.5ZM857.987 1.375V0.875H857.487V1.375H857.987ZM868.237 1.375H868.737V0.875H868.237V1.375ZM873.487 68.375L873.13 68.7244L873.132 68.7265L873.487 68.375ZM901.362 68.375L901.009 68.0214L901.007 68.0235L901.362 68.375ZM906.675 1.375V0.875H906.175V1.375H906.675ZM916.862 1.375H917.362V0.875H916.862V1.375ZM914.675 65.375L914.213 65.1846L914.211 65.1874L914.675 65.375ZM908.612 74.5L908.963 74.8564L908.963 74.8564L908.612 74.5ZM899.3 80.5L899.484 80.965L899.487 80.9639L899.3 80.5ZM887.425 82.125C883.147 82.125 879.252 81.4258 875.734 80.035L875.366 80.965C879.015 82.4075 883.036 83.125 887.425 83.125V82.125ZM875.738 80.0369C872.211 78.6012 869.162 76.6354 866.585 74.1408L865.89 74.8592C868.563 77.448 871.722 79.4821 875.362 80.9631L875.738 80.0369ZM866.591 74.1464C864.056 71.611 862.071 68.6247 860.637 65.1827L859.713 65.5673C861.196 69.1253 863.253 72.2223 865.884 74.8536L866.591 74.1464ZM860.637 65.1827C859.206 61.75 858.487 57.9621 858.487 53.8125H857.487C857.487 58.0796 858.227 62 859.713 65.5673L860.637 65.1827ZM858.487 53.8125V1.375H857.487V53.8125H858.487ZM857.987 1.875H868.237V0.875H857.987V1.875ZM867.737 1.375V53.8125H868.737V1.375H867.737ZM867.737 53.8125C867.737 60.0372 869.519 65.0277 873.13 68.7244L873.845 68.0256C870.456 64.5557 868.737 59.8378 868.737 53.8125H867.737ZM873.132 68.7265C876.741 72.3787 881.523 74.1875 887.425 74.1875V73.1875C881.743 73.1875 877.234 71.4546 873.843 68.0235L873.132 68.7265ZM887.425 74.1875C893.327 74.1875 898.109 72.3787 901.718 68.7265L901.007 68.0235C897.616 71.4546 893.107 73.1875 887.425 73.1875V74.1875ZM901.716 68.7286C905.372 65.0724 907.175 60.0792 907.175 53.8125H906.175C906.175 59.8791 904.436 64.5943 901.009 68.0214L901.716 68.7286ZM907.175 53.8125V1.375H906.175V53.8125H907.175ZM906.675 1.875H916.862V0.875H906.675V1.875ZM916.362 1.375V53.8125H917.362V1.375H916.362ZM916.362 53.8125C916.362 57.9196 915.644 61.7085 914.213 65.1846L915.137 65.5654C916.623 61.9582 917.362 58.0387 917.362 53.8125H916.362ZM914.211 65.1874C912.82 68.6257 910.837 71.6095 908.262 74.1436L908.963 74.8564C911.638 72.2239 913.697 69.1243 915.138 65.5626L914.211 65.1874ZM908.262 74.1436C905.729 76.6354 902.682 78.6005 899.113 80.0361L899.487 80.9639C903.168 79.4828 906.329 77.4479 908.963 74.8564L908.262 74.1436ZM899.116 80.035C895.598 81.4258 891.703 82.125 887.425 82.125V83.125C891.813 83.125 895.835 82.4075 899.484 80.965L899.116 80.035ZM952.7 82V82.5H953.2V82H952.7ZM942.45 82H941.95V82.5H942.45V82ZM942.45 1.375V0.875H941.95V1.375H942.45ZM952.7 1.375H953.2V0.875H952.7V1.375ZM952.7 81.5H942.45V82.5H952.7V81.5ZM942.95 82V1.375H941.95V82H942.95ZM942.45 1.875H952.7V0.875H942.45V1.875ZM952.2 1.375V82H953.2V1.375H952.2ZM1030.16 10.3125V10.8125H1030.66V10.3125H1030.16ZM1005.85 10.3125V9.8125H1005.35V10.3125H1005.85ZM1005.85 82V82.5H1006.35V82H1005.85ZM995.6 82H995.1V82.5H995.6V82ZM995.6 10.3125H996.1V9.8125H995.6V10.3125ZM971.287 10.3125H970.787V10.8125H971.287V10.3125ZM971.287 1.375V0.875H970.787V1.375H971.287ZM1030.16 1.375H1030.66V0.875H1030.16V1.375ZM1030.16 9.8125L1005.85 9.8125V10.8125L1030.16 10.8125V9.8125ZM1005.35 10.3125V82H1006.35V10.3125H1005.35ZM1005.85 81.5H995.6V82.5H1005.85V81.5ZM996.1 82V10.3125H995.1V82H996.1ZM995.6 9.8125L971.287 9.8125V10.8125L995.6 10.8125V9.8125ZM971.787 10.3125V1.375H970.787V10.3125H971.787ZM971.287 1.875L1030.16 1.875V0.875L971.287 0.875V1.875ZM1029.66 1.375V10.3125H1030.66V1.375H1029.66Z" fill="#E5E5E5"/>
</svg>
