<svg width="1063" height="84" viewBox="0 0 1063 84" fill="none" xmlns="http://www.w3.org/2000/svg">
<path d="M60.75 1.375H61.25V0.875H60.75V1.375ZM60.75 82V82.5H61.25V82H60.75ZM51.8125 82L51.3958 82.2763L51.5441 82.5H51.8125V82ZM11.5 21.1875L11.9167 20.9112L11 19.5283V21.1875H11.5ZM11.5 82V82.5H12V82H11.5ZM1.25 82H0.75V82.5H1.25V82ZM1.25 1.375V0.875H0.75V1.375H1.25ZM10.1875 1.375L10.6042 1.09874L10.4559 0.875H10.1875V1.375ZM50.5 62.1875L50.0833 62.4638L51 63.8467V62.1875H50.5ZM50.5 1.375V0.875H50V1.375H50.5ZM60.25 1.375L60.25 82H61.25L61.25 1.375H60.25ZM60.75 81.5H51.8125V82.5H60.75V81.5ZM52.2292 81.7237L11.9167 20.9112L11.0833 21.4638L51.3958 82.2763L52.2292 81.7237ZM11 21.1875L11 82H12L12 21.1875H11ZM11.5 81.5H1.25V82.5H11.5L11.5 81.5ZM1.75 82L1.75 1.375H0.75L0.75 82H1.75ZM1.25 1.875H10.1875V0.875H1.25V1.875ZM9.77075 1.65126L50.0833 62.4638L50.9167 61.9112L10.6042 1.09874L9.77075 1.65126ZM51 62.1875L51 1.375H50L50 62.1875H51ZM50.5 1.875L60.75 1.875V0.875L50.5 0.875V1.875ZM140.15 73.0625H140.65V72.5625H140.15V73.0625ZM140.15 82V82.5H140.65V82H140.15ZM87.65 82H87.15V82.5H87.65V82ZM87.65 1.375V0.875H87.15V1.375H87.65ZM138.837 1.375H139.337V0.875H138.837V1.375ZM138.837 10.3125V10.8125H139.337V10.3125H138.837ZM97.9 10.3125V9.8125H97.4V10.3125H97.9ZM97.9 35.9375H97.4V36.4375H97.9V35.9375ZM135.65 35.9375H136.15V35.4375H135.65V35.9375ZM135.65 44.875V45.375H136.15V44.875H135.65ZM97.9 44.875V44.375H97.4V44.875H97.9ZM97.9 73.0625H97.4V73.5625H97.9V73.0625ZM139.65 73.0625V82H140.65V73.0625H139.65ZM140.15 81.5L87.65 81.5V82.5L140.15 82.5V81.5ZM88.15 82L88.15 1.375H87.15L87.15 82H88.15ZM87.65 1.875L138.837 1.875V0.875L87.65 0.875V1.875ZM138.337 1.375V10.3125H139.337V1.375H138.337ZM138.837 9.8125L97.9 9.8125V10.8125L138.837 10.8125V9.8125ZM97.4 10.3125V35.9375H98.4V10.3125H97.4ZM97.9 36.4375L135.65 36.4375V35.4375L97.9 35.4375V36.4375ZM135.15 35.9375V44.875H136.15V35.9375H135.15ZM135.65 44.375L97.9 44.375V45.375L135.65 45.375V44.375ZM97.4 44.875V73.0625H98.4V44.875H97.4ZM97.9 73.5625L140.15 73.5625V72.5625L97.9 72.5625V73.5625ZM202.863 23.75L203.343 23.6128L202.863 21.9313L202.382 23.6123L202.863 23.75ZM186.175 82V82.5H186.552L186.656 82.1377L186.175 82ZM179.175 82L178.697 82.1481L178.807 82.5H179.175V82ZM154.175 1.375V0.875H153.496L153.697 1.52308L154.175 1.375ZM165.113 1.375L165.59 1.22832L165.482 0.875H165.113V1.375ZM182.988 59.625L182.51 59.7717L183.004 61.383L183.468 59.7627L182.988 59.625ZM199.675 1.375V0.875H199.298L199.194 1.2373L199.675 1.375ZM206.05 1.375L206.531 1.23777L206.427 0.875H206.05V1.375ZM222.675 59.625L222.194 59.7622L222.657 61.383L223.153 59.7721L222.675 59.625ZM240.613 1.375V0.875H240.243L240.135 1.22785L240.613 1.375ZM251.487 1.375L251.965 1.52275L252.166 0.875H251.487V1.375ZM226.55 82V82.5H226.919L227.028 82.1477L226.55 82ZM219.488 82L219.007 82.1372L219.11 82.5H219.488V82ZM202.382 23.6123L185.694 81.8623L186.656 82.1377L203.343 23.8877L202.382 23.6123ZM186.175 81.5H179.175V82.5H186.175V81.5ZM179.653 81.8519L154.653 1.22692L153.697 1.52308L178.697 82.1481L179.653 81.8519ZM154.175 1.875H165.113V0.875H154.175V1.875ZM164.635 1.52168L182.51 59.7717L183.465 59.4783L165.59 1.22832L164.635 1.52168ZM183.468 59.7627L200.156 1.5127L199.194 1.2373L182.507 59.4873L183.468 59.7627ZM199.675 1.875H206.05V0.875H199.675V1.875ZM205.569 1.51223L222.194 59.7622L223.156 59.4878L206.531 1.23777L205.569 1.51223ZM223.153 59.7721L241.09 1.52215L240.135 1.22785L222.197 59.4779L223.153 59.7721ZM240.613 1.875H251.487V0.875H240.613V1.875ZM251.01 1.22725L226.072 81.8523L227.028 82.1477L251.965 1.52275L251.01 1.22725ZM226.55 81.5H219.488V82.5H226.55V81.5ZM219.968 81.8628L203.343 23.6128L202.382 23.8872L219.007 82.1372L219.968 81.8628ZM266.888 14.5L267.335 14.7236L267.336 14.7208L266.888 14.5ZM280.638 2.625L280.814 3.09295L280.819 3.09089L280.638 2.625ZM300.95 2.6875L300.752 3.1468L300.76 3.14997L300.95 2.6875ZM308.888 7.8125L308.541 8.17268L308.544 8.17582L308.888 7.8125ZM314.2 15.5625L313.738 15.7548L313.741 15.7602L314.2 15.5625ZM316.138 25.0625V25.5625H316.638V25.0625H316.138ZM305.95 25.0625H305.45V25.5625H305.95V25.0625ZM301.7 14L301.344 14.351L301.346 14.3536L301.7 14ZM284.638 10.8125L284.808 11.2827L284.813 11.2807L284.638 10.8125ZM279.575 13.6875L279.898 14.0688L279.899 14.0679L279.575 13.6875ZM276.325 17.75L275.88 17.5215L275.875 17.5313L276.325 17.75ZM286.325 34.875L286.141 35.3401L286.147 35.3421L286.325 34.875ZM296.638 38.3125L296.497 38.7925L296.502 38.7939L296.638 38.3125ZM314.888 49.4375L314.485 49.7347L314.488 49.7375L314.888 49.4375ZM316.2 69.1875L315.749 68.9725L315.747 68.9757L316.2 69.1875ZM310.888 76.0625L310.562 75.6829L310.559 75.6858L310.888 76.0625ZM302.45 80.875L302.615 81.347L302.62 81.3451L302.45 80.875ZM279.95 80.875L279.78 81.3451L279.785 81.3469L279.95 80.875ZM271.45 75.8125L271.103 76.1726L271.11 76.1789L271.45 75.8125ZM266.138 68.0625L265.674 68.2493L265.677 68.2571L266.138 68.0625ZM264.325 58.3125V57.8125H263.825V58.3125H264.325ZM274.575 58.3125H275.075V57.8125H274.575V58.3125ZM278.763 69.6875L278.414 70.0464L278.42 70.0516L278.763 69.6875ZM303.575 70L303.905 70.3752L303.906 70.3749L303.575 70ZM296.7 48.5625L296.516 49.0276L296.522 49.0296L296.7 48.5625ZM286.388 45.125L286.247 45.605L286.252 45.6064L286.388 45.125ZM276.075 40.875L275.831 41.3113L275.833 41.3126L276.075 40.875ZM268.138 34L267.735 34.2972L267.74 34.3037L268.138 34ZM265.45 22.5C265.45 19.8315 266.076 17.2411 267.335 14.7236L266.44 14.2764C265.116 16.9256 264.45 19.6685 264.45 22.5H265.45ZM267.336 14.7208C268.597 12.1585 270.368 9.87713 272.654 7.87629L271.996 7.12371C269.616 9.2062 267.761 11.5915 266.439 14.2792L267.336 14.7208ZM272.654 7.87629C274.938 5.87805 277.656 4.28235 280.814 3.09291L280.461 2.15709C277.203 3.38432 274.379 5.03862 271.996 7.12371L272.654 7.87629ZM280.819 3.09089C283.963 1.86584 287.422 1.25 291.2 1.25V0.25C287.312 0.25 283.728 0.884155 280.456 2.15911L280.819 3.09089ZM291.2 1.25C294.637 1.25 297.819 1.88385 300.752 3.14674L301.148 2.22826C298.081 0.907818 294.763 0.25 291.2 0.25V1.25ZM300.76 3.14997C303.747 4.37732 306.338 6.05194 308.541 8.17266L309.234 7.45234C306.937 5.23973 304.237 3.49768 301.14 2.22503L300.76 3.14997ZM308.544 8.17582C310.783 10.2929 312.515 12.8174 313.738 15.7548L314.662 15.3702C313.385 12.3076 311.575 9.66544 309.231 7.44918L308.544 8.17582ZM313.741 15.7602C315.005 18.6965 315.638 21.7957 315.638 25.0625H316.638C316.638 21.6626 315.978 18.4285 314.659 15.3648L313.741 15.7602ZM316.138 24.5625H305.95V25.5625H316.138V24.5625ZM306.45 25.0625C306.45 20.4075 304.993 16.5863 302.054 13.6464L301.346 14.3536C304.073 17.0803 305.45 20.6342 305.45 25.0625H306.45ZM302.056 13.649C299.125 10.6753 295.496 9.1875 291.2 9.1875V10.1875C295.238 10.1875 298.608 11.5747 301.344 14.351L302.056 13.649ZM291.2 9.1875C288.772 9.1875 286.524 9.57106 284.462 10.3443L284.813 11.2807C286.751 10.5539 288.878 10.1875 291.2 10.1875V9.1875ZM284.467 10.3423C282.459 11.0687 280.718 12.0555 279.251 13.3071L279.899 14.0679C281.265 12.9029 282.899 11.973 284.808 11.2827L284.467 10.3423ZM279.252 13.3062C277.829 14.5136 276.703 15.9191 275.88 17.5216L276.77 17.9784C277.53 16.4975 278.572 15.1947 279.898 14.0688L279.252 13.3062ZM275.875 17.5313C275.094 19.1372 274.7 20.7951 274.7 22.5H275.7C275.7 20.9549 276.056 19.4461 276.775 17.9687L275.875 17.5313ZM274.7 22.5C274.7 25.9487 275.805 28.6823 278.061 30.6286L278.714 29.8714C276.72 28.1511 275.7 25.718 275.7 22.5H274.7ZM278.061 30.6286C280.236 32.5054 282.933 34.0737 286.141 35.3401L286.509 34.4099C283.383 33.1763 280.789 31.6612 278.714 29.8714L278.061 30.6286ZM286.147 35.3421C289.328 36.5559 292.778 37.7059 296.497 38.7924L296.778 37.8326C293.081 36.7525 289.656 35.6108 286.503 34.4079L286.147 35.3421ZM296.502 38.7939C300.176 39.8258 303.577 41.2074 306.708 42.9376L307.192 42.0624C303.989 40.2926 300.516 38.8826 296.773 37.8311L296.502 38.7939ZM306.708 42.9376C309.813 44.6533 312.404 46.9182 314.485 49.7347L315.29 49.1403C313.121 46.2068 310.421 43.8467 307.192 42.0624L306.708 42.9376ZM314.488 49.7375C316.528 52.4583 317.575 56.1538 317.575 60.875H318.575C318.575 56.0129 317.497 52.0834 315.288 49.1375L314.488 49.7375ZM317.575 60.875C317.575 63.7175 316.966 66.4149 315.749 68.9725L316.651 69.4025C317.934 66.7101 318.575 63.8658 318.575 60.875H317.575ZM315.747 68.9757C314.571 71.4898 312.846 73.7255 310.562 75.6829L311.213 76.4421C313.596 74.3995 315.412 72.0519 316.653 69.3993L315.747 68.9757ZM310.559 75.6858C308.321 77.639 305.564 79.2142 302.28 80.4049L302.62 81.3451C306.002 80.1191 308.871 78.486 311.216 76.4392L310.559 75.6858ZM302.285 80.4031C299.013 81.5482 295.32 82.125 291.2 82.125V83.125C295.413 83.125 299.22 82.5352 302.615 81.3469L302.285 80.4031ZM291.2 82.125C287.08 82.125 283.387 81.5482 280.115 80.4031L279.785 81.3469C283.18 82.5352 286.987 83.125 291.2 83.125V82.125ZM280.12 80.4049C276.843 79.2168 274.069 77.5623 271.79 75.4461L271.11 76.1789C273.497 78.3961 276.39 80.1165 279.78 81.3451L280.12 80.4049ZM271.797 75.4525C269.554 73.2915 267.822 70.7646 266.598 67.8679L265.677 68.2571C266.953 71.2771 268.762 73.9169 271.103 76.1725L271.797 75.4525ZM266.601 67.8757C265.419 64.9398 264.825 61.7538 264.825 58.3125H263.825C263.825 61.8712 264.44 65.1852 265.674 68.2493L266.601 67.8757ZM264.325 58.8125H274.575V57.8125H264.325V58.8125ZM274.075 58.3125C274.075 63.2864 275.502 67.2213 278.414 70.0464L279.111 69.3286C276.439 66.7371 275.075 63.0886 275.075 58.3125H274.075ZM278.42 70.0516C281.378 72.8354 285.666 74.1875 291.2 74.1875V73.1875C285.817 73.1875 281.814 71.8729 279.105 69.3234L278.42 70.0516ZM291.2 74.1875C296.724 74.1875 300.988 72.9444 303.905 70.3752L303.245 69.6248C300.579 71.9723 296.592 73.1875 291.2 73.1875V74.1875ZM303.906 70.3749C306.84 67.7859 308.325 64.6104 308.325 60.875H307.325C307.325 64.3062 305.977 67.2141 303.244 69.6251L303.906 70.3749ZM308.325 60.875C308.325 57.4263 307.22 54.6927 304.964 52.7464L304.311 53.5036C306.305 55.2239 307.325 57.657 307.325 60.875H308.325ZM304.964 52.7464C302.787 50.8682 300.088 49.3202 296.878 48.0954L296.522 49.0296C299.645 50.2215 302.238 51.7151 304.311 53.5036L304.964 52.7464ZM296.884 48.0974C293.699 46.8404 290.245 45.6893 286.523 44.6436L286.252 45.6064C289.946 46.644 293.367 47.7846 296.516 49.0276L296.884 48.0974ZM286.528 44.6451C282.852 43.5714 279.449 42.1684 276.317 40.4374L275.833 41.3126C279.034 43.0816 282.506 44.512 286.247 45.6049L286.528 44.6451ZM276.319 40.4387C273.254 38.7219 270.66 36.4752 268.535 33.6963L267.74 34.3037C269.949 37.1914 272.647 39.5281 275.831 41.3113L276.319 40.4387ZM268.54 33.7028C266.497 30.9389 265.45 27.2207 265.45 22.5H264.45C264.45 27.3626 265.528 31.3111 267.735 34.2972L268.54 33.7028ZM432.625 1.375H433.125V0.875H432.625V1.375ZM432.625 82V82.5H433.125V82H432.625ZM423.688 82L423.271 82.2763L423.419 82.5H423.688V82ZM383.375 21.1875L383.792 20.9112L382.875 19.5283V21.1875H383.375ZM383.375 82V82.5H383.875V82H383.375ZM373.125 82H372.625V82.5H373.125V82ZM373.125 1.375V0.875H372.625V1.375H373.125ZM382.062 1.375L382.479 1.09874L382.331 0.875H382.062V1.375ZM422.375 62.1875L421.958 62.4638L422.875 63.8467V62.1875H422.375ZM422.375 1.375V0.875H421.875V1.375H422.375ZM432.125 1.375V82H433.125V1.375H432.125ZM432.625 81.5H423.688V82.5H432.625V81.5ZM424.104 81.7237L383.792 20.9112L382.958 21.4638L423.271 82.2763L424.104 81.7237ZM382.875 21.1875V82H383.875V21.1875H382.875ZM383.375 81.5H373.125V82.5H383.375V81.5ZM373.625 82V1.375H372.625V82H373.625ZM373.125 1.875H382.062V0.875H373.125V1.875ZM381.646 1.65126L421.958 62.4638L422.792 61.9112L382.479 1.09874L381.646 1.65126ZM422.875 62.1875V1.375H421.875V62.1875H422.875ZM422.375 1.875H432.625V0.875H422.375V1.875ZM512.025 73.0625H512.525V72.5625H512.025V73.0625ZM512.025 82V82.5H512.525V82H512.025ZM459.525 82H459.025V82.5H459.525V82ZM459.525 1.375V0.875H459.025V1.375H459.525ZM510.713 1.375H511.213V0.875H510.713V1.375ZM510.713 10.3125V10.8125H511.213V10.3125H510.713ZM469.775 10.3125V9.8125H469.275V10.3125H469.775ZM469.775 35.9375H469.275V36.4375H469.775V35.9375ZM507.525 35.9375H508.025V35.4375H507.525V35.9375ZM507.525 44.875V45.375H508.025V44.875H507.525ZM469.775 44.875V44.375H469.275V44.875H469.775ZM469.775 73.0625H469.275V73.5625H469.775V73.0625ZM511.525 73.0625V82H512.525V73.0625H511.525ZM512.025 81.5L459.525 81.5V82.5L512.025 82.5V81.5ZM460.025 82V1.375H459.025V82H460.025ZM459.525 1.875L510.713 1.875V0.875L459.525 0.875V1.875ZM510.213 1.375V10.3125H511.213V1.375H510.213ZM510.713 9.8125L469.775 9.8125V10.8125L510.713 10.8125V9.8125ZM469.275 10.3125V35.9375H470.275V10.3125H469.275ZM469.775 36.4375L507.525 36.4375V35.4375L469.775 35.4375V36.4375ZM507.025 35.9375V44.875H508.025V35.9375H507.025ZM507.525 44.375L469.775 44.375V45.375L507.525 45.375V44.375ZM469.275 44.875V73.0625H470.275V44.875H469.275ZM469.775 73.5625L512.025 73.5625V72.5625L469.775 72.5625V73.5625ZM574.737 23.75L575.218 23.6128L574.738 21.9313L574.257 23.6123L574.737 23.75ZM558.05 82V82.5H558.427L558.531 82.1377L558.05 82ZM551.05 82L550.572 82.1481L550.682 82.5H551.05V82ZM526.05 1.375V0.875H525.371L525.572 1.52308L526.05 1.375ZM536.987 1.375L537.466 1.22832L537.357 0.875H536.987V1.375ZM554.862 59.625L554.384 59.7717L554.879 61.383L555.343 59.7627L554.862 59.625ZM571.55 1.375V0.875H571.173L571.069 1.2373L571.55 1.375ZM577.925 1.375L578.406 1.23777L578.302 0.875H577.925V1.375ZM594.55 59.625L594.069 59.7622L594.532 61.383L595.028 59.7721L594.55 59.625ZM612.487 1.375V0.875H612.118L612.01 1.22785L612.487 1.375ZM623.362 1.375L623.84 1.52275L624.041 0.875H623.362V1.375ZM598.425 82V82.5H598.794L598.903 82.1477L598.425 82ZM591.362 82L590.882 82.1372L590.985 82.5H591.362V82ZM574.257 23.6123L557.569 81.8623L558.531 82.1377L575.218 23.8877L574.257 23.6123ZM558.05 81.5H551.05V82.5H558.05V81.5ZM551.528 81.8519L526.528 1.22692L525.572 1.52308L550.572 82.1481L551.528 81.8519ZM526.05 1.875H536.987V0.875H526.05V1.875ZM536.509 1.52168L554.384 59.7717L555.341 59.4783L537.466 1.22832L536.509 1.52168ZM555.343 59.7627L572.031 1.5127L571.069 1.2373L554.382 59.4873L555.343 59.7627ZM571.55 1.875H577.925V0.875H571.55V1.875ZM577.444 1.51223L594.069 59.7622L595.031 59.4878L578.406 1.23777L577.444 1.51223ZM595.028 59.7721L612.965 1.52215L612.01 1.22785L594.072 59.4779L595.028 59.7721ZM612.487 1.875H623.362V0.875H612.487V1.875ZM622.885 1.22725L597.947 81.8523L598.903 82.1477L623.84 1.52275L622.885 1.22725ZM598.425 81.5H591.362V82.5H598.425V81.5ZM591.843 81.8628L575.218 23.6128L574.257 23.8872L590.882 82.1372L591.843 81.8628ZM638.763 14.5L639.21 14.7236L639.211 14.7208L638.763 14.5ZM652.513 2.625L652.689 3.09295L652.694 3.09089L652.513 2.625ZM672.825 2.6875L672.627 3.1468L672.635 3.14997L672.825 2.6875ZM680.763 7.8125L680.416 8.17268L680.419 8.17582L680.763 7.8125ZM686.075 15.5625L685.613 15.7548L685.616 15.7602L686.075 15.5625ZM688.013 25.0625V25.5625H688.513V25.0625H688.013ZM677.825 25.0625H677.325V25.5625H677.825V25.0625ZM673.575 14L673.219 14.351L673.221 14.3536L673.575 14ZM656.513 10.8125L656.683 11.2827L656.688 11.2807L656.513 10.8125ZM651.45 13.6875L651.773 14.0688L651.774 14.0679L651.45 13.6875ZM648.2 17.75L647.755 17.5215L647.75 17.5313L648.2 17.75ZM658.2 34.875L658.016 35.3401L658.022 35.3421L658.2 34.875ZM668.513 38.3125L668.372 38.7925L668.377 38.7939L668.513 38.3125ZM686.763 49.4375L686.36 49.7347L686.362 49.7375L686.763 49.4375ZM688.075 69.1875L687.624 68.9725L687.622 68.9757L688.075 69.1875ZM682.763 76.0625L682.437 75.6829L682.434 75.6858L682.763 76.0625ZM674.325 80.875L674.49 81.347L674.495 81.3451L674.325 80.875ZM651.825 80.875L651.655 81.3451L651.66 81.3469L651.825 80.875ZM643.325 75.8125L642.978 76.1726L642.985 76.1789L643.325 75.8125ZM638.013 68.0625L637.549 68.2493L637.552 68.2571L638.013 68.0625ZM636.2 58.3125V57.8125H635.7V58.3125H636.2ZM646.45 58.3125H646.95V57.8125H646.45V58.3125ZM650.638 69.6875L650.289 70.0464L650.295 70.0516L650.638 69.6875ZM675.45 70L675.78 70.3752L675.781 70.3749L675.45 70ZM668.575 48.5625L668.391 49.0276L668.397 49.0296L668.575 48.5625ZM658.263 45.125L658.122 45.605L658.127 45.6064L658.263 45.125ZM647.95 40.875L647.706 41.3113L647.708 41.3126L647.95 40.875ZM640.013 34L639.61 34.2972L639.615 34.3037L640.013 34ZM637.325 22.5C637.325 19.8315 637.951 17.2411 639.21 14.7236L638.315 14.2764C636.991 16.9256 636.325 19.6685 636.325 22.5H637.325ZM639.211 14.7208C640.472 12.1585 642.243 9.87713 644.529 7.87629L643.871 7.12371C641.491 9.2062 639.636 11.5915 638.314 14.2792L639.211 14.7208ZM644.529 7.87629C646.813 5.87805 649.531 4.28235 652.689 3.09291L652.336 2.15709C649.078 3.38432 646.254 5.03862 643.871 7.12371L644.529 7.87629ZM652.694 3.09089C655.838 1.86584 659.297 1.25 663.075 1.25V0.25C659.187 0.25 655.603 0.884155 652.331 2.15911L652.694 3.09089ZM663.075 1.25C666.512 1.25 669.694 1.88385 672.627 3.14674L673.023 2.22826C669.956 0.907818 666.638 0.25 663.075 0.25V1.25ZM672.635 3.14997C675.622 4.37732 678.213 6.05194 680.416 8.17266L681.109 7.45234C678.812 5.23973 676.112 3.49768 673.015 2.22503L672.635 3.14997ZM680.419 8.17582C682.658 10.2929 684.39 12.8174 685.613 15.7548L686.537 15.3702C685.26 12.3076 683.45 9.66544 681.106 7.44918L680.419 8.17582ZM685.616 15.7602C686.88 18.6965 687.513 21.7957 687.513 25.0625H688.513C688.513 21.6626 687.853 18.4285 686.534 15.3648L685.616 15.7602ZM688.013 24.5625H677.825V25.5625H688.013V24.5625ZM678.325 25.0625C678.325 20.4075 676.868 16.5863 673.929 13.6464L673.221 14.3536C675.948 17.0803 677.325 20.6342 677.325 25.0625H678.325ZM673.931 13.649C671 10.6753 667.371 9.1875 663.075 9.1875V10.1875C667.113 10.1875 670.483 11.5747 673.219 14.351L673.931 13.649ZM663.075 9.1875C660.647 9.1875 658.399 9.57106 656.337 10.3443L656.688 11.2807C658.626 10.5539 660.753 10.1875 663.075 10.1875V9.1875ZM656.342 10.3423C654.334 11.0687 652.593 12.0555 651.126 13.3071L651.774 14.0679C653.14 12.9029 654.774 11.973 656.683 11.2827L656.342 10.3423ZM651.127 13.3062C649.703 14.5136 648.578 15.9191 647.755 17.5216L648.645 17.9784C649.405 16.4975 650.447 15.1947 651.773 14.0688L651.127 13.3062ZM647.75 17.5313C646.969 19.1372 646.575 20.7951 646.575 22.5H647.575C647.575 20.9549 647.931 19.4461 648.65 17.9687L647.75 17.5313ZM646.575 22.5C646.575 25.9487 647.68 28.6823 649.936 30.6286L650.589 29.8714C648.595 28.1511 647.575 25.718 647.575 22.5H646.575ZM649.936 30.6286C652.111 32.5054 654.808 34.0737 658.016 35.3401L658.384 34.4099C655.258 33.1763 652.664 31.6612 650.589 29.8714L649.936 30.6286ZM658.022 35.3421C661.203 36.5559 664.653 37.7059 668.372 38.7924L668.653 37.8326C664.956 36.7525 661.531 35.6108 658.378 34.4079L658.022 35.3421ZM668.377 38.7939C672.051 39.8258 675.452 41.2074 678.583 42.9376L679.067 42.0624C675.864 40.2926 672.391 38.8826 668.648 37.8311L668.377 38.7939ZM678.583 42.9376C681.688 44.6533 684.279 46.9182 686.36 49.7347L687.165 49.1403C684.996 46.2068 682.296 43.8467 679.067 42.0624L678.583 42.9376ZM686.362 49.7375C688.403 52.4583 689.45 56.1538 689.45 60.875H690.45C690.45 56.0129 689.372 52.0834 687.163 49.1375L686.362 49.7375ZM689.45 60.875C689.45 63.7175 688.841 66.4149 687.624 68.9725L688.526 69.4025C689.809 66.7101 690.45 63.8658 690.45 60.875H689.45ZM687.622 68.9757C686.446 71.4898 684.721 73.7255 682.437 75.6829L683.088 76.4421C685.471 74.3995 687.287 72.0519 688.528 69.3993L687.622 68.9757ZM682.434 75.6858C680.196 77.639 677.439 79.2142 674.155 80.4049L674.495 81.3451C677.877 80.1191 680.746 78.486 683.091 76.4392L682.434 75.6858ZM674.16 80.4031C670.888 81.5482 667.195 82.125 663.075 82.125V83.125C667.288 83.125 671.095 82.5352 674.49 81.3469L674.16 80.4031ZM663.075 82.125C658.955 82.125 655.262 81.5482 651.99 80.4031L651.66 81.3469C655.055 82.5352 658.862 83.125 663.075 83.125V82.125ZM651.995 80.4049C648.718 79.2168 645.944 77.5623 643.665 75.4461L642.985 76.1789C645.372 78.3961 648.265 80.1165 651.655 81.3451L651.995 80.4049ZM643.672 75.4525C641.429 73.2915 639.697 70.7646 638.473 67.8679L637.552 68.2571C638.828 71.2771 640.637 73.9169 642.978 76.1725L643.672 75.4525ZM638.476 67.8757C637.294 64.9398 636.7 61.7538 636.7 58.3125H635.7C635.7 61.8712 636.315 65.1852 637.549 68.2493L638.476 67.8757ZM636.2 58.8125H646.45V57.8125H636.2V58.8125ZM645.95 58.3125C645.95 63.2864 647.377 67.2213 650.289 70.0464L650.986 69.3286C648.314 66.7371 646.95 63.0886 646.95 58.3125H645.95ZM650.295 70.0516C653.253 72.8354 657.541 74.1875 663.075 74.1875V73.1875C657.693 73.1875 653.689 71.8729 650.98 69.3234L650.295 70.0516ZM663.075 74.1875C668.599 74.1875 672.863 72.9444 675.78 70.3752L675.12 69.6248C672.454 71.9723 668.467 73.1875 663.075 73.1875V74.1875ZM675.781 70.3749C678.715 67.7859 680.2 64.6104 680.2 60.875H679.2C679.2 64.3062 677.852 67.2141 675.119 69.6251L675.781 70.3749ZM680.2 60.875C680.2 57.4263 679.095 54.6927 676.839 52.7464L676.186 53.5036C678.18 55.2239 679.2 57.657 679.2 60.875H680.2ZM676.839 52.7464C674.662 50.8682 671.963 49.3202 668.753 48.0954L668.397 49.0296C671.52 50.2215 674.113 51.7151 676.186 53.5036L676.839 52.7464ZM668.759 48.0974C665.574 46.8404 662.12 45.6893 658.398 44.6436L658.127 45.6064C661.821 46.644 665.242 47.7846 668.391 49.0276L668.759 48.0974ZM658.403 44.6451C654.727 43.5714 651.324 42.1684 648.192 40.4374L647.708 41.3126C650.909 43.0816 654.381 44.512 658.122 45.6049L658.403 44.6451ZM648.194 40.4387C645.129 38.7219 642.535 36.4752 640.41 33.6963L639.615 34.3037C641.824 37.1914 644.521 39.5281 647.706 41.3113L648.194 40.4387ZM640.415 33.7028C638.372 30.9389 637.325 27.2207 637.325 22.5H636.325C636.325 27.3626 637.403 31.3111 639.61 34.2972L640.415 33.7028ZM804.5 1.375H805V0.875H804.5V1.375ZM804.5 82V82.5H805V82H804.5ZM795.562 82L795.146 82.2763L795.294 82.5H795.562V82ZM755.25 21.1875L755.667 20.9112L754.75 19.5283V21.1875H755.25ZM755.25 82V82.5H755.75V82H755.25ZM745 82H744.5V82.5H745V82ZM745 1.375V0.875H744.5V1.375H745ZM753.938 1.375L754.354 1.09874L754.206 0.875H753.938V1.375ZM794.25 62.1875L793.833 62.4638L794.75 63.8467V62.1875H794.25ZM794.25 1.375V0.875H793.75V1.375H794.25ZM804 1.375V82H805V1.375H804ZM804.5 81.5H795.562V82.5H804.5V81.5ZM795.979 81.7237L755.667 20.9112L754.833 21.4638L795.146 82.2763L795.979 81.7237ZM754.75 21.1875V82H755.75V21.1875H754.75ZM755.25 81.5H745V82.5H755.25V81.5ZM745.5 82V1.375H744.5V82H745.5ZM745 1.875H753.938V0.875H745V1.875ZM753.521 1.65126L793.833 62.4638L794.667 61.9112L754.354 1.09874L753.521 1.65126ZM794.75 62.1875V1.375H793.75V62.1875H794.75ZM794.25 1.875H804.5V0.875H794.25V1.875ZM883.9 73.0625H884.4V72.5625H883.9V73.0625ZM883.9 82V82.5H884.4V82H883.9ZM831.4 82H830.9V82.5H831.4V82ZM831.4 1.375V0.875H830.9V1.375H831.4ZM882.588 1.375H883.088V0.875H882.588V1.375ZM882.588 10.3125V10.8125H883.088V10.3125H882.588ZM841.65 10.3125V9.8125H841.15V10.3125H841.65ZM841.65 35.9375H841.15V36.4375H841.65V35.9375ZM879.4 35.9375H879.9V35.4375H879.4V35.9375ZM879.4 44.875V45.375H879.9V44.875H879.4ZM841.65 44.875V44.375H841.15V44.875H841.65ZM841.65 73.0625H841.15V73.5625H841.65V73.0625ZM883.4 73.0625V82H884.4V73.0625H883.4ZM883.9 81.5H831.4V82.5H883.9V81.5ZM831.9 82V1.375H830.9V82H831.9ZM831.4 1.875L882.588 1.875V0.875L831.4 0.875V1.875ZM882.088 1.375V10.3125H883.088V1.375H882.088ZM882.588 9.8125L841.65 9.8125V10.8125L882.588 10.8125V9.8125ZM841.15 10.3125V35.9375H842.15V10.3125H841.15ZM841.65 36.4375H879.4V35.4375H841.65V36.4375ZM878.9 35.9375V44.875H879.9V35.9375H878.9ZM879.4 44.375H841.65V45.375H879.4V44.375ZM841.15 44.875V73.0625H842.15V44.875H841.15ZM841.65 73.5625H883.9V72.5625H841.65V73.5625ZM946.612 23.75L947.093 23.6128L946.613 21.9313L946.132 23.6123L946.612 23.75ZM929.925 82V82.5H930.302L930.406 82.1377L929.925 82ZM922.925 82L922.447 82.1481L922.557 82.5H922.925V82ZM897.925 1.375V0.875H897.246L897.447 1.52308L897.925 1.375ZM908.862 1.375L909.341 1.22832L909.232 0.875H908.862V1.375ZM926.737 59.625L926.259 59.7717L926.754 61.383L927.218 59.7627L926.737 59.625ZM943.425 1.375V0.875H943.048L942.944 1.2373L943.425 1.375ZM949.8 1.375L950.281 1.23777L950.177 0.875H949.8V1.375ZM966.425 59.625L965.944 59.7622L966.407 61.383L966.903 59.7721L966.425 59.625ZM984.362 1.375V0.875H983.993L983.885 1.22785L984.362 1.375ZM995.237 1.375L995.715 1.52275L995.916 0.875H995.237V1.375ZM970.3 82V82.5H970.669L970.778 82.1477L970.3 82ZM963.237 82L962.757 82.1372L962.86 82.5H963.237V82ZM946.132 23.6123L929.444 81.8623L930.406 82.1377L947.093 23.8877L946.132 23.6123ZM929.925 81.5H922.925V82.5H929.925V81.5ZM923.403 81.8519L898.403 1.22692L897.447 1.52308L922.447 82.1481L923.403 81.8519ZM897.925 1.875H908.862V0.875H897.925V1.875ZM908.384 1.52168L926.259 59.7717L927.216 59.4783L909.341 1.22832L908.384 1.52168ZM927.218 59.7627L943.906 1.5127L942.944 1.2373L926.257 59.4873L927.218 59.7627ZM943.425 1.875H949.8V0.875H943.425V1.875ZM949.319 1.51223L965.944 59.7622L966.906 59.4878L950.281 1.23777L949.319 1.51223ZM966.903 59.7721L984.84 1.52215L983.885 1.22785L965.947 59.4779L966.903 59.7721ZM984.362 1.875L995.237 1.875V0.875L984.362 0.875V1.875ZM994.76 1.22725L969.822 81.8523L970.778 82.1477L995.715 1.52275L994.76 1.22725ZM970.3 81.5H963.237V82.5H970.3V81.5ZM963.718 81.8628L947.093 23.6128L946.132 23.8872L962.757 82.1372L963.718 81.8628ZM1010.64 14.5L1011.08 14.7236L1011.09 14.7208L1010.64 14.5ZM1024.39 2.625L1024.56 3.09295L1024.57 3.09089L1024.39 2.625ZM1044.7 2.6875L1044.5 3.1468L1044.51 3.14997L1044.7 2.6875ZM1052.64 7.8125L1052.29 8.17268L1052.29 8.17582L1052.64 7.8125ZM1057.95 15.5625L1057.49 15.7548L1057.49 15.7602L1057.95 15.5625ZM1059.89 25.0625V25.5625H1060.39V25.0625H1059.89ZM1049.7 25.0625H1049.2V25.5625H1049.7V25.0625ZM1045.45 14L1045.09 14.351L1045.1 14.3536L1045.45 14ZM1028.39 10.8125L1028.56 11.2827L1028.56 11.2807L1028.39 10.8125ZM1023.32 13.6875L1023.65 14.0688L1023.65 14.0679L1023.32 13.6875ZM1020.07 17.75L1019.63 17.5215L1019.63 17.5313L1020.07 17.75ZM1030.07 34.875L1029.89 35.3401L1029.9 35.3421L1030.07 34.875ZM1040.39 38.3125L1040.25 38.7925L1040.25 38.7939L1040.39 38.3125ZM1058.64 49.4375L1058.24 49.7347L1058.24 49.7375L1058.64 49.4375ZM1059.95 69.1875L1059.5 68.9725L1059.5 68.9757L1059.95 69.1875ZM1054.64 76.0625L1054.31 75.6829L1054.31 75.6858L1054.64 76.0625ZM1046.2 80.875L1046.37 81.347L1046.37 81.3451L1046.2 80.875ZM1023.7 80.875L1023.53 81.3451L1023.53 81.3469L1023.7 80.875ZM1015.2 75.8125L1014.85 76.1726L1014.86 76.1789L1015.2 75.8125ZM1009.89 68.0625L1009.42 68.2493L1009.43 68.2571L1009.89 68.0625ZM1008.08 58.3125V57.8125H1007.58V58.3125H1008.08ZM1018.32 58.3125H1018.82V57.8125H1018.32V58.3125ZM1022.51 69.6875L1022.16 70.0464L1022.17 70.0516L1022.51 69.6875ZM1047.32 70L1047.66 70.3752L1047.66 70.3749L1047.32 70ZM1040.45 48.5625L1040.27 49.0276L1040.27 49.0296L1040.45 48.5625ZM1030.14 45.125L1030 45.605L1030 45.6064L1030.14 45.125ZM1019.82 40.875L1019.58 41.3113L1019.58 41.3126L1019.82 40.875ZM1011.89 34L1011.49 34.2972L1011.49 34.3037L1011.89 34ZM1009.2 22.5C1009.2 19.8315 1009.83 17.2411 1011.08 14.7236L1010.19 14.2764C1008.87 16.9256 1008.2 19.6685 1008.2 22.5H1009.2ZM1011.09 14.7208C1012.35 12.1585 1014.12 9.87713 1016.4 7.87629L1015.75 7.12371C1013.37 9.2062 1011.51 11.5915 1010.19 14.2792L1011.09 14.7208ZM1016.4 7.87629C1018.69 5.87805 1021.41 4.28235 1024.56 3.09291L1024.21 2.15709C1020.95 3.38432 1018.13 5.03862 1015.75 7.12371L1016.4 7.87629ZM1024.57 3.09089C1027.71 1.86584 1031.17 1.25 1034.95 1.25V0.25C1031.06 0.25 1027.48 0.884155 1024.21 2.15911L1024.57 3.09089ZM1034.95 1.25C1038.39 1.25 1041.57 1.88385 1044.5 3.14674L1044.9 2.22826C1041.83 0.907818 1038.51 0.25 1034.95 0.25V1.25ZM1044.51 3.14997C1047.5 4.37732 1050.09 6.05194 1052.29 8.17266L1052.98 7.45234C1050.69 5.23973 1047.99 3.49768 1044.89 2.22503L1044.51 3.14997ZM1052.29 8.17582C1054.53 10.2929 1056.26 12.8174 1057.49 15.7548L1058.41 15.3702C1057.14 12.3076 1055.33 9.66544 1052.98 7.44918L1052.29 8.17582ZM1057.49 15.7602C1058.76 18.6965 1059.39 21.7957 1059.39 25.0625H1060.39C1060.39 21.6626 1059.73 18.4285 1058.41 15.3648L1057.49 15.7602ZM1059.89 24.5625H1049.7V25.5625H1059.89V24.5625ZM1050.2 25.0625C1050.2 20.4075 1048.74 16.5863 1045.8 13.6464L1045.1 14.3536C1047.82 17.0803 1049.2 20.6342 1049.2 25.0625H1050.2ZM1045.81 13.649C1042.88 10.6753 1039.25 9.1875 1034.95 9.1875V10.1875C1038.99 10.1875 1042.36 11.5747 1045.09 14.351L1045.81 13.649ZM1034.95 9.1875C1032.52 9.1875 1030.27 9.57106 1028.21 10.3443L1028.56 11.2807C1030.5 10.5539 1032.63 10.1875 1034.95 10.1875V9.1875ZM1028.22 10.3423C1026.21 11.0687 1024.47 12.0555 1023 13.3071L1023.65 14.0679C1025.02 12.9029 1026.65 11.973 1028.56 11.2827L1028.22 10.3423ZM1023 13.3062C1021.58 14.5136 1020.45 15.9191 1019.63 17.5216L1020.52 17.9784C1021.28 16.4975 1022.32 15.1947 1023.65 14.0688L1023 13.3062ZM1019.63 17.5313C1018.84 19.1372 1018.45 20.7951 1018.45 22.5H1019.45C1019.45 20.9549 1019.81 19.4461 1020.52 17.9687L1019.63 17.5313ZM1018.45 22.5C1018.45 25.9487 1019.55 28.6823 1021.81 30.6286L1022.46 29.8714C1020.47 28.1511 1019.45 25.718 1019.45 22.5H1018.45ZM1021.81 30.6286C1023.99 32.5054 1026.68 34.0737 1029.89 35.3401L1030.26 34.4099C1027.13 33.1763 1024.54 31.6612 1022.46 29.8714L1021.81 30.6286ZM1029.9 35.3421C1033.08 36.5559 1036.53 37.7059 1040.25 38.7924L1040.53 37.8326C1036.83 36.7525 1033.41 35.6108 1030.25 34.4079L1029.9 35.3421ZM1040.25 38.7939C1043.93 39.8258 1047.33 41.2074 1050.46 42.9376L1050.94 42.0624C1047.74 40.2926 1044.27 38.8826 1040.52 37.8311L1040.25 38.7939ZM1050.46 42.9376C1053.56 44.6533 1056.15 46.9182 1058.24 49.7347L1059.04 49.1403C1056.87 46.2068 1054.17 43.8467 1050.94 42.0624L1050.46 42.9376ZM1058.24 49.7375C1060.28 52.4583 1061.32 56.1538 1061.32 60.875H1062.32C1062.32 56.0129 1061.25 52.0834 1059.04 49.1375L1058.24 49.7375ZM1061.32 60.875C1061.32 63.7175 1060.72 66.4149 1059.5 68.9725L1060.4 69.4025C1061.68 66.7101 1062.32 63.8658 1062.32 60.875H1061.32ZM1059.5 68.9757C1058.32 71.4898 1056.6 73.7255 1054.31 75.6829L1054.96 76.4421C1057.35 74.3995 1059.16 72.0519 1060.4 69.3993L1059.5 68.9757ZM1054.31 75.6858C1052.07 77.639 1049.31 79.2142 1046.03 80.4049L1046.37 81.3451C1049.75 80.1191 1052.62 78.486 1054.97 76.4392L1054.31 75.6858ZM1046.03 80.4031C1042.76 81.5482 1039.07 82.125 1034.95 82.125V83.125C1039.16 83.125 1042.97 82.5352 1046.37 81.3469L1046.03 80.4031ZM1034.95 82.125C1030.83 82.125 1027.14 81.5482 1023.87 80.4031L1023.53 81.3469C1026.93 82.5352 1030.74 83.125 1034.95 83.125V82.125ZM1023.87 80.4049C1020.59 79.2168 1017.82 77.5623 1015.54 75.4461L1014.86 76.1789C1017.25 78.3961 1020.14 80.1165 1023.53 81.3451L1023.87 80.4049ZM1015.55 75.4525C1013.3 73.2915 1011.57 70.7646 1010.35 67.8679L1009.43 68.2571C1010.7 71.2771 1012.51 73.9169 1014.85 76.1725L1015.55 75.4525ZM1010.35 67.8757C1009.17 64.9398 1008.58 61.7538 1008.58 58.3125H1007.58C1007.58 61.8712 1008.19 65.1852 1009.42 68.2493L1010.35 67.8757ZM1008.08 58.8125H1018.32V57.8125H1008.08V58.8125ZM1017.82 58.3125C1017.82 63.2864 1019.25 67.2213 1022.16 70.0464L1022.86 69.3286C1020.19 66.7371 1018.82 63.0886 1018.82 58.3125H1017.82ZM1022.17 70.0516C1025.13 72.8354 1029.42 74.1875 1034.95 74.1875V73.1875C1029.57 73.1875 1025.56 71.8729 1022.86 69.3234L1022.17 70.0516ZM1034.95 74.1875C1040.47 74.1875 1044.74 72.9444 1047.66 70.3752L1046.99 69.6248C1044.33 71.9723 1040.34 73.1875 1034.95 73.1875V74.1875ZM1047.66 70.3749C1050.59 67.7859 1052.07 64.6104 1052.07 60.875H1051.07C1051.07 64.3062 1049.73 67.2141 1046.99 69.6251L1047.66 70.3749ZM1052.07 60.875C1052.07 57.4263 1050.97 54.6927 1048.71 52.7464L1048.06 53.5036C1050.05 55.2239 1051.07 57.657 1051.07 60.875H1052.07ZM1048.71 52.7464C1046.54 50.8682 1043.84 49.3202 1040.63 48.0954L1040.27 49.0296C1043.4 50.2215 1045.99 51.7151 1048.06 53.5036L1048.71 52.7464ZM1040.63 48.0974C1037.45 46.8404 1034 45.6893 1030.27 44.6436L1030 45.6064C1033.7 46.644 1037.12 47.7846 1040.27 49.0276L1040.63 48.0974ZM1030.28 44.6451C1026.6 43.5714 1023.2 42.1684 1020.07 40.4374L1019.58 41.3126C1022.78 43.0816 1026.26 44.512 1030 45.6049L1030.28 44.6451ZM1020.07 40.4387C1017 38.7219 1014.41 36.4752 1012.28 33.6963L1011.49 34.3037C1013.7 37.1914 1016.4 39.5281 1019.58 41.3113L1020.07 40.4387ZM1012.29 33.7028C1010.25 30.9389 1009.2 27.2207 1009.2 22.5H1008.2C1008.2 27.3626 1009.28 31.3111 1011.49 34.2972L1012.29 33.7028Z" fill="#E5E5E5"/>
</svg>
