<svg width="1137" height="84" viewBox="0 0 1137 84" fill="none" xmlns="http://www.w3.org/2000/svg">
<path d="M28 12.0625L27.7855 11.6109L28 12.0625ZM19.125 18.75L18.7531 18.4158L18.7528 18.4161L19.125 18.75ZM13 28.875L12.5347 28.6919L12.5331 28.6962L13 28.875ZM13 54.5L12.5331 54.6788L12.5347 54.6831L13 54.5ZM19.125 64.6875L18.7504 65.0187L18.7555 65.0244L19.125 64.6875ZM28 71.3125L27.7855 71.7641L28 71.3125ZM46.9375 72.25L47.109 72.7197L47.1131 72.7182L46.9375 72.25ZM58.875 62.375L58.4428 62.1236L58.4414 62.1261L58.875 62.375ZM61.9375 55.125V54.625H61.5578L61.4559 54.9908L61.9375 55.125ZM72.8125 55.125L73.2923 55.2658L73.4803 54.625H72.8125V55.125ZM68.0625 65.875L67.6361 65.6138L68.0625 65.875ZM60.5625 74.6875L60.8879 75.0671L60.8883 75.0667L60.5625 74.6875ZM50.5 80.5625L50.6721 81.0319L50.675 81.0309L50.5 80.5625ZM23.9375 79.5L23.729 79.9545L23.7306 79.9552L23.9375 79.5ZM3.625 57.8125L3.16404 58.0062L3.625 57.8125ZM3.625 25.625L3.16346 25.4327L3.625 25.625ZM23.9375 3.875L23.7306 3.41982L23.729 3.42053L23.9375 3.875ZM50.1875 2.875L50.0055 3.34072L50.0102 3.3425L50.1875 2.875ZM60 8.75L59.6715 9.12697L59.6746 9.12963L60 8.75ZM67.4375 17.5L67.8639 17.2388L67.4375 17.5ZM72.1875 28.25V28.75H72.8553L72.6673 28.1092L72.1875 28.25ZM61.25 28.25L60.7664 28.3769L60.8642 28.75H61.25V28.25ZM58.25 21.0625L57.8143 21.3081L57.8199 21.3174L58.25 21.0625ZM53.3125 15.125L52.9884 15.5058L52.9924 15.5091L53.3125 15.125ZM46.625 11.1875L46.4393 11.6518L46.446 11.6544L46.625 11.1875ZM38.25 9.1875C34.6718 9.1875 31.1821 9.99746 27.7855 11.6109L28.2145 12.5141C31.4846 10.9609 34.8282 10.1875 38.25 10.1875V9.1875ZM27.7855 11.6109C24.3896 13.2239 21.3785 15.494 18.7531 18.4158L19.4969 19.0842C22.0382 16.256 24.9437 14.0678 28.2145 12.5141L27.7855 11.6109ZM18.7528 18.4161C16.1674 21.2982 14.0959 24.7257 12.5347 28.6919L13.4653 29.0581C14.9874 25.191 16.9993 21.8685 19.4972 19.0839L18.7528 18.4161ZM12.5331 28.6962C11.0091 32.6755 10.25 37.0076 10.25 41.6875H11.25C11.25 37.1174 11.9909 32.9078 13.4669 29.0538L12.5331 28.6962ZM10.25 41.6875C10.25 46.3674 11.0091 50.6995 12.5331 54.6788L13.4669 54.3212C11.9909 50.4672 11.25 46.2576 11.25 41.6875H10.25ZM12.5347 54.6831C14.0957 58.6488 16.1665 62.096 18.7504 65.0187L19.4996 64.3563C17.0001 61.529 14.9876 58.1845 13.4653 54.3169L12.5347 54.6831ZM18.7555 65.0244C21.3808 67.9037 24.3912 70.1519 27.7855 71.7641L28.2145 70.8609C24.9421 69.3064 22.0358 67.1379 19.4945 64.3506L18.7555 65.0244ZM27.7855 71.7641C31.1821 73.3775 34.6718 74.1875 38.25 74.1875V73.1875C34.8282 73.1875 31.4846 72.4141 28.2145 70.8609L27.7855 71.7641ZM38.25 74.1875C41.4674 74.1875 44.4222 73.7006 47.109 72.7197L46.766 71.7803C44.2028 72.7161 41.3659 73.1875 38.25 73.1875V74.1875ZM47.1131 72.7182C49.8274 71.7003 52.2106 70.3399 54.2576 68.6341L53.6174 67.8659C51.6644 69.4934 49.381 70.7997 46.7619 71.7818L47.1131 72.7182ZM54.2576 68.6341C56.303 66.9296 57.9873 64.9256 59.3086 62.6239L58.4414 62.1261C57.1793 64.3244 55.572 66.2371 53.6174 67.8659L54.2576 68.6341ZM59.3072 62.6264C60.6618 60.2982 61.6993 57.8421 62.4191 55.2592L61.4559 54.9908C60.759 57.4912 59.7548 59.8685 58.4428 62.1236L59.3072 62.6264ZM61.9375 55.625H72.8125V54.625H61.9375V55.625ZM72.3327 54.9842C71.2199 58.7762 69.6543 62.3189 67.6361 65.6138L68.4889 66.1362C70.5541 62.7644 72.1551 59.1405 73.2923 55.2658L72.3327 54.9842ZM67.6361 65.6138C65.6216 68.9029 63.1555 71.8006 60.2367 74.3083L60.8883 75.0667C63.8862 72.4911 66.4201 69.5137 68.4889 66.1362L67.6361 65.6138ZM60.2371 74.3079C57.3673 76.7677 54.0647 78.6969 50.325 80.0941L50.675 81.0309C54.5186 79.5948 57.9243 77.6073 60.8879 75.0671L60.2371 74.3079ZM50.3279 80.0931C46.6385 81.4458 42.6141 82.125 38.25 82.125V83.125C42.7192 83.125 46.8615 82.4292 50.6721 81.0319L50.3279 80.0931ZM38.25 82.125C33.3642 82.125 28.6638 81.0991 24.1444 79.0448L23.7306 79.9552C28.3779 82.0676 33.2192 83.125 38.25 83.125V82.125ZM24.146 79.0455C19.6645 76.9898 15.7177 74.1328 12.3032 70.4715L11.5718 71.1535C15.074 74.9088 19.1272 77.8435 23.729 79.9545L24.146 79.0455ZM12.3032 70.4715C8.88742 66.8088 6.14786 62.5261 4.08596 57.6188L3.16404 58.0062C5.26881 63.0155 8.07091 67.3995 11.5718 71.1535L12.3032 70.4715ZM4.08596 57.6188C2.03032 52.7264 1 47.4178 1 41.6875H0C0 47.5405 1.05301 52.9819 3.16404 58.0062L4.08596 57.6188ZM1 41.6875C1 36.0416 2.02995 30.7531 4.08654 25.8173L3.16346 25.4327C1.05339 30.4969 0 35.9168 0 41.6875H1ZM4.08654 25.8173C6.14858 20.8684 8.88807 16.5655 12.3032 12.9035L11.5718 12.2215C8.07026 15.9762 5.26809 20.3816 3.16346 25.4327L4.08654 25.8173ZM12.3032 12.9035C15.7177 9.24216 19.6645 6.38519 24.146 4.32947L23.729 3.42053C19.1272 5.53148 15.074 8.46617 11.5718 12.2215L12.3032 12.9035ZM24.1444 4.33018C28.6638 2.27592 33.3642 1.25 38.25 1.25V0.25C33.2192 0.25 28.3779 1.30742 23.7306 3.41982L24.1444 4.33018ZM38.25 1.25C42.5281 1.25 46.4447 1.94913 50.0055 3.3407L50.3695 2.4093C46.6803 0.967537 42.6386 0.25 38.25 0.25V1.25ZM50.0102 3.3425C53.5799 4.69655 56.7996 6.62426 59.6715 9.12695L60.3285 8.37305C57.3671 5.7924 54.0451 3.80345 50.3648 2.4075L50.0102 3.3425ZM59.6746 9.12963C62.5509 11.5951 64.9962 14.4715 67.0111 17.7612L67.8639 17.2388C65.7954 13.8618 63.2824 10.9049 60.3254 8.37037L59.6746 9.12963ZM67.0111 17.7612C69.0293 21.0561 70.5949 24.5988 71.7077 28.3908L72.6673 28.1092C71.5301 24.2345 69.9291 20.6106 67.8639 17.2388L67.0111 17.7612ZM72.1875 27.75H61.25V28.75H72.1875V27.75ZM61.7336 28.1231C61.0552 25.5367 60.0373 23.0978 58.6801 20.8076L57.8199 21.3174C59.1294 23.5272 60.1114 25.8799 60.7664 28.3769L61.7336 28.1231ZM58.6856 20.817C57.3645 18.4731 55.6797 16.4468 53.6326 14.7409L52.9924 15.5091C54.9453 17.1365 56.5522 19.0686 57.8144 21.308L58.6856 20.817ZM53.6366 14.7442C51.6333 13.0394 49.3547 11.6984 46.804 10.7206L46.446 11.6544C48.8953 12.5933 51.075 13.8773 52.9884 15.5058L53.6366 14.7442ZM46.8107 10.7233C44.2437 9.69646 41.3878 9.1875 38.25 9.1875V10.1875C41.2789 10.1875 44.0063 10.6785 46.4393 11.6517L46.8107 10.7233ZM98.775 54.5L98.3081 54.6788L98.3097 54.6831L98.775 54.5ZM104.9 64.6875L104.525 65.0187L104.531 65.0244L104.9 64.6875ZM113.775 71.3125L113.56 71.7641L113.775 71.3125ZM143.087 64.6875L143.46 65.0214L143.462 65.0187L143.087 64.6875ZM149.212 54.5L149.678 54.6831L149.678 54.6815L149.212 54.5ZM143.087 18.75L142.713 19.0812L142.715 19.0839L143.087 18.75ZM113.775 12.0625L113.56 11.6109L113.775 12.0625ZM104.9 18.75L104.528 18.4158L104.528 18.4161L104.9 18.75ZM98.775 28.875L98.3097 28.6919L98.3081 28.6962L98.775 28.875ZM138.275 79.5L138.068 79.0448L138.067 79.0455L138.275 79.5ZM109.713 79.5L109.504 79.9545L109.506 79.9552L109.713 79.5ZM89.4 57.8125L88.939 58.0062L89.4 57.8125ZM89.4 25.625L88.9385 25.4327L89.4 25.625ZM109.713 3.875L109.506 3.41982L109.504 3.42053L109.713 3.875ZM138.275 3.875L138.067 4.32947L138.068 4.33018L138.275 3.875ZM96.025 41.6875C96.025 46.3674 96.7841 50.6995 98.3081 54.6788L99.2419 54.3212C97.7659 50.4672 97.025 46.2576 97.025 41.6875H96.025ZM98.3097 54.6831C99.8707 58.6488 101.942 62.096 104.525 65.0187L105.275 64.3563C102.775 61.529 100.763 58.1845 99.2403 54.3169L98.3097 54.6831ZM104.531 65.0244C107.156 67.9037 110.166 70.1519 113.56 71.7641L113.99 70.8609C110.717 69.3064 107.811 67.1379 105.269 64.3506L104.531 65.0244ZM113.56 71.7641C116.957 73.3775 120.447 74.1875 124.025 74.1875V73.1875C120.603 73.1875 117.26 72.4141 113.99 70.8609L113.56 71.7641ZM124.025 74.1875C127.603 74.1875 131.093 73.3775 134.49 71.7641L134.06 70.8609C130.79 72.4141 127.447 73.1875 124.025 73.1875V74.1875ZM134.49 71.7641C137.885 70.1515 140.875 67.9024 143.46 65.0214L142.715 64.3536C140.216 67.1392 137.332 69.3068 134.06 70.8609L134.49 71.7641ZM143.462 65.0187C146.046 62.096 148.117 58.6488 149.678 54.6831L148.747 54.3169C147.225 58.1845 145.212 61.529 142.713 64.3563L143.462 65.0187ZM149.678 54.6815C151.244 50.6609 152.025 46.328 152.025 41.6875H151.025C151.025 46.2137 150.264 50.4225 148.747 54.3185L149.678 54.6815ZM152.025 41.6875C152.025 37.006 151.245 32.6724 149.678 28.6919L148.747 29.0581C150.264 32.911 151.025 37.119 151.025 41.6875H152.025ZM149.678 28.6919C148.117 24.7257 146.045 21.2982 143.46 18.4161L142.715 19.0839C145.213 21.8685 147.225 25.191 148.747 29.0581L149.678 28.6919ZM143.462 18.4188C140.878 15.4953 137.886 13.2243 134.49 11.6109L134.06 12.5141C137.33 14.0674 140.214 16.2547 142.713 19.0812L143.462 18.4188ZM134.49 11.6109C131.093 9.99746 127.603 9.1875 124.025 9.1875V10.1875C127.447 10.1875 130.79 10.9609 134.06 12.5141L134.49 11.6109ZM124.025 9.1875C120.447 9.1875 116.957 9.99746 113.56 11.6109L113.99 12.5141C117.26 10.9609 120.603 10.1875 124.025 10.1875V9.1875ZM113.56 11.6109C110.165 13.2239 107.153 15.494 104.528 18.4158L105.272 19.0842C107.813 16.256 110.719 14.0678 113.99 12.5141L113.56 11.6109ZM104.528 18.4161C101.942 21.2982 99.8709 24.7257 98.3097 28.6919L99.2403 29.0581C100.762 25.191 102.774 21.8685 105.272 19.0839L104.528 18.4161ZM98.3081 28.6962C96.7841 32.6755 96.025 37.0076 96.025 41.6875H97.025C97.025 37.1174 97.7659 32.9078 99.2419 29.0538L98.3081 28.6962ZM161.275 41.6875C161.275 47.4178 160.245 52.7264 158.189 57.6188L159.111 58.0062C161.222 52.9819 162.275 47.5405 162.275 41.6875H161.275ZM158.189 57.6188C156.127 62.5261 153.388 66.8088 149.972 70.4715L150.703 71.1535C154.204 67.3995 157.006 63.0155 159.111 58.0062L158.189 57.6188ZM149.972 70.4715C146.558 74.132 142.591 76.9889 138.068 79.0448L138.482 79.9552C143.126 77.8444 147.2 74.9096 150.703 71.1535L149.972 70.4715ZM138.067 79.0455C133.59 81.0991 128.911 82.125 124.025 82.125V83.125C129.056 83.125 133.877 82.0676 138.483 79.9545L138.067 79.0455ZM124.025 82.125C119.139 82.125 114.439 81.0991 109.919 79.0448L109.506 79.9552C114.153 82.0676 118.994 83.125 124.025 83.125V82.125ZM109.921 79.0455C105.439 76.9898 101.493 74.1328 98.0782 70.4715L97.3468 71.1535C100.849 74.9088 104.902 77.8435 109.504 79.9545L109.921 79.0455ZM98.0782 70.4715C94.6624 66.8088 91.9229 62.5261 89.861 57.6188L88.939 58.0062C91.0438 63.0155 93.8459 67.3995 97.3468 71.1535L98.0782 70.4715ZM89.861 57.6188C87.8053 52.7264 86.775 47.4178 86.775 41.6875H85.775C85.775 47.5405 86.828 52.9819 88.939 58.0062L89.861 57.6188ZM86.775 41.6875C86.775 36.0416 87.8049 30.7531 89.8615 25.8173L88.9385 25.4327C86.8284 30.4969 85.775 35.9168 85.775 41.6875H86.775ZM89.8615 25.8173C91.9236 20.8684 94.6631 16.5655 98.0782 12.9035L97.3468 12.2215C93.8453 15.9762 91.0431 20.3816 88.9385 25.4327L89.8615 25.8173ZM98.0782 12.9035C101.493 9.24216 105.439 6.38519 109.921 4.32947L109.504 3.42053C104.902 5.53148 100.849 8.46617 97.3468 12.2215L98.0782 12.9035ZM109.919 4.33018C114.439 2.27592 119.139 1.25 124.025 1.25V0.25C118.994 0.25 114.153 1.30742 109.506 3.41982L109.919 4.33018ZM124.025 1.25C128.911 1.25 133.59 2.27589 138.067 4.32947L138.483 3.42053C133.877 1.30744 129.056 0.25 124.025 0.25V1.25ZM138.068 4.33018C142.591 6.38608 146.558 9.24296 149.972 12.9035L150.703 12.2215C147.2 8.46537 143.126 5.53059 138.482 3.41982L138.068 4.33018ZM149.972 12.9035C153.387 16.5655 156.126 20.8684 158.188 25.8173L159.112 25.4327C157.007 20.3816 154.205 15.9762 150.703 12.2215L149.972 12.9035ZM158.188 25.8173C160.245 30.7531 161.275 36.0416 161.275 41.6875H162.275C162.275 35.9168 161.222 30.4969 159.112 25.4327L158.188 25.8173ZM242.425 1.375H242.925V0.875H242.425V1.375ZM242.425 82V82.5H242.925V82H242.425ZM233.488 82L233.071 82.2763L233.219 82.5H233.488V82ZM193.175 21.1875L193.592 20.9112L192.675 19.5283V21.1875H193.175ZM193.175 82V82.5H193.675V82H193.175ZM182.925 82H182.425V82.5H182.925V82ZM182.925 1.375V0.875H182.425V1.375H182.925ZM191.863 1.375L192.279 1.09874L192.131 0.875H191.863V1.375ZM232.175 62.1875L231.758 62.4638L232.675 63.8467V62.1875H232.175ZM232.175 1.375V0.875H231.675V1.375H232.175ZM241.925 1.375L241.925 82H242.925L242.925 1.375H241.925ZM242.425 81.5H233.488V82.5H242.425V81.5ZM233.904 81.7237L193.592 20.9112L192.758 21.4638L233.071 82.2763L233.904 81.7237ZM192.675 21.1875L192.675 82H193.675L193.675 21.1875H192.675ZM193.175 81.5H182.925V82.5H193.175V81.5ZM183.425 82L183.425 1.375H182.425L182.425 82H183.425ZM182.925 1.875H191.863V0.875H182.925V1.875ZM191.446 1.65126L231.758 62.4638L232.592 61.9112L192.279 1.09874L191.446 1.65126ZM232.675 62.1875L232.675 1.375H231.675L231.675 62.1875H232.675ZM232.175 1.875L242.425 1.875V0.875L232.175 0.875V1.875ZM319.888 10.3125V10.8125H320.388V10.3125H319.888ZM295.575 10.3125V9.8125H295.075V10.3125H295.575ZM295.575 82V82.5H296.075V82H295.575ZM285.325 82H284.825V82.5H285.325V82ZM285.325 10.3125H285.825V9.8125H285.325V10.3125ZM261.013 10.3125H260.513V10.8125H261.013V10.3125ZM261.013 1.375V0.875H260.513V1.375H261.013ZM319.888 1.375H320.388V0.875H319.888V1.375ZM319.888 9.8125H295.575V10.8125H319.888V9.8125ZM295.075 10.3125V82H296.075V10.3125H295.075ZM295.575 81.5H285.325V82.5H295.575V81.5ZM285.825 82V10.3125H284.825V82H285.825ZM285.325 9.8125L261.013 9.8125V10.8125L285.325 10.8125V9.8125ZM261.513 10.3125V1.375H260.513V10.3125H261.513ZM261.013 1.875L319.888 1.875V0.875L261.013 0.875V1.875ZM319.388 1.375V10.3125H320.388V1.375H319.388ZM374.913 62.1875L375.379 62.0066L375.255 61.6875H374.913V62.1875ZM341.663 62.1875V61.6875H341.32L341.196 62.0066L341.663 62.1875ZM333.975 82V82.5H334.317L334.441 82.1809L333.975 82ZM323.1 82L322.633 81.8218L322.374 82.5H323.1V82ZM353.85 1.375V0.875H353.506L353.383 1.19682L353.85 1.375ZM362.788 1.375L363.255 1.19714L363.132 0.875H362.788V1.375ZM393.475 82V82.5L394.2 82.5L393.942 81.8221L393.475 82ZM382.6 82L382.134 82.1809L382.258 82.5H382.6V82ZM344.85 53.1875L344.383 53.0091L344.124 53.6875H344.85V53.1875ZM371.725 53.1875V53.6875H372.451L372.192 53.0091L371.725 53.1875ZM358.288 18L358.755 17.8216L358.288 16.5985L357.82 17.8216L358.288 18ZM374.913 61.6875H341.663V62.6875H374.913V61.6875ZM341.196 62.0066L333.509 81.8191L334.441 82.1809L342.129 62.3684L341.196 62.0066ZM333.975 81.5H323.1V82.5H333.975V81.5ZM323.567 82.1782L354.317 1.55318L353.383 1.19682L322.633 81.8218L323.567 82.1782ZM353.85 1.875H362.788V0.875H353.85V1.875ZM362.32 1.55286L393.008 82.1779L393.942 81.8221L363.255 1.19714L362.32 1.55286ZM393.475 81.5H382.6V82.5H393.475V81.5ZM383.066 81.8191L375.379 62.0066L374.446 62.3684L382.134 82.1809L383.066 81.8191ZM344.85 53.6875H371.725V52.6875H344.85V53.6875ZM372.192 53.0091L358.755 17.8216L357.82 18.1784L371.258 53.3659L372.192 53.0091ZM357.82 17.8216L344.383 53.0091L345.317 53.3659L358.755 18.1784L357.82 17.8216ZM429.25 12.0625L429.035 11.6109L429.25 12.0625ZM420.375 18.75L420.003 18.4158L420.003 18.4161L420.375 18.75ZM414.25 28.875L413.785 28.6919L413.783 28.6962L414.25 28.875ZM414.25 54.5L413.783 54.6788L413.785 54.6831L414.25 54.5ZM420.375 64.6875L420 65.0187L420.006 65.0244L420.375 64.6875ZM429.25 71.3125L429.035 71.7641L429.25 71.3125ZM448.188 72.25L448.359 72.7197L448.363 72.7182L448.188 72.25ZM460.125 62.375L459.693 62.1236L459.691 62.1261L460.125 62.375ZM463.188 55.125V54.625H462.808L462.706 54.9908L463.188 55.125ZM474.062 55.125L474.542 55.2658L474.73 54.625H474.062V55.125ZM469.312 65.875L468.886 65.6138L469.312 65.875ZM461.812 74.6875L462.138 75.0671L462.138 75.0667L461.812 74.6875ZM451.75 80.5625L451.922 81.0319L451.925 81.0309L451.75 80.5625ZM425.188 79.5L424.979 79.9545L424.981 79.9552L425.188 79.5ZM404.875 57.8125L404.414 58.0062L404.875 57.8125ZM404.875 25.625L404.413 25.4327L404.875 25.625ZM425.188 3.875L424.981 3.41982L424.979 3.42053L425.188 3.875ZM451.438 2.875L451.255 3.34072L451.26 3.3425L451.438 2.875ZM461.25 8.75L460.922 9.12697L460.925 9.12963L461.25 8.75ZM468.688 17.5L469.114 17.2388L468.688 17.5ZM473.438 28.25V28.75H474.105L473.917 28.1092L473.438 28.25ZM462.5 28.25L462.016 28.3769L462.114 28.75H462.5V28.25ZM459.5 21.0625L459.064 21.3081L459.07 21.3174L459.5 21.0625ZM454.562 15.125L454.238 15.5058L454.242 15.5091L454.562 15.125ZM447.875 11.1875L447.689 11.6518L447.696 11.6544L447.875 11.1875ZM439.5 9.1875C435.922 9.1875 432.432 9.99746 429.035 11.6109L429.465 12.5141C432.735 10.9609 436.078 10.1875 439.5 10.1875V9.1875ZM429.035 11.6109C425.64 13.2239 422.628 15.494 420.003 18.4158L420.747 19.0842C423.288 16.256 426.194 14.0678 429.465 12.5141L429.035 11.6109ZM420.003 18.4161C417.417 21.2982 415.346 24.7257 413.785 28.6919L414.715 29.0581C416.237 25.191 418.249 21.8685 420.747 19.0839L420.003 18.4161ZM413.783 28.6962C412.259 32.6755 411.5 37.0076 411.5 41.6875H412.5C412.5 37.1174 413.241 32.9078 414.717 29.0538L413.783 28.6962ZM411.5 41.6875C411.5 46.3674 412.259 50.6995 413.783 54.6788L414.717 54.3212C413.241 50.4672 412.5 46.2576 412.5 41.6875H411.5ZM413.785 54.6831C415.346 58.6488 417.417 62.096 420 65.0187L420.75 64.3563C418.25 61.529 416.238 58.1845 414.715 54.3169L413.785 54.6831ZM420.006 65.0244C422.631 67.9037 425.641 70.1519 429.035 71.7641L429.465 70.8609C426.192 69.3064 423.286 67.1379 420.744 64.3506L420.006 65.0244ZM429.035 71.7641C432.432 73.3775 435.922 74.1875 439.5 74.1875V73.1875C436.078 73.1875 432.735 72.4141 429.465 70.8609L429.035 71.7641ZM439.5 74.1875C442.717 74.1875 445.672 73.7006 448.359 72.7197L448.016 71.7803C445.453 72.7161 442.616 73.1875 439.5 73.1875V74.1875ZM448.363 72.7182C451.077 71.7003 453.461 70.3399 455.508 68.6341L454.867 67.8659C452.914 69.4934 450.631 70.7997 448.012 71.7818L448.363 72.7182ZM455.508 68.6341C457.553 66.9296 459.237 64.9256 460.559 62.6239L459.691 62.1261C458.429 64.3244 456.822 66.2371 454.867 67.8659L455.508 68.6341ZM460.557 62.6264C461.912 60.2982 462.949 57.8421 463.669 55.2592L462.706 54.9908C462.009 57.4912 461.005 59.8685 459.693 62.1236L460.557 62.6264ZM463.188 55.625H474.062V54.625H463.188V55.625ZM473.583 54.9842C472.47 58.7762 470.904 62.3189 468.886 65.6138L469.739 66.1362C471.804 62.7644 473.405 59.1405 474.542 55.2658L473.583 54.9842ZM468.886 65.6138C466.872 68.9029 464.405 71.8006 461.487 74.3083L462.138 75.0667C465.136 72.4911 467.67 69.5137 469.739 66.1362L468.886 65.6138ZM461.487 74.3079C458.617 76.7677 455.315 78.6969 451.575 80.0941L451.925 81.0309C455.769 79.5948 459.174 77.6073 462.138 75.0671L461.487 74.3079ZM451.578 80.0931C447.889 81.4458 443.864 82.125 439.5 82.125V83.125C443.969 83.125 448.111 82.4292 451.922 81.0319L451.578 80.0931ZM439.5 82.125C434.614 82.125 429.914 81.0991 425.394 79.0448L424.981 79.9552C429.628 82.0676 434.469 83.125 439.5 83.125V82.125ZM425.396 79.0455C420.914 76.9898 416.968 74.1328 413.553 70.4715L412.822 71.1535C416.324 74.9088 420.377 77.8435 424.979 79.9545L425.396 79.0455ZM413.553 70.4715C410.137 66.8088 407.398 62.5261 405.336 57.6188L404.414 58.0062C406.519 63.0155 409.321 67.3995 412.822 71.1535L413.553 70.4715ZM405.336 57.6188C403.28 52.7264 402.25 47.4178 402.25 41.6875H401.25C401.25 47.5405 402.303 52.9819 404.414 58.0062L405.336 57.6188ZM402.25 41.6875C402.25 36.0416 403.28 30.7531 405.337 25.8173L404.413 25.4327C402.303 30.4969 401.25 35.9168 401.25 41.6875H402.25ZM405.337 25.8173C407.399 20.8684 410.138 16.5655 413.553 12.9035L412.822 12.2215C409.32 15.9762 406.518 20.3816 404.413 25.4327L405.337 25.8173ZM413.553 12.9035C416.968 9.24216 420.914 6.38519 425.396 4.32947L424.979 3.42053C420.377 5.53148 416.324 8.46617 412.822 12.2215L413.553 12.9035ZM425.394 4.33018C429.914 2.27592 434.614 1.25 439.5 1.25V0.25C434.469 0.25 429.628 1.30742 424.981 3.41982L425.394 4.33018ZM439.5 1.25C443.778 1.25 447.695 1.94913 451.255 3.3407L451.62 2.4093C447.93 0.967537 443.889 0.25 439.5 0.25V1.25ZM451.26 3.3425C454.83 4.69655 458.05 6.62426 460.922 9.12695L461.578 8.37305C458.617 5.7924 455.295 3.80345 451.615 2.4075L451.26 3.3425ZM460.925 9.12963C463.801 11.5951 466.246 14.4715 468.261 17.7612L469.114 17.2388C467.045 13.8618 464.532 10.9049 461.575 8.37037L460.925 9.12963ZM468.261 17.7612C470.279 21.0561 471.845 24.5988 472.958 28.3908L473.917 28.1092C472.78 24.2345 471.179 20.6106 469.114 17.2388L468.261 17.7612ZM473.438 27.75H462.5V28.75H473.438V27.75ZM462.984 28.1231C462.305 25.5367 461.287 23.0978 459.93 20.8076L459.07 21.3174C460.379 23.5272 461.361 25.8799 462.016 28.3769L462.984 28.1231ZM459.936 20.817C458.614 18.4731 456.93 16.4468 454.883 14.7409L454.242 15.5091C456.195 17.1365 457.802 19.0686 459.064 21.308L459.936 20.817ZM454.887 14.7442C452.883 13.0394 450.605 11.6984 448.054 10.7206L447.696 11.6544C450.145 12.5933 452.325 13.8773 454.238 15.5058L454.887 14.7442ZM448.061 10.7233C445.494 9.69646 442.638 9.1875 439.5 9.1875V10.1875C442.529 10.1875 445.256 10.6785 447.689 11.6517L448.061 10.7233ZM545.088 10.3125V10.8125H545.588V10.3125H545.088ZM520.775 10.3125V9.8125H520.275V10.3125H520.775ZM520.775 82V82.5H521.275V82H520.775ZM510.525 82H510.025V82.5H510.525V82ZM510.525 10.3125H511.025V9.8125H510.525V10.3125ZM486.212 10.3125H485.712V10.8125H486.212V10.3125ZM486.212 1.375V0.875H485.712V1.375H486.212ZM545.088 1.375H545.588V0.875H545.088V1.375ZM545.088 9.8125H520.775V10.8125H545.088V9.8125ZM520.275 10.3125V82H521.275V10.3125H520.275ZM520.775 81.5H510.525V82.5H520.775V81.5ZM511.025 82V10.3125H510.025V82H511.025ZM510.525 9.8125L486.212 9.8125V10.8125L510.525 10.8125V9.8125ZM486.712 10.3125V1.375H485.712V10.3125H486.712ZM486.212 1.875L545.088 1.875V0.875L486.212 0.875V1.875ZM544.588 1.375V10.3125H545.588V1.375H544.588ZM619.325 12.0625L619.11 11.6109L619.325 12.0625ZM610.45 18.75L610.078 18.4158L610.078 18.4161L610.45 18.75ZM604.325 28.875L603.86 28.6919L603.858 28.6962L604.325 28.875ZM604.325 54.5L603.858 54.6788L603.86 54.6831L604.325 54.5ZM610.45 64.6875L610.075 65.0187L610.081 65.0244L610.45 64.6875ZM619.325 71.3125L619.11 71.7641L619.325 71.3125ZM638.263 72.25L638.434 72.7197L638.438 72.7182L638.263 72.25ZM650.2 62.375L649.768 62.1236L649.766 62.1261L650.2 62.375ZM653.263 55.125V54.625H652.883L652.781 54.9908L653.263 55.125ZM664.138 55.125L664.617 55.2658L664.805 54.625H664.138V55.125ZM659.388 65.875L658.961 65.6138L659.388 65.875ZM651.888 74.6875L652.213 75.0671L652.213 75.0667L651.888 74.6875ZM641.825 80.5625L641.997 81.0319L642 81.0309L641.825 80.5625ZM615.263 79.5L615.054 79.9545L615.056 79.9552L615.263 79.5ZM594.95 57.8125L594.489 58.0062L594.95 57.8125ZM594.95 25.625L594.488 25.4327L594.95 25.625ZM615.263 3.875L615.056 3.41982L615.054 3.42053L615.263 3.875ZM641.513 2.875L641.331 3.34072L641.335 3.3425L641.513 2.875ZM651.325 8.75L650.997 9.12697L651 9.12963L651.325 8.75ZM658.763 17.5L659.189 17.2388L658.763 17.5ZM663.513 28.25V28.75H664.18L663.992 28.1092L663.513 28.25ZM652.575 28.25L652.091 28.3769L652.189 28.75H652.575V28.25ZM649.575 21.0625L649.139 21.3081L649.145 21.3174L649.575 21.0625ZM644.638 15.125L644.313 15.5058L644.317 15.5091L644.638 15.125ZM637.95 11.1875L637.764 11.6518L637.771 11.6544L637.95 11.1875ZM629.575 9.1875C625.997 9.1875 622.507 9.99746 619.11 11.6109L619.54 12.5141C622.81 10.9609 626.153 10.1875 629.575 10.1875V9.1875ZM619.11 11.6109C615.715 13.2239 612.703 15.494 610.078 18.4158L610.822 19.0842C613.363 16.256 616.269 14.0678 619.54 12.5141L619.11 11.6109ZM610.078 18.4161C607.492 21.2982 605.421 24.7257 603.86 28.6919L604.79 29.0581C606.312 25.191 608.324 21.8685 610.822 19.0839L610.078 18.4161ZM603.858 28.6962C602.334 32.6755 601.575 37.0076 601.575 41.6875H602.575C602.575 37.1174 603.316 32.9078 604.792 29.0538L603.858 28.6962ZM601.575 41.6875C601.575 46.3674 602.334 50.6995 603.858 54.6788L604.792 54.3212C603.316 50.4672 602.575 46.2576 602.575 41.6875H601.575ZM603.86 54.6831C605.421 58.6488 607.492 62.096 610.075 65.0187L610.825 64.3563C608.325 61.529 606.313 58.1845 604.79 54.3169L603.86 54.6831ZM610.081 65.0244C612.706 67.9037 615.716 70.1519 619.11 71.7641L619.54 70.8609C616.267 69.3064 613.361 67.1379 610.82 64.3506L610.081 65.0244ZM619.11 71.7641C622.507 73.3775 625.997 74.1875 629.575 74.1875V73.1875C626.153 73.1875 622.81 72.4141 619.54 70.8609L619.11 71.7641ZM629.575 74.1875C632.792 74.1875 635.747 73.7006 638.434 72.7197L638.091 71.7803C635.528 72.7161 632.691 73.1875 629.575 73.1875V74.1875ZM638.438 72.7182C641.152 71.7003 643.536 70.3399 645.583 68.6341L644.942 67.8659C642.989 69.4934 640.706 70.7997 638.087 71.7818L638.438 72.7182ZM645.583 68.6341C647.628 66.9296 649.312 64.9256 650.634 62.6239L649.766 62.1261C648.504 64.3244 646.897 66.2371 644.942 67.8659L645.583 68.6341ZM650.632 62.6264C651.987 60.2982 653.024 57.8421 653.744 55.2592L652.781 54.9908C652.084 57.4912 651.08 59.8685 649.768 62.1236L650.632 62.6264ZM653.263 55.625L664.138 55.625V54.625L653.263 54.625V55.625ZM663.658 54.9842C662.545 58.7762 660.979 62.3189 658.961 65.6138L659.814 66.1362C661.879 62.7644 663.48 59.1405 664.617 55.2658L663.658 54.9842ZM658.961 65.6138C656.947 68.9029 654.48 71.8006 651.562 74.3083L652.213 75.0667C655.211 72.4911 657.745 69.5137 659.814 66.1362L658.961 65.6138ZM651.562 74.3079C648.692 76.7677 645.39 78.6969 641.65 80.0941L642 81.0309C645.844 79.5948 649.249 77.6073 652.213 75.0671L651.562 74.3079ZM641.653 80.0931C637.964 81.4458 633.939 82.125 629.575 82.125V83.125C634.044 83.125 638.186 82.4292 641.997 81.0319L641.653 80.0931ZM629.575 82.125C624.689 82.125 619.989 81.0991 615.469 79.0448L615.056 79.9552C619.703 82.0676 624.544 83.125 629.575 83.125V82.125ZM615.471 79.0455C610.99 76.9898 607.043 74.1328 603.628 70.4715L602.897 71.1535C606.399 74.9088 610.452 77.8435 615.054 79.9545L615.471 79.0455ZM603.628 70.4715C600.212 66.8088 597.473 62.5261 595.411 57.6188L594.489 58.0062C596.594 63.0155 599.396 67.3995 602.897 71.1535L603.628 70.4715ZM595.411 57.6188C593.355 52.7264 592.325 47.4178 592.325 41.6875H591.325C591.325 47.5405 592.378 52.9819 594.489 58.0062L595.411 57.6188ZM592.325 41.6875C592.325 36.0416 593.355 30.7531 595.412 25.8173L594.488 25.4327C592.378 30.4969 591.325 35.9168 591.325 41.6875H592.325ZM595.412 25.8173C597.474 20.8684 600.213 16.5655 603.628 12.9035L602.897 12.2215C599.395 15.9762 596.593 20.3816 594.488 25.4327L595.412 25.8173ZM603.628 12.9035C607.043 9.24216 610.99 6.38519 615.471 4.32947L615.054 3.42053C610.452 5.53148 606.399 8.46617 602.897 12.2215L603.628 12.9035ZM615.469 4.33018C619.989 2.27592 624.689 1.25 629.575 1.25V0.25C624.544 0.25 619.703 1.30742 615.056 3.41982L615.469 4.33018ZM629.575 1.25C633.853 1.25 637.77 1.94913 641.331 3.3407L641.695 2.4093C638.005 0.967537 633.964 0.25 629.575 0.25V1.25ZM641.335 3.3425C644.905 4.69655 648.125 6.62426 650.997 9.12695L651.654 8.37305C648.692 5.7924 645.37 3.80345 641.69 2.4075L641.335 3.3425ZM651 9.12963C653.876 11.5951 656.321 14.4715 658.336 17.7612L659.189 17.2388C657.12 13.8618 654.607 10.9049 651.65 8.37037L651 9.12963ZM658.336 17.7612C660.354 21.0561 661.92 24.5988 663.033 28.3908L663.992 28.1092C662.855 24.2345 661.254 20.6106 659.189 17.2388L658.336 17.7612ZM663.513 27.75L652.575 27.75V28.75L663.513 28.75V27.75ZM653.059 28.1231C652.38 25.5367 651.362 23.0978 650.005 20.8076L649.145 21.3174C650.454 23.5272 651.436 25.8799 652.091 28.3769L653.059 28.1231ZM650.011 20.817C648.689 18.4731 647.005 16.4468 644.958 14.7409L644.317 15.5091C646.27 17.1365 647.877 19.0686 649.139 21.308L650.011 20.817ZM644.962 14.7442C642.958 13.0394 640.68 11.6984 638.129 10.7206L637.771 11.6544C640.22 12.5933 642.4 13.8773 644.313 15.5058L644.962 14.7442ZM638.136 10.7233C635.569 9.69646 632.713 9.1875 629.575 9.1875V10.1875C632.604 10.1875 635.331 10.6785 637.764 11.6517L638.136 10.7233ZM690.1 54.5L689.633 54.6788L689.635 54.6831L690.1 54.5ZM696.225 64.6875L695.85 65.0187L695.855 65.0244L696.225 64.6875ZM705.1 71.3125L704.885 71.7641L705.1 71.3125ZM734.412 64.6875L734.785 65.0214L734.787 65.0187L734.412 64.6875ZM740.537 54.5L741.003 54.6831L741.003 54.6815L740.537 54.5ZM734.412 18.75L734.038 19.0812L734.04 19.0839L734.412 18.75ZM705.1 12.0625L704.885 11.6109L705.1 12.0625ZM696.225 18.75L695.853 18.4158L695.853 18.4161L696.225 18.75ZM690.1 28.875L689.635 28.6919L689.633 28.6962L690.1 28.875ZM729.6 79.5L729.393 79.0448L729.391 79.0455L729.6 79.5ZM701.037 79.5L700.829 79.9545L700.831 79.9552L701.037 79.5ZM680.725 57.8125L680.264 58.0062L680.725 57.8125ZM680.725 25.625L680.263 25.4327L680.725 25.625ZM701.037 3.875L700.831 3.41982L700.829 3.42053L701.037 3.875ZM729.6 3.875L729.391 4.32947L729.393 4.33018L729.6 3.875ZM687.35 41.6875C687.35 46.3674 688.109 50.6995 689.633 54.6788L690.567 54.3212C689.091 50.4672 688.35 46.2576 688.35 41.6875H687.35ZM689.635 54.6831C691.196 58.6488 693.267 62.096 695.85 65.0187L696.6 64.3563C694.1 61.529 692.088 58.1845 690.565 54.3169L689.635 54.6831ZM695.855 65.0244C698.481 67.9037 701.491 70.1519 704.885 71.7641L705.315 70.8609C702.042 69.3064 699.136 67.1379 696.594 64.3506L695.855 65.0244ZM704.885 71.7641C708.282 73.3775 711.772 74.1875 715.35 74.1875V73.1875C711.928 73.1875 708.585 72.4141 705.315 70.8609L704.885 71.7641ZM715.35 74.1875C718.928 74.1875 722.418 73.3775 725.815 71.7641L725.385 70.8609C722.115 72.4141 718.772 73.1875 715.35 73.1875V74.1875ZM725.815 71.7641C729.21 70.1515 732.2 67.9024 734.785 65.0214L734.04 64.3536C731.541 67.1392 728.657 69.3068 725.385 70.8609L725.815 71.7641ZM734.787 65.0187C737.371 62.096 739.442 58.6488 741.003 54.6831L740.072 54.3169C738.55 58.1845 736.537 61.529 734.038 64.3563L734.787 65.0187ZM741.003 54.6815C742.569 50.6609 743.35 46.328 743.35 41.6875H742.35C742.35 46.2137 741.589 50.4225 740.072 54.3185L741.003 54.6815ZM743.35 41.6875C743.35 37.006 742.57 32.6724 741.003 28.6919L740.072 29.0581C741.589 32.911 742.35 37.119 742.35 41.6875H743.35ZM741.003 28.6919C739.442 24.7257 737.37 21.2982 734.785 18.4161L734.04 19.0839C736.538 21.8685 738.55 25.191 740.072 29.0581L741.003 28.6919ZM734.787 18.4188C732.203 15.4953 729.211 13.2243 725.815 11.6109L725.385 12.5141C728.655 14.0674 731.539 16.2547 734.038 19.0812L734.787 18.4188ZM725.815 11.6109C722.418 9.99746 718.928 9.1875 715.35 9.1875V10.1875C718.772 10.1875 722.115 10.9609 725.385 12.5141L725.815 11.6109ZM715.35 9.1875C711.772 9.1875 708.282 9.99746 704.885 11.6109L705.315 12.5141C708.585 10.9609 711.928 10.1875 715.35 10.1875V9.1875ZM704.885 11.6109C701.49 13.2239 698.478 15.494 695.853 18.4158L696.597 19.0842C699.138 16.256 702.044 14.0678 705.315 12.5141L704.885 11.6109ZM695.853 18.4161C693.267 21.2982 691.196 24.7257 689.635 28.6919L690.565 29.0581C692.087 25.191 694.099 21.8685 696.597 19.0839L695.853 18.4161ZM689.633 28.6962C688.109 32.6755 687.35 37.0076 687.35 41.6875H688.35C688.35 37.1174 689.091 32.9078 690.567 29.0538L689.633 28.6962ZM752.6 41.6875C752.6 47.4178 751.57 52.7264 749.514 57.6188L750.436 58.0062C752.547 52.9819 753.6 47.5405 753.6 41.6875H752.6ZM749.514 57.6188C747.452 62.5261 744.713 66.8088 741.297 70.4715L742.028 71.1535C745.529 67.3995 748.331 63.0155 750.436 58.0062L749.514 57.6188ZM741.297 70.4715C737.883 74.132 733.916 76.9889 729.393 79.0448L729.807 79.9552C734.451 77.8444 738.525 74.9096 742.028 71.1535L741.297 70.4715ZM729.391 79.0455C724.915 81.0991 720.236 82.125 715.35 82.125V83.125C720.381 83.125 725.202 82.0676 729.808 79.9545L729.391 79.0455ZM715.35 82.125C710.464 82.125 705.764 81.0991 701.244 79.0448L700.831 79.9552C705.478 82.0676 710.319 83.125 715.35 83.125V82.125ZM701.246 79.0455C696.764 76.9898 692.818 74.1328 689.403 70.4715L688.672 71.1535C692.174 74.9088 696.227 77.8435 700.829 79.9545L701.246 79.0455ZM689.403 70.4715C685.987 66.8088 683.248 62.5261 681.186 57.6188L680.264 58.0062C682.369 63.0155 685.171 67.3995 688.672 71.1535L689.403 70.4715ZM681.186 57.6188C679.13 52.7264 678.1 47.4178 678.1 41.6875H677.1C677.1 47.5405 678.153 52.9819 680.264 58.0062L681.186 57.6188ZM678.1 41.6875C678.1 36.0416 679.13 30.7531 681.187 25.8173L680.263 25.4327C678.153 30.4969 677.1 35.9168 677.1 41.6875H678.1ZM681.187 25.8173C683.249 20.8684 685.988 16.5655 689.403 12.9035L688.672 12.2215C685.17 15.9762 682.368 20.3816 680.263 25.4327L681.187 25.8173ZM689.403 12.9035C692.818 9.24216 696.764 6.38519 701.246 4.32947L700.829 3.42053C696.227 5.53148 692.174 8.46617 688.672 12.2215L689.403 12.9035ZM701.244 4.33018C705.764 2.27592 710.464 1.25 715.35 1.25V0.25C710.319 0.25 705.478 1.30742 700.831 3.41982L701.244 4.33018ZM715.35 1.25C720.236 1.25 724.915 2.27589 729.391 4.32947L729.808 3.42053C725.202 1.30744 720.381 0.25 715.35 0.25V1.25ZM729.393 4.33018C733.916 6.38608 737.883 9.24296 741.297 12.9035L742.028 12.2215C738.525 8.46537 734.451 5.53059 729.807 3.41982L729.393 4.33018ZM741.297 12.9035C744.712 16.5655 747.451 20.8684 749.513 25.8173L750.437 25.4327C748.332 20.3816 745.53 15.9762 742.028 12.2215L741.297 12.9035ZM749.513 25.8173C751.57 30.7531 752.6 36.0416 752.6 41.6875H753.6C753.6 35.9168 752.547 30.4969 750.437 25.4327L749.513 25.8173ZM833.75 1.375H834.25V0.875H833.75V1.375ZM833.75 82V82.5H834.25V82H833.75ZM824.812 82L824.396 82.2763L824.544 82.5H824.812V82ZM784.5 21.1875L784.917 20.9112L784 19.5283V21.1875H784.5ZM784.5 82V82.5H785V82H784.5ZM774.25 82H773.75V82.5H774.25V82ZM774.25 1.375V0.875H773.75V1.375H774.25ZM783.188 1.375L783.604 1.09874L783.456 0.875H783.188V1.375ZM823.5 62.1875L823.083 62.4638L824 63.8467V62.1875H823.5ZM823.5 1.375V0.875H823V1.375H823.5ZM833.25 1.375V82H834.25V1.375H833.25ZM833.75 81.5H824.812V82.5H833.75V81.5ZM825.229 81.7237L784.917 20.9112L784.083 21.4638L824.396 82.2763L825.229 81.7237ZM784 21.1875V82H785V21.1875H784ZM784.5 81.5H774.25V82.5H784.5V81.5ZM774.75 82V1.375H773.75V82H774.75ZM774.25 1.875H783.188V0.875H774.25V1.875ZM782.771 1.65126L823.083 62.4638L823.917 61.9112L783.604 1.09874L782.771 1.65126ZM824 62.1875V1.375H823V62.1875H824ZM823.5 1.875H833.75V0.875H823.5V1.875ZM911.213 10.3125V10.8125H911.713V10.3125H911.213ZM886.9 10.3125V9.8125H886.4V10.3125H886.9ZM886.9 82V82.5H887.4V82H886.9ZM876.65 82H876.15V82.5H876.65V82ZM876.65 10.3125H877.15V9.8125H876.65V10.3125ZM852.338 10.3125H851.838V10.8125H852.338V10.3125ZM852.338 1.375V0.875H851.838V1.375H852.338ZM911.213 1.375H911.713V0.875H911.213V1.375ZM911.213 9.8125L886.9 9.8125V10.8125L911.213 10.8125V9.8125ZM886.4 10.3125V82H887.4V10.3125H886.4ZM886.9 81.5H876.65V82.5H886.9V81.5ZM877.15 82V10.3125H876.15V82H877.15ZM876.65 9.8125L852.338 9.8125V10.8125L876.65 10.8125V9.8125ZM852.838 10.3125V1.375H851.838V10.3125H852.838ZM852.338 1.875L911.213 1.875V0.875L852.338 0.875V1.875ZM910.713 1.375V10.3125H911.713V1.375H910.713ZM966.237 62.1875L966.704 62.0066L966.58 61.6875H966.237V62.1875ZM932.987 62.1875V61.6875H932.645L932.521 62.0066L932.987 62.1875ZM925.3 82V82.5H925.642L925.766 82.1809L925.3 82ZM914.425 82L913.958 81.8218L913.699 82.5H914.425V82ZM945.175 1.375V0.875H944.831L944.708 1.19682L945.175 1.375ZM954.112 1.375L954.58 1.19714L954.457 0.875H954.112V1.375ZM984.8 82V82.5H985.525L985.267 81.8221L984.8 82ZM973.925 82L973.459 82.1809L973.583 82.5H973.925V82ZM936.175 53.1875L935.708 53.0091L935.449 53.6875H936.175V53.1875ZM963.05 53.1875V53.6875H963.776L963.517 53.0091L963.05 53.1875ZM949.612 18L950.08 17.8216L949.612 16.5985L949.145 17.8216L949.612 18ZM966.237 61.6875H932.987V62.6875H966.237V61.6875ZM932.521 62.0066L924.834 81.8191L925.766 82.1809L933.454 62.3684L932.521 62.0066ZM925.3 81.5L914.425 81.5V82.5L925.3 82.5V81.5ZM914.892 82.1782L945.642 1.55318L944.708 1.19682L913.958 81.8218L914.892 82.1782ZM945.175 1.875L954.112 1.875V0.875L945.175 0.875V1.875ZM953.645 1.55286L984.333 82.1779L985.267 81.8221L954.58 1.19714L953.645 1.55286ZM984.8 81.5H973.925V82.5H984.8V81.5ZM974.391 81.8191L966.704 62.0066L965.771 62.3684L973.459 82.1809L974.391 81.8191ZM936.175 53.6875H963.05V52.6875H936.175V53.6875ZM963.517 53.0091L950.08 17.8216L949.145 18.1784L962.583 53.3659L963.517 53.0091ZM949.145 17.8216L935.708 53.0091L936.642 53.3659L950.08 18.1784L949.145 17.8216ZM1020.57 12.0625L1020.36 11.6109L1020.57 12.0625ZM1011.7 18.75L1011.33 18.4158L1011.33 18.4161L1011.7 18.75ZM1005.58 28.875L1005.11 28.6919L1005.11 28.6962L1005.58 28.875ZM1005.58 54.5L1005.11 54.6788L1005.11 54.6831L1005.58 54.5ZM1011.7 64.6875L1011.33 65.0187L1011.33 65.0244L1011.7 64.6875ZM1020.57 71.3125L1020.36 71.7641L1020.57 71.3125ZM1039.51 72.25L1039.68 72.7197L1039.69 72.7182L1039.51 72.25ZM1051.45 62.375L1051.02 62.1236L1051.02 62.1261L1051.45 62.375ZM1054.51 55.125V54.625H1054.13L1054.03 54.9908L1054.51 55.125ZM1065.39 55.125L1065.87 55.2658L1066.06 54.625H1065.39V55.125ZM1060.64 65.875L1060.21 65.6138L1060.64 65.875ZM1053.14 74.6875L1053.46 75.0671L1053.46 75.0667L1053.14 74.6875ZM1043.07 80.5625L1043.25 81.0319L1043.25 81.0309L1043.07 80.5625ZM1016.51 79.5L1016.3 79.9545L1016.31 79.9552L1016.51 79.5ZM996.2 57.8125L995.739 58.0062L996.2 57.8125ZM996.2 25.625L995.738 25.4327L996.2 25.625ZM1016.51 3.875L1016.31 3.41982L1016.3 3.42053L1016.51 3.875ZM1042.76 2.875L1042.58 3.34072L1042.59 3.3425L1042.76 2.875ZM1052.57 8.75L1052.25 9.12697L1052.25 9.12963L1052.57 8.75ZM1060.01 17.5L1060.44 17.2388L1060.01 17.5ZM1064.76 28.25V28.75H1065.43L1065.24 28.1092L1064.76 28.25ZM1053.82 28.25L1053.34 28.3769L1053.44 28.75H1053.82V28.25ZM1050.82 21.0625L1050.39 21.3081L1050.39 21.3174L1050.82 21.0625ZM1045.89 15.125L1045.56 15.5058L1045.57 15.5091L1045.89 15.125ZM1039.2 11.1875L1039.01 11.6518L1039.02 11.6544L1039.2 11.1875ZM1030.82 9.1875C1027.25 9.1875 1023.76 9.99746 1020.36 11.6109L1020.79 12.5141C1024.06 10.9609 1027.4 10.1875 1030.82 10.1875V9.1875ZM1020.36 11.6109C1016.96 13.2239 1013.95 15.494 1011.33 18.4158L1012.07 19.0842C1014.61 16.256 1017.52 14.0678 1020.79 12.5141L1020.36 11.6109ZM1011.33 18.4161C1008.74 21.2982 1006.67 24.7257 1005.11 28.6919L1006.04 29.0581C1007.56 25.191 1009.57 21.8685 1012.07 19.0839L1011.33 18.4161ZM1005.11 28.6962C1003.58 32.6755 1002.83 37.0076 1002.83 41.6875H1003.83C1003.83 37.1174 1004.57 32.9078 1006.04 29.0538L1005.11 28.6962ZM1002.83 41.6875C1002.83 46.3674 1003.58 50.6995 1005.11 54.6788L1006.04 54.3212C1004.57 50.4672 1003.83 46.2576 1003.83 41.6875H1002.83ZM1005.11 54.6831C1006.67 58.6488 1008.74 62.096 1011.33 65.0187L1012.07 64.3563C1009.58 61.529 1007.56 58.1845 1006.04 54.3169L1005.11 54.6831ZM1011.33 65.0244C1013.96 67.9037 1016.97 70.1519 1020.36 71.7641L1020.79 70.8609C1017.52 69.3064 1014.61 67.1379 1012.07 64.3506L1011.33 65.0244ZM1020.36 71.7641C1023.76 73.3775 1027.25 74.1875 1030.82 74.1875V73.1875C1027.4 73.1875 1024.06 72.4141 1020.79 70.8609L1020.36 71.7641ZM1030.82 74.1875C1034.04 74.1875 1037 73.7006 1039.68 72.7197L1039.34 71.7803C1036.78 72.7161 1033.94 73.1875 1030.82 73.1875V74.1875ZM1039.69 72.7182C1042.4 71.7003 1044.79 70.3399 1046.83 68.6341L1046.19 67.8659C1044.24 69.4934 1041.96 70.7997 1039.34 71.7818L1039.69 72.7182ZM1046.83 68.6341C1048.88 66.9296 1050.56 64.9256 1051.88 62.6239L1051.02 62.1261C1049.75 64.3244 1048.15 66.2371 1046.19 67.8659L1046.83 68.6341ZM1051.88 62.6264C1053.24 60.2982 1054.27 57.8421 1054.99 55.2592L1054.03 54.9908C1053.33 57.4912 1052.33 59.8685 1051.02 62.1236L1051.88 62.6264ZM1054.51 55.625H1065.39V54.625H1054.51V55.625ZM1064.91 54.9842C1063.79 58.7762 1062.23 62.3189 1060.21 65.6138L1061.06 66.1362C1063.13 62.7644 1064.73 59.1405 1065.87 55.2658L1064.91 54.9842ZM1060.21 65.6138C1058.2 68.9029 1055.73 71.8006 1052.81 74.3083L1053.46 75.0667C1056.46 72.4911 1059 69.5137 1061.06 66.1362L1060.21 65.6138ZM1052.81 74.3079C1049.94 76.7677 1046.64 78.6969 1042.9 80.0941L1043.25 81.0309C1047.09 79.5948 1050.5 77.6073 1053.46 75.0671L1052.81 74.3079ZM1042.9 80.0931C1039.21 81.4458 1035.19 82.125 1030.82 82.125V83.125C1035.29 83.125 1039.44 82.4292 1043.25 81.0319L1042.9 80.0931ZM1030.82 82.125C1025.94 82.125 1021.24 81.0991 1016.72 79.0448L1016.31 79.9552C1020.95 82.0676 1025.79 83.125 1030.82 83.125V82.125ZM1016.72 79.0455C1012.24 76.9898 1008.29 74.1328 1004.88 70.4715L1004.15 71.1535C1007.65 74.9088 1011.7 77.8435 1016.3 79.9545L1016.72 79.0455ZM1004.88 70.4715C1001.46 66.8088 998.723 62.5261 996.661 57.6188L995.739 58.0062C997.844 63.0155 1000.65 67.3995 1004.15 71.1535L1004.88 70.4715ZM996.661 57.6188C994.605 52.7264 993.575 47.4178 993.575 41.6875H992.575C992.575 47.5405 993.628 52.9819 995.739 58.0062L996.661 57.6188ZM993.575 41.6875C993.575 36.0416 994.605 30.7531 996.662 25.8173L995.738 25.4327C993.628 30.4969 992.575 35.9168 992.575 41.6875H993.575ZM996.662 25.8173C998.724 20.8684 1001.46 16.5655 1004.88 12.9035L1004.15 12.2215C1000.65 15.9762 997.843 20.3816 995.738 25.4327L996.662 25.8173ZM1004.88 12.9035C1008.29 9.24216 1012.24 6.38519 1016.72 4.32947L1016.3 3.42053C1011.7 5.53148 1007.65 8.46617 1004.15 12.2215L1004.88 12.9035ZM1016.72 4.33018C1021.24 2.27592 1025.94 1.25 1030.82 1.25V0.25C1025.79 0.25 1020.95 1.30742 1016.31 3.41982L1016.72 4.33018ZM1030.82 1.25C1035.1 1.25 1039.02 1.94913 1042.58 3.3407L1042.94 2.4093C1039.26 0.967537 1035.21 0.25 1030.82 0.25V1.25ZM1042.59 3.3425C1046.15 4.69655 1049.37 6.62426 1052.25 9.12695L1052.9 8.37305C1049.94 5.7924 1046.62 3.80345 1042.94 2.4075L1042.59 3.3425ZM1052.25 9.12963C1055.13 11.5951 1057.57 14.4715 1059.59 17.7612L1060.44 17.2388C1058.37 13.8618 1055.86 10.9049 1052.9 8.37037L1052.25 9.12963ZM1059.59 17.7612C1061.6 21.0561 1063.17 24.5988 1064.28 28.3908L1065.24 28.1092C1064.11 24.2345 1062.5 20.6106 1060.44 17.2388L1059.59 17.7612ZM1064.76 27.75H1053.82V28.75H1064.76V27.75ZM1054.31 28.1231C1053.63 25.5367 1052.61 23.0978 1051.26 20.8076L1050.39 21.3174C1051.7 23.5272 1052.69 25.8799 1053.34 28.3769L1054.31 28.1231ZM1051.26 20.817C1049.94 18.4731 1048.25 16.4468 1046.21 14.7409L1045.57 15.5091C1047.52 17.1365 1049.13 19.0686 1050.39 21.308L1051.26 20.817ZM1046.21 14.7442C1044.21 13.0394 1041.93 11.6984 1039.38 10.7206L1039.02 11.6544C1041.47 12.5933 1043.65 13.8773 1045.56 15.5058L1046.21 14.7442ZM1039.39 10.7233C1036.82 9.69646 1033.96 9.1875 1030.82 9.1875V10.1875C1033.85 10.1875 1036.58 10.6785 1039.01 11.6517L1039.39 10.7233ZM1136.41 10.3125V10.8125H1136.91V10.3125H1136.41ZM1112.1 10.3125V9.8125H1111.6V10.3125H1112.1ZM1112.1 82V82.5H1112.6V82H1112.1ZM1101.85 82H1101.35V82.5H1101.85V82ZM1101.85 10.3125H1102.35V9.8125H1101.85V10.3125ZM1077.54 10.3125H1077.04V10.8125H1077.54V10.3125ZM1077.54 1.375V0.875H1077.04V1.375H1077.54ZM1136.41 1.375H1136.91V0.875H1136.41V1.375ZM1136.41 9.8125L1112.1 9.8125V10.8125L1136.41 10.8125V9.8125ZM1111.6 10.3125V82H1112.6V10.3125H1111.6ZM1112.1 81.5H1101.85V82.5H1112.1V81.5ZM1102.35 82V10.3125H1101.35V82H1102.35ZM1101.85 9.8125L1077.54 9.8125V10.8125L1101.85 10.8125V9.8125ZM1078.04 10.3125V1.375H1077.04V10.3125H1078.04ZM1077.54 1.875L1136.41 1.875V0.875L1077.54 0.875V1.875ZM1135.91 1.375V10.3125H1136.91V1.375H1135.91Z" fill="#E5E5E5"/>
</svg>
