<svg width="711" height="84" viewBox="0 0 711 84" fill="none" xmlns="http://www.w3.org/2000/svg">
<path d="M69.75 1.375V0.875H69.4314L69.2968 1.16375L69.75 1.375ZM78.0625 1.375H78.5625V0.875H78.0625V1.375ZM78.0625 82V82.5H78.5625V82H78.0625ZM67.8125 82H67.3125V82.5H67.8125V82ZM67.8125 27.625H68.3125L67.3582 27.4161L67.8125 27.625ZM42.8125 82V82.5H43.1329L43.2668 82.2089L42.8125 82ZM36.4375 82L35.983 82.2084L36.1167 82.5H36.4375V82ZM11.5 27.625L11.9545 27.4166L11 27.625H11.5ZM11.5 82V82.5H12V82H11.5ZM1.25 82H0.75V82.5H1.25V82ZM1.25 1.375V0.875H0.75V1.375H1.25ZM9.5625 1.375L10.0158 1.16411L9.88136 0.875H9.5625V1.375ZM39.625 66L39.1717 66.2109L39.6245 67.1844L40.0782 66.2113L39.625 66ZM69.75 1.875H78.0625V0.875H69.75V1.875ZM77.5625 1.375L77.5625 82H78.5625L78.5625 1.375H77.5625ZM78.0625 81.5H67.8125V82.5H78.0625V81.5ZM68.3125 82V27.625H67.3125V82H68.3125ZM67.3582 27.4161L42.3582 81.7911L43.2668 82.2089L68.2668 27.8339L67.3582 27.4161ZM42.8125 81.5H36.4375V82.5H42.8125V81.5ZM36.892 81.7916L11.9545 27.4166L11.0455 27.8334L35.983 82.2084L36.892 81.7916ZM11 27.625L11 82H12L12 27.625H11ZM11.5 81.5H1.25V82.5H11.5L11.5 81.5ZM1.75 82L1.75 1.375H0.75L0.75 82H1.75ZM1.25 1.875H9.5625V0.875H1.25V1.875ZM9.10915 1.58589L39.1717 66.2109L40.0783 65.7891L10.0158 1.16411L9.10915 1.58589ZM40.0782 66.2113L70.2032 1.58625L69.2968 1.16375L39.1718 65.7887L40.0782 66.2113ZM146.463 62.1875L146.929 62.0066L146.805 61.6875H146.463V62.1875ZM113.213 62.1875V61.6875H112.87L112.746 62.0066L113.213 62.1875ZM105.525 82V82.5H105.867L105.991 82.1809L105.525 82ZM94.65 82L94.1828 81.8218L93.9242 82.5H94.65V82ZM125.4 1.375V0.875H125.056L124.933 1.19682L125.4 1.375ZM134.338 1.375L134.805 1.19714L134.682 0.875H134.338V1.375ZM165.025 82V82.5H165.75L165.492 81.8221L165.025 82ZM154.15 82L153.684 82.1809L153.808 82.5H154.15V82ZM116.4 53.1875L115.933 53.0091L115.674 53.6875H116.4V53.1875ZM143.275 53.1875V53.6875H144.001L143.742 53.0091L143.275 53.1875ZM129.838 18L130.305 17.8216L129.838 16.5985L129.37 17.8216L129.838 18ZM146.463 61.6875L113.213 61.6875V62.6875L146.463 62.6875V61.6875ZM112.746 62.0066L105.059 81.8191L105.991 82.1809L113.679 62.3684L112.746 62.0066ZM105.525 81.5H94.65V82.5H105.525V81.5ZM95.1172 82.1782L125.867 1.55318L124.933 1.19682L94.1828 81.8218L95.1172 82.1782ZM125.4 1.875H134.338V0.875H125.4V1.875ZM133.87 1.55286L164.558 82.1779L165.492 81.8221L134.805 1.19714L133.87 1.55286ZM165.025 81.5H154.15V82.5H165.025V81.5ZM154.616 81.8191L146.929 62.0066L145.996 62.3684L153.684 82.1809L154.616 81.8191ZM116.4 53.6875L143.275 53.6875V52.6875L116.4 52.6875V53.6875ZM143.742 53.0091L130.305 17.8216L129.37 18.1784L142.808 53.3659L143.742 53.0091ZM129.37 17.8216L115.933 53.0091L116.867 53.3659L130.305 18.1784L129.37 17.8216ZM191.925 82V82.5H192.425V82H191.925ZM181.675 82H181.175V82.5H181.675V82ZM181.675 1.375V0.875H181.175V1.375H181.675ZM191.925 1.375H192.425V0.875H191.925V1.375ZM191.925 41.0625L191.532 40.7528L191.282 41.07L191.54 41.3813L191.925 41.0625ZM223.238 1.375V0.875H222.995L222.845 1.0653L223.238 1.375ZM235.425 1.375L235.814 1.68884L236.47 0.875H235.425V1.375ZM203.425 41.0625L203.036 40.7487L202.777 41.0698L203.043 41.3851L203.425 41.0625ZM237.988 82V82.5H239.064L238.37 81.6774L237.988 82ZM225.8 82L225.415 82.3188L225.565 82.5H225.8V82ZM191.925 81.5H181.675V82.5H191.925V81.5ZM182.175 82L182.175 1.375H181.175L181.175 82H182.175ZM181.675 1.875L191.925 1.875V0.875L181.675 0.875V1.875ZM191.425 1.375L191.425 82H192.425L192.425 1.375H191.425ZM192.318 41.3722L223.63 1.6847L222.845 1.0653L191.532 40.7528L192.318 41.3722ZM223.238 1.875L235.425 1.875V0.875L223.238 0.875V1.875ZM235.036 1.06116L203.036 40.7487L203.814 41.3763L235.814 1.68884L235.036 1.06116ZM203.043 41.3851L237.605 82.3226L238.37 81.6774L203.807 40.7399L203.043 41.3851ZM237.988 81.5H225.8V82.5H237.988V81.5ZM226.185 81.6812L192.31 40.7437L191.54 41.3813L225.415 82.3188L226.185 81.6812ZM264.2 82V82.5H264.7V82H264.2ZM253.95 82H253.45V82.5H253.95V82ZM253.95 1.375V0.875H253.45V1.375H253.95ZM264.2 1.375H264.7V0.875H264.2V1.375ZM264.2 81.5H253.95V82.5H264.2V81.5ZM254.45 82V1.375H253.45V82H254.45ZM253.95 1.875H264.2V0.875H253.95V1.875ZM263.7 1.375V82H264.7V1.375H263.7ZM350.6 1.375H351.1V0.875H350.6V1.375ZM350.6 82V82.5H351.1V82H350.6ZM341.663 82L341.246 82.2763L341.394 82.5H341.663V82ZM301.35 21.1875L301.767 20.9112L300.85 19.5283V21.1875H301.35ZM301.35 82V82.5H301.85V82H301.35ZM291.1 82H290.6V82.5H291.1V82ZM291.1 1.375V0.875H290.6V1.375H291.1ZM300.038 1.375L300.454 1.09874L300.306 0.875H300.038V1.375ZM340.35 62.1875L339.933 62.4638L340.85 63.8467V62.1875H340.35ZM340.35 1.375V0.875H339.85V1.375H340.35ZM350.1 1.375V82H351.1V1.375H350.1ZM350.6 81.5H341.663V82.5H350.6V81.5ZM342.079 81.7237L301.767 20.9112L300.933 21.4638L341.246 82.2763L342.079 81.7237ZM300.85 21.1875V82H301.85V21.1875H300.85ZM301.35 81.5L291.1 81.5V82.5L301.35 82.5V81.5ZM291.6 82V1.375H290.6V82H291.6ZM291.1 1.875H300.038V0.875H291.1V1.875ZM299.621 1.65126L339.933 62.4638L340.767 61.9112L300.454 1.09874L299.621 1.65126ZM340.85 62.1875V1.375H339.85V62.1875H340.85ZM340.35 1.875H350.6V0.875H340.35V1.875ZM399.875 12.0625L399.66 11.6109L399.875 12.0625ZM391 18.75L390.628 18.4158L390.628 18.4161L391 18.75ZM384.875 28.875L384.41 28.6919L384.408 28.6962L384.875 28.875ZM384.875 54.5L384.408 54.6788L384.41 54.6831L384.875 54.5ZM391 64.6875L390.625 65.0187L390.631 65.0244L391 64.6875ZM399.875 71.3125L399.66 71.7641L399.875 71.3125ZM419.25 71.6875L419.045 71.2317L419.042 71.2328L419.25 71.6875ZM427.062 66.4375L426.719 66.0742L426.716 66.0773L427.062 66.4375ZM432.438 59.125L431.988 58.9069L431.986 58.9098L432.438 59.125ZM434.438 50.625H434.938V50.125H434.438V50.625ZM410.75 50.625H410.25V51.125H410.75V50.625ZM410.75 41.6875V41.1875H410.25V41.6875H410.75ZM444.688 41.6875H445.188V41.1875H444.688V41.6875ZM444.688 82V82.5H445.188V82H444.688ZM437 82L436.517 82.1286L436.616 82.5H437V82ZM434.438 72.375L434.921 72.2464L434.697 71.4079L434.084 72.0214L434.438 72.375ZM428.062 77.5L428.322 77.9273L428.329 77.9234L428.335 77.9194L428.062 77.5ZM420.375 81.0625L420.539 81.5349L420.545 81.5328L420.375 81.0625ZM395.812 79.5L395.604 79.9545L395.606 79.9552L395.812 79.5ZM375.5 57.8125L375.039 58.0062L375.5 57.8125ZM375.5 25.625L375.038 25.4327L375.5 25.625ZM395.812 3.875L395.606 3.41981L395.604 3.42053L395.812 3.875ZM422.188 2.6875L422.02 3.15854L422.026 3.16076L422.188 2.6875ZM431.875 8.125L431.551 8.50588L431.557 8.51097L431.875 8.125ZM439.125 16.4375L438.701 16.702L438.702 16.7045L439.125 16.4375ZM444.062 26.9375V27.4375H444.759L444.536 26.7778L444.062 26.9375ZM433.188 26.9375L432.711 27.0886L432.822 27.4375H433.188V26.9375ZM425.25 14.5L424.921 14.8763L424.923 14.8784L425.25 14.5ZM410.125 9.1875C406.547 9.1875 403.057 9.99746 399.66 11.6109L400.09 12.5141C403.36 10.9609 406.703 10.1875 410.125 10.1875V9.1875ZM399.66 11.6109C396.265 13.2239 393.253 15.494 390.628 18.4158L391.372 19.0842C393.913 16.256 396.819 14.0678 400.09 12.5141L399.66 11.6109ZM390.628 18.4161C388.042 21.2982 385.971 24.7257 384.41 28.6919L385.34 29.0581C386.862 25.191 388.874 21.8685 391.372 19.0839L390.628 18.4161ZM384.408 28.6962C382.884 32.6755 382.125 37.0076 382.125 41.6875H383.125C383.125 37.1174 383.866 32.9078 385.342 29.0538L384.408 28.6962ZM382.125 41.6875C382.125 46.3674 382.884 50.6995 384.408 54.6788L385.342 54.3212C383.866 50.4672 383.125 46.2576 383.125 41.6875H382.125ZM384.41 54.6831C385.971 58.6488 388.042 62.096 390.625 65.0187L391.375 64.3563C388.875 61.529 386.863 58.1845 385.34 54.3169L384.41 54.6831ZM390.631 65.0244C393.256 67.9037 396.266 70.1519 399.66 71.7641L400.09 70.8609C396.817 69.3065 393.911 67.1379 391.369 64.3506L390.631 65.0244ZM399.66 71.7641C403.057 73.3775 406.547 74.1875 410.125 74.1875V73.1875C406.703 73.1875 403.36 72.4141 400.09 70.8609L399.66 71.7641ZM410.125 74.1875C413.364 74.1875 416.477 73.505 419.458 72.1422L419.042 71.2328C416.19 72.5367 413.219 73.1875 410.125 73.1875V74.1875ZM419.455 72.1433C422.464 70.7874 425.116 69.0056 427.409 66.7977L426.716 66.0773C424.509 68.2027 421.953 69.921 419.045 71.2317L419.455 72.1433ZM427.406 66.8008C429.74 64.594 431.569 62.107 432.889 59.3402L431.986 58.9098C430.722 61.5597 428.968 63.9476 426.719 66.0742L427.406 66.8008ZM432.887 59.3431C434.252 56.5285 434.938 53.6209 434.938 50.625H433.938C433.938 53.4625 433.29 56.2215 431.988 58.9069L432.887 59.3431ZM434.438 50.125H410.75V51.125H434.438V50.125ZM411.25 50.625V41.6875H410.25V50.625H411.25ZM410.75 42.1875H444.688V41.1875H410.75V42.1875ZM444.188 41.6875V82H445.188V41.6875H444.188ZM444.688 81.5H437V82.5H444.688V81.5ZM437.483 81.8714L434.921 72.2464L433.954 72.5036L436.517 82.1286L437.483 81.8714ZM434.084 72.0214C432.235 73.8701 430.138 75.5567 427.79 77.0806L428.335 77.9194C430.737 76.36 432.89 74.6299 434.791 72.7286L434.084 72.0214ZM427.803 77.0727C425.713 78.3431 423.182 79.5172 420.205 80.5922L420.545 81.5328C423.568 80.4411 426.162 79.2403 428.322 77.9273L427.803 77.0727ZM420.211 80.5902C417.273 81.6102 413.914 82.125 410.125 82.125V83.125C414.003 83.125 417.477 82.5982 420.539 81.5348L420.211 80.5902ZM410.125 82.125C405.239 82.125 400.539 81.0991 396.019 79.0448L395.606 79.9552C400.253 82.0676 405.094 83.125 410.125 83.125V82.125ZM396.021 79.0455C391.539 76.9898 387.593 74.1328 384.178 70.4715L383.447 71.1535C386.949 74.9088 391.002 77.8435 395.604 79.9545L396.021 79.0455ZM384.178 70.4715C380.762 66.8088 378.023 62.5261 375.961 57.6188L375.039 58.0062C377.144 63.0155 379.946 67.3995 383.447 71.1535L384.178 70.4715ZM375.961 57.6188C373.905 52.7264 372.875 47.4178 372.875 41.6875H371.875C371.875 47.5405 372.928 52.9819 375.039 58.0062L375.961 57.6188ZM372.875 41.6875C372.875 36.0416 373.905 30.7531 375.962 25.8173L375.038 25.4327C372.928 30.4969 371.875 35.9168 371.875 41.6875H372.875ZM375.962 25.8173C378.024 20.8684 380.763 16.5655 384.178 12.9035L383.447 12.2215C379.945 15.9762 377.143 20.3816 375.038 25.4327L375.962 25.8173ZM384.178 12.9035C387.593 9.24217 391.539 6.38519 396.021 4.32947L395.604 3.42053C391.002 5.53148 386.949 8.46617 383.447 12.2215L384.178 12.9035ZM396.019 4.33018C400.539 2.27592 405.239 1.25 410.125 1.25V0.25C405.094 0.25 400.253 1.30742 395.606 3.41982L396.019 4.33018ZM410.125 1.25C414.493 1.25 418.456 1.88863 422.02 3.15849L422.355 2.21651C418.669 0.903038 414.591 0.25 410.125 0.25V1.25ZM422.026 3.16076C425.637 4.39162 428.81 6.17388 431.551 8.50583L432.199 7.74417C429.357 5.32612 426.072 3.48338 422.349 2.21424L422.026 3.16076ZM431.557 8.51097C434.347 10.8088 436.728 13.5383 438.701 16.702L439.549 16.173C437.522 12.9201 435.069 10.1079 432.193 7.73903L431.557 8.51097ZM438.702 16.7045C440.679 19.835 442.309 23.2985 443.589 27.0972L444.536 26.7778C443.233 22.9098 441.571 19.3734 439.548 16.1705L438.702 16.7045ZM444.062 26.4375H433.188V27.4375H444.062V26.4375ZM433.664 26.7864C432.014 21.5832 429.321 17.3552 425.577 14.1216L424.923 14.8784C428.512 17.9781 431.111 22.0418 432.711 27.0886L433.664 26.7864ZM425.579 14.1237C421.796 10.8132 416.624 9.1875 410.125 9.1875V10.1875C416.46 10.1875 421.371 11.7701 424.921 14.8763L425.579 14.1237ZM554.737 10.3125V10.8125H555.237V10.3125H554.737ZM530.425 10.3125V9.8125H529.925V10.3125H530.425ZM530.425 82V82.5H530.925V82H530.425ZM520.175 82H519.675V82.5H520.175V82ZM520.175 10.3125H520.675V9.8125H520.175V10.3125ZM495.862 10.3125H495.362V10.8125H495.862V10.3125ZM495.862 1.375V0.875H495.362V1.375H495.862ZM554.737 1.375H555.237V0.875H554.737V1.375ZM554.737 9.8125L530.425 9.8125V10.8125L554.737 10.8125V9.8125ZM529.925 10.3125V82H530.925V10.3125H529.925ZM530.425 81.5H520.175V82.5H530.425V81.5ZM520.675 82V10.3125H519.675V82H520.675ZM520.175 9.8125L495.862 9.8125V10.8125L520.175 10.8125V9.8125ZM496.362 10.3125V1.375H495.362V10.3125H496.362ZM495.862 1.875L554.737 1.875V0.875L495.862 0.875V1.875ZM554.237 1.375V10.3125H555.237V1.375H554.237ZM632.825 1.375H633.325V0.875H632.825V1.375ZM632.825 82V82.5H633.325V82H632.825ZM622.575 82H622.075V82.5H622.575V82ZM622.575 45.5H623.075V45H622.575V45.5ZM583.575 45.5V45H583.075V45.5H583.575ZM583.575 82V82.5H584.075V82H583.575ZM573.325 82H572.825V82.5H573.325V82ZM573.325 1.375V0.875H572.825V1.375H573.325ZM583.575 1.375H584.075V0.875H583.575V1.375ZM583.575 36.5625H583.075V37.0625H583.575V36.5625ZM622.575 36.5625V37.0625H623.075V36.5625H622.575ZM622.575 1.375V0.875H622.075V1.375H622.575ZM632.325 1.375V82H633.325V1.375H632.325ZM632.825 81.5H622.575V82.5H632.825V81.5ZM623.075 82V45.5H622.075V82H623.075ZM622.575 45H583.575V46H622.575V45ZM583.075 45.5V82H584.075V45.5H583.075ZM583.575 81.5H573.325V82.5H583.575V81.5ZM573.825 82V1.375H572.825V82H573.825ZM573.325 1.875H583.575V0.875H573.325V1.875ZM583.075 1.375V36.5625H584.075V1.375H583.075ZM583.575 37.0625H622.575V36.0625H583.575V37.0625ZM623.075 36.5625V1.375H622.075V36.5625H623.075ZM622.575 1.875L632.825 1.875V0.875L622.575 0.875V1.875ZM669.975 82V82.5H670.475V82H669.975ZM659.725 82H659.225V82.5H659.725V82ZM659.725 1.375V0.875H659.225V1.375H659.725ZM669.975 1.375H670.475V0.875H669.975V1.375ZM669.975 81.5H659.725V82.5H669.975V81.5ZM660.225 82V1.375H659.225V82H660.225ZM659.725 1.875H669.975V0.875H659.725V1.875ZM669.475 1.375V82H670.475V1.375H669.475ZM756.375 1.375H756.875V0.875H756.375V1.375ZM756.375 82V82.5H756.875V82H756.375ZM747.438 82L747.021 82.2763L747.169 82.5H747.438V82ZM707.125 21.1875L707.542 20.9112L706.625 19.5283V21.1875H707.125ZM707.125 82V82.5H707.625V82H707.125ZM696.875 82H696.375V82.5H696.875V82ZM696.875 1.375V0.875H696.375V1.375H696.875ZM705.812 1.375L706.229 1.09874L706.081 0.875H705.812V1.375ZM746.125 62.1875L745.708 62.4638L746.625 63.8467V62.1875H746.125ZM746.125 1.375V0.875H745.625V1.375H746.125ZM755.875 1.375V82H756.875V1.375H755.875ZM756.375 81.5H747.438V82.5H756.375V81.5ZM747.854 81.7237L707.542 20.9112L706.708 21.4638L747.021 82.2763L747.854 81.7237ZM706.625 21.1875V82H707.625V21.1875H706.625ZM707.125 81.5H696.875V82.5H707.125V81.5ZM697.375 82V1.375H696.375V82H697.375ZM696.875 1.875H705.812V0.875H696.875V1.875ZM705.396 1.65126L745.708 62.4638L746.542 61.9112L706.229 1.09874L705.396 1.65126ZM746.625 62.1875V1.375H745.625V62.1875H746.625ZM746.125 1.875H756.375V0.875H746.125V1.875ZM805.65 12.0625L805.435 11.6109L805.65 12.0625ZM796.775 18.75L796.403 18.4158L796.403 18.4161L796.775 18.75ZM790.65 28.875L790.185 28.6919L790.183 28.6962L790.65 28.875ZM790.65 54.5L790.183 54.6788L790.185 54.6831L790.65 54.5ZM796.775 64.6875L796.4 65.0187L796.406 65.0244L796.775 64.6875ZM805.65 71.3125L805.435 71.7641L805.65 71.3125ZM825.025 71.6875L824.82 71.2317L824.817 71.2328L825.025 71.6875ZM832.838 66.4375L832.494 66.0742L832.491 66.0773L832.838 66.4375ZM838.213 59.125L837.763 58.9069L837.761 58.9098L838.213 59.125ZM840.213 50.625H840.713V50.125H840.213V50.625ZM816.525 50.625H816.025V51.125H816.525V50.625ZM816.525 41.6875V41.1875H816.025V41.6875H816.525ZM850.463 41.6875H850.963V41.1875H850.463V41.6875ZM850.463 82V82.5H850.963V82H850.463ZM842.775 82L842.292 82.1286L842.391 82.5H842.775V82ZM840.213 72.375L840.696 72.2464L840.472 71.4079L839.859 72.0214L840.213 72.375ZM833.838 77.5L834.097 77.9273L834.104 77.9234L834.11 77.9194L833.838 77.5ZM826.15 81.0625L826.314 81.5349L826.32 81.5328L826.15 81.0625ZM801.588 79.5L801.379 79.9545L801.381 79.9552L801.588 79.5ZM781.275 57.8125L780.814 58.0062L781.275 57.8125ZM781.275 25.625L780.813 25.4327L781.275 25.625ZM801.588 3.875L801.381 3.41981L801.379 3.42053L801.588 3.875ZM827.963 2.6875L827.795 3.15854L827.801 3.16076L827.963 2.6875ZM837.65 8.125L837.326 8.50588L837.332 8.51097L837.65 8.125ZM844.9 16.4375L844.476 16.702L844.477 16.7045L844.9 16.4375ZM849.838 26.9375V27.4375H850.534L850.311 26.7778L849.838 26.9375ZM838.963 26.9375L838.486 27.0886L838.597 27.4375H838.963V26.9375ZM831.025 14.5L830.696 14.8763L830.698 14.8784L831.025 14.5ZM815.9 9.1875C812.322 9.1875 808.832 9.99746 805.435 11.6109L805.865 12.5141C809.135 10.9609 812.478 10.1875 815.9 10.1875V9.1875ZM805.435 11.6109C802.04 13.2239 799.028 15.494 796.403 18.4158L797.147 19.0842C799.688 16.256 802.594 14.0678 805.865 12.5141L805.435 11.6109ZM796.403 18.4161C793.817 21.2982 791.746 24.7257 790.185 28.6919L791.115 29.0581C792.637 25.191 794.649 21.8685 797.147 19.0839L796.403 18.4161ZM790.183 28.6962C788.659 32.6755 787.9 37.0076 787.9 41.6875H788.9C788.9 37.1174 789.641 32.9078 791.117 29.0538L790.183 28.6962ZM787.9 41.6875C787.9 46.3674 788.659 50.6995 790.183 54.6788L791.117 54.3212C789.641 50.4672 788.9 46.2576 788.9 41.6875H787.9ZM790.185 54.6831C791.746 58.6488 793.817 62.096 796.4 65.0187L797.15 64.3563C794.65 61.529 792.638 58.1845 791.115 54.3169L790.185 54.6831ZM796.406 65.0244C799.031 67.9037 802.041 70.1519 805.435 71.7641L805.865 70.8609C802.592 69.3065 799.686 67.1379 797.145 64.3506L796.406 65.0244ZM805.435 71.7641C808.832 73.3775 812.322 74.1875 815.9 74.1875V73.1875C812.478 73.1875 809.135 72.4141 805.865 70.8609L805.435 71.7641ZM815.9 74.1875C819.139 74.1875 822.252 73.505 825.233 72.1422L824.817 71.2328C821.965 72.5367 818.994 73.1875 815.9 73.1875V74.1875ZM825.23 72.1433C828.239 70.7874 830.891 69.0056 833.184 66.7977L832.491 66.0773C830.284 68.2027 827.728 69.921 824.82 71.2317L825.23 72.1433ZM833.181 66.8008C835.515 64.594 837.344 62.107 838.664 59.3402L837.761 58.9098C836.497 61.5597 834.743 63.9476 832.494 66.0742L833.181 66.8008ZM838.662 59.3431C840.027 56.5285 840.713 53.6209 840.713 50.625H839.713C839.713 53.4625 839.065 56.2215 837.763 58.9069L838.662 59.3431ZM840.213 50.125L816.525 50.125V51.125L840.213 51.125V50.125ZM817.025 50.625V41.6875H816.025V50.625H817.025ZM816.525 42.1875L850.463 42.1875V41.1875L816.525 41.1875V42.1875ZM849.963 41.6875V82H850.963V41.6875H849.963ZM850.463 81.5H842.775V82.5H850.463V81.5ZM843.258 81.8714L840.696 72.2464L839.729 72.5036L842.292 82.1286L843.258 81.8714ZM839.859 72.0214C838.01 73.8701 835.913 75.5567 833.565 77.0806L834.11 77.9194C836.512 76.36 838.665 74.6299 840.566 72.7286L839.859 72.0214ZM833.578 77.0727C831.488 78.3431 828.957 79.5172 825.98 80.5922L826.32 81.5328C829.343 80.4411 831.937 79.2403 834.097 77.9273L833.578 77.0727ZM825.986 80.5902C823.048 81.6102 819.689 82.125 815.9 82.125V83.125C819.778 83.125 823.252 82.5982 826.314 81.5348L825.986 80.5902ZM815.9 82.125C811.014 82.125 806.314 81.0991 801.794 79.0448L801.381 79.9552C806.028 82.0676 810.869 83.125 815.9 83.125V82.125ZM801.796 79.0455C797.315 76.9898 793.368 74.1328 789.953 70.4715L789.222 71.1535C792.724 74.9088 796.777 77.8435 801.379 79.9545L801.796 79.0455ZM789.953 70.4715C786.537 66.8088 783.798 62.5261 781.736 57.6188L780.814 58.0062C782.919 63.0155 785.721 67.3995 789.222 71.1535L789.953 70.4715ZM781.736 57.6188C779.68 52.7264 778.65 47.4178 778.65 41.6875H777.65C777.65 47.5405 778.703 52.9819 780.814 58.0062L781.736 57.6188ZM778.65 41.6875C778.65 36.0416 779.68 30.7531 781.737 25.8173L780.813 25.4327C778.703 30.4969 777.65 35.9168 777.65 41.6875H778.65ZM781.737 25.8173C783.799 20.8684 786.538 16.5655 789.953 12.9035L789.222 12.2215C785.72 15.9762 782.918 20.3816 780.813 25.4327L781.737 25.8173ZM789.953 12.9035C793.368 9.24217 797.315 6.38519 801.796 4.32947L801.379 3.42053C796.777 5.53148 792.724 8.46617 789.222 12.2215L789.953 12.9035ZM801.794 4.33018C806.314 2.27592 811.014 1.25 815.9 1.25V0.25C810.869 0.25 806.028 1.30742 801.381 3.41982L801.794 4.33018ZM815.9 1.25C820.268 1.25 824.231 1.88863 827.795 3.15849L828.13 2.21651C824.444 0.903038 820.366 0.25 815.9 0.25V1.25ZM827.801 3.16076C831.412 4.39162 834.585 6.17388 837.326 8.50583L837.974 7.74417C835.132 5.32612 831.847 3.48338 828.124 2.21424L827.801 3.16076ZM837.332 8.51097C840.122 10.8088 842.504 13.5383 844.476 16.702L845.324 16.173C843.297 12.9201 840.844 10.1079 837.968 7.73903L837.332 8.51097ZM844.477 16.7045C846.454 19.835 848.084 23.2985 849.364 27.0972L850.311 26.7778C849.008 22.9098 847.346 19.3734 845.323 16.1705L844.477 16.7045ZM849.838 26.4375H838.963V27.4375H849.838V26.4375ZM839.439 26.7864C837.789 21.5832 835.096 17.3552 831.352 14.1216L830.698 14.8784C834.287 17.9781 836.886 22.0418 838.486 27.0886L839.439 26.7864ZM831.354 14.1237C827.571 10.8132 822.399 9.1875 815.9 9.1875V10.1875C822.235 10.1875 827.146 11.7701 830.696 14.8763L831.354 14.1237ZM873.487 14.5L873.935 14.7236L873.936 14.7208L873.487 14.5ZM887.237 2.625L887.414 3.09294L887.419 3.09089L887.237 2.625ZM907.55 2.6875L907.352 3.14681L907.36 3.14997L907.55 2.6875ZM915.487 7.8125L915.141 8.17268L915.144 8.17582L915.487 7.8125ZM920.8 15.5625L920.338 15.7548L920.341 15.7602L920.8 15.5625ZM922.737 25.0625V25.5625H923.237V25.0625H922.737ZM912.55 25.0625H912.05V25.5625H912.55V25.0625ZM908.3 14L907.944 14.351L907.946 14.3536L908.3 14ZM891.237 10.8125L891.408 11.2827L891.413 11.2807L891.237 10.8125ZM886.175 13.6875L886.498 14.0688L886.499 14.0679L886.175 13.6875ZM882.925 17.75L882.48 17.5215L882.475 17.5313L882.925 17.75ZM892.925 34.875L892.741 35.3401L892.747 35.3421L892.925 34.875ZM903.237 38.3125L903.097 38.7925L903.102 38.7939L903.237 38.3125ZM921.487 49.4375L921.085 49.7347L921.087 49.7375L921.487 49.4375ZM922.8 69.1875L922.349 68.9725L922.347 68.9757L922.8 69.1875ZM917.487 76.0625L917.162 75.6829L917.159 75.6858L917.487 76.0625ZM909.05 80.875L909.215 81.347L909.22 81.3451L909.05 80.875ZM886.55 80.875L886.38 81.3451L886.385 81.3469L886.55 80.875ZM878.05 75.8125L877.703 76.1726L877.71 76.1789L878.05 75.8125ZM872.737 68.0625L872.274 68.2493L872.277 68.2571L872.737 68.0625ZM870.925 58.3125V57.8125H870.425V58.3125H870.925ZM881.175 58.3125H881.675V57.8125H881.175V58.3125ZM885.362 69.6875L885.014 70.0464L885.02 70.0516L885.362 69.6875ZM910.175 70L910.505 70.3752L910.506 70.3749L910.175 70ZM903.3 48.5625L903.116 49.0276L903.122 49.0296L903.3 48.5625ZM892.987 45.125L892.847 45.605L892.852 45.6064L892.987 45.125ZM882.675 40.875L882.431 41.3113L882.433 41.3126L882.675 40.875ZM874.737 34L874.335 34.2972L874.34 34.3037L874.737 34ZM872.05 22.5C872.05 19.8315 872.676 17.2411 873.935 14.7236L873.04 14.2764C871.716 16.9256 871.05 19.6685 871.05 22.5H872.05ZM873.936 14.7208C875.197 12.1585 876.968 9.87713 879.254 7.87629L878.596 7.12371C876.216 9.2062 874.361 11.5915 873.039 14.2792L873.936 14.7208ZM879.254 7.87629C881.538 5.87805 884.256 4.28235 887.414 3.09291L887.061 2.15709C883.803 3.38431 880.979 5.03862 878.596 7.12371L879.254 7.87629ZM887.419 3.09089C890.563 1.86585 894.022 1.25 897.8 1.25V0.25C893.912 0.25 890.328 0.884153 887.056 2.15911L887.419 3.09089ZM897.8 1.25C901.237 1.25 904.419 1.88385 907.352 3.14674L907.748 2.22826C904.681 0.907818 901.363 0.25 897.8 0.25V1.25ZM907.36 3.14997C910.346 4.37732 912.938 6.05194 915.141 8.17266L915.834 7.45234C913.537 5.23973 910.837 3.49768 907.74 2.22503L907.36 3.14997ZM915.144 8.17582C917.383 10.2929 919.115 12.8174 920.338 15.7548L921.262 15.3702C919.985 12.3076 918.175 9.66544 915.831 7.44918L915.144 8.17582ZM920.341 15.7602C921.605 18.6965 922.237 21.7957 922.237 25.0625H923.237C923.237 21.6626 922.578 18.4285 921.259 15.3648L920.341 15.7602ZM922.737 24.5625L912.55 24.5625V25.5625L922.737 25.5625V24.5625ZM913.05 25.0625C913.05 20.4075 911.593 16.5864 908.654 13.6464L907.946 14.3536C910.673 17.0803 912.05 20.6342 912.05 25.0625H913.05ZM908.656 13.649C905.725 10.6753 902.096 9.1875 897.8 9.1875V10.1875C901.838 10.1875 905.208 11.5747 907.944 14.351L908.656 13.649ZM897.8 9.1875C895.372 9.1875 893.124 9.57106 891.062 10.3443L891.413 11.2807C893.351 10.5539 895.478 10.1875 897.8 10.1875V9.1875ZM891.067 10.3423C889.059 11.0687 887.318 12.0555 885.851 13.3071L886.499 14.0679C887.865 12.9029 889.499 11.973 891.408 11.2827L891.067 10.3423ZM885.851 13.3062C884.428 14.5136 883.303 15.9191 882.48 17.5216L883.37 17.9784C884.13 16.4975 885.171 15.1947 886.498 14.0688L885.851 13.3062ZM882.475 17.5313C881.694 19.1372 881.3 20.7951 881.3 22.5H882.3C882.3 20.9549 882.656 19.4461 883.375 17.9687L882.475 17.5313ZM881.3 22.5C881.3 25.9487 882.405 28.6823 884.661 30.6286L885.314 29.8714C883.32 28.1511 882.3 25.718 882.3 22.5H881.3ZM884.661 30.6286C886.836 32.5054 889.533 34.0737 892.741 35.3401L893.109 34.4099C889.983 33.1763 887.389 31.6612 885.314 29.8714L884.661 30.6286ZM892.747 35.3421C895.927 36.5559 899.378 37.7059 903.097 38.7924L903.378 37.8326C899.68 36.7525 896.256 35.6108 893.103 34.4079L892.747 35.3421ZM903.102 38.7939C906.776 39.8258 910.177 41.2074 913.308 42.9376L913.792 42.0624C910.589 40.2926 907.116 38.8826 903.373 37.8311L903.102 38.7939ZM913.308 42.9376C916.413 44.6533 919.004 46.9182 921.085 49.7347L921.89 49.1403C919.721 46.2068 917.021 43.8467 913.792 42.0624L913.308 42.9376ZM921.087 49.7375C923.128 52.4583 924.175 56.1538 924.175 60.875H925.175C925.175 56.0129 924.097 52.0834 921.887 49.1375L921.087 49.7375ZM924.175 60.875C924.175 63.7175 923.566 66.4149 922.349 68.9725L923.251 69.4025C924.534 66.7101 925.175 63.8658 925.175 60.875H924.175ZM922.347 68.9757C921.171 71.4898 919.446 73.7255 917.162 75.6829L917.813 76.4421C920.196 74.3995 922.012 72.0519 923.253 69.3993L922.347 68.9757ZM917.159 75.6858C914.921 77.639 912.164 79.2142 908.88 80.4049L909.22 81.3451C912.602 80.1191 915.471 78.486 917.816 76.4392L917.159 75.6858ZM908.885 80.4031C905.613 81.5482 901.92 82.125 897.8 82.125V83.125C902.013 83.125 905.82 82.5352 909.215 81.3469L908.885 80.4031ZM897.8 82.125C893.68 82.125 889.987 81.5482 886.715 80.4031L886.385 81.3469C889.78 82.5352 893.587 83.125 897.8 83.125V82.125ZM886.72 80.4049C883.443 79.2168 880.669 77.5623 878.39 75.4461L877.71 76.1789C880.097 78.3961 882.99 80.1165 886.38 81.3451L886.72 80.4049ZM878.397 75.4525C876.154 73.2915 874.422 70.7646 873.198 67.8679L872.277 68.2571C873.553 71.2771 875.362 73.9169 877.703 76.1725L878.397 75.4525ZM873.201 67.8757C872.019 64.9398 871.425 61.7538 871.425 58.3125H870.425C870.425 61.8712 871.04 65.1852 872.274 68.2493L873.201 67.8757ZM870.925 58.8125H881.175V57.8125H870.925V58.8125ZM880.675 58.3125C880.675 63.2864 882.102 67.2213 885.014 70.0464L885.711 69.3286C883.039 66.7371 881.675 63.0886 881.675 58.3125H880.675ZM885.02 70.0516C887.978 72.8354 892.266 74.1875 897.8 74.1875V73.1875C892.417 73.1875 888.414 71.8729 885.705 69.3234L885.02 70.0516ZM897.8 74.1875C903.324 74.1875 907.588 72.9444 910.505 70.3752L909.845 69.6248C907.179 71.9723 903.192 73.1875 897.8 73.1875V74.1875ZM910.506 70.3749C913.44 67.7859 914.925 64.6104 914.925 60.875H913.925C913.925 64.3062 912.577 67.2141 909.844 69.6251L910.506 70.3749ZM914.925 60.875C914.925 57.4263 913.82 54.6927 911.564 52.7464L910.911 53.5036C912.905 55.2239 913.925 57.657 913.925 60.875H914.925ZM911.564 52.7464C909.387 50.8682 906.688 49.3202 903.478 48.0954L903.122 49.0296C906.245 50.2215 908.838 51.7151 910.911 53.5036L911.564 52.7464ZM903.484 48.0974C900.299 46.8404 896.845 45.6893 893.123 44.6436L892.852 45.6064C896.546 46.644 899.967 47.7846 903.116 49.0276L903.484 48.0974ZM893.128 44.6451C889.452 43.5714 886.049 42.1684 882.917 40.4374L882.433 41.3126C885.634 43.0816 889.106 44.512 892.847 45.6049L893.128 44.6451ZM882.919 40.4387C879.853 38.7219 877.26 36.4752 875.135 33.6963L874.34 34.3037C876.549 37.1914 879.246 39.5281 882.431 41.3113L882.919 40.4387ZM875.14 33.7028C873.097 30.9389 872.05 27.2207 872.05 22.5H871.05C871.05 27.3626 872.128 31.3111 874.335 34.2972L875.14 33.7028Z" fill="#E5E5E5"/>
</svg>
