<svg width="304" height="20" viewBox="0 0 304 20" fill="none" xmlns="http://www.w3.org/2000/svg">
<path d="M11.5015 5.127C10.3045 5.946 9.80049 6.366 9.21249 7.122C8.12049 8.508 7.55349 10.125 7.55349 11.868C7.55349 15.081 9.42249 17.349 12.9925 18.399C13.6435 18.588 14.2735 18.714 14.5465 18.714C14.8195 18.714 14.9875 18.609 15.0925 18.378C15.2815 17.916 15.4915 16.908 15.4915 16.383C15.4915 16.131 15.3865 16.026 15.0925 16.005C11.8165 15.711 9.88449 14.094 9.88449 11.637C9.88449 8.361 12.7195 5.253 16.2685 4.665C16.6675 4.602 17.0665 4.56 17.5075 4.56C17.8015 4.56 17.8855 4.476 17.8855 4.224C17.8855 3.93 17.7595 3.3 17.5915 2.859C17.4025 2.334 17.2975 2.208 17.0245 2.208C16.9195 2.208 16.8565 2.208 16.7095 2.25C15.9115 2.418 14.3995 2.67 12.5095 2.922C10.8295 3.132 7.63749 3.615 5.11749 3.993C2.78649 4.35 2.30349 4.413 0.959491 4.476C1.33749 6.282 1.75749 7.143 2.21949 7.143C2.34549 7.143 2.49249 7.101 2.76549 6.996C3.52149 6.723 3.71049 6.66 4.25649 6.534C5.85249 6.135 8.75049 5.589 11.5015 5.127ZM32.0057 0.863999C31.7327 1.578 31.4597 2.082 30.9137 2.859C30.0947 4.035 28.7927 5.631 27.5747 6.891C26.2937 8.256 26.2937 8.256 26.0627 8.634C25.8107 9.054 25.6847 9.495 25.6847 9.915C25.6847 10.398 25.8317 10.818 26.1887 11.322C26.4827 11.742 26.6717 11.952 27.6167 12.897C29.2967 14.598 31.5017 17.265 32.4047 18.693C32.6147 19.029 32.6987 19.113 32.8877 19.113C33.0137 19.113 33.2657 18.966 33.6647 18.651C34.5257 17.979 34.8827 17.622 34.8827 17.391C34.8827 17.181 34.6097 16.803 33.5597 15.627C32.0687 13.926 30.0527 11.868 28.8137 10.734C28.4147 10.377 28.2467 10.125 28.2467 9.894C28.2467 9.642 28.3937 9.369 28.7507 9.012C30.4097 7.332 32.2787 5.295 33.5807 3.783C33.7697 3.552 33.9587 3.384 34.1057 3.3C34.4627 3.09 34.5467 3.027 34.5467 2.838C34.5467 2.46 33.6437 1.767 32.0057 0.863999ZM54.974 5.127C53.777 5.946 53.273 6.366 52.685 7.122C51.593 8.508 51.026 10.125 51.026 11.868C51.026 15.081 52.895 17.349 56.465 18.399C57.116 18.588 57.746 18.714 58.019 18.714C58.292 18.714 58.46 18.609 58.565 18.378C58.754 17.916 58.964 16.908 58.964 16.383C58.964 16.131 58.859 16.026 58.565 16.005C55.289 15.711 53.357 14.094 53.357 11.637C53.357 8.361 56.192 5.253 59.741 4.665C60.14 4.602 60.539 4.56 60.98 4.56C61.274 4.56 61.358 4.476 61.358 4.224C61.358 3.93 61.232 3.3 61.064 2.859C60.875 2.334 60.77 2.208 60.497 2.208C60.392 2.208 60.329 2.208 60.182 2.25C59.384 2.418 57.872 2.67 55.982 2.922C54.302 3.132 51.11 3.615 48.59 3.993C46.259 4.35 45.776 4.413 44.432 4.476C44.81 6.282 45.23 7.143 45.692 7.143C45.818 7.143 45.965 7.101 46.238 6.996C46.994 6.723 47.183 6.66 47.729 6.534C49.325 6.135 52.223 5.589 54.974 5.127ZM75.4782 0.863999C75.2052 1.578 74.9322 2.082 74.3862 2.859C73.5672 4.035 72.2652 5.631 71.0472 6.891C69.7662 8.256 69.7662 8.256 69.5352 8.634C69.2832 9.054 69.1572 9.495 69.1572 9.915C69.1572 10.398 69.3042 10.818 69.6612 11.322C69.9552 11.742 70.1442 11.952 71.0892 12.897C72.7692 14.598 74.9742 17.265 75.8772 18.693C76.0872 19.029 76.1712 19.113 76.3602 19.113C76.4862 19.113 76.7382 18.966 77.1372 18.651C77.9982 17.979 78.3552 17.622 78.3552 17.391C78.3552 17.181 78.0822 16.803 77.0322 15.627C75.5412 13.926 73.5252 11.868 72.2862 10.734C71.8872 10.377 71.7192 10.125 71.7192 9.894C71.7192 9.642 71.8662 9.369 72.2232 9.012C73.8822 7.332 75.7512 5.295 77.0532 3.783C77.2422 3.552 77.4312 3.384 77.5782 3.3C77.9352 3.09 78.0192 3.027 78.0192 2.838C78.0192 2.46 77.1162 1.767 75.4782 0.863999ZM87.7212 15.06C87.7212 15.186 87.8052 15.27 87.9732 15.396C89.4642 16.362 91.1442 18.084 91.8792 19.386C91.9842 19.596 92.1102 19.68 92.2362 19.68C92.3832 19.68 92.5512 19.554 93.3492 18.819C93.9582 18.273 94.0002 18.231 94.0002 18.042C94.0002 17.748 92.8242 16.341 91.7742 15.375C90.8502 14.493 89.5902 13.569 89.3172 13.569C89.1702 13.569 89.0652 13.653 88.6872 13.989C87.7632 14.85 87.7212 14.913 87.7212 15.06ZM102.148 7.416C102.148 10.356 102.379 12.477 102.862 14.157C103.618 16.74 104.836 18.042 106.453 18.042C107.566 18.042 108.616 17.391 109.435 16.194C109.855 15.585 110.17 14.871 110.17 14.535C110.17 14.388 110.107 14.241 110.002 14.094C109.414 13.338 109.267 13.023 108.868 11.952C108.091 14.283 107.377 15.291 106.516 15.291C105.949 15.291 105.466 14.724 105.151 13.737C104.731 12.456 104.563 10.776 104.563 8.088C104.563 6.177 104.647 5.379 104.92 4.665C105.004 4.455 105.004 4.455 105.004 4.329C105.004 4.098 104.836 3.972 104.332 3.783C103.765 3.573 103.051 3.426 102.085 3.321C102.127 3.783 102.148 4.602 102.148 5.211V7.416ZM112.816 6.576C114.244 8.34 114.286 8.403 114.874 9.621C115.525 10.986 115.903 12.162 116.176 13.779C116.239 14.157 116.323 14.262 116.512 14.262C116.764 14.262 117.751 13.926 118.234 13.674C118.675 13.443 118.78 13.338 118.78 13.128C118.78 12.687 118.339 11.196 117.877 10.083C117.184 8.445 116.092 6.765 115.042 5.757C114.874 5.61 114.769 5.547 114.643 5.547C114.391 5.547 113.698 5.925 112.816 6.576ZM124.407 7.416C124.407 10.356 124.638 12.477 125.121 14.157C125.877 16.74 127.095 18.042 128.712 18.042C129.825 18.042 130.875 17.391 131.694 16.194C132.114 15.585 132.429 14.871 132.429 14.535C132.429 14.388 132.366 14.241 132.261 14.094C131.673 13.338 131.526 13.023 131.127 11.952C130.35 14.283 129.636 15.291 128.775 15.291C128.208 15.291 127.725 14.724 127.41 13.737C126.99 12.456 126.822 10.776 126.822 8.088C126.822 6.177 126.906 5.379 127.179 4.665C127.263 4.455 127.263 4.455 127.263 4.329C127.263 4.098 127.095 3.972 126.591 3.783C126.024 3.573 125.31 3.426 124.344 3.321C124.386 3.783 124.407 4.602 124.407 5.211V7.416ZM135.075 6.576C136.503 8.34 136.545 8.403 137.133 9.621C137.784 10.986 138.162 12.162 138.435 13.779C138.498 14.157 138.582 14.262 138.771 14.262C139.023 14.262 140.01 13.926 140.493 13.674C140.934 13.443 141.039 13.338 141.039 13.128C141.039 12.687 140.598 11.196 140.136 10.083C139.443 8.445 138.351 6.765 137.301 5.757C137.133 5.61 137.028 5.547 136.902 5.547C136.65 5.547 135.957 5.925 135.075 6.576ZM154.164 9.243C154.605 9.852 154.668 9.978 154.941 10.545C155.298 9.999 155.403 9.81 155.592 9.453C155.529 10.755 155.529 10.755 155.529 11.406V17.013C155.529 17.853 155.487 18.567 155.403 19.302H157.671C157.587 18.546 157.545 17.937 157.545 17.013V5.421C157.944 4.308 158.028 4.077 158.385 2.817C158.574 2.187 158.574 2.187 158.679 1.914L156.684 0.968999C156.495 2.775 155.319 6.051 154.206 7.857C153.723 7.899 153.555 7.899 152.442 7.899H151.434V6.996H152.043C152.463 6.996 152.904 7.017 153.387 7.038C153.345 6.66 153.324 6.324 153.324 5.799V4.224H153.576C154.185 4.224 154.542 4.245 154.92 4.287V2.292C154.542 2.334 154.185 2.355 153.534 2.355H153.324V2.061C153.324 1.473 153.345 1.053 153.387 0.737999H151.455C151.497 1.095 151.497 1.284 151.497 2.061V2.355H149.586V2.103C149.586 1.326 149.586 1.053 149.628 0.758999H147.696C147.738 1.074 147.759 1.452 147.759 2.103V2.355C146.94 2.355 146.667 2.334 146.163 2.271V4.308C146.688 4.245 147.087 4.224 147.759 4.224V5.841C147.759 6.303 147.738 6.66 147.696 7.038C148.137 7.017 148.599 6.996 149.04 6.996H149.544V7.899H148.452C147.528 7.899 147.171 7.878 146.688 7.836C146.73 8.34 146.751 8.781 146.751 9.453V11.91C146.751 12.561 146.73 13.065 146.688 13.485C147.129 13.443 147.57 13.422 148.41 13.422H149.544V14.472H148.095C147.066 14.472 146.73 14.451 146.184 14.388V16.446C146.667 16.362 147.024 16.341 148.074 16.341H149.544V17.244C149.544 18.231 149.502 18.798 149.418 19.47H151.56C151.455 18.861 151.434 18.294 151.434 17.286V16.341H152.694C153.618 16.341 154.101 16.362 154.605 16.425V14.388C154.122 14.451 153.723 14.472 152.673 14.472H151.434V13.422H152.442C153.345 13.422 153.786 13.443 154.206 13.485C154.185 13.107 154.164 12.687 154.164 11.952V9.243ZM151.497 4.224V5.358H149.586V4.224H151.497ZM149.544 9.621V11.679H148.536V9.621H149.544ZM151.434 9.621H152.421V11.679H151.434V9.621ZM161.094 10.209C162.291 9.117 163.383 7.92 164.349 6.618C164.811 6.009 164.811 6.009 165 5.757L163.383 4.266C162.942 5.379 162.438 6.093 161.094 7.563V3.09C161.094 2.166 161.115 1.662 161.22 1.074H158.952C159.036 1.746 159.078 2.229 159.078 3.09V17.454C159.078 18.735 159.603 19.092 161.43 19.092C163.131 19.092 163.824 18.903 164.202 18.357C164.622 17.769 164.832 16.488 164.895 14.157C164.16 13.947 163.74 13.758 163.047 13.317C163.047 14.871 162.984 16.131 162.879 16.572C162.795 16.992 162.585 17.118 162.039 17.118C161.199 17.118 161.094 17.076 161.094 16.614V10.209ZM176.361 9.138C174.597 10.188 173.799 10.881 173.064 11.973C172.497 12.813 172.224 13.674 172.224 14.64C172.224 15.9 172.728 16.929 173.673 17.58C174.786 18.336 176.571 18.693 179.259 18.693C180.855 18.693 183.396 18.546 183.858 18.441C184.131 18.357 184.215 18.252 184.215 17.958C184.215 17.454 184.068 16.173 184.005 15.963C183.921 15.795 183.816 15.711 183.648 15.711C183.606 15.711 183.459 15.732 183.375 15.753C181.443 16.068 180.015 16.215 178.44 16.215C175.731 16.215 174.66 15.69 174.66 14.409C174.66 13.107 175.815 11.952 178.377 10.692C179.826 9.999 181.968 9.159 183.27 8.802C183.627 8.697 183.774 8.55 183.774 8.319C183.774 8.025 183.354 7.248 182.829 6.534C182.514 6.135 182.325 5.988 182.136 5.988C182.031 5.988 181.989 6.009 181.716 6.219C180.708 6.996 178.86 7.962 178.356 7.962C178.125 7.962 177.999 7.815 177.873 7.416C177.642 6.681 177.432 5.001 177.432 3.972C177.432 3.426 177.495 3.048 177.642 2.544C177.684 2.376 177.705 2.271 177.705 2.187C177.705 1.956 177.558 1.809 177.243 1.725C176.676 1.578 175.857 1.515 174.576 1.494C174.786 2.208 174.87 2.712 174.954 3.72C175.206 6.303 175.29 6.87 175.563 7.794C175.752 8.445 175.92 8.739 176.361 9.138ZM191.88 15.06C191.88 15.186 191.964 15.27 192.132 15.396C193.623 16.362 195.303 18.084 196.038 19.386C196.143 19.596 196.269 19.68 196.395 19.68C196.542 19.68 196.71 19.554 197.508 18.819C198.117 18.273 198.159 18.231 198.159 18.042C198.159 17.748 196.983 16.341 195.933 15.375C195.009 14.493 193.749 13.569 193.476 13.569C193.329 13.569 193.224 13.653 192.846 13.989C191.922 14.85 191.88 14.913 191.88 15.06ZM206.307 7.416C206.307 10.356 206.538 12.477 207.021 14.157C207.777 16.74 208.995 18.042 210.612 18.042C211.725 18.042 212.775 17.391 213.594 16.194C214.014 15.585 214.329 14.871 214.329 14.535C214.329 14.388 214.266 14.241 214.161 14.094C213.573 13.338 213.426 13.023 213.027 11.952C212.25 14.283 211.536 15.291 210.675 15.291C210.108 15.291 209.625 14.724 209.31 13.737C208.89 12.456 208.722 10.776 208.722 8.088C208.722 6.177 208.806 5.379 209.079 4.665C209.163 4.455 209.163 4.455 209.163 4.329C209.163 4.098 208.995 3.972 208.491 3.783C207.924 3.573 207.21 3.426 206.244 3.321C206.286 3.783 206.307 4.602 206.307 5.211V7.416ZM216.975 6.576C218.403 8.34 218.445 8.403 219.033 9.621C219.684 10.986 220.062 12.162 220.335 13.779C220.398 14.157 220.482 14.262 220.671 14.262C220.923 14.262 221.91 13.926 222.393 13.674C222.834 13.443 222.939 13.338 222.939 13.128C222.939 12.687 222.498 11.196 222.036 10.083C221.343 8.445 220.251 6.765 219.201 5.757C219.033 5.61 218.928 5.547 218.802 5.547C218.55 5.547 217.857 5.925 216.975 6.576ZM228.567 7.416C228.567 10.356 228.798 12.477 229.281 14.157C230.037 16.74 231.255 18.042 232.872 18.042C233.985 18.042 235.035 17.391 235.854 16.194C236.274 15.585 236.589 14.871 236.589 14.535C236.589 14.388 236.526 14.241 236.421 14.094C235.833 13.338 235.686 13.023 235.287 11.952C234.51 14.283 233.796 15.291 232.935 15.291C232.368 15.291 231.885 14.724 231.57 13.737C231.15 12.456 230.982 10.776 230.982 8.088C230.982 6.177 231.066 5.379 231.339 4.665C231.423 4.455 231.423 4.455 231.423 4.329C231.423 4.098 231.255 3.972 230.751 3.783C230.184 3.573 229.47 3.426 228.504 3.321C228.546 3.783 228.567 4.602 228.567 5.211V7.416ZM239.235 6.576C240.663 8.34 240.705 8.403 241.293 9.621C241.944 10.986 242.322 12.162 242.595 13.779C242.658 14.157 242.742 14.262 242.931 14.262C243.183 14.262 244.17 13.926 244.653 13.674C245.094 13.443 245.199 13.338 245.199 13.128C245.199 12.687 244.758 11.196 244.296 10.083C243.603 8.445 242.511 6.765 241.461 5.757C241.293 5.61 241.188 5.547 241.062 5.547C240.81 5.547 240.117 5.925 239.235 6.576ZM258.156 1.011C258.24 1.557 258.261 1.935 258.261 2.712C258.261 7.542 257.169 10.839 254.565 13.821C253.305 15.291 252.234 16.089 250.155 17.202C250.869 17.832 251.268 18.336 251.73 19.281C253.137 18.42 253.788 17.916 254.859 16.95C256.266 15.648 257.148 14.556 257.946 13.086C258.786 11.553 259.143 10.629 259.542 9.012C260.214 11.322 260.97 12.897 262.209 14.535C263.637 16.404 264.897 17.58 267.333 19.281C267.795 18.315 268.131 17.832 268.887 17.034C267.585 16.341 266.976 15.9 265.779 14.871C264.351 13.611 263.448 12.54 262.608 11.049C261.159 8.466 260.634 6.366 260.634 3.09C260.634 2.334 260.697 1.347 260.76 1.011H258.156ZM281.696 6.723V10.419H278.567C277.454 10.419 276.824 10.398 276.152 10.314V12.519C276.824 12.435 277.664 12.393 278.588 12.393H281.696V16.677H276.509C275.459 16.677 274.556 16.635 273.716 16.53V18.84C274.661 18.735 275.501 18.693 276.572 18.693H288.92C290.012 18.693 290.705 18.735 291.65 18.84V16.53C290.873 16.635 289.991 16.677 288.857 16.677H284.006V12.393H287.513C288.437 12.393 289.277 12.435 289.991 12.519V10.293C289.34 10.377 288.521 10.419 287.492 10.419H284.006V6.723H288.269C289.214 6.723 290.075 6.765 290.936 6.849V4.623C290.117 4.707 289.256 4.749 288.227 4.749H284.006V3.195C284.006 2.145 284.048 1.41 284.132 0.779999H281.57C281.654 1.536 281.696 2.145 281.696 3.216V4.749H278.42C278.777 3.783 278.861 3.51 278.945 3.237C279.092 2.712 279.113 2.691 279.155 2.565C279.302 2.187 279.302 2.187 279.344 2.04L277.034 1.473C276.95 2.082 276.866 2.481 276.593 3.342C275.921 5.589 274.703 7.689 273.191 9.243C273.842 9.684 274.325 10.188 274.829 10.944C275.963 9.642 276.782 8.382 277.58 6.723H281.696ZM299.61 12.54C297.657 12.54 296.061 14.136 296.061 16.089C296.061 18.063 297.657 19.659 299.61 19.659C301.563 19.659 303.159 18.063 303.159 16.089C303.159 14.136 301.584 12.54 299.61 12.54ZM299.61 14.178C300.66 14.178 301.521 15.039 301.521 16.089C301.521 17.16 300.66 18.021 299.61 18.021C298.56 18.021 297.699 17.16 297.699 16.089C297.699 15.039 298.56 14.178 299.61 14.178Z" fill="white"/>
</svg>
