<svg width="404" height="27" viewBox="0 0 404 27" fill="none" xmlns="http://www.w3.org/2000/svg">
<path d="M14.268 6.836C12.672 7.928 12 8.488 11.216 9.496C9.76 11.344 9.004 13.5 9.004 15.824C9.004 20.108 11.496 23.132 16.256 24.532C17.124 24.784 17.964 24.952 18.328 24.952C18.692 24.952 18.916 24.812 19.056 24.504C19.308 23.888 19.588 22.544 19.588 21.844C19.588 21.508 19.448 21.368 19.056 21.34C14.688 20.948 12.112 18.792 12.112 15.516C12.112 11.148 15.892 7.004 20.624 6.22C21.156 6.136 21.688 6.08 22.276 6.08C22.668 6.08 22.78 5.968 22.78 5.632C22.78 5.24 22.612 4.4 22.388 3.812C22.136 3.112 21.996 2.944 21.632 2.944C21.492 2.944 21.408 2.944 21.212 3C20.148 3.224 18.132 3.56 15.612 3.896C13.372 4.176 9.116 4.82 5.756 5.324C2.648 5.8 2.004 5.884 0.212 5.968C0.716 8.376 1.276 9.524 1.892 9.524C2.06 9.524 2.256 9.468 2.62 9.328C3.628 8.964 3.88 8.88 4.608 8.712C6.736 8.18 10.6 7.452 14.268 6.836ZM41.6069 1.152C41.2429 2.104 40.8789 2.776 40.1509 3.812C39.0589 5.38 37.3229 7.508 35.6989 9.188C33.9909 11.008 33.9909 11.008 33.6829 11.512C33.3469 12.072 33.1789 12.66 33.1789 13.22C33.1789 13.864 33.3749 14.424 33.8509 15.096C34.2429 15.656 34.4949 15.936 35.7549 17.196C37.9949 19.464 40.9349 23.02 42.1389 24.924C42.4189 25.372 42.5309 25.484 42.7829 25.484C42.9509 25.484 43.2869 25.288 43.8189 24.868C44.9669 23.972 45.4429 23.496 45.4429 23.188C45.4429 22.908 45.0789 22.404 43.6789 20.836C41.6909 18.568 39.0029 15.824 37.3509 14.312C36.8189 13.836 36.5949 13.5 36.5949 13.192C36.5949 12.856 36.7909 12.492 37.2669 12.016C39.4789 9.776 41.9709 7.06 43.7069 5.044C43.9589 4.736 44.2109 4.512 44.4069 4.4C44.8829 4.12 44.9949 4.036 44.9949 3.784C44.9949 3.28 43.7909 2.356 41.6069 1.152ZM72.2313 6.836C70.6353 7.928 69.9633 8.488 69.1793 9.496C67.7233 11.344 66.9673 13.5 66.9673 15.824C66.9673 20.108 69.4593 23.132 74.2193 24.532C75.0873 24.784 75.9273 24.952 76.2913 24.952C76.6553 24.952 76.8793 24.812 77.0193 24.504C77.2713 23.888 77.5513 22.544 77.5513 21.844C77.5513 21.508 77.4113 21.368 77.0193 21.34C72.6513 20.948 70.0753 18.792 70.0753 15.516C70.0753 11.148 73.8553 7.004 78.5873 6.22C79.1193 6.136 79.6513 6.08 80.2393 6.08C80.6313 6.08 80.7433 5.968 80.7433 5.632C80.7433 5.24 80.5753 4.4 80.3513 3.812C80.0993 3.112 79.9593 2.944 79.5953 2.944C79.4553 2.944 79.3713 2.944 79.1753 3C78.1113 3.224 76.0953 3.56 73.5753 3.896C71.3353 4.176 67.0793 4.82 63.7193 5.324C60.6113 5.8 59.9673 5.884 58.1753 5.968C58.6793 8.376 59.2393 9.524 59.8553 9.524C60.0233 9.524 60.2193 9.468 60.5833 9.328C61.5913 8.964 61.8433 8.88 62.5713 8.712C64.6993 8.18 68.5633 7.452 72.2313 6.836ZM99.5702 1.152C99.2062 2.104 98.8422 2.776 98.1142 3.812C97.0222 5.38 95.2862 7.508 93.6622 9.188C91.9542 11.008 91.9542 11.008 91.6462 11.512C91.3102 12.072 91.1422 12.66 91.1422 13.22C91.1422 13.864 91.3382 14.424 91.8142 15.096C92.2062 15.656 92.4582 15.936 93.7182 17.196C95.9582 19.464 98.8982 23.02 100.102 24.924C100.382 25.372 100.494 25.484 100.746 25.484C100.914 25.484 101.25 25.288 101.782 24.868C102.93 23.972 103.406 23.496 103.406 23.188C103.406 22.908 103.042 22.404 101.642 20.836C99.6542 18.568 96.9662 15.824 95.3142 14.312C94.7822 13.836 94.5582 13.5 94.5582 13.192C94.5582 12.856 94.7542 12.492 95.2302 12.016C97.4422 9.776 99.9342 7.06 101.67 5.044C101.922 4.736 102.174 4.512 102.37 4.4C102.846 4.12 102.958 4.036 102.958 3.784C102.958 3.28 101.754 2.356 99.5702 1.152ZM115.894 20.08C115.894 20.248 116.006 20.36 116.23 20.528C118.218 21.816 120.458 24.112 121.438 25.848C121.578 26.128 121.746 26.24 121.914 26.24C122.11 26.24 122.334 26.072 123.398 25.092C124.21 24.364 124.266 24.308 124.266 24.056C124.266 23.664 122.698 21.788 121.298 20.5C120.066 19.324 118.386 18.092 118.022 18.092C117.826 18.092 117.686 18.204 117.182 18.652C115.95 19.8 115.894 19.884 115.894 20.08ZM135.13 9.888C135.13 13.808 135.438 16.636 136.082 18.876C137.09 22.32 138.714 24.056 140.87 24.056C142.354 24.056 143.754 23.188 144.846 21.592C145.406 20.78 145.826 19.828 145.826 19.38C145.826 19.184 145.742 18.988 145.602 18.792C144.818 17.784 144.622 17.364 144.09 15.936C143.054 19.044 142.102 20.388 140.954 20.388C140.198 20.388 139.554 19.632 139.134 18.316C138.574 16.608 138.35 14.368 138.35 10.784C138.35 8.236 138.462 7.172 138.826 6.22C138.938 5.94 138.938 5.94 138.938 5.772C138.938 5.464 138.714 5.296 138.042 5.044C137.286 4.764 136.334 4.568 135.046 4.428C135.102 5.044 135.13 6.136 135.13 6.948V9.888ZM149.354 8.768C151.258 11.12 151.314 11.204 152.098 12.828C152.966 14.648 153.47 16.216 153.834 18.372C153.918 18.876 154.03 19.016 154.282 19.016C154.618 19.016 155.934 18.568 156.578 18.232C157.166 17.924 157.306 17.784 157.306 17.504C157.306 16.916 156.718 14.928 156.102 13.444C155.178 11.26 153.722 9.02 152.322 7.676C152.098 7.48 151.958 7.396 151.79 7.396C151.454 7.396 150.53 7.9 149.354 8.768ZM164.809 9.888C164.809 13.808 165.117 16.636 165.761 18.876C166.769 22.32 168.393 24.056 170.549 24.056C172.033 24.056 173.433 23.188 174.525 21.592C175.085 20.78 175.505 19.828 175.505 19.38C175.505 19.184 175.421 18.988 175.281 18.792C174.497 17.784 174.301 17.364 173.769 15.936C172.733 19.044 171.781 20.388 170.633 20.388C169.877 20.388 169.233 19.632 168.813 18.316C168.253 16.608 168.029 14.368 168.029 10.784C168.029 8.236 168.141 7.172 168.505 6.22C168.617 5.94 168.617 5.94 168.617 5.772C168.617 5.464 168.393 5.296 167.721 5.044C166.965 4.764 166.013 4.568 164.725 4.428C164.781 5.044 164.809 6.136 164.809 6.948V9.888ZM179.033 8.768C180.937 11.12 180.993 11.204 181.777 12.828C182.645 14.648 183.149 16.216 183.513 18.372C183.597 18.876 183.709 19.016 183.961 19.016C184.297 19.016 185.613 18.568 186.257 18.232C186.845 17.924 186.985 17.784 186.985 17.504C186.985 16.916 186.397 14.928 185.781 13.444C184.857 11.26 183.401 9.02 182.001 7.676C181.777 7.48 181.637 7.396 181.469 7.396C181.133 7.396 180.209 7.9 179.033 8.768ZM204.485 12.324C205.073 13.136 205.157 13.304 205.521 14.06C205.997 13.332 206.137 13.08 206.389 12.604C206.305 14.34 206.305 14.34 206.305 15.208V22.684C206.305 23.804 206.249 24.756 206.137 25.736H209.161C209.049 24.728 208.993 23.916 208.993 22.684V7.228C209.525 5.744 209.637 5.436 210.113 3.756C210.365 2.916 210.365 2.916 210.505 2.552L207.845 1.292C207.593 3.7 206.025 8.068 204.541 10.476C203.897 10.532 203.673 10.532 202.189 10.532H200.845V9.328H201.657C202.217 9.328 202.805 9.356 203.449 9.384C203.393 8.88 203.365 8.432 203.365 7.732V5.632H203.701C204.513 5.632 204.989 5.66 205.493 5.716V3.056C204.989 3.112 204.513 3.14 203.645 3.14H203.365V2.748C203.365 1.964 203.393 1.404 203.449 0.983999H200.873C200.929 1.46 200.929 1.712 200.929 2.748V3.14H198.381V2.804C198.381 1.768 198.381 1.404 198.437 1.012H195.861C195.917 1.432 195.945 1.936 195.945 2.804V3.14C194.853 3.14 194.489 3.112 193.817 3.028V5.744C194.517 5.66 195.049 5.632 195.945 5.632V7.788C195.945 8.404 195.917 8.88 195.861 9.384C196.449 9.356 197.065 9.328 197.653 9.328H198.325V10.532H196.869C195.637 10.532 195.161 10.504 194.517 10.448C194.573 11.12 194.601 11.708 194.601 12.604V15.88C194.601 16.748 194.573 17.42 194.517 17.98C195.105 17.924 195.693 17.896 196.813 17.896H198.325V19.296H196.393C195.021 19.296 194.573 19.268 193.845 19.184V21.928C194.489 21.816 194.965 21.788 196.365 21.788H198.325V22.992C198.325 24.308 198.269 25.064 198.157 25.96H201.013C200.873 25.148 200.845 24.392 200.845 23.048V21.788H202.525C203.757 21.788 204.401 21.816 205.073 21.9V19.184C204.429 19.268 203.897 19.296 202.497 19.296H200.845V17.896H202.189C203.393 17.896 203.981 17.924 204.541 17.98C204.513 17.476 204.485 16.916 204.485 15.936V12.324ZM200.929 5.632V7.144H198.381V5.632H200.929ZM198.325 12.828V15.572H196.981V12.828H198.325ZM200.845 12.828H202.161V15.572H200.845V12.828ZM213.725 13.612C215.321 12.156 216.777 10.56 218.065 8.824C218.681 8.012 218.681 8.012 218.933 7.676L216.777 5.688C216.189 7.172 215.517 8.124 213.725 10.084V4.12C213.725 2.888 213.753 2.216 213.893 1.432H210.869C210.981 2.328 211.037 2.972 211.037 4.12V23.272C211.037 24.98 211.737 25.456 214.173 25.456C216.441 25.456 217.365 25.204 217.869 24.476C218.429 23.692 218.709 21.984 218.793 18.876C217.813 18.596 217.253 18.344 216.329 17.756C216.329 19.828 216.245 21.508 216.105 22.096C215.993 22.656 215.713 22.824 214.985 22.824C213.865 22.824 213.725 22.768 213.725 22.152V13.612ZM234.081 12.184C231.729 13.584 230.665 14.508 229.685 15.964C228.929 17.084 228.565 18.232 228.565 19.52C228.565 21.2 229.237 22.572 230.497 23.44C231.981 24.448 234.361 24.924 237.945 24.924C240.073 24.924 243.461 24.728 244.077 24.588C244.441 24.476 244.553 24.336 244.553 23.944C244.553 23.272 244.357 21.564 244.273 21.284C244.161 21.06 244.021 20.948 243.797 20.948C243.741 20.948 243.545 20.976 243.433 21.004C240.857 21.424 238.953 21.62 236.853 21.62C233.241 21.62 231.813 20.92 231.813 19.212C231.813 17.476 233.353 15.936 236.769 14.256C238.701 13.332 241.557 12.212 243.293 11.736C243.769 11.596 243.965 11.4 243.965 11.092C243.965 10.7 243.405 9.664 242.705 8.712C242.285 8.18 242.033 7.984 241.781 7.984C241.641 7.984 241.585 8.012 241.221 8.292C239.877 9.328 237.413 10.616 236.741 10.616C236.433 10.616 236.265 10.42 236.097 9.888C235.789 8.908 235.509 6.668 235.509 5.296C235.509 4.568 235.593 4.064 235.789 3.392C235.845 3.168 235.873 3.028 235.873 2.916C235.873 2.608 235.677 2.412 235.257 2.3C234.501 2.104 233.409 2.02 231.701 1.992C231.981 2.944 232.093 3.616 232.205 4.96C232.541 8.404 232.653 9.16 233.017 10.392C233.269 11.26 233.493 11.652 234.081 12.184ZM254.773 20.08C254.773 20.248 254.885 20.36 255.109 20.528C257.097 21.816 259.337 24.112 260.317 25.848C260.457 26.128 260.625 26.24 260.793 26.24C260.989 26.24 261.213 26.072 262.277 25.092C263.089 24.364 263.145 24.308 263.145 24.056C263.145 23.664 261.577 21.788 260.177 20.5C258.945 19.324 257.265 18.092 256.901 18.092C256.705 18.092 256.565 18.204 256.061 18.652C254.829 19.8 254.773 19.884 254.773 20.08ZM274.009 9.888C274.009 13.808 274.317 16.636 274.961 18.876C275.969 22.32 277.593 24.056 279.749 24.056C281.233 24.056 282.633 23.188 283.725 21.592C284.285 20.78 284.705 19.828 284.705 19.38C284.705 19.184 284.621 18.988 284.481 18.792C283.697 17.784 283.501 17.364 282.969 15.936C281.933 19.044 280.981 20.388 279.833 20.388C279.077 20.388 278.433 19.632 278.013 18.316C277.453 16.608 277.229 14.368 277.229 10.784C277.229 8.236 277.341 7.172 277.705 6.22C277.817 5.94 277.817 5.94 277.817 5.772C277.817 5.464 277.593 5.296 276.921 5.044C276.165 4.764 275.213 4.568 273.925 4.428C273.981 5.044 274.009 6.136 274.009 6.948V9.888ZM288.233 8.768C290.137 11.12 290.193 11.204 290.977 12.828C291.845 14.648 292.349 16.216 292.713 18.372C292.797 18.876 292.909 19.016 293.161 19.016C293.497 19.016 294.813 18.568 295.457 18.232C296.045 17.924 296.185 17.784 296.185 17.504C296.185 16.916 295.597 14.928 294.981 13.444C294.057 11.26 292.601 9.02 291.201 7.676C290.977 7.48 290.837 7.396 290.669 7.396C290.333 7.396 289.409 7.9 288.233 8.768ZM303.688 9.888C303.688 13.808 303.996 16.636 304.64 18.876C305.648 22.32 307.272 24.056 309.428 24.056C310.912 24.056 312.312 23.188 313.404 21.592C313.964 20.78 314.384 19.828 314.384 19.38C314.384 19.184 314.3 18.988 314.16 18.792C313.376 17.784 313.18 17.364 312.648 15.936C311.612 19.044 310.66 20.388 309.512 20.388C308.756 20.388 308.112 19.632 307.692 18.316C307.132 16.608 306.908 14.368 306.908 10.784C306.908 8.236 307.02 7.172 307.384 6.22C307.496 5.94 307.496 5.94 307.496 5.772C307.496 5.464 307.272 5.296 306.6 5.044C305.844 4.764 304.892 4.568 303.604 4.428C303.66 5.044 303.688 6.136 303.688 6.948V9.888ZM317.912 8.768C319.816 11.12 319.872 11.204 320.656 12.828C321.524 14.648 322.028 16.216 322.392 18.372C322.476 18.876 322.588 19.016 322.84 19.016C323.176 19.016 324.492 18.568 325.136 18.232C325.724 17.924 325.864 17.784 325.864 17.504C325.864 16.916 325.276 14.928 324.66 13.444C323.736 11.26 322.28 9.02 320.88 7.676C320.656 7.48 320.516 7.396 320.348 7.396C320.012 7.396 319.088 7.9 317.912 8.768ZM343.14 1.348C343.252 2.076 343.28 2.58 343.28 3.616C343.28 10.056 341.824 14.452 338.352 18.428C336.672 20.388 335.244 21.452 332.472 22.936C333.424 23.776 333.956 24.448 334.572 25.708C336.448 24.56 337.316 23.888 338.744 22.6C340.62 20.864 341.796 19.408 342.86 17.448C343.98 15.404 344.456 14.172 344.988 12.016C345.884 15.096 346.892 17.196 348.544 19.38C350.448 21.872 352.128 23.44 355.376 25.708C355.992 24.42 356.44 23.776 357.448 22.712C355.712 21.788 354.9 21.2 353.304 19.828C351.4 18.148 350.196 16.72 349.076 14.732C347.144 11.288 346.444 8.488 346.444 4.12C346.444 3.112 346.528 1.796 346.612 1.348H343.14ZM374.528 8.964V13.892H370.356C368.872 13.892 368.032 13.864 367.136 13.752V16.692C368.032 16.58 369.152 16.524 370.384 16.524H374.528V22.236H367.612C366.212 22.236 365.008 22.18 363.888 22.04V25.12C365.148 24.98 366.268 24.924 367.696 24.924H384.16C385.616 24.924 386.54 24.98 387.8 25.12V22.04C386.764 22.18 385.588 22.236 384.076 22.236H377.608V16.524H382.284C383.516 16.524 384.636 16.58 385.588 16.692V13.724C384.72 13.836 383.628 13.892 382.256 13.892H377.608V8.964H383.292C384.552 8.964 385.7 9.02 386.848 9.132V6.164C385.756 6.276 384.608 6.332 383.236 6.332H377.608V4.26C377.608 2.86 377.664 1.88 377.776 1.04H374.36C374.472 2.048 374.528 2.86 374.528 4.288V6.332H370.16C370.636 5.044 370.748 4.68 370.86 4.316C371.056 3.616 371.084 3.588 371.14 3.42C371.336 2.916 371.336 2.916 371.392 2.72L368.312 1.964C368.2 2.776 368.088 3.308 367.724 4.456C366.828 7.452 365.204 10.252 363.188 12.324C364.056 12.912 364.7 13.584 365.372 14.592C366.884 12.856 367.976 11.176 369.04 8.964H374.528ZM398.412 16.72C395.808 16.72 393.68 18.848 393.68 21.452C393.68 24.084 395.808 26.212 398.412 26.212C401.016 26.212 403.144 24.084 403.144 21.452C403.144 18.848 401.044 16.72 398.412 16.72ZM398.412 18.904C399.812 18.904 400.96 20.052 400.96 21.452C400.96 22.88 399.812 24.028 398.412 24.028C397.012 24.028 395.864 22.88 395.864 21.452C395.864 20.052 397.012 18.904 398.412 18.904Z" fill="white"/>
</svg>
