<svg width="31" height="235" viewBox="0 0 31 235" fill="none" xmlns="http://www.w3.org/2000/svg">
<path d="M29.38 19.6189L29.38 20.1189L29.88 20.1189L29.88 19.6189L29.38 19.6189ZM26.42 19.6189L25.92 19.6189L25.92 20.1189L26.42 20.1189L26.42 19.6189ZM26.42 12.0189L26.92 12.0189L26.92 11.5189L26.42 11.5189L26.42 12.0189ZM1.5 12.0189L0.999999 12.0189L0.999999 12.5189L1.5 12.5189L1.5 12.0189ZM1.5 8.3789L1.5 7.8789L1 7.8789L1 8.3789L1.5 8.3789ZM26.42 8.37891L26.42 8.87891L26.92 8.87891L26.92 8.37891L26.42 8.37891ZM26.42 0.738905L26.42 0.238905L25.92 0.238905L25.92 0.738905L26.42 0.738905ZM29.38 0.738906L29.88 0.738906L29.88 0.238906L29.38 0.238906L29.38 0.738906ZM29.38 19.1189L26.42 19.1189L26.42 20.1189L29.38 20.1189L29.38 19.1189ZM26.92 19.6189L26.92 12.0189L25.92 12.0189L25.92 19.6189L26.92 19.6189ZM26.42 11.5189L1.5 11.5189L1.5 12.5189L26.42 12.5189L26.42 11.5189ZM2 12.0189L2 8.3789L1 8.3789L0.999999 12.0189L2 12.0189ZM1.5 8.8789L26.42 8.87891L26.42 7.87891L1.5 7.8789L1.5 8.8789ZM26.92 8.37891L26.92 0.738906L25.92 0.738905L25.92 8.37891L26.92 8.37891ZM26.42 1.23891L29.38 1.23891L29.38 0.238906L26.42 0.238905L26.42 1.23891ZM28.88 0.738906L28.88 19.6189L29.88 19.6189L29.88 0.738906L28.88 0.738906ZM29.38 53.5795L29.38 54.0795L29.88 54.0795L29.88 53.5795L29.38 53.5795ZM1.5 53.5795L0.999998 53.5795L0.999998 54.0795L1.5 54.0795L1.5 53.5795ZM1.5 49.9395L1.5 49.4395L0.999998 49.4395L0.999998 49.9395L1.5 49.9395ZM14.14 49.9395L14.14 50.4395L14.64 50.4395L14.64 49.9395L14.14 49.9395ZM14.14 35.7395L14.64 35.7395L14.64 35.2395L14.14 35.2395L14.14 35.7395ZM1.5 35.7395L0.999998 35.7395L0.999998 36.2395L1.5 36.2395L1.5 35.7395ZM1.5 32.0995L1.5 31.5995L0.999999 31.5995L0.999999 32.0995L1.5 32.0995ZM29.38 32.0995L29.88 32.0995L29.88 31.5995L29.38 31.5995L29.38 32.0995ZM29.38 35.7395L29.38 36.2395L29.88 36.2395L29.88 35.7395L29.38 35.7395ZM17.14 35.7395L17.14 35.2395L16.64 35.2395L16.64 35.7395L17.14 35.7395ZM17.14 49.9395L16.64 49.9395L16.64 50.4395L17.14 50.4395L17.14 49.9395ZM29.38 49.9395L29.88 49.9395L29.88 49.4395L29.38 49.4395L29.38 49.9395ZM29.38 53.0795L1.5 53.0795L1.5 54.0795L29.38 54.0795L29.38 53.0795ZM2 53.5795L2 49.9395L0.999998 49.9395L0.999998 53.5795L2 53.5795ZM1.5 50.4395L14.14 50.4395L14.14 49.4395L1.5 49.4395L1.5 50.4395ZM14.64 49.9395L14.64 35.7395L13.64 35.7395L13.64 49.9395L14.64 49.9395ZM14.14 35.2395L1.5 35.2395L1.5 36.2395L14.14 36.2395L14.14 35.2395ZM2 35.7395L2 32.0995L0.999999 32.0995L0.999998 35.7395L2 35.7395ZM1.5 32.5995L29.38 32.5995L29.38 31.5995L1.5 31.5995L1.5 32.5995ZM28.88 32.0995L28.88 35.7395L29.88 35.7395L29.88 32.0995L28.88 32.0995ZM29.38 35.2395L17.14 35.2395L17.14 36.2395L29.38 36.2395L29.38 35.2395ZM16.64 35.7395L16.64 49.9395L17.64 49.9395L17.64 35.7395L16.64 35.7395ZM17.14 50.4395L29.38 50.4395L29.38 49.4395L17.14 49.4395L17.14 50.4395ZM28.88 49.9395L28.88 53.5795L29.88 53.5795L29.88 49.9395L28.88 49.9395ZM3.02 73.3548L2.58652 73.1056L2.58421 73.1097L3.02 73.3548ZM8.1 68.2748L7.85535 67.8387L7.84906 67.8424L8.1 68.2748ZM22.78 68.2748L23.0286 67.841L23.0269 67.8401L22.78 68.2748ZM27.86 73.3548L27.4242 73.6L27.4265 73.6041L27.86 73.3548ZM27.86 87.5548L27.4265 87.3056L27.4242 87.3097L27.86 87.5548ZM22.82 92.5948L23.0669 93.0296L23.0669 93.0296L22.82 92.5948ZM8.1 92.5948L8.34691 92.1601L8.1 92.5948ZM3.02 87.5548L2.58419 87.8L2.58654 87.8041L3.02 87.5548ZM5.74 85.6748L6.17322 85.4252L6.17135 85.422L5.74 85.6748ZM9.62 89.3548L9.85748 88.9148L9.852 88.9119L9.62 89.3548ZM21.3 89.3548L21.068 88.9118L21.0596 88.9164L21.3 89.3548ZM25.18 85.7148L24.7486 85.462L24.7486 85.462L25.18 85.7148ZM25.18 75.1548L24.7486 75.4077L24.7486 75.4077L25.18 75.1548ZM21.3 71.4748L21.5375 71.0348L21.5349 71.0335L21.3 71.4748ZM9.62 71.4748L9.38798 71.0319L9.38253 71.0348L9.62 71.4748ZM5.74 75.1548L5.30864 74.902L5.30678 74.9052L5.74 75.1548ZM1.72 80.4348C1.72 77.929 2.30029 75.6542 3.45578 73.6L2.58421 73.1097C1.3397 75.3222 0.719997 77.7674 0.719996 80.4348L1.72 80.4348ZM3.45345 73.6041C4.63573 71.5479 6.26561 69.9173 8.35094 68.7073L7.84906 67.8424C5.61438 69.139 3.8576 70.8951 2.58654 73.1056L3.45345 73.6041ZM8.34462 68.7109C10.4503 67.5297 12.8182 66.9348 15.46 66.9348L15.46 65.9348C12.6618 65.9348 10.123 66.5667 7.85537 67.8388L8.34462 68.7109ZM15.46 66.9348C18.1019 66.9348 20.4554 67.5297 22.5331 68.7096L23.0269 67.8401C20.7846 66.5667 18.2581 65.9348 15.46 65.9348L15.46 66.9348ZM22.5314 68.7086C24.6422 69.9185 26.2698 71.5477 27.4242 73.6L28.2958 73.1097C27.0502 70.8953 25.2911 69.1378 23.0286 67.841L22.5314 68.7086ZM27.4265 73.6041C28.6074 75.6577 29.2 77.931 29.2 80.4348L30.2 80.4348C30.2 77.7654 29.566 75.3187 28.2935 73.1056L27.4265 73.6041ZM29.2 80.4348C29.2 82.9663 28.6069 85.2528 27.4265 87.3056L28.2935 87.8041C29.5664 85.5902 30.2 83.13 30.2 80.4348L29.2 80.4348ZM27.4242 87.3097C26.2695 89.3626 24.6553 90.9776 22.5731 92.1601L23.0669 93.0296C25.3047 91.7588 27.0505 90.0137 28.2958 87.8L27.4242 87.3097ZM22.5731 92.1601C20.4961 93.3396 18.1295 93.9348 15.46 93.9348L15.46 94.9348C18.2839 94.9348 20.8239 94.3034 23.0669 93.0296L22.5731 92.1601ZM15.46 93.9348C12.7905 93.9348 10.4239 93.3396 8.34691 92.1601L7.85308 93.0296C10.0961 94.3034 12.6361 94.9348 15.46 94.9348L15.46 93.9348ZM8.34691 92.1601C6.26377 90.977 4.63518 89.3608 3.45345 87.3056L2.58654 87.8041C3.85815 90.0156 5.61622 91.7593 7.85308 93.0296L8.34691 92.1601ZM3.45578 87.3097C2.30073 85.2563 1.72 82.9683 1.72 80.4348L0.719996 80.4348C0.719996 83.128 1.33926 85.5867 2.58421 87.8L3.45578 87.3097ZM3.88 80.4348C3.88 82.4625 4.35321 84.2978 5.30865 85.9277L6.17135 85.422C5.31345 83.9585 4.88 82.3005 4.88 80.4348L3.88 80.4348ZM5.30678 85.9245C6.26299 87.5838 7.62787 88.8758 9.38799 89.7978L9.852 88.9119C8.25213 88.0739 7.03034 86.9126 6.17321 85.4252L5.30678 85.9245ZM9.38253 89.7949C11.1464 90.7468 13.1771 91.2148 15.46 91.2148L15.46 90.2148C13.3163 90.2148 11.4536 89.7763 9.85746 88.9148L9.38253 89.7949ZM15.46 91.2148C17.7682 91.2148 19.8007 90.7473 21.5404 89.7933L21.0596 88.9164C19.4926 89.7757 17.6317 90.2148 15.46 90.2148L15.46 91.2148ZM21.532 89.7978C23.2899 88.8769 24.6545 87.5999 25.6113 85.9677L24.7486 85.462C23.8921 86.9231 22.6701 88.0727 21.068 88.9119L21.532 89.7978ZM25.6113 85.9677C26.5674 84.3368 27.04 82.4879 27.04 80.4348L26.04 80.4348C26.04 82.3285 25.6059 83.9996 24.7486 85.462L25.6113 85.9677ZM27.04 80.4348C27.04 78.3818 26.5674 76.5329 25.6113 74.902L24.7486 75.4077C25.6059 76.8701 26.04 78.5412 26.04 80.4348L27.04 80.4348ZM25.6113 74.902C24.6554 73.2712 23.2926 71.982 21.5375 71.0348L21.0625 71.9149C22.6674 72.781 23.8913 73.9452 24.7486 75.4077L25.6113 74.902ZM21.5349 71.0335C19.7964 70.1081 17.7659 69.6548 15.46 69.6548L15.46 70.6548C17.6341 70.6548 19.497 71.0816 21.0651 71.9162L21.5349 71.0335ZM15.46 69.6548C13.1794 69.6548 11.1507 70.1086 9.38799 71.0319L9.852 71.9178C11.4493 71.0811 13.314 70.6548 15.46 70.6548L15.46 69.6548ZM9.38253 71.0348C7.62743 71.982 6.26462 73.2712 5.30865 74.902L6.17135 75.4077C7.0287 73.9452 8.25256 72.781 9.85746 71.9149L9.38253 71.0348ZM5.30678 74.9052C4.35321 76.5599 3.88 78.4071 3.88 80.4348L4.88 80.4348C4.88 78.5693 5.31345 76.8964 6.17321 75.4045L5.30678 74.9052ZM29.38 110.8L29.38 111.3L29.88 111.3L29.88 110.8L29.38 110.8ZM6.22 112.6L5.86642 112.247L5.86258 112.251L6.22 112.6ZM6.21999 122.68L6.57743 122.33L6.57355 122.327L6.21999 122.68ZM29.38 124.52L29.88 124.52L29.88 124.02L29.38 124.02L29.38 124.52ZM29.38 128.16L29.38 128.66L29.88 128.66L29.88 128.16L29.38 128.16ZM5.89999 126.76L5.64489 127.19L5.64806 127.192L5.89999 126.76ZM2.37999 122.96L2.83018 122.743L2.82872 122.74L2.37999 122.96ZM2.38 112.28L1.93126 112.06L1.92982 112.063L2.38 112.28ZM5.9 108.52L5.65344 108.085L5.64489 108.09L5.9 108.52ZM29.38 107.16L29.88 107.16L29.88 106.66L29.38 106.66L29.38 107.16ZM29.38 110.3L11.74 110.3L11.74 111.3L29.38 111.3L29.38 110.3ZM11.74 110.3C9.18847 110.3 7.19601 110.917 5.86644 112.247L6.57355 112.954C7.64398 111.883 9.33152 111.3 11.74 111.3L11.74 110.3ZM5.86258 112.251C4.54903 113.593 3.92 115.425 3.92 117.68L4.92 117.68C4.92 115.615 5.49096 114.06 6.57741 112.95L5.86258 112.251ZM3.92 117.68C3.91999 119.91 4.55 121.717 5.86644 123.034L6.57355 122.327C5.48999 121.243 4.91999 119.717 4.92 117.68L3.92 117.68ZM5.86258 123.03C7.19176 124.389 9.18574 125.02 11.74 125.02L11.74 124.02C9.33425 124.02 7.64823 123.425 6.57741 122.331L5.86258 123.03ZM11.74 125.02L29.38 125.02L29.38 124.02L11.74 124.02L11.74 125.02ZM28.88 124.52L28.88 128.16L29.88 128.16L29.88 124.52L28.88 124.52ZM29.38 127.66L11.78 127.66L11.78 128.66L29.38 128.66L29.38 127.66ZM11.78 127.66C9.52643 127.66 7.65841 127.207 6.15193 126.328L5.64806 127.192C7.34158 128.18 9.39356 128.66 11.78 128.66L11.78 127.66ZM6.1551 126.33C4.66361 125.445 3.55944 124.251 2.83017 122.743L1.92982 123.178C2.74721 124.869 3.98971 126.208 5.64489 127.19L6.1551 126.33ZM2.82872 122.74C2.09314 121.243 1.71999 119.547 1.71999 117.64L0.719995 117.64C0.719995 119.68 1.12018 121.531 1.93127 123.181L2.82872 122.74ZM1.71999 117.64C1.71999 115.734 2.0931 114.023 2.83017 112.498L1.92982 112.063C1.12022 113.738 0.719995 115.6 0.719995 117.64L1.71999 117.64ZM2.82872 112.501C3.5573 111.018 4.66145 109.836 6.1551 108.95L5.64489 108.09C3.99188 109.071 2.74936 110.395 1.93127 112.06L2.82872 112.501ZM6.1465 108.955C7.65411 108.101 9.52417 107.66 11.78 107.66L11.78 106.66C9.39582 106.66 7.34589 107.126 5.65349 108.085L6.1465 108.955ZM11.78 107.66L29.38 107.66L29.38 106.66L11.78 106.66L11.78 107.66ZM28.88 107.16L28.88 110.8L29.88 110.8L29.88 107.16L28.88 107.16ZM21.3 163.352L21.0853 162.901L20.8 163.036L20.8 163.352L21.3 163.352ZM25.06 159.992L24.6347 159.729L24.6312 159.735L25.06 159.992ZM25.06 149.592L24.6254 149.84L24.6268 149.842L25.06 149.592ZM21.22 145.912L21.4575 145.472L21.4549 145.471L21.22 145.912ZM9.69999 145.912L9.46505 145.471L9.45958 145.474L9.69999 145.912ZM5.85999 149.592L5.42856 149.339L5.42361 149.348L5.85999 149.592ZM6.97999 161.592L6.6128 161.932L6.6128 161.932L6.97999 161.592ZM13.58 164.672L13.5274 165.17L14.08 165.228L14.08 164.672L13.58 164.672ZM13.58 153.552L13.58 153.052L13.08 153.052L13.08 153.552L13.58 153.552ZM16.54 153.552L17.04 153.552L17.04 153.052L16.54 153.052L16.54 153.552ZM16.54 168.552L16.54 169.052L17.04 169.052L17.04 168.552L16.54 168.552ZM13.74 168.552L13.6937 169.05L13.7168 169.052L13.74 169.052L13.74 168.552ZM7.41999 166.392L7.14812 166.812L7.1508 166.814L7.41999 166.392ZM2.89999 161.552L2.46125 161.792L2.46374 161.797L2.89999 161.552ZM3.05999 147.792L2.62652 147.543L2.62421 147.547L3.05999 147.792ZM8.13999 142.712L7.89307 142.278L7.88906 142.28L8.13999 142.712ZM22.78 142.712L23.0286 142.279L23.0269 142.278L22.78 142.712ZM27.86 147.792L27.4242 148.037L27.4265 148.042L27.86 147.792ZM27.5 162.712L27.0802 162.441L27.0788 162.443L27.5 162.712ZM21.3 167.712L20.8 167.712L20.8 168.444L21.4817 168.178L21.3 167.712ZM21.5147 163.804C23.2253 162.991 24.5553 161.805 25.4887 160.25L24.6312 159.735C23.8047 161.113 22.628 162.167 21.0853 162.901L21.5147 163.804ZM25.4853 160.255C26.4469 158.7 26.92 156.9 26.92 154.872L25.92 154.872C25.92 156.738 25.4864 158.352 24.6347 159.729L25.4853 160.255ZM26.92 154.872C26.92 152.845 26.4468 150.997 25.4932 149.343L24.6268 149.842C25.4865 151.334 25.92 153.007 25.92 154.872L26.92 154.872ZM25.4946 149.345C24.5648 147.711 23.2137 146.42 21.4575 145.472L20.9825 146.352C22.5863 147.218 23.7952 148.38 24.6254 149.84L25.4946 149.345ZM21.4549 145.471C19.718 144.546 17.7148 144.092 15.46 144.092L15.46 145.092C17.5785 145.092 19.4153 145.518 20.9851 146.354L21.4549 145.471ZM15.46 144.092C13.2052 144.092 11.202 144.546 9.46507 145.471L9.93492 146.354C11.5047 145.518 13.3415 145.092 15.46 145.092L15.46 144.092ZM9.45958 145.474C7.73128 146.422 6.38342 147.711 5.42864 149.339L6.29134 149.845C7.1499 148.381 8.36204 147.216 9.94041 146.351L9.45958 145.474ZM5.42361 149.348C4.4986 151.002 4.03999 152.847 4.03999 154.872L5.03999 154.872C5.03999 153.004 5.46139 151.329 6.29637 149.836L5.42361 149.348ZM4.03999 154.872C4.03999 157.7 4.88911 160.067 6.6128 161.932L7.34718 161.253C5.81754 159.598 5.03999 157.485 5.03999 154.872L4.03999 154.872ZM6.6128 161.932C8.33496 163.795 10.6544 164.866 13.5274 165.17L13.6326 164.175C10.9589 163.892 8.87836 162.91 7.34718 161.253L6.6128 161.932ZM14.08 164.672L14.08 153.552L13.08 153.552L13.08 164.672L14.08 164.672ZM13.58 154.052L16.54 154.052L16.54 153.052L13.58 153.052L13.58 154.052ZM16.04 153.552L16.04 168.552L17.04 168.552L17.04 153.552L16.04 153.552ZM16.54 168.052L13.74 168.052L13.74 169.052L16.54 169.052L16.54 168.052ZM13.7863 168.054C11.5714 167.848 9.54129 167.154 7.68919 165.971L7.1508 166.814C9.13869 168.084 11.3219 168.83 13.6937 169.05L13.7863 168.054ZM7.69186 165.973C5.8679 164.791 4.41719 163.238 3.33625 161.308L2.46374 161.797C3.6228 163.866 5.18542 165.54 7.14812 166.812L7.69186 165.973ZM3.33872 161.313C2.28863 159.392 1.75999 157.248 1.75999 154.872L0.759993 154.872C0.759993 157.403 1.32469 159.713 2.46127 161.792L3.33872 161.313ZM1.75999 154.872C1.75999 152.366 2.34029 150.092 3.49578 148.037L2.62421 147.547C1.3797 149.76 0.759993 152.205 0.759993 154.872L1.75999 154.872ZM3.49345 148.042C4.67572 145.985 6.30561 144.355 8.39093 143.145L7.88906 142.28C5.65438 143.577 3.8976 145.333 2.62654 147.543L3.49345 148.042ZM8.38691 143.147C10.4646 141.967 12.8181 141.372 15.46 141.372L15.46 140.372C12.6619 140.372 10.1354 141.004 7.89308 142.278L8.38691 143.147ZM15.46 141.372C18.1019 141.372 20.4554 141.967 22.5331 143.147L23.0269 142.278C20.7846 141.004 18.2581 140.372 15.46 140.372L15.46 141.372ZM22.5314 143.146C24.6422 144.356 26.2698 145.985 27.4242 148.037L28.2958 147.547C27.0502 145.333 25.2911 143.575 23.0286 142.279L22.5314 143.146ZM27.4265 148.042C28.6073 150.095 29.2 152.368 29.2 154.872L30.2 154.872C30.2 152.203 29.566 149.756 28.2934 147.543L27.4265 148.042ZM29.2 154.872C29.2 157.746 28.4895 160.263 27.0802 162.441L27.9198 162.984C29.4438 160.629 30.2 157.919 30.2 154.872L29.2 154.872ZM27.0788 162.443C25.6722 164.642 23.6918 166.243 21.1183 167.247L21.4817 168.178C24.2416 167.102 26.3945 165.369 27.9212 162.982L27.0788 162.443ZM21.8 167.712L21.8 163.352L20.8 163.352L20.8 167.712L21.8 167.712ZM29.38 202.845L29.38 203.345L29.88 203.345L29.88 202.845L29.38 202.845ZM1.49999 202.845L0.999991 202.845L0.999991 203.345L1.49999 203.345L1.49999 202.845ZM1.49999 199.205L1.49999 198.705L0.999991 198.705L0.999991 199.205L1.49999 199.205ZM14.14 199.205L14.14 199.705L14.64 199.705L14.64 199.205L14.14 199.205ZM14.14 185.005L14.64 185.005L14.64 184.505L14.14 184.505L14.14 185.005ZM1.49999 185.005L0.999992 185.005L0.999992 185.505L1.49999 185.505L1.49999 185.005ZM1.49999 181.365L1.49999 180.865L0.999992 180.865L0.999992 181.365L1.49999 181.365ZM29.38 181.365L29.88 181.365L29.88 180.865L29.38 180.865L29.38 181.365ZM29.38 185.005L29.38 185.505L29.88 185.505L29.88 185.005L29.38 185.005ZM17.14 185.005L17.14 184.505L16.64 184.505L16.64 185.005L17.14 185.005ZM17.14 199.205L16.64 199.205L16.64 199.705L17.14 199.705L17.14 199.205ZM29.38 199.205L29.88 199.205L29.88 198.705L29.38 198.705L29.38 199.205ZM29.38 202.345L1.49999 202.345L1.49999 203.345L29.38 203.345L29.38 202.345ZM1.99999 202.845L1.99999 199.205L0.999991 199.205L0.999991 202.845L1.99999 202.845ZM1.49999 199.705L14.14 199.705L14.14 198.705L1.49999 198.705L1.49999 199.705ZM14.64 199.205L14.64 185.005L13.64 185.005L13.64 199.205L14.64 199.205ZM14.14 184.505L1.49999 184.505L1.49999 185.505L14.14 185.505L14.14 184.505ZM1.99999 185.005L1.99999 181.365L0.999992 181.365L0.999992 185.005L1.99999 185.005ZM1.49999 181.865L29.38 181.865L29.38 180.865L1.49999 180.865L1.49999 181.865ZM28.88 181.365L28.88 185.005L29.88 185.005L29.88 181.365L28.88 181.365ZM29.38 184.505L17.14 184.505L17.14 185.505L29.38 185.505L29.38 184.505ZM16.64 185.005L16.64 199.205L17.64 199.205L17.64 185.005L16.64 185.005ZM17.14 199.705L29.38 199.705L29.38 198.705L17.14 198.705L17.14 199.705ZM28.88 199.205L28.88 202.845L29.88 202.845L29.88 199.205L28.88 199.205ZM29.38 234.22L29.38 234.72L29.88 234.72L29.88 234.22L29.38 234.22ZM26.42 234.22L25.92 234.22L25.92 234.72L26.42 234.72L26.42 234.22ZM26.42 226.62L26.92 226.62L26.92 226.12L26.42 226.12L26.42 226.62ZM1.49999 226.62L0.99999 226.62L0.99999 227.12L1.49999 227.12L1.49999 226.62ZM1.49999 222.98L1.49999 222.48L0.99999 222.48L0.99999 222.98L1.49999 222.98ZM26.42 222.98L26.42 223.48L26.92 223.48L26.92 222.98L26.42 222.98ZM26.42 215.34L26.42 214.84L25.92 214.84L25.92 215.34L26.42 215.34ZM29.38 215.34L29.88 215.34L29.88 214.84L29.38 214.84L29.38 215.34ZM29.38 233.72L26.42 233.72L26.42 234.72L29.38 234.72L29.38 233.72ZM26.92 234.22L26.92 226.62L25.92 226.62L25.92 234.22L26.92 234.22ZM26.42 226.12L1.49999 226.12L1.49999 227.12L26.42 227.12L26.42 226.12ZM1.99999 226.62L1.99999 222.98L0.99999 222.98L0.99999 226.62L1.99999 226.62ZM1.49999 223.48L26.42 223.48L26.42 222.48L1.49999 222.48L1.49999 223.48ZM26.92 222.98L26.92 215.34L25.92 215.34L25.92 222.98L26.92 222.98ZM26.42 215.84L29.38 215.84L29.38 214.84L26.42 214.84L26.42 215.84ZM28.88 215.34L28.88 234.22L29.88 234.22L29.88 215.34L28.88 215.34Z" fill="#93B6C7"/>
</svg>
