<svg width="31" height="136" viewBox="0 0 31 136" fill="none" xmlns="http://www.w3.org/2000/svg">
<path d="M12.86 4.85687L13.36 4.85687L13.36 4.35687L12.86 4.35687L12.86 4.85687ZM1.5 4.85687L1 4.85687L1 5.35687L1.5 5.35687L1.5 4.85687ZM1.5 1.21687L1.5 0.716873L1 0.716873L1 1.21687L1.5 1.21687ZM29.7 1.21687L30.2 1.21687L30.2 0.716875L29.7 0.716875L29.7 1.21687ZM27.42 17.4169L27.0575 17.0725L27.0545 17.0757L27.42 17.4169ZM15.06 17.3369L14.6859 17.6687L14.6889 17.672L15.06 17.3369ZM17.3 14.6169L17.6633 14.2732L17.6585 14.2683L17.3 14.6169ZM25.26 14.6169L24.9014 14.2682L24.8918 14.2786L25.26 14.6169ZM26.66 4.85687L27.16 4.85687L27.16 4.35687L26.66 4.35687L26.66 4.85687ZM15.9 4.85687L15.9 4.35687L15.4 4.35687L15.4 4.85687L15.9 4.85687ZM12.86 4.35687L1.5 4.35687L1.5 5.35687L12.86 5.35687L12.86 4.35687ZM2 4.85687L2 1.21687L1 1.21687L1 4.85687L2 4.85687ZM1.5 1.71687L29.7 1.71687L29.7 0.716875L1.5 0.716873L1.5 1.71687ZM29.2 1.21687L29.2 10.1769L30.2 10.1769L30.2 1.21687L29.2 1.21687ZM29.2 10.1769C29.2 13.334 28.4557 15.6007 27.0575 17.0725L27.7825 17.7612C29.4243 16.0331 30.2 13.473 30.2 10.1769L29.2 10.1769ZM27.0545 17.0757C25.6739 18.5549 23.7639 19.3169 21.26 19.3169L21.26 20.3169C23.9828 20.3169 26.1794 19.4789 27.7855 17.758L27.0545 17.0757ZM21.26 19.3169C18.7329 19.3169 16.812 18.5306 15.4311 17.0017L14.6889 17.672C16.2947 19.4498 18.5071 20.3169 21.26 20.3169L21.26 19.3169ZM15.434 17.0051C14.0765 15.4748 13.36 13.2246 13.36 10.1769L12.36 10.1769C12.36 13.3691 13.1102 15.8923 14.686 17.6687L15.434 17.0051ZM13.36 10.1769L13.36 4.85687L12.36 4.85687L12.36 10.1769L13.36 10.1769ZM15.4 9.85687C15.4 12.12 15.8737 13.8671 16.9415 14.9654L17.6585 14.2683C16.8597 13.4467 16.4 12.0204 16.4 9.85687L15.4 9.85687ZM16.9368 14.9605C17.9875 16.0713 19.4534 16.5969 21.26 16.5969L21.26 15.5969C19.6532 15.5969 18.4791 15.1358 17.6632 14.2733L16.9368 14.9605ZM21.26 16.5969C23.1138 16.5969 24.5995 16.0746 25.6282 14.9552L24.8918 14.2786C24.1071 15.1325 22.9262 15.5969 21.26 15.5969L21.26 16.5969ZM25.6185 14.9654C26.6863 13.8671 27.16 12.12 27.16 9.85687L26.16 9.85687C26.16 12.0204 25.7003 13.4467 24.9015 14.2683L25.6185 14.9654ZM27.16 9.85687L27.16 4.85687L26.16 4.85687L26.16 9.85687L27.16 9.85687ZM26.66 4.35687L15.9 4.35687L15.9 5.35687L26.66 5.35687L26.66 4.35687ZM15.4 4.85687L15.4 9.85687L16.4 9.85687L16.4 4.85687L15.4 4.85687ZM1.5 47.0284L1.2308 46.6071L0.999998 46.7545L0.999998 47.0284L1.5 47.0284ZM13.02 39.6684L13.2892 40.0898L13.52 39.9423L13.52 39.6684L13.02 39.6684ZM13.02 35.7084L13.52 35.7084L13.52 35.2084L13.02 35.2084L13.02 35.7084ZM1.5 35.7084L0.999998 35.7084L0.999998 36.2084L1.5 36.2084L1.5 35.7084ZM1.5 32.0684L1.5 31.5684L0.999999 31.5684L0.999999 32.0684L1.5 32.0684ZM29.7 32.0684L30.2 32.0684L30.2 31.5684L29.7 31.5684L29.7 32.0684ZM27.38 48.5484L27.0205 48.2009L27.0175 48.2041L27.38 48.5484ZM15.74 49.0284L15.4008 49.3959L15.4044 49.399L15.74 49.0284ZM13.14 43.4684L13.635 43.3977L13.5234 42.6165L12.8646 43.0511L13.14 43.4684ZM1.5 51.1484L0.999998 51.1484L0.999998 52.0774L1.77536 51.5658L1.5 51.1484ZM15.66 35.7084L15.66 35.2084L15.16 35.2084L15.16 35.7084L15.66 35.7084ZM26.54 35.7084L27.04 35.7084L27.04 35.2084L26.54 35.2084L26.54 35.7084ZM1.76919 47.4498L13.2892 40.0898L12.7508 39.2471L1.2308 46.6071L1.76919 47.4498ZM13.52 39.6684L13.52 35.7084L12.52 35.7084L12.52 39.6684L13.52 39.6684ZM13.02 35.2084L1.5 35.2084L1.5 36.2084L13.02 36.2084L13.02 35.2084ZM2 35.7084L2 32.0684L0.999999 32.0684L0.999998 35.7084L2 35.7084ZM1.5 32.5684L29.7 32.5684L29.7 31.5684L1.5 31.5684L1.5 32.5684ZM29.2 32.0684L29.2 41.3484L30.2 41.3484L30.2 32.0684L29.2 32.0684ZM29.2 41.3484C29.2 44.4755 28.4441 46.7283 27.0205 48.2009L27.7395 48.8959C29.4092 47.1686 30.2 44.6213 30.2 41.3484L29.2 41.3484ZM27.0175 48.2041C25.6062 49.6897 23.7185 50.4484 21.3 50.4484L21.3 51.4484C23.9482 51.4484 26.1138 50.6072 27.7425 48.8928L27.0175 48.2041ZM21.3 50.4484C19.1042 50.4484 17.3791 49.8383 16.0756 48.6578L15.4044 49.399C16.9276 50.7785 18.9091 51.4484 21.3 51.4484L21.3 50.4484ZM16.0791 48.661C14.7995 47.4798 13.9703 45.745 13.635 43.3977L12.645 43.5391C13.003 46.0452 13.9072 48.0171 15.4009 49.3958L16.0791 48.661ZM12.8646 43.0511L1.22464 50.7311L1.77536 51.5658L13.4154 43.8858L12.8646 43.0511ZM2 51.1484L2 47.0284L0.999998 47.0284L0.999998 51.1484L2 51.1484ZM15.16 35.7084L15.16 41.0284L16.16 41.0284L16.16 35.7084L15.16 35.7084ZM15.16 41.0284C15.16 43.1573 15.6256 44.8473 16.6442 46.0082C17.6737 47.1816 19.1914 47.7284 21.1 47.7284L21.1 46.7284C19.382 46.7284 18.1796 46.2419 17.3958 45.3487C16.6011 44.4429 16.16 43.0329 16.16 41.0284L15.16 41.0284ZM21.1 47.7284C23.0086 47.7284 24.5263 47.1816 25.5558 46.0082C26.5744 44.8473 27.04 43.1573 27.04 41.0284L26.04 41.0284C26.04 43.0329 25.5989 44.4429 24.8042 45.3487C24.0204 46.2419 22.818 46.7284 21.1 46.7284L21.1 47.7284ZM27.04 41.0284L27.04 35.7084L26.04 35.7084L26.04 41.0284L27.04 41.0284ZM26.54 35.2084L15.66 35.2084L15.66 36.2084L26.54 36.2084L26.54 35.2084ZM29.7 67.0287L29.7 67.5287L30.2 67.5287L30.2 67.0287L29.7 67.0287ZM1.5 67.0287L0.999997 67.0287L0.999997 67.5287L1.5 67.5287L1.5 67.0287ZM1.5 63.3887L1.5 62.8887L0.999997 62.8887L0.999997 63.3887L1.5 63.3887ZM29.7 63.3887L30.2 63.3887L30.2 62.8887L29.7 62.8887L29.7 63.3887ZM29.7 66.5287L1.5 66.5287L1.5 67.5287L29.7 67.5287L29.7 66.5287ZM2 67.0287L2 63.3887L0.999997 63.3887L0.999997 67.0287L2 67.0287ZM1.5 63.8887L29.7 63.8887L29.7 62.8887L1.5 62.8887L1.5 63.8887ZM29.2 63.3887L29.2 67.0287L30.2 67.0287L30.2 63.3887L29.2 63.3887ZM27.42 101.881L27.0223 101.578L27.02 101.581L27.42 101.881ZM20.5 106.521L20 106.521L20 107.187L20.6397 107.001L20.5 106.521ZM20.5 102.681L20.3201 102.214L20 102.338L20 102.681L20.5 102.681ZM24.94 99.2009L24.5304 98.9142L24.5272 98.9188L24.94 99.2009ZM25.26 88.3609L24.8334 88.6217L24.8347 88.6238L25.26 88.3609ZM21.42 84.9209L21.6464 84.4751L21.6436 84.4737L21.42 84.9209ZM9.77999 84.9209L9.55637 84.4737L9.55067 84.4766L9.77999 84.9209ZM5.93999 88.3609L5.51678 88.0945L5.51125 88.1037L5.93999 88.3609ZM6.25999 99.2009L5.84715 99.4831L5.85038 99.4877L6.25999 99.2009ZM10.74 102.681L11.24 102.681L11.24 102.338L10.9199 102.214L10.74 102.681ZM10.74 106.521L10.6003 107.001L11.24 107.187L11.24 106.521L10.74 106.521ZM3.77999 101.881L3.37999 102.181L3.38228 102.184L3.77999 101.881ZM3.06 86.3609L2.63223 86.102L2.62976 86.1062L3.06 86.3609ZM8.14 81.6009L7.91203 81.1559L7.90555 81.1593L8.14 81.6009ZM23.06 81.6009L23.2922 81.1581L23.2879 81.1559L23.06 81.6009ZM28.14 86.3609L27.7097 86.6157L27.7122 86.6198L28.14 86.3609ZM29.48 93.3609C29.48 96.7163 28.649 99.4429 27.0223 101.578L27.8177 102.184C29.6044 99.839 30.48 96.8856 30.48 93.3609L29.48 93.3609ZM27.02 101.581C25.411 103.726 23.1997 105.215 20.3603 106.041L20.6397 107.001C23.667 106.12 26.069 104.516 27.82 102.181L27.02 101.581ZM21 106.521L21 102.681L20 102.681L20 106.521L21 106.521ZM20.6799 103.147C22.6379 102.392 24.2004 101.17 25.3528 99.483L24.5272 98.9188C23.4929 100.432 22.0955 101.53 20.3201 102.214L20.6799 103.147ZM25.3496 99.4877C26.5388 97.7888 27.12 95.7238 27.12 93.3209L26.12 93.3209C26.12 95.5581 25.5812 97.4131 24.5304 98.9142L25.3496 99.4877ZM27.12 93.3209C27.12 91.3946 26.6441 89.649 25.6853 88.098L24.8347 88.6238C25.6892 90.0062 26.12 91.5673 26.12 93.3209L27.12 93.3209ZM25.6866 88.1002C24.7529 86.5722 23.3991 85.3654 21.6464 84.4752L21.1936 85.3667C22.8009 86.1831 24.0071 87.2697 24.8334 88.6217L25.6866 88.1002ZM21.6436 84.4737C19.9077 83.6057 17.8814 83.1809 15.58 83.1809L15.58 84.1809C17.7586 84.1809 19.6257 84.5828 21.1964 85.3681L21.6436 84.4737ZM15.58 83.1809C13.3042 83.1809 11.2916 83.6061 9.55639 84.4737L10.0036 85.3681C11.5751 84.5824 13.4291 84.1809 15.58 84.1809L15.58 83.1809ZM9.55067 84.4766C7.82566 85.367 6.47549 86.572 5.51688 88.0945L6.36311 88.6273C7.21784 87.2698 8.42767 86.1816 10.0093 85.3652L9.55067 84.4766ZM5.51125 88.1037C4.58109 89.654 4.11999 91.3974 4.11999 93.3209L5.11999 93.3209C5.11999 91.5644 5.5389 90.0013 6.36874 88.6182L5.51125 88.1037ZM4.11999 93.3209C4.11999 95.7214 4.68662 97.7847 5.84717 99.483L6.67282 98.9188C5.6467 97.4172 5.11999 95.5605 5.11999 93.3209L4.11999 93.3209ZM5.85038 99.4877C7.02883 101.171 8.60307 102.393 10.5601 103.147L10.9199 102.214C9.14358 101.529 7.73116 100.431 6.66961 98.9142L5.85038 99.4877ZM10.24 102.681L10.24 106.521L11.24 106.521L11.24 102.681L10.24 102.681ZM10.8797 106.041C8.03986 105.215 5.81394 103.725 4.17771 101.578L3.38228 102.184C5.15938 104.516 7.57347 106.12 10.6003 107.001L10.8797 106.041ZM4.18 101.581C2.57857 99.4457 1.75999 96.718 1.75999 93.3609L0.759994 93.3609C0.759994 96.8839 1.62142 99.8362 3.38 102.181L4.18 101.581ZM1.75999 93.3609C1.75999 90.7995 2.34124 88.5562 3.49023 86.6157L2.62976 86.1062C1.37875 88.219 0.759994 90.6424 0.759994 93.3609L1.75999 93.3609ZM3.48775 86.6198C4.6661 84.673 6.29149 83.1483 8.37444 82.0426L7.90555 81.1593C5.6685 82.3469 3.90723 83.9956 2.63225 86.102L3.48775 86.6198ZM8.36794 82.046C10.4754 80.9665 12.8756 80.4209 15.58 80.4209L15.58 79.4209C12.7377 79.4209 10.1779 79.9954 7.91206 81.1559L8.36794 82.046ZM15.58 80.4209C18.3119 80.4209 20.7252 80.9669 22.8321 82.046L23.2879 81.1559C21.0214 79.995 18.4481 79.4209 15.58 79.4209L15.58 80.4209ZM22.8278 82.0437C24.9364 83.1495 26.5594 84.6728 27.7098 86.6157L28.5702 86.1062C27.3206 83.9957 25.5569 82.3457 23.2922 81.1581L22.8278 82.0437ZM27.7122 86.6198C28.8864 88.5597 29.48 90.8015 29.48 93.3609L30.48 93.3609C30.48 90.6404 29.8469 88.2155 28.5677 86.102L27.7122 86.6198ZM26.74 123.029L27.24 123.029L27.24 122.529L26.74 122.529L26.74 123.029ZM17.1 123.029L17.1 122.529L16.6 122.529L16.6 123.029L17.1 123.029ZM17.1 133.749L17.1 134.249L17.6 134.249L17.6 133.749L17.1 133.749ZM14.3 133.749L13.8 133.749L13.8 134.249L14.3 134.249L14.3 133.749ZM14.3 123.029L14.8 123.029L14.8 122.529L14.3 122.529L14.3 123.029ZM4.45999 123.029L4.45999 122.529L3.95999 122.529L3.95999 123.029L4.45999 123.029ZM4.45999 134.949L4.45999 135.449L4.95999 135.449L4.95999 134.949L4.45999 134.949ZM1.49999 134.949L0.999994 134.949L0.999994 135.449L1.49999 135.449L1.49999 134.949ZM1.49999 119.389L1.49999 118.889L0.999995 118.889L0.999995 119.389L1.49999 119.389ZM29.7 119.389L30.2 119.389L30.2 118.889L29.7 118.889L29.7 119.389ZM29.7 134.949L29.7 135.449L30.2 135.449L30.2 134.949L29.7 134.949ZM26.74 134.949L26.24 134.949L26.24 135.449L26.74 135.449L26.74 134.949ZM26.74 122.529L17.1 122.529L17.1 123.529L26.74 123.529L26.74 122.529ZM16.6 123.029L16.6 133.749L17.6 133.749L17.6 123.029L16.6 123.029ZM17.1 133.249L14.3 133.249L14.3 134.249L17.1 134.249L17.1 133.249ZM14.8 133.749L14.8 123.029L13.8 123.029L13.8 133.749L14.8 133.749ZM14.3 122.529L4.45999 122.529L4.45999 123.529L14.3 123.529L14.3 122.529ZM3.95999 123.029L3.95999 134.949L4.95999 134.949L4.95999 123.029L3.95999 123.029ZM4.45999 134.449L1.49999 134.449L1.49999 135.449L4.45999 135.449L4.45999 134.449ZM1.99999 134.949L1.99999 119.389L0.999995 119.389L0.999994 134.949L1.99999 134.949ZM1.49999 119.889L29.7 119.889L29.7 118.889L1.49999 118.889L1.49999 119.889ZM29.2 119.389L29.2 134.949L30.2 134.949L30.2 119.389L29.2 119.389ZM29.7 134.449L26.74 134.449L26.74 135.449L29.7 135.449L29.7 134.449ZM27.24 134.949L27.24 123.029L26.24 123.029L26.24 134.949L27.24 134.949Z" fill="#93B6C7"/>
</svg>
