<svg width="31" height="177" viewBox="0 0 31 177" fill="none" xmlns="http://www.w3.org/2000/svg">
<path d="M8.14 23.4405L7.90096 23.8796L7.90328 23.8809L8.14 23.4405ZM3.22 18.3605L2.77604 18.5905L2.77708 18.5925L3.22 18.3605ZM1.5 1.40047L1.5 0.900467L1 0.900467L1 1.40047L1.5 1.40047ZM29.7 1.40047L30.2 1.40047L30.2 0.900468L29.7 0.900468L29.7 1.40047ZM27.98 18.3605L27.536 18.1304L27.5328 18.1369L27.98 18.3605ZM23.1 23.4405L22.8633 23.0001L22.861 23.0013L23.1 23.4405ZM7.62 18.5205L7.26157 18.8691L7.62 18.5205ZM23.62 18.5205L23.2664 18.1669L23.2616 18.1719L23.62 18.5205ZM26.5 5.04047L27 5.04047L27 4.54047L26.5 4.54047L26.5 5.04047ZM4.78 5.04047L4.78 4.54047L4.28 4.54047L4.28 5.04047L4.78 5.04047ZM15.62 24.6605C12.8346 24.6605 10.4253 24.1012 8.37672 23.0001L7.90328 23.8809C10.1213 25.0731 12.6988 25.6605 15.62 25.6605L15.62 24.6605ZM8.37903 23.0013C6.36419 21.9046 4.79293 20.2858 3.66291 18.1285L2.77708 18.5925C3.99374 20.9152 5.70248 22.683 7.90096 23.8796L8.37903 23.0013ZM3.66396 18.1305C2.56222 16.0039 2 13.4201 2 10.3605L0.999999 10.3605C0.999999 13.5408 1.58444 16.2904 2.77604 18.5905L3.66396 18.1305ZM2 10.3605L2 1.40047L1 1.40047L0.999999 10.3605L2 10.3605ZM1.5 1.90047L29.7 1.90047L29.7 0.900468L1.5 0.900467L1.5 1.90047ZM29.2 1.40047L29.2 10.3605L30.2 10.3605L30.2 1.40047L29.2 1.40047ZM29.2 10.3605C29.2 13.4201 28.6378 16.0039 27.536 18.1305L28.424 18.5905C29.6156 16.2904 30.2 13.5408 30.2 10.3605L29.2 10.3605ZM27.5328 18.1369C26.4572 20.288 24.9025 21.904 22.8633 23.0001L23.3367 23.8809C25.5641 22.6836 27.2628 20.913 28.4272 18.5841L27.5328 18.1369ZM22.861 23.0013C20.841 24.1008 18.4332 24.6605 15.62 24.6605L15.62 25.6605C18.5668 25.6605 21.1456 25.0735 23.339 23.8796L22.861 23.0013ZM4.28 10.0805C4.28 13.8434 5.2491 16.7999 7.26157 18.8691L7.97843 18.1719C6.20423 16.3477 5.28 13.6776 5.28 10.0805L4.28 10.0805ZM7.26157 18.8691C9.27262 20.9368 12.083 21.9405 15.62 21.9405L15.62 20.9405C12.277 20.9405 9.75405 19.9975 7.97843 18.1719L7.26157 18.8691ZM15.62 21.9405C19.157 21.9405 21.9674 20.9368 23.9784 18.8691L23.2616 18.1719C21.486 19.9975 18.963 20.9405 15.62 20.9405L15.62 21.9405ZM23.9736 18.874C26.0174 16.8302 27 13.8701 27 10.0805L26 10.0805C26 13.7041 25.0626 16.3707 23.2664 18.1669L23.9736 18.874ZM27 10.0805L27 5.04047L26 5.04047L26 10.0805L27 10.0805ZM26.5 4.54047L4.78 4.54047L4.78 5.54047L26.5 5.54047L26.5 4.54047ZM4.28 5.04047L4.28 10.0805L5.28 10.0805L5.28 5.04047L4.28 5.04047ZM26.74 41.7123L27.24 41.7123L27.24 41.2123L26.74 41.2123L26.74 41.7123ZM17.1 41.7123L17.1 41.2123L16.6 41.2123L16.6 41.7123L17.1 41.7123ZM17.1 52.4323L17.1 52.9323L17.6 52.9323L17.6 52.4323L17.1 52.4323ZM14.3 52.4323L13.8 52.4323L13.8 52.9323L14.3 52.9323L14.3 52.4323ZM14.3 41.7123L14.8 41.7123L14.8 41.2123L14.3 41.2123L14.3 41.7123ZM4.46 41.7123L4.46 41.2123L3.96 41.2123L3.96 41.7123L4.46 41.7123ZM4.46 53.6323L4.46 54.1323L4.96 54.1323L4.96 53.6323L4.46 53.6323ZM1.5 53.6323L0.999998 53.6323L0.999998 54.1323L1.5 54.1323L1.5 53.6323ZM1.5 38.0723L1.5 37.5723L0.999998 37.5723L0.999998 38.0723L1.5 38.0723ZM29.7 38.0723L30.2 38.0723L30.2 37.5723L29.7 37.5723L29.7 38.0723ZM29.7 53.6323L29.7 54.1323L30.2 54.1323L30.2 53.6323L29.7 53.6323ZM26.74 53.6323L26.24 53.6323L26.24 54.1323L26.74 54.1323L26.74 53.6323ZM26.74 41.2123L17.1 41.2123L17.1 42.2123L26.74 42.2123L26.74 41.2123ZM16.6 41.7123L16.6 52.4323L17.6 52.4323L17.6 41.7123L16.6 41.7123ZM17.1 51.9323L14.3 51.9323L14.3 52.9323L17.1 52.9323L17.1 51.9323ZM14.8 52.4323L14.8 41.7123L13.8 41.7123L13.8 52.4323L14.8 52.4323ZM14.3 41.2123L4.46 41.2123L4.46 42.2123L14.3 42.2123L14.3 41.2123ZM3.96 41.7123L3.96 53.6323L4.96 53.6323L4.96 41.7123L3.96 41.7123ZM4.46 53.1323L1.5 53.1323L1.5 54.1323L4.46 54.1323L4.46 53.1323ZM2 53.6323L2 38.0723L0.999998 38.0723L0.999998 53.6323L2 53.6323ZM1.5 38.5723L29.7 38.5723L29.7 37.5723L1.5 37.5723L1.5 38.5723ZM29.2 38.0723L29.2 53.6323L30.2 53.6323L30.2 38.0723L29.2 38.0723ZM29.7 53.1323L26.74 53.1323L26.74 54.1323L29.7 54.1323L29.7 53.1323ZM27.24 53.6323L27.24 41.7123L26.24 41.7123L26.24 53.6323L27.24 53.6323ZM5.09999 83.1867L5.34368 82.7501L5.09999 83.1867ZM2.3 80.2667L2.73792 80.0254L2.3 80.2667ZM2.22 70.4267L1.76939 70.2098L1.76481 70.2198L2.22 70.4267ZM5.02 66.9467L4.73014 66.5391L4.72 66.5467L5.02 66.9467ZM9.1 65.4667L9.6 65.4667L9.6 64.9209L9.05631 64.9686L9.1 65.4667ZM9.1 69.3467L9.14975 69.8442L9.6 69.7992L9.6 69.3467L9.1 69.3467ZM6.74 70.1467L6.48714 69.7154L6.47827 69.7206L6.46962 69.7261L6.74 70.1467ZM4.86 72.1467L4.43007 71.8914L4.42542 71.8993L4.42105 71.9073L4.86 72.1467ZM11.5 79.3467L11.1841 78.959L11.1758 78.9661L11.5 79.3467ZM13.18 77.1467L12.73 76.9285L12.7248 76.9398L13.18 77.1467ZM14.54 73.5467L14.0649 73.3907L14.0632 73.3962L14.54 73.5467ZM16.18 69.2267L15.7328 69.0031L15.7295 69.0097L15.7263 69.0165L16.18 69.2267ZM18.54 66.4667L18.2484 66.0605L18.2416 66.0655L18.54 66.4667ZM26.54 66.3867L26.8104 65.9661L26.8032 65.9616L26.54 66.3867ZM29.14 69.4267L29.5943 69.2178L29.5926 69.2143L29.14 69.4267ZM28.02 80.7067L27.6364 80.386L27.6333 80.3898L28.02 80.7067ZM22.9 83.5467L22.4 83.5467L22.4 84.1149L22.9636 84.0427L22.9 83.5467ZM22.9 79.6267L22.8064 79.1356L22.4 79.213L22.4 79.6267L22.9 79.6267ZM25.86 77.9067L25.491 77.5693L25.86 77.9067ZM25.98 70.5867L25.5987 70.9103L25.6044 70.9168L25.98 70.5867ZM20.1 70.1067L19.7858 69.7177L19.7776 69.7244L19.7697 69.7314L20.1 70.1067ZM18.5 72.2667L18.0471 72.0544L18.0419 72.0663L18.5 72.2667ZM17.22 75.7867L17.6957 75.9406L17.696 75.9397L17.22 75.7867ZM15.54 80.1467L15.0906 79.9275L15.0886 79.9318L15.54 80.1467ZM13.1 82.9867L12.8112 82.5785L12.8065 82.5819L13.1 82.9867ZM8.82 83.6467C7.5706 83.6467 6.41467 83.3479 5.34368 82.7501L4.85631 83.6233C6.07866 84.3056 7.40273 84.6467 8.82 84.6467L8.82 83.6467ZM5.34368 82.7501C4.28947 82.1617 3.41904 81.2615 2.73792 80.0254L1.86208 80.508C2.62096 81.8852 3.61719 82.9317 4.85631 83.6233L5.34368 82.7501ZM2.73792 80.0254C2.06869 78.8109 1.72 77.2859 1.72 75.4267L0.719998 75.4267C0.719998 77.4075 1.09131 79.1092 1.86208 80.508L2.73792 80.0254ZM1.72 75.4267C1.72 73.6202 2.04238 72.0258 2.67518 70.6336L1.76481 70.2198C1.06428 71.761 0.719998 73.4999 0.719998 75.4267L1.72 75.4267ZM2.6705 70.6436C3.33225 69.2692 4.2164 68.1744 5.32 67.3467L4.72 66.5467C3.47692 67.479 2.49441 68.7042 1.7695 70.2098L2.6705 70.6436ZM5.30976 67.3542C6.43456 66.5543 7.70895 66.0907 9.14369 65.9648L9.05631 64.9686C7.45104 65.1094 6.00544 65.6324 4.73024 66.5392L5.30976 67.3542ZM8.6 65.4667L8.6 69.3467L9.6 69.3467L9.6 65.4667L8.6 65.4667ZM9.05024 68.8492C8.17072 68.9372 7.31543 69.2298 6.48714 69.7154L6.99286 70.5781C7.71123 70.157 8.42928 69.9163 9.14975 69.8442L9.05024 68.8492ZM6.46962 69.7261C5.65029 70.2528 4.97164 70.9793 4.43007 71.8914L5.28993 72.402C5.76169 71.6074 6.33637 71.0006 7.01038 70.5673L6.46962 69.7261ZM4.42105 71.9073C3.89296 72.8754 3.64 74.0149 3.64 75.3067L4.64 75.3067C4.64 74.1452 4.86703 73.178 5.29894 72.3861L4.42105 71.9073ZM3.64 75.3067C3.64 76.9946 4.09185 78.3657 5.06644 79.3403L5.77355 78.6332C5.04147 77.9011 4.64 76.8188 4.64 75.3067L3.64 75.3067ZM5.06644 79.3403C6.02381 80.2976 7.24931 80.7667 8.7 80.7667L8.7 79.7667C7.48401 79.7667 6.52285 79.3825 5.77355 78.6332L5.06644 79.3403ZM8.7 80.7667C9.9392 80.7667 10.9956 80.4332 11.8242 79.7273L11.1758 78.9661C10.5644 79.4869 9.75413 79.7667 8.7 79.7667L8.7 80.7667ZM11.8158 79.7343C12.5981 79.097 13.2046 78.3008 13.6352 77.3536L12.7248 76.9398C12.3554 77.7526 11.8419 78.4231 11.1842 78.9591L11.8158 79.7343ZM13.6299 77.3649C14.0716 76.4538 14.5334 75.228 15.0168 73.6973L14.0632 73.3962C13.5866 74.9055 13.1417 76.0797 12.7301 76.9286L13.6299 77.3649ZM15.015 73.7027C15.5986 71.9255 16.1384 70.5057 16.6337 69.4369L15.7263 69.0165C15.2083 70.1344 14.6547 71.5946 14.065 73.3907L15.015 73.7027ZM16.6272 69.4503C17.1225 68.4597 17.8556 67.5987 18.8383 66.8679L18.2416 66.0655C17.1444 66.8814 16.3041 67.8604 15.7328 69.0031L16.6272 69.4503ZM18.8316 66.8729C19.7624 66.2046 21.0235 65.8467 22.66 65.8467L22.66 64.8467C20.8831 64.8467 19.3976 65.2355 18.2484 66.0606L18.8316 66.8729ZM22.66 65.8467C24.0446 65.8467 25.2446 66.1729 26.2768 66.8119L26.8032 65.9616C25.5954 65.2139 24.2088 64.8467 22.66 64.8467L22.66 65.8467ZM26.2696 66.8073C27.3039 67.4722 28.1105 68.4102 28.6874 69.6392L29.5926 69.2143C28.9428 67.8299 28.0161 66.7413 26.8104 65.9661L26.2696 66.8073ZM28.6858 69.6357C29.2631 70.8908 29.56 72.3768 29.56 74.1067L30.56 74.1067C30.56 72.2633 30.2435 70.6293 29.5942 69.2178L28.6858 69.6357ZM29.56 74.1067C29.56 76.7994 28.9007 78.8739 27.6364 80.386L28.4036 81.0274C29.8593 79.2862 30.56 76.9607 30.56 74.1067L29.56 74.1067ZM27.6333 80.3898C26.3806 81.918 24.7894 82.8004 22.8364 83.0508L22.9636 84.0427C25.1706 83.7597 26.9927 82.7487 28.4067 81.0237L27.6333 80.3898ZM23.4 83.5467L23.4 79.6267L22.4 79.6267L22.4 83.5467L23.4 83.5467ZM22.9936 80.1179C24.2311 79.8822 25.3112 79.2479 26.229 78.2441L25.491 77.5693C24.7021 78.4322 23.8089 78.9446 22.8064 79.1356L22.9936 80.1179ZM26.229 78.2441C27.1872 77.196 27.64 75.7972 27.64 74.1067L26.64 74.1067C26.64 75.6162 26.2394 76.7507 25.491 77.5693L26.229 78.2441ZM27.64 74.1067C27.64 72.5503 27.2278 71.2492 26.3556 70.2567L25.6044 70.9168C26.2788 71.6842 26.64 72.7298 26.64 74.1067L27.64 74.1067ZM26.3613 70.2632C25.5004 69.2486 24.281 68.7667 22.78 68.7667L22.78 69.7667C24.0524 69.7667 24.9663 70.1648 25.5987 70.9102L26.3613 70.2632ZM22.78 68.7667C21.5991 68.7667 20.5869 69.0707 19.7858 69.7177L20.4142 70.4957C20.9998 70.0227 21.7743 69.7667 22.78 69.7667L22.78 68.7667ZM19.7697 69.7314C19.0483 70.3662 18.4746 71.1428 18.0473 72.0545L18.9527 72.4789C19.3254 71.6839 19.8183 71.0206 20.4303 70.4821L19.7697 69.7314ZM18.0419 72.0663C17.6588 72.942 17.2262 74.1336 16.744 75.6337L17.696 75.9397C18.1738 74.4532 18.5945 73.2981 18.9581 72.4671L18.0419 72.0663ZM16.7443 75.6328C16.1613 77.4348 15.6096 78.8636 15.0906 79.9275L15.9894 80.3659C16.5371 79.2431 17.1054 77.7653 17.6957 75.9406L16.7443 75.6328ZM15.0886 79.9318C14.5949 80.9684 13.8404 81.8506 12.8113 82.5785L13.3887 83.3949C14.5462 82.5762 15.4184 81.5651 15.9914 80.3617L15.0886 79.9318ZM12.8065 82.5819C11.8509 83.2747 10.5382 83.6467 8.82 83.6467L8.82 84.6467C10.6752 84.6467 12.2158 84.2454 13.3935 83.3915L12.8065 82.5819ZM29.7 100.681L29.7 101.181L30.2 101.181L30.2 100.681L29.7 100.681ZM1.5 100.681L0.999996 100.681L0.999995 101.181L1.5 101.181L1.5 100.681ZM1.5 97.0411L1.5 96.5411L0.999996 96.5411L0.999996 97.0411L1.5 97.0411ZM29.7 97.0411L30.2 97.0411L30.2 96.5411L29.7 96.5411L29.7 97.0411ZM29.7 100.181L1.5 100.181L1.5 101.181L29.7 101.181L29.7 100.181ZM2 100.681L2 97.0411L0.999996 97.0411L0.999996 100.681L2 100.681ZM1.5 97.5411L29.7 97.5411L29.7 96.5411L1.5 96.5411L1.5 97.5411ZM29.2 97.0411L29.2 100.681L30.2 100.681L30.2 97.0411L29.2 97.0411ZM27.54 135.573L27.1371 135.277L27.1354 135.279L27.54 135.573ZM20.9 140.093L20.4 140.093L20.4 140.75L21.0331 140.575L20.9 140.093ZM20.9 136.253L20.7181 135.788L20.4 135.912L20.4 136.253L20.9 136.253ZM25.02 132.893L24.6051 132.614L24.6029 132.618L25.02 132.893ZM25.22 122.213L24.7872 122.464L24.7906 122.469L25.22 122.213ZM21.42 118.613L21.6549 118.172L21.6493 118.169L21.42 118.613ZM9.61999 118.653L9.38799 118.21L9.38507 118.212L9.61999 118.653ZM5.77999 122.293L5.34856 122.04L5.34361 122.049L5.77999 122.293ZM8.81999 135.973L9.09195 135.554L9.08997 135.552L8.81999 135.973ZM13.86 137.653L13.8116 138.151L14.36 138.204L14.36 137.653L13.86 137.653ZM13.86 126.573L13.86 126.073L13.36 126.073L13.36 126.573L13.86 126.573ZM16.58 126.573L17.08 126.573L17.08 126.073L16.58 126.073L16.58 126.573ZM16.58 140.733L16.58 141.233L17.08 141.233L17.08 140.733L16.58 140.733ZM13.22 140.733L13.1667 141.23L13.1933 141.233L13.22 141.233L13.22 140.733ZM7.13999 138.653L6.87276 139.076L7.13999 138.653ZM2.81999 134.013L3.25848 133.773L2.81999 134.013ZM3.02 120.173L2.58929 119.919L2.5869 119.923L3.02 120.173ZM8.09999 115.293L7.86777 114.85L7.86133 114.854L8.09999 115.293ZM23.02 115.293L23.2564 114.853L23.2544 114.852L23.02 115.293ZM29.48 127.333C29.48 130.528 28.6892 133.165 27.1371 135.277L27.9429 135.869C29.6442 133.555 30.48 130.699 30.48 127.333L29.48 127.333ZM27.1354 135.279C25.5788 137.423 23.4635 138.867 20.7669 139.611L21.0331 140.575C23.9365 139.773 26.2479 138.203 27.9446 135.867L27.1354 135.279ZM21.4 140.093L21.4 136.253L20.4 136.253L20.4 140.093L21.4 140.093ZM21.0819 136.719C22.8877 136.014 24.342 134.826 25.4371 133.169L24.6029 132.618C23.618 134.107 22.3256 135.16 20.7181 135.788L21.0819 136.719ZM25.4349 133.172C26.5381 131.532 27.08 129.591 27.08 127.373L26.08 127.373C26.08 129.422 25.5819 131.162 24.6051 132.614L25.4349 133.172ZM27.08 127.373C27.08 125.371 26.6062 123.561 25.6494 121.957L24.7906 122.469C25.6472 123.905 26.08 125.536 26.08 127.373L27.08 127.373ZM25.6527 121.963C24.7228 120.356 23.385 119.093 21.6549 118.172L21.1851 119.055C22.7617 119.894 23.9572 121.03 24.7873 122.464L25.6527 121.963ZM21.6493 118.169C19.912 117.272 17.8837 116.833 15.58 116.833L15.58 117.833C17.7563 117.833 19.6213 118.248 21.1907 119.058L21.6493 118.169ZM15.58 116.833C13.2226 116.833 11.1531 117.286 9.38799 118.21L9.852 119.096C11.4469 118.261 13.3507 117.833 15.58 117.833L15.58 116.833ZM9.38507 118.212C7.65391 119.133 6.30423 120.41 5.34865 122.04L6.21134 122.546C7.06909 121.083 8.27941 119.933 9.85492 119.095L9.38507 118.212ZM5.34361 122.049C4.41692 123.706 3.95999 125.592 3.95999 127.693L4.95999 127.693C4.95999 125.741 5.38307 124.027 6.21638 122.537L5.34361 122.049ZM3.95999 127.693C3.95999 129.501 4.35007 131.167 5.13612 132.683L6.02387 132.223C5.31659 130.859 4.95999 129.352 4.95999 127.693L3.95999 127.693ZM5.13612 132.683C5.92452 134.204 7.06574 135.442 8.55002 136.394L9.08997 135.552C7.74759 134.691 6.7288 133.583 6.02387 132.223L5.13612 132.683ZM8.54805 136.393C10.0632 137.375 11.8219 137.957 13.8116 138.151L13.9084 137.156C12.0581 136.976 10.4568 136.438 9.09194 135.554L8.54805 136.393ZM14.36 137.653L14.36 126.573L13.36 126.573L13.36 137.653L14.36 137.653ZM13.86 127.073L16.58 127.073L16.58 126.073L13.86 126.073L13.86 127.073ZM16.08 126.573L16.08 140.733L17.08 140.733L17.08 126.573L16.08 126.573ZM16.58 140.233L13.22 140.233L13.22 141.233L16.58 141.233L16.58 140.233ZM13.2733 140.236C11.1054 140.004 9.15264 139.334 7.40722 138.231L6.87276 139.076C8.75402 140.266 10.8546 140.983 13.1667 141.23L13.2733 140.236ZM7.40722 138.231C5.66804 137.131 4.2859 135.648 3.25848 133.773L2.38151 134.254C3.48742 136.272 4.98528 137.882 6.87276 139.076L7.40722 138.231ZM3.25848 133.773C2.23673 131.908 1.72 129.779 1.72 127.373L0.719996 127.373C0.719995 129.927 1.26993 132.225 2.38151 134.254L3.25848 133.773ZM1.72 127.373C1.72 124.729 2.30249 122.418 3.45309 120.423L2.5869 119.923C1.3375 122.089 0.719996 124.577 0.719996 127.373L1.72 127.373ZM3.45068 120.427C4.63045 118.427 6.25678 116.864 8.33866 115.733L7.86133 114.854C5.62321 116.07 3.86287 117.76 2.58931 119.919L3.45068 120.427ZM8.3322 115.736C10.4381 114.632 12.8499 114.073 15.58 114.073L15.58 113.073C12.7101 113.073 10.1352 113.661 7.86779 114.85L8.3322 115.736ZM15.58 114.073C18.3102 114.073 20.7076 114.632 22.7856 115.735L23.2544 114.852C21.0124 113.661 18.4498 113.073 15.58 113.073L15.58 114.073ZM22.7836 115.734C24.892 116.865 26.5304 118.428 27.7093 120.427L28.5707 119.919C27.2962 117.758 25.5213 116.068 23.2564 114.853L22.7836 115.734ZM27.7093 120.427C28.8855 122.422 29.48 124.719 29.48 127.333L30.48 127.333C30.48 124.561 29.8478 122.085 28.5707 119.919L27.7093 120.427ZM1.49999 175.586L0.999992 175.586L0.999992 176.086L1.49999 176.086L1.49999 175.586ZM1.49999 171.946L1.22542 171.528L0.999992 171.676L0.999992 171.946L1.49999 171.946ZM23.78 157.306L24.0546 157.724L25.4514 156.806L23.78 156.806L23.78 157.306ZM1.49999 157.306L0.999993 157.306L0.999993 157.806L1.49999 157.806L1.49999 157.306ZM1.49999 153.666L1.49999 153.166L0.999993 153.166L0.999993 153.666L1.49999 153.666ZM29.7 153.666L30.2 153.666L30.2 153.166L29.7 153.166L29.7 153.666ZM29.7 157.306L29.9742 157.724L30.2 157.576L30.2 157.306L29.7 157.306ZM7.37999 171.946L7.10576 171.528L5.70605 172.446L7.37999 172.446L7.37999 171.946ZM29.7 171.946L30.2 171.946L30.2 171.446L29.7 171.446L29.7 171.946ZM29.7 175.586L29.7 176.086L30.2 176.086L30.2 175.586L29.7 175.586ZM1.99999 175.586L1.99999 171.946L0.999992 171.946L0.999992 175.586L1.99999 175.586ZM1.77457 172.364L24.0546 157.724L23.5054 156.888L1.22542 171.528L1.77457 172.364ZM23.78 156.806L1.49999 156.806L1.49999 157.806L23.78 157.806L23.78 156.806ZM1.99999 157.306L1.99999 153.666L0.999993 153.666L0.999993 157.306L1.99999 157.306ZM1.49999 154.166L29.7 154.166L29.7 153.166L1.49999 153.166L1.49999 154.166ZM29.2 153.666L29.2 157.306L30.2 157.306L30.2 153.666L29.2 153.666ZM29.4258 156.888L7.10576 171.528L7.65422 172.364L29.9742 157.724L29.4258 156.888ZM7.37999 172.446L29.7 172.446L29.7 171.446L7.37999 171.446L7.37999 172.446ZM29.2 171.946L29.2 175.586L30.2 175.586L30.2 171.946L29.2 171.946ZM29.7 175.086L1.49999 175.086L1.49999 176.086L29.7 176.086L29.7 175.086Z" fill="#93B6C7"/>
</svg>
