<svg width="29" height="202" viewBox="0 0 29 202" fill="none" xmlns="http://www.w3.org/2000/svg">
<path d="M28.38 26.2841L28.2035 26.7519L28.88 27.0071L28.88 26.2841L28.38 26.2841ZM0.499999 15.7641L-6.89069e-07 15.7641L-7.04182e-07 16.1098L0.323482 16.2319L0.499999 15.7641ZM0.499999 11.5641L0.323482 11.0963L-4.90368e-07 11.2183L-5.05481e-07 11.5641L0.499999 11.5641ZM28.38 1.04406L28.88 1.04406L28.88 0.320986L28.2035 0.576257L28.38 1.04406ZM28.38 4.92406L28.5512 5.39384L28.88 5.27403L28.88 4.92406L28.38 4.92406ZM4.34 13.6841L4.16881 13.2143L2.87959 13.6841L4.16881 14.1538L4.34 13.6841ZM28.38 22.4441L28.88 22.4441L28.88 22.0941L28.5512 21.9743L28.38 22.4441ZM28.5565 25.8163L0.676517 15.2963L0.323482 16.2319L28.2035 26.7519L28.5565 25.8163ZM0.999999 15.7641L0.999999 11.5641L-5.05481e-07 11.5641L-6.89069e-07 15.7641L0.999999 15.7641ZM0.676517 12.0319L28.5565 1.51187L28.2035 0.576257L0.323482 11.0963L0.676517 12.0319ZM27.88 1.04406L27.88 4.92406L28.88 4.92406L28.88 1.04406L27.88 1.04406ZM28.2088 4.45428L4.16881 13.2143L4.51118 14.1538L28.5512 5.39384L28.2088 4.45428ZM4.16881 14.1538L28.2088 22.9138L28.5512 21.9743L4.51118 13.2143L4.16881 14.1538ZM27.88 22.4441L27.88 26.2841L28.88 26.2841L28.88 22.4441L27.88 22.4441ZM6.7 54.7553L6.86989 55.2256L7.2 55.1063L7.2 54.7553L6.7 54.7553ZM6.7 42.5953L7.2 42.5953L7.2 42.2443L6.86989 42.1251L6.7 42.5953ZM0.499998 40.3553L-1.76399e-06 40.3553L-1.77933e-06 40.7063L0.330101 40.8256L0.499998 40.3553ZM0.499998 36.5153L0.67087 36.0454L-1.56493e-06 35.8015L-1.59614e-06 36.5153L0.499998 36.5153ZM28.22 46.5953L28.72 46.5953L28.72 46.2451L28.3909 46.1254L28.22 46.5953ZM28.22 50.7953L28.3903 51.2654L28.72 51.146L28.72 50.7953L28.22 50.7953ZM0.499997 60.8353L-2.6592e-06 60.8353L-2.69036e-06 61.5482L0.67027 61.3054L0.499997 60.8353ZM0.499998 56.9953L0.330101 56.5251L-2.476e-06 56.6443L-2.49134e-06 56.9953L0.499998 56.9953ZM9.66 53.7153L9.16 53.7153L9.16 54.4254L9.82851 54.1861L9.66 53.7153ZM23.74 48.6753L23.9085 49.1461L25.2236 48.6753L23.9085 48.2046L23.74 48.6753ZM9.66 43.6353L9.82851 43.1646L9.16 42.9253L9.16 43.6353L9.66 43.6353ZM7.2 54.7553L7.2 42.5953L6.2 42.5953L6.2 54.7553L7.2 54.7553ZM6.86989 42.1251L0.669895 39.8851L0.330101 40.8256L6.5301 43.0656L6.86989 42.1251ZM0.999998 40.3553L0.999998 36.5153L-1.59614e-06 36.5153L-1.76399e-06 40.3553L0.999998 40.3553ZM0.329127 36.9852L28.0491 47.0652L28.3909 46.1254L0.67087 36.0454L0.329127 36.9852ZM27.72 46.5953L27.72 50.7953L28.72 50.7953L28.72 46.5953L27.72 46.5953ZM28.0497 50.3252L0.329725 60.3652L0.67027 61.3054L28.3903 51.2654L28.0497 50.3252ZM0.999997 60.8353L0.999998 56.9953L-2.49134e-06 56.9953L-2.6592e-06 60.8353L0.999997 60.8353ZM0.669894 57.4656L6.86989 55.2256L6.5301 54.2851L0.330101 56.5251L0.669894 57.4656ZM9.82851 54.1861L23.9085 49.1461L23.5715 48.2046L9.49149 53.2446L9.82851 54.1861ZM23.9085 48.2046L9.82851 43.1646L9.49149 44.1061L23.5715 49.1461L23.9085 48.2046ZM9.16 43.6353L9.16 53.7153L10.16 53.7153L10.16 43.6353L9.16 43.6353ZM0.499996 87.9084L0.248343 87.4764L-3.83004e-06 87.621L-3.8426e-06 87.9084L0.499996 87.9084ZM11.9 81.2684L12.1517 81.7005L12.4 81.5558L12.4 81.2684L11.9 81.2684ZM11.9 76.8684L12.4 76.8684L12.4 76.3684L11.9 76.3684L11.9 76.8684ZM0.499997 76.8684L-3.36003e-06 76.8684L-3.38188e-06 77.3684L0.499997 77.3684L0.499997 76.8684ZM0.499997 73.2284L0.499997 72.7284L-3.17906e-06 72.7284L-3.20092e-06 73.2284L0.499997 73.2284ZM28.38 73.2284L28.88 73.2284L28.88 72.7284L28.38 72.7284L28.38 73.2284ZM27.3 87.5484L26.8528 87.3248L26.8512 87.3281L27.3 87.5484ZM15.1 90.2284L15.4035 89.831L15.3988 89.8276L15.1 90.2284ZM12.18 85.2684L12.6686 85.1625L12.5209 84.4812L11.923 84.8396L12.18 85.2684ZM0.499996 92.2684L-4.03318e-06 92.2684L-4.07176e-06 93.151L0.757028 92.6973L0.499996 92.2684ZM14.82 76.8684L14.82 76.3684L14.32 76.3684L14.32 76.8684L14.82 76.8684ZM16.26 86.6684L15.9016 87.0171L15.9064 87.022L16.26 86.6684ZM24.02 86.6684L23.6565 86.3251L23.6518 86.3301L24.02 86.6684ZM25.38 76.8684L25.88 76.8684L25.88 76.3684L25.38 76.3684L25.38 76.8684ZM0.751649 88.3405L12.1517 81.7005L11.6483 80.8364L0.248343 87.4764L0.751649 88.3405ZM12.4 81.2684L12.4 76.8684L11.4 76.8684L11.4 81.2684L12.4 81.2684ZM11.9 76.3684L0.499997 76.3684L0.499997 77.3684L11.9 77.3684L11.9 76.3684ZM0.999997 76.8684L0.999997 73.2284L-3.20092e-06 73.2284L-3.36003e-06 76.8684L0.999997 76.8684ZM0.499997 73.7284L28.38 73.7284L28.38 72.7284L0.499997 72.7284L0.499997 73.7284ZM27.88 73.2284L27.88 82.2284L28.88 82.2284L28.88 73.2284L27.88 73.2284ZM27.88 82.2284C27.88 84.2805 27.5291 85.9723 26.8528 87.3248L27.7472 87.772C28.5109 86.2446 28.88 84.3897 28.88 82.2284L27.88 82.2284ZM26.8512 87.3281C26.1677 88.7203 25.257 89.7339 24.1269 90.3972L24.6331 91.2596C25.9563 90.483 26.9923 89.31 27.7488 87.7688L26.8512 87.3281ZM24.1269 90.3972C22.9849 91.0675 21.674 91.4084 20.18 91.4084L20.18 92.4084C21.8326 92.4084 23.3217 92.0294 24.6331 91.2596L24.1269 90.3972ZM20.18 91.4084C18.3649 91.4084 16.7792 90.8817 15.4035 89.8311L14.7965 90.6258C16.3541 91.8152 18.1551 92.4084 20.18 92.4084L20.18 91.4084ZM15.3988 89.8276C14.0505 88.8224 13.1294 87.287 12.6686 85.1625L11.6914 85.3744C12.1906 87.6766 13.2162 89.4478 14.8012 90.6293L15.3988 89.8276ZM11.923 84.8396L0.242964 91.8396L0.757028 92.6973L12.437 85.6973L11.923 84.8396ZM0.999996 92.2684L0.999996 87.9084L-3.8426e-06 87.9084L-4.03318e-06 92.2684L0.999996 92.2684ZM14.32 76.8684L14.32 82.2284L15.32 82.2284L15.32 76.8684L14.32 76.8684ZM14.32 82.2284C14.32 84.2755 14.8178 85.9032 15.9016 87.0171L16.6184 86.3198C15.7822 85.4603 15.32 84.1281 15.32 82.2284L14.32 82.2284ZM15.9064 87.022C17.0024 88.118 18.4445 88.6484 20.18 88.6484L20.18 87.6484C18.6622 87.6484 17.4909 87.1922 16.6136 86.3149L15.9064 87.022ZM20.18 88.6484C21.9381 88.6484 23.3654 88.1198 24.3882 87.0067L23.6518 86.3301C22.8613 87.1904 21.7286 87.6484 20.18 87.6484L20.18 88.6484ZM24.3835 87.0117C25.4137 85.921 25.88 84.292 25.88 82.2284L24.88 82.2284C24.88 84.1649 24.4396 85.4959 23.6565 86.3251L24.3835 87.0117ZM25.88 82.2284L25.88 76.8684L24.88 76.8684L24.88 82.2284L25.88 82.2284ZM25.38 76.3684L14.82 76.3684L14.82 77.3684L25.38 77.3684L25.38 76.3684ZM28.38 109.204L28.38 109.704L28.88 109.704L28.88 109.204L28.38 109.204ZM0.499995 109.204L-4.77347e-06 109.204L-4.79533e-06 109.704L0.499995 109.704L0.499995 109.204ZM0.499995 105.564L0.499995 105.064L-4.59251e-06 105.064L-4.61437e-06 105.564L0.499995 105.564ZM28.38 105.564L28.88 105.564L28.88 105.064L28.38 105.064L28.38 105.564ZM28.38 108.704L0.499995 108.704L0.499995 109.704L28.38 109.704L28.38 108.704ZM0.999995 109.204L0.999995 105.564L-4.61437e-06 105.564L-4.77347e-06 109.204L0.999995 109.204ZM0.499995 106.064L28.38 106.064L28.38 105.064L0.499995 105.064L0.499995 106.064ZM27.88 105.564L27.88 109.204L28.88 109.204L28.88 105.564L27.88 105.564ZM25.42 127.048L25.92 127.048L25.92 126.548L25.42 126.548L25.42 127.048ZM16.1 127.048L16.1 126.548L15.6 126.548L15.6 127.048L16.1 127.048ZM16.1 137.208L16.1 137.708L16.6 137.708L16.6 137.208L16.1 137.208ZM13.1 137.208L12.6 137.208L12.6 137.708L13.1 137.708L13.1 137.208ZM13.1 127.048L13.6 127.048L13.6 126.548L13.1 126.548L13.1 127.048ZM3.49999 127.048L3.49999 126.548L2.99999 126.548L2.99999 127.048L3.49999 127.048ZM3.49999 138.408L3.49999 138.908L3.99999 138.908L3.99999 138.408L3.49999 138.408ZM0.499994 138.408L-6.05001e-06 138.408L-6.07187e-06 138.908L0.499994 138.908L0.499994 138.408ZM0.499995 123.408L0.499995 122.908L-5.37248e-06 122.908L-5.39434e-06 123.408L0.499995 123.408ZM28.42 123.408L28.92 123.408L28.92 122.908L28.42 122.908L28.42 123.408ZM28.42 138.408L28.42 138.908L28.92 138.908L28.92 138.408L28.42 138.408ZM25.42 138.408L24.92 138.408L24.92 138.908L25.42 138.908L25.42 138.408ZM25.42 126.548L16.1 126.548L16.1 127.548L25.42 127.548L25.42 126.548ZM15.6 127.048L15.6 137.208L16.6 137.208L16.6 127.048L15.6 127.048ZM16.1 136.708L13.1 136.708L13.1 137.708L16.1 137.708L16.1 136.708ZM13.6 137.208L13.6 127.048L12.6 127.048L12.6 137.208L13.6 137.208ZM13.1 126.548L3.49999 126.548L3.49999 127.548L13.1 127.548L13.1 126.548ZM2.99999 127.048L2.99999 138.408L3.99999 138.408L3.99999 127.048L2.99999 127.048ZM3.49999 137.908L0.499994 137.908L0.499994 138.908L3.49999 138.908L3.49999 137.908ZM0.999994 138.408L0.999995 123.408L-5.39434e-06 123.408L-6.05001e-06 138.408L0.999994 138.408ZM0.499995 123.908L28.42 123.908L28.42 122.908L0.499995 122.908L0.499995 123.908ZM27.92 123.408L27.92 138.408L28.92 138.408L28.92 123.408L27.92 123.408ZM28.42 137.908L25.42 137.908L25.42 138.908L28.42 138.908L28.42 137.908ZM25.92 138.408L25.92 127.048L24.92 127.048L24.92 138.408L25.92 138.408ZM28.38 169.076L28.38 169.576L28.88 169.576L28.88 169.076L28.38 169.076ZM25.42 169.076L24.92 169.076L24.92 169.576L25.42 169.576L25.42 169.076ZM25.42 161.476L25.92 161.476L25.92 160.976L25.42 160.976L25.42 161.476ZM0.499993 161.476L-7.05834e-06 161.476L-7.08019e-06 161.976L0.499993 161.976L0.499993 161.476ZM0.499993 157.836L0.499993 157.336L-6.87737e-06 157.336L-6.89923e-06 157.836L0.499993 157.836ZM25.42 157.836L25.42 158.336L25.92 158.336L25.92 157.836L25.42 157.836ZM25.42 150.196L25.42 149.696L24.92 149.696L24.92 150.196L25.42 150.196ZM28.38 150.196L28.88 150.196L28.88 149.696L28.38 149.696L28.38 150.196ZM28.38 168.576L25.42 168.576L25.42 169.576L28.38 169.576L28.38 168.576ZM25.92 169.076L25.92 161.476L24.92 161.476L24.92 169.076L25.92 169.076ZM25.42 160.976L0.499993 160.976L0.499993 161.976L25.42 161.976L25.42 160.976ZM0.999993 161.476L0.999993 157.836L-6.89923e-06 157.836L-7.05834e-06 161.476L0.999993 161.476ZM0.499993 158.336L25.42 158.336L25.42 157.336L0.499993 157.336L0.499993 158.336ZM25.92 157.836L25.92 150.196L24.92 150.196L24.92 157.836L25.92 157.836ZM25.42 150.696L28.38 150.696L28.38 149.696L25.42 149.696L25.42 150.696ZM27.88 150.196L27.88 169.076L28.88 169.076L28.88 150.196L27.88 150.196ZM28.38 201.077L28.1483 201.52L28.88 201.902L28.88 201.077L28.38 201.077ZM11.02 191.997L11.2517 191.554L11.1429 191.497L11.02 191.497L11.02 191.997ZM0.499992 191.997L-8.39244e-06 191.997L-8.41429e-06 192.497L0.499992 192.497L0.499992 191.997ZM0.499992 188.357L0.499992 187.857L-8.21147e-06 187.857L-8.23333e-06 188.357L0.499992 188.357ZM11.02 188.357L11.02 188.857L11.1433 188.857L11.2525 188.799L11.02 188.357ZM28.38 179.237L28.88 179.237L28.88 178.409L28.1475 178.794L28.38 179.237ZM28.38 183.277L28.599 183.726L28.88 183.589L28.88 183.277L28.38 183.277ZM14.26 190.157L14.041 189.707L13.1185 190.157L14.041 190.606L14.26 190.157ZM28.38 197.037L28.88 197.037L28.88 196.724L28.599 196.587L28.38 197.037ZM28.6117 200.634L11.2517 191.554L10.7883 192.44L28.1483 201.52L28.6117 200.634ZM11.02 191.497L0.499992 191.497L0.499992 192.497L11.02 192.497L11.02 191.497ZM0.999992 191.997L0.999992 188.357L-8.23333e-06 188.357L-8.39244e-06 191.997L0.999992 191.997ZM0.499992 188.857L11.02 188.857L11.02 187.857L0.499992 187.857L0.499992 188.857ZM11.2525 188.799L28.6125 179.679L28.1475 178.794L10.7875 187.914L11.2525 188.799ZM27.88 179.237L27.88 183.277L28.88 183.277L28.88 179.237L27.88 179.237ZM28.161 182.827L14.041 189.707L14.479 190.606L28.599 183.726L28.161 182.827ZM14.041 190.606L28.161 197.486L28.599 196.587L14.479 189.707L14.041 190.606ZM27.88 197.037L27.88 201.077L28.88 201.077L28.88 197.037L27.88 197.037Z" fill="#93B6C7"/>
</svg>
