<svg width="30" height="177" viewBox="0 0 30 177" fill="none" xmlns="http://www.w3.org/2000/svg">
<path d="M0.499999 16.3683L0.230804 15.9469L-7.90931e-07 16.0944L-8.02903e-07 16.3683L0.499999 16.3683ZM12.02 9.00828L12.2892 9.42963L12.52 9.28217L12.52 9.00828L12.02 9.00828ZM12.02 5.04828L12.52 5.04828L12.52 4.54828L12.02 4.54828L12.02 5.04828ZM0.5 5.04828L-3.0809e-07 5.04828L-3.29946e-07 5.54828L0.5 5.54828L0.5 5.04828ZM0.5 1.40828L0.5 0.90828L-1.27125e-07 0.90828L-1.48981e-07 1.40828L0.5 1.40828ZM28.7 1.40828L29.2 1.40828L29.2 0.908281L28.7 0.908281L28.7 1.40828ZM26.38 17.8883L26.0205 17.5408L26.0175 17.5439L26.38 17.8883ZM14.74 18.3683L14.4008 18.7357L14.4044 18.7389L14.74 18.3683ZM12.14 12.8083L12.635 12.7376L12.5234 11.9563L11.8646 12.3909L12.14 12.8083ZM0.499999 20.4883L-9.82994e-07 20.4883L-1.0236e-06 21.4172L0.775359 20.9056L0.499999 20.4883ZM14.66 5.04828L14.66 4.54828L14.16 4.54828L14.16 5.04828L14.66 5.04828ZM25.54 5.04828L26.04 5.04828L26.04 4.54828L25.54 4.54828L25.54 5.04828ZM0.769195 16.7896L12.2892 9.42963L11.7508 8.58693L0.230804 15.9469L0.769195 16.7896ZM12.52 9.00828L12.52 5.04828L11.52 5.04828L11.52 9.00828L12.52 9.00828ZM12.02 4.54828L0.5 4.54828L0.5 5.54828L12.02 5.54828L12.02 4.54828ZM1 5.04828L1 1.40828L-1.48981e-07 1.40828L-3.0809e-07 5.04828L1 5.04828ZM0.5 1.90828L28.7 1.90828L28.7 0.908281L0.5 0.90828L0.5 1.90828ZM28.2 1.40828L28.2 10.6883L29.2 10.6883L29.2 1.40828L28.2 1.40828ZM28.2 10.6883C28.2 13.8154 27.4441 16.0681 26.0205 17.5408L26.7395 18.2358C28.4092 16.5085 29.2 13.9612 29.2 10.6883L28.2 10.6883ZM26.0175 17.5439C24.6062 19.0295 22.7185 19.7883 20.3 19.7883L20.3 20.7883C22.9482 20.7883 25.1138 19.947 26.7425 18.2327L26.0175 17.5439ZM20.3 19.7883C18.1042 19.7883 16.3791 19.1782 15.0756 17.9977L14.4044 18.7389C15.9276 20.1184 17.9091 20.7883 20.3 20.7883L20.3 19.7883ZM15.0791 18.0009C13.7995 16.8196 12.9703 15.0848 12.635 12.7376L11.645 12.879C12.003 15.3851 12.9072 17.3569 14.4009 18.7357L15.0791 18.0009ZM11.8646 12.3909L0.224639 20.0709L0.775359 20.9056L12.4154 13.2256L11.8646 12.3909ZM0.999999 20.4883L0.999999 16.3683L-8.02903e-07 16.3683L-9.82994e-07 20.4883L0.999999 20.4883ZM14.16 5.04828L14.16 10.3683L15.16 10.3683L15.16 5.04828L14.16 5.04828ZM14.16 10.3683C14.16 12.4971 14.6256 14.1871 15.6442 15.348C16.6737 16.5214 18.1914 17.0683 20.1 17.0683L20.1 16.0683C18.382 16.0683 17.1796 15.5818 16.3958 14.6885C15.6011 13.7828 15.16 12.3728 15.16 10.3683L14.16 10.3683ZM20.1 17.0683C22.0086 17.0683 23.5263 16.5214 24.5558 15.348C25.5744 14.1871 26.04 12.4971 26.04 10.3683L25.04 10.3683C25.04 12.3728 24.5989 13.7828 23.8042 14.6885C23.0204 15.5818 21.818 16.0683 20.1 16.0683L20.1 17.0683ZM26.04 10.3683L26.04 5.04828L25.04 5.04828L25.04 10.3683L26.04 10.3683ZM25.54 4.54828L14.66 4.54828L14.66 5.54828L25.54 5.54828L25.54 4.54828ZM25.74 36.3686L26.24 36.3686L26.24 35.8686L25.74 35.8686L25.74 36.3686ZM16.1 36.3686L16.1 35.8686L15.6 35.8686L15.6 36.3686L16.1 36.3686ZM16.1 47.0886L16.1 47.5886L16.6 47.5886L16.6 47.0886L16.1 47.0886ZM13.3 47.0886L12.8 47.0886L12.8 47.5886L13.3 47.5886L13.3 47.0886ZM13.3 36.3686L13.8 36.3686L13.8 35.8686L13.3 35.8686L13.3 36.3686ZM3.46 36.3686L3.46 35.8686L2.96 35.8686L2.96 36.3686L3.46 36.3686ZM3.46 48.2886L3.46 48.7886L3.96 48.7886L3.96 48.2886L3.46 48.2886ZM0.499998 48.2886L-2.19818e-06 48.2886L-2.22004e-06 48.7886L0.499998 48.7886L0.499998 48.2886ZM0.499998 32.7286L0.499999 32.2286L-1.49618e-06 32.2286L-1.51804e-06 32.7286L0.499998 32.7286ZM28.7 32.7286L29.2 32.7286L29.2 32.2286L28.7 32.2286L28.7 32.7286ZM28.7 48.2886L28.7 48.7886L29.2 48.7886L29.2 48.2886L28.7 48.2886ZM25.74 48.2886L25.24 48.2886L25.24 48.7886L25.74 48.7886L25.74 48.2886ZM25.74 35.8686L16.1 35.8686L16.1 36.8686L25.74 36.8686L25.74 35.8686ZM15.6 36.3686L15.6 47.0886L16.6 47.0886L16.6 36.3686L15.6 36.3686ZM16.1 46.5886L13.3 46.5886L13.3 47.5886L16.1 47.5886L16.1 46.5886ZM13.8 47.0886L13.8 36.3686L12.8 36.3686L12.8 47.0886L13.8 47.0886ZM13.3 35.8686L3.46 35.8686L3.46 36.8686L13.3 36.8686L13.3 35.8686ZM2.96 36.3686L2.96 48.2886L3.96 48.2886L3.96 36.3686L2.96 36.3686ZM3.46 47.7886L0.499998 47.7886L0.499998 48.7886L3.46 48.7886L3.46 47.7886ZM0.999998 48.2886L0.999998 32.7286L-1.51804e-06 32.7286L-2.19818e-06 48.2886L0.999998 48.2886ZM0.499998 33.2286L28.7 33.2286L28.7 32.2286L0.499999 32.2286L0.499998 33.2286ZM28.2 32.7286L28.2 48.2886L29.2 48.2886L29.2 32.7286L28.2 32.7286ZM28.7 47.7886L25.74 47.7886L25.74 48.7886L28.7 48.7886L28.7 47.7886ZM26.24 48.2886L26.24 36.3686L25.24 36.3686L25.24 48.2886L26.24 48.2886ZM28.7 62.803L28.8677 63.274L29.2 63.1557L29.2 62.803L28.7 62.803ZM4.54 71.403L4.37232 70.9319L3.05817 71.3997L4.37025 71.8733L4.54 71.403ZM28.7 80.123L29.2 80.123L29.2 79.7719L28.8697 79.6527L28.7 80.123ZM28.7 84.083L28.5276 84.5523L29.2 84.7993L29.2 84.083L28.7 84.083ZM0.499997 73.723L-3.30996e-06 73.723L-3.32521e-06 74.072L0.327576 74.1923L0.499997 73.723ZM0.499997 69.123L0.328164 68.6534L-3.09361e-06 68.7735L-3.10888e-06 69.123L0.499997 69.123ZM28.7 58.803L29.2 58.803L29.2 58.0876L28.5282 58.3334L28.7 58.803ZM28.5323 62.3319L4.37232 70.9319L4.70767 71.874L28.8677 63.274L28.5323 62.3319ZM4.37025 71.8733L28.5303 80.5933L28.8697 79.6527L4.70974 70.9327L4.37025 71.8733ZM28.2 80.123L28.2 84.083L29.2 84.083L29.2 80.123L28.2 80.123ZM28.8724 83.6136L0.672417 73.2536L0.327576 74.1923L28.5276 84.5523L28.8724 83.6136ZM0.999997 73.723L0.999997 69.123L-3.10888e-06 69.123L-3.30996e-06 73.723L0.999997 73.723ZM0.67183 69.5925L28.8718 59.2725L28.5282 58.3334L0.328164 68.6534L0.67183 69.5925ZM28.2 58.803L28.2 62.803L29.2 62.803L29.2 58.803L28.2 58.803ZM28.7 99.3998L28.7 99.8998L29.2 99.8998L29.2 99.3998L28.7 99.3998ZM0.499996 99.3998L-4.43233e-06 99.3998L-4.45418e-06 99.8998L0.499996 99.8998L0.499996 99.3998ZM0.499996 95.7598L0.499996 95.2598L-4.25136e-06 95.2598L-4.27322e-06 95.7598L0.499996 95.7598ZM28.7 95.7598L29.2 95.7598L29.2 95.2598L28.7 95.2598L28.7 95.7598ZM28.7 98.8998L0.499996 98.8998L0.499996 99.8998L28.7 99.8998L28.7 98.8998ZM0.999996 99.3998L0.999996 95.7598L-4.27322e-06 95.7598L-4.43233e-06 99.3998L0.999996 99.3998ZM0.499996 96.2598L28.7 96.2598L28.7 95.2598L0.499996 95.2598L0.499996 96.2598ZM28.2 95.7598L28.2 99.3998L29.2 99.3998L29.2 95.7598L28.2 95.7598ZM25.74 116.892L26.24 116.892L26.24 116.392L25.74 116.392L25.74 116.892ZM16.1 116.892L16.1 116.392L15.6 116.392L15.6 116.892L16.1 116.892ZM16.1 127.612L16.1 128.112L16.6 128.112L16.6 127.612L16.1 127.612ZM13.3 127.612L12.8 127.612L12.8 128.112L13.3 128.112L13.3 127.612ZM13.3 116.892L13.8 116.892L13.8 116.392L13.3 116.392L13.3 116.892ZM3.45999 116.892L3.45999 116.392L2.95999 116.392L2.95999 116.892L3.45999 116.892ZM3.45999 128.812L3.45999 129.312L3.95999 129.312L3.95999 128.812L3.45999 128.812ZM0.499994 128.812L-5.71798e-06 128.812L-5.73983e-06 129.312L0.499994 129.312L0.499994 128.812ZM0.499995 113.252L0.499995 112.752L-5.01597e-06 112.752L-5.03783e-06 113.252L0.499995 113.252ZM28.7 113.252L29.2 113.252L29.2 112.752L28.7 112.752L28.7 113.252ZM28.7 128.812L28.7 129.312L29.2 129.312L29.2 128.812L28.7 128.812ZM25.74 128.812L25.24 128.812L25.24 129.312L25.74 129.312L25.74 128.812ZM25.74 116.392L16.1 116.392L16.1 117.392L25.74 117.392L25.74 116.392ZM15.6 116.892L15.6 127.612L16.6 127.612L16.6 116.892L15.6 116.892ZM16.1 127.112L13.3 127.112L13.3 128.112L16.1 128.112L16.1 127.112ZM13.8 127.612L13.8 116.892L12.8 116.892L12.8 127.612L13.8 127.612ZM13.3 116.392L3.45999 116.392L3.45999 117.392L13.3 117.392L13.3 116.392ZM2.95999 116.892L2.95999 128.812L3.95999 128.812L3.95999 116.892L2.95999 116.892ZM3.45999 128.312L0.499994 128.312L0.499994 129.312L3.45999 129.312L3.45999 128.312ZM0.999994 128.812L0.999995 113.252L-5.03783e-06 113.252L-5.71798e-06 128.812L0.999994 128.812ZM0.499995 113.752L28.7 113.752L28.7 112.752L0.499995 112.752L0.499995 113.752ZM28.2 113.252L28.2 128.812L29.2 128.812L29.2 113.252L28.2 113.252ZM28.7 128.312L25.74 128.312L25.74 129.312L28.7 129.312L28.7 128.312ZM26.24 128.812L26.24 116.892L25.24 116.892L25.24 128.812L26.24 128.812ZM28.7 176.166L28.5769 176.651L29.2 176.809L29.2 176.166L28.7 176.166ZM0.499993 169.006L-7.47493e-06 169.006L-7.49193e-06 169.395L0.376946 169.491L0.499993 169.006ZM0.499993 164.566L0.363846 164.085L-7.26432e-06 164.188L-7.28085e-06 164.566L0.499993 164.566ZM23.54 158.046L23.6761 158.528L25.3762 158.046L23.6761 157.565L23.54 158.046ZM0.499993 151.526L-6.71085e-06 151.526L-6.72738e-06 151.905L0.363847 152.008L0.499993 151.526ZM0.499993 147.086L0.376302 146.602L-6.4998e-06 146.698L-6.51677e-06 147.086L0.499993 147.086ZM28.7 139.886L29.2 139.886L29.2 139.243L28.5763 139.402L28.7 139.886ZM28.7 143.926L28.8099 144.414L29.2 144.326L29.2 143.926L28.7 143.926ZM4.74 149.326L4.63006 148.839L4.60571 149.808L4.74 149.326ZM28.7 156.006L29.2 156.006L29.2 155.627L28.8343 155.525L28.7 156.006ZM28.7 160.046L28.8347 160.528L29.2 160.426L29.2 160.046L28.7 160.046ZM4.81999 166.726L4.6853 166.245L4.70894 167.214L4.81999 166.726ZM28.7 172.166L29.2 172.166L29.2 171.768L28.8111 171.679L28.7 172.166ZM28.823 175.682L0.623039 168.522L0.376946 169.491L28.5769 176.651L28.823 175.682ZM0.999993 169.006L0.999993 164.566L-7.28085e-06 164.566L-7.47493e-06 169.006L0.999993 169.006ZM0.636139 165.048L23.6761 158.528L23.4038 157.565L0.363846 164.085L0.636139 165.048ZM23.6761 157.565L0.63614 151.045L0.363847 152.008L23.4038 158.528L23.6761 157.565ZM0.999993 151.526L0.999993 147.086L-6.51677e-06 147.086L-6.71085e-06 151.526L0.999993 151.526ZM0.623685 147.571L28.8237 140.371L28.5763 139.402L0.376302 146.602L0.623685 147.571ZM28.2 139.886L28.2 143.926L29.2 143.926L29.2 139.886L28.2 139.886ZM28.5901 143.439L4.63006 148.839L4.84992 149.814L28.8099 144.414L28.5901 143.439ZM4.60571 149.808L28.5657 156.488L28.8343 155.525L4.87427 148.845L4.60571 149.808ZM28.2 156.006L28.2 160.046L29.2 160.046L29.2 156.006L28.2 156.006ZM28.5653 159.565L4.6853 166.245L4.95469 167.208L28.8347 160.528L28.5653 159.565ZM4.70894 167.214L28.5889 172.654L28.8111 171.679L4.93105 166.239L4.70894 167.214ZM28.2 172.166L28.2 176.166L29.2 176.166L29.2 172.166L28.2 172.166Z" fill="#93B6C7"/>
</svg>
